<svg width="32" height="32" viewBox="0 0 32 32" fill="none" xmlns="http://www.w3.org/2000/svg">
<rect width="32" height="32" rx="5" fill="#111111"/>
<path d="M12.276 22.468C11.472 22.468 10.902 22.24 10.566 21.784C10.242 21.316 10.08 20.614 10.08 19.678C10.08 19.078 10.176 18.178 10.368 16.978C10.572 15.766 10.854 14.164 11.214 12.172L10.26 10.246C10.824 9.886 11.424 9.58 12.06 9.328C12.696 9.064 13.332 8.932 13.968 8.932C14.532 8.932 14.904 9.1 15.084 9.436C15.264 9.772 15.354 10.168 15.354 10.624C15.354 10.828 15.312 11.164 15.228 11.632C15.156 12.088 15.06 12.616 14.94 13.216C14.832 13.816 14.718 14.428 14.598 15.052L15.444 14.35C16.164 13.75 16.782 13.132 17.298 12.496C17.814 11.86 18.072 11.23 18.072 10.606C18.072 10.294 18.024 10.012 17.928 9.76C18.816 9.22 19.656 8.95 20.448 8.95C21.084 8.95 21.534 9.118 21.798 9.454C22.074 9.778 22.212 10.21 22.212 10.75C22.212 11.338 21.936 11.98 21.384 12.676C20.844 13.372 19.926 14.092 18.63 14.836C18.834 15.484 19.062 16.15 19.314 16.834C19.578 17.506 19.866 18.148 20.178 18.76C20.49 19.372 20.82 19.918 21.168 20.398C21.516 20.866 21.876 21.22 22.248 21.46C22.08 21.64 21.84 21.808 21.528 21.964C21.228 22.108 20.91 22.222 20.574 22.306C20.25 22.402 19.95 22.45 19.674 22.45C19.158 22.45 18.702 22.366 18.306 22.198C17.91 22.03 17.556 21.736 17.244 21.316C16.944 20.884 16.656 20.278 16.38 19.498L15.336 16.564L14.22 17.158C14.148 17.578 14.088 17.956 14.04 18.292C13.992 18.616 13.968 18.868 13.968 19.048C13.968 19.66 14.01 20.176 14.094 20.596C14.19 21.016 14.328 21.37 14.508 21.658C13.788 22.198 13.044 22.468 12.276 22.468Z" fill="white"/>
</svg>
