<svg width="30" height="30" viewBox="0 0 30 30" fill="none" xmlns="http://www.w3.org/2000/svg">
<g clip-path="url(#clip0_198_12)">
<path d="M30 0H0V30H30V0Z" fill="#F8F8F8"/>
<mask id="mask0_198_12" style="mask-type:luminance" maskUnits="userSpaceOnUse" x="7" y="7" width="17" height="17">
<path d="M23.25 7.5H7.5V23.25H23.25V7.5Z" fill="white"/>
</mask>
<g mask="url(#mask0_198_12)">
<path d="M23.0964 15.5565C23.0964 15.0211 23.053 14.4829 22.9605 13.9563H15.5325V16.9888H19.7861C19.6096 17.9668 19.0425 18.832 18.212 19.3819V21.3495H20.7497C22.2399 19.978 23.0964 17.9524 23.0964 15.5565Z" fill="#4285F4"/>
<path d="M15.5324 23.2504C17.6564 23.2504 19.4475 22.5531 20.7525 21.3493L18.2148 19.3817C17.5088 19.862 16.5973 20.134 15.5353 20.134C13.4808 20.134 11.7389 18.748 11.1138 16.8845H8.49512V18.9129C9.83199 21.5722 12.5549 23.2504 15.5324 23.2504Z" fill="#34A853"/>
<path d="M11.111 16.8846C10.7811 15.9066 10.7811 14.8475 11.111 13.8694V11.8411H8.4952C7.37823 14.0662 7.37823 16.6879 8.4952 18.913L11.111 16.8846Z" fill="#FBBC04"/>
<path d="M15.5324 10.617C16.6551 10.5996 17.7402 11.0221 18.5534 11.7976L20.8017 9.54923C19.3781 8.21236 17.4885 7.47739 15.5324 7.50053C12.5549 7.50053 9.83199 9.17881 8.49512 11.841L11.111 13.8694C11.7331 12.003 13.478 10.617 15.5324 10.617Z" fill="#EA4335"/>
</g>
</g>
<defs>
<clipPath id="clip0_198_12">
<rect width="30" height="30" fill="white"/>
</clipPath>
</defs>
</svg>
