<svg xmlns="http://www.w3.org/2000/svg" width="114" height="17" fill="none"><path fill="#111" d="M.168.736h3.096v7.9l8.056-7.9h3.965l-7.52 7.285L15.286 16h-4.12l-5.626-5.82-2.275 2.197V16H.168zM13.91 8.324q0-1.728.635-3.164a7.15 7.15 0 0 1 1.777-2.46q1.153-1.036 2.754-1.602Q20.686.53 22.641.53q1.943 0 3.554.567 1.612.566 2.754 1.601a7.1 7.1 0 0 1 1.787 2.461q.635 1.436.635 3.164 0 1.739-.635 3.194a7.3 7.3 0 0 1-1.787 2.49q-1.143 1.044-2.754 1.63-1.611.577-3.554.577-1.953 0-3.565-.576-1.601-.587-2.754-1.631a7.3 7.3 0 0 1-1.777-2.49q-.635-1.455-.635-3.194m3.096 0q0 1.182.42 2.13.43.946 1.181 1.62a5.4 5.4 0 0 0 1.788 1.026 6.8 6.8 0 0 0 2.246.36q1.21 0 2.236-.36a5.3 5.3 0 0 0 1.787-1.026q.752-.674 1.182-1.62.43-.948.43-2.13t-.43-2.119a4.55 4.55 0 0 0-1.182-1.582 5.1 5.1 0 0 0-1.787-.996 7 7 0 0 0-2.236-.342q-1.212 0-2.246.342-1.026.342-1.788.996a4.55 4.55 0 0 0-1.181 1.582q-.42.937-.42 2.12M32.789.736h3.096l9.512 4.98V.737h3.095V16h-3.095V8.998l-9.512-4.951V16h-3.096zm18 0h3.096l9.512 4.98V.737h3.095V16h-3.096V8.998l-9.511-4.951V16h-3.096zm18.02 0h12.998v2.715h-9.903v3.047h8.77v2.549h-8.77v4.248h10.108V16H68.809zm13.713 7.54q0-1.631.615-3.038a7 7 0 0 1 1.777-2.45q1.172-1.046 2.852-1.642 1.69-.595 3.818-.595 1.865 0 3.418.38 1.563.372 2.9 1.143l-1.425 2.344a5 5 0 0 0-.928-.469 8 8 0 0 0-1.114-.342q-.585-.146-1.22-.224a10 10 0 0 0-1.24-.078q-1.485 0-2.647.37-1.162.362-1.963 1.026-.79.654-1.21 1.572a4.8 4.8 0 0 0-.41 2.002q0 1.134.429 2.08.43.948 1.24 1.641.82.684 1.992 1.074 1.182.381 2.666.381.674 0 1.338-.098.665-.097 1.28-.263a11 11 0 0 0 1.2-.41q.577-.244 1.075-.528l1.426 2.344q-1.25.801-2.891 1.26-1.641.45-3.486.45-2.354 0-4.131-.606-1.778-.615-2.969-1.68a7 7 0 0 1-1.797-2.52 8.2 8.2 0 0 1-.596-3.125m21.886-4.825h-5.635V.736h14.366v2.715h-5.635V16h-3.096z"/></svg>