<svg xmlns="http://www.w3.org/2000/svg" width="30" height="30" fill="none"><g clip-path="url(#a)"><path  d="M30 0H0v30h30z"/><mask id="b" width="17" height="17" x="7" y="7" maskUnits="userSpaceOnUse" style="mask-type:luminance"><path fill="#fff" d="M23.25 7.5H7.5v15.75h15.75z"/></mask><g mask="url(#b)"><path fill="#4285F4" d="M23.096 15.557a9.3 9.3 0 0 0-.136-1.6h-7.427v3.032h4.253a3.65 3.65 0 0 1-1.574 2.393v1.967h2.538c1.49-1.371 2.346-3.397 2.346-5.792"/><path fill="#34A853" d="M15.532 23.25c2.124 0 3.916-.697 5.22-1.9l-2.537-1.968c-.706.48-1.618.752-2.68.752-2.054 0-3.796-1.386-4.421-3.25H8.495v2.029a7.88 7.88 0 0 0 7.037 4.337"/><path fill="#FBBC04" d="M11.111 16.885a4.7 4.7 0 0 1 0-3.016v-2.028H8.495a7.88 7.88 0 0 0 0 7.072z"/><path fill="#EA4335" d="M15.532 10.617a4.28 4.28 0 0 1 3.021 1.18l2.249-2.248a7.57 7.57 0 0 0-5.27-2.048 7.87 7.87 0 0 0-7.037 4.34l2.616 2.028c.622-1.866 2.367-3.252 4.421-3.252"/></g></g><defs><clipPath id="a"><path fill="#fff" d="M0 0h30v30H0z"/></clipPath></defs></svg>