<svg xmlns="http://www.w3.org/2000/svg" width="30" height="30" fill="none"><g clip-path="url(#a)"><path  d="M30 0H0v30h30z"/><path fill="#392020" d="M15.18 7.5c-4.666 0-8.43 3.01-8.43 6.666 0 2.373 1.566 4.45 3.914 5.636l-.795 2.969a.25.25 0 0 0 .06.259c.049.043.11.066.175.066a.25.25 0 0 0 .145-.06l3.42-2.306q.758.104 1.523.108c4.661 0 8.43-3.01 8.43-6.672S19.843 7.5 15.18 7.5"/><path  d="M9.7 13.112h-.92a.6.6 0 0 1-.326-.084.37.37 0 0 1-.169-.247.5.5 0 0 1 0-.096.37.37 0 0 1 .145-.314.6.6 0 0 1 .361-.114h2.776a.56.56 0 0 1 .325.09.35.35 0 0 1 .169.247.5.5 0 0 1 0 .09.39.39 0 0 1-.145.32.55.55 0 0 1-.355.108h-.891v3.167a.49.49 0 0 1-.139.368.46.46 0 0 1-.349.138.5.5 0 0 1-.313-.102.45.45 0 0 1-.162-.271.5.5 0 0 1 0-.133zM12.327 12.492a.42.42 0 0 1 .174-.241.56.56 0 0 1 .301-.072h.23a.6.6 0 0 1 .318.078c.103.07.176.175.205.295l1.204 3.402q.048.135.079.271a1 1 0 0 1 0 .115.4.4 0 0 1-.133.313.44.44 0 0 1-.325.132.416.416 0 0 1-.434-.277l-.252-.74H12.11l-.253.74a.41.41 0 0 1-.44.277.416.416 0 0 1-.434-.343.6.6 0 0 1 0-.102.5.5 0 0 1 0-.18c0-.067.043-.14.067-.206zm.602.789-.572 1.806h1.138zM14.976 12.685a.51.51 0 0 1 .132-.367.47.47 0 0 1 .355-.139.5.5 0 0 1 .314.102c.083.071.139.17.156.277a.5.5 0 0 1 0 .127v3.167h1.656a.6.6 0 0 1 .325.09.37.37 0 0 1 .169.247v.09a.37.37 0 0 1-.145.314.6.6 0 0 1-.361.114h-2.035a.6.6 0 0 1-.368-.096.46.46 0 0 1-.18-.301 2 2 0 0 1 0-.199zM18.191 12.685a.54.54 0 0 1 .133-.368.53.53 0 0 1 .668-.036c.086.07.143.168.163.277a1 1 0 0 1 0 .127v1.475l1.523-1.758q.088-.09.187-.169a.4.4 0 0 1 .205-.054c.105 0 .208.03.295.09a.37.37 0 0 1 .156.241.1.1 0 0 1 0 .036.1.1 0 0 0 0 .042.4.4 0 0 1-.048.181 1 1 0 0 1-.114.162l-1 1.097 1.204 1.866v.06q.095.13.145.284v.03a.43.43 0 0 1-.15.373.57.57 0 0 1-.35.114.5.5 0 0 1-.24-.054.6.6 0 0 1-.194-.21l-1.12-1.807-.535.56v1.006a.54.54 0 0 1-.133.367.49.49 0 0 1-.361.138.48.48 0 0 1-.307-.102.45.45 0 0 1-.163-.271.5.5 0 0 1 0-.133z"/></g><defs><clipPath id="a"><path fill="#fff" d="M0 0h30v30H0z"/></clipPath></defs></svg>