<svg width="109" height="20" viewBox="0 0 109 20" fill="none" xmlns="http://www.w3.org/2000/svg">
<path d="M17.0878 4.37688C17.669 4.67305 18.0134 5.02345 18.2765 5.61279C18.4388 6.60192 18.3339 7.24534 17.7572 8.05999C17.1715 8.78182 16.5 9.42202 15.8358 10.0708C15.6858 10.2188 15.5358 10.3669 15.386 10.5152C15.0223 10.8745 14.6574 11.2326 14.2917 11.59C14.51 12.1627 14.9464 12.5343 15.3782 12.9494C15.5445 13.1122 15.7107 13.2752 15.8768 13.4381C16.1381 13.6928 16.3997 13.947 16.662 14.2004C16.916 14.4463 17.1683 14.6939 17.4204 14.9417C17.4982 15.016 17.576 15.0902 17.6561 15.1666C18.3003 15.8029 18.805 16.5081 18.8742 17.4343C18.8386 18.038 18.6302 18.5404 18.2765 19.0282C17.6354 19.5385 17.1403 19.701 16.3277 19.7489C15.3044 19.5618 14.7044 18.7805 14.0629 18.0341C11.8298 15.2546 11.8298 15.2546 8.72605 13.8815C7.43458 13.8559 6.23205 14.1082 5.12674 14.7778C4.44715 15.4385 4.40953 16.1393 4.37959 17.0441C4.37909 17.1461 4.37858 17.2481 4.37807 17.3532C4.36855 18.1364 4.26585 18.7814 3.72739 19.3925C2.97209 19.9527 2.47895 20.079 1.54043 19.958C0.859417 19.6836 0.496251 19.1967 0.188305 18.5506C-0.0207147 17.9381 -0.00458096 17.3201 0.00463168 16.6789C0.00599075 16.5375 0.00734982 16.3962 0.00875007 16.2505C0.05337 14.5953 0.527625 13.3438 1.67326 12.1213C1.75082 12.0382 1.82839 11.9552 1.9083 11.8696C2.99915 10.8155 4.42854 10.2455 5.93407 10.2477C6.08834 10.2457 6.24261 10.2438 6.40156 10.2417C6.72288 10.2385 7.04425 10.2377 7.36558 10.2397C7.52054 10.2368 7.67549 10.234 7.83514 10.2311C8.04478 10.2303 8.04478 10.2303 8.25866 10.2294C9.38731 9.97966 10.2003 9.09264 10.9758 8.28488C11.1728 8.08407 11.3699 7.88327 11.567 7.68249C11.8719 7.36927 12.1764 7.05561 12.4806 6.74162C12.7776 6.4358 13.0762 6.13165 13.3749 5.82759C13.5092 5.68728 13.5092 5.68728 13.6463 5.54413C14.5953 4.58054 15.709 3.90938 17.0878 4.37688Z" fill="#3556F3"/>
<path d="M46.8663 8.0131C48.0472 8.83939 48.9347 10.308 49.225 11.7229C49.3884 13.8839 49.17 15.6353 47.7681 17.3571C46.6751 18.5391 45.217 19.2525 43.6022 19.3386C41.6427 19.3782 40.0955 18.9268 38.5942 17.5927C37.231 16.1516 36.7985 14.417 36.8312 12.4903C36.9619 10.8902 37.7451 9.44774 38.9061 8.35243C41.2354 6.41597 44.3689 6.47376 46.8663 8.0131Z" fill="#3454F3"/>
<path d="M44.5662 9.95248C45.3418 10.4491 45.7275 11.1349 46.0372 11.9885C46.1702 13.1638 46.1786 14.4244 45.5059 15.4419C44.9378 16.0764 44.3445 16.5754 43.4808 16.6701C42.6666 16.711 42.0517 16.5912 41.3883 16.1061C40.4766 15.2709 40.0836 14.2579 40.0185 13.0345C40.0349 12.0472 40.352 11.1198 41.0313 10.3945C42.1012 9.44732 43.3065 9.3281 44.5662 9.95248Z" fill="var(--background)"/>
<path d="M83.7437 7.30633C83.8366 7.36112 83.9296 7.41591 84.0254 7.47236C84.1751 7.55455 84.1751 7.55455 84.3279 7.6384C85.9333 8.60442 86.8694 10.1004 87.3959 11.8722C87.4789 12.3869 87.4789 12.3869 87.4789 13.848C84.4983 13.848 81.5176 13.848 78.4467 13.848C79.0408 15.6124 79.0408 15.6124 80.3773 16.6726C81.3362 16.9583 82.2876 16.8925 83.1869 16.463C83.6075 16.2338 83.7525 16.1169 84.0254 15.7076C84.336 15.6623 84.336 15.6623 84.7196 15.6687C84.9251 15.6706 84.9251 15.6706 85.1347 15.6726C85.3499 15.6776 85.3499 15.6776 85.5695 15.6827C85.714 15.6845 85.8585 15.6863 86.0074 15.6881C86.3651 15.6928 86.7227 15.6994 87.0804 15.7076C86.6981 16.9949 85.8172 17.9238 84.6895 18.6298C83.088 19.415 80.9534 19.6607 79.2354 19.0946C77.4364 18.2882 76.2356 16.9712 75.5126 15.1576C74.9814 13.4888 75.2291 11.8683 75.9562 10.3027C77.3955 7.68987 80.8522 5.86312 83.7437 7.30633Z" fill="#3454F3"/>
<path d="M26.246 2.15942C27.2542 2.15942 28.2623 2.15942 29.301 2.15942C29.3449 5.35921 29.3887 8.55899 29.4339 11.8557C30.4703 10.7373 30.4703 10.7373 31.4927 9.60599C31.5659 9.52671 31.6392 9.44744 31.7147 9.36576C31.9215 9.11083 32.0764 8.86982 32.2419 8.58852C32.6051 8.02236 32.9463 7.52829 33.5515 7.20682C34.7276 6.97512 35.9524 7.09172 37.1378 7.20682C36.6097 7.94138 36.0442 8.61208 35.4193 9.26562C35.2546 9.44002 35.0899 9.61453 34.9254 9.78914C34.848 9.87118 34.7706 9.95322 34.6909 10.0377C34.37 10.3807 34.0599 10.7319 33.7554 11.0894C33.6029 11.2651 33.4453 11.4363 33.2853 11.6051C33.1978 11.6988 33.1103 11.7924 33.0202 11.8889C32.9407 11.9718 32.8613 12.0547 32.7794 12.1401C32.5939 12.373 32.5939 12.373 32.651 12.6302C32.7784 12.9848 32.9592 13.2267 33.1903 13.5244C33.2797 13.6404 33.3691 13.7564 33.4612 13.8759C33.5567 13.9982 33.6523 14.1206 33.7507 14.2466C33.946 14.4996 34.1413 14.7526 34.3365 15.0057C34.4778 15.188 34.4778 15.188 34.6219 15.374C35.0219 15.8917 35.4134 16.4154 35.8043 16.94C36.0055 17.2086 36.2082 17.4758 36.4124 17.7421C36.4684 17.8156 36.5244 17.889 36.5821 17.9647C36.738 18.1691 36.8946 18.373 37.0511 18.5769C37.2706 18.8955 37.2706 18.8955 37.2706 19.1612C34.2317 19.3976 34.2317 19.3976 33.3777 18.9106C33.073 18.5253 32.8528 18.1335 32.6217 17.7001C32.3724 17.3458 32.1061 17.0051 31.8413 16.6624C31.7063 16.4817 31.5716 16.3008 31.4371 16.1197C31.0342 15.5807 30.6221 15.0494 30.2059 14.5206C30.1435 14.4412 30.0811 14.3619 30.0169 14.2802C29.7388 13.9197 29.7388 13.9197 29.4339 13.5825C29.39 15.4234 29.3462 17.2644 29.301 19.1612C28.2929 19.1612 27.2847 19.1612 26.246 19.1612C26.246 13.5506 26.246 7.94002 26.246 2.15942Z" fill="#3354F3"/>
<path d="M60.0171 7.75463C60.9757 8.75681 61.4806 9.89858 61.4751 11.2926C61.4751 11.4654 61.4751 11.6382 61.4751 11.8162C61.4737 12.0021 61.4723 12.1881 61.4709 12.374C61.4704 12.5662 61.47 12.7584 61.4698 12.9507C61.4688 13.454 61.4662 13.9573 61.4632 14.4606C61.4605 14.9753 61.4593 15.49 61.4579 16.0046C61.4551 17.0125 61.4504 18.0204 61.445 19.0282C60.4368 19.0282 59.4287 19.0282 58.39 19.0282C58.388 18.8031 58.3861 18.5779 58.3841 18.3459C58.3772 17.5999 58.3685 16.854 58.3587 16.1081C58.3527 15.6561 58.3475 15.204 58.3439 14.752C58.3398 14.2317 58.3325 13.7114 58.3251 13.1912C58.3243 13.0297 58.3234 12.8682 58.3225 12.7018C58.306 11.7466 58.2679 11.0584 57.5515 10.3613C56.8777 9.92259 56.2685 9.78041 55.4678 9.86324C54.6951 10.1184 54.263 10.46 53.8739 11.1915C53.7367 11.603 53.7204 11.8985 53.7138 12.3302C53.7111 12.4818 53.7085 12.6333 53.7057 12.7895C53.7035 12.953 53.7013 13.1166 53.699 13.2851C53.6963 13.4526 53.6935 13.62 53.6907 13.7926C53.6834 14.2374 53.6768 14.6822 53.6704 15.127C53.6637 15.5811 53.6563 16.0352 53.649 16.4892C53.6347 17.3798 53.6213 18.2705 53.6082 19.1611C52.6001 19.1611 51.5919 19.1611 50.5532 19.1611C50.5532 15.2161 50.5532 11.2712 50.5532 7.20672C51.4737 7.20672 52.3942 7.20672 53.3426 7.20672C53.3426 7.68888 53.3426 8.17104 53.3426 8.66781C53.4302 8.66781 53.5179 8.66781 53.6082 8.66781C53.6591 8.54889 53.6591 8.54889 53.711 8.42758C54.0878 7.75424 54.9365 7.24149 55.6551 7.00385C57.2433 6.71399 58.6601 6.86734 60.0171 7.75463Z" fill="#3555F3"/>
<path d="M72.0612 7.29653C72.9553 7.86734 73.5531 8.46486 73.9306 9.46482C73.976 9.58357 74.0214 9.70233 74.0681 9.82469C74.2053 10.2924 74.2283 10.6705 74.2264 11.157C74.2265 11.2426 74.2265 11.3282 74.2266 11.4164C74.2264 11.6967 74.2243 11.977 74.2222 12.2573C74.2217 12.4527 74.2214 12.6481 74.2211 12.8435C74.2201 13.3558 74.2175 13.868 74.2145 14.3803C74.2118 14.9039 74.2106 15.4274 74.2093 15.951C74.2064 16.9768 74.2017 18.0025 74.1963 19.0283C73.1881 19.0283 72.18 19.0283 71.1413 19.0283C71.14 18.8045 71.1388 18.5807 71.1375 18.3502C71.1328 17.6074 71.1256 16.8647 71.1169 16.1219C71.1116 15.672 71.1074 15.2221 71.1053 14.7721C71.1024 14.2537 71.0962 13.7355 71.0894 13.2172C71.0892 13.057 71.0891 12.8969 71.0889 12.7319C71.0729 11.8054 70.9822 11.1798 70.4772 10.3946C69.8166 9.88263 69.1756 9.79466 68.3519 9.86329C67.6525 10.1039 67.1602 10.4246 66.758 11.0587C66.5277 11.5493 66.4573 11.9407 66.45 12.4811C66.4474 12.6299 66.4447 12.7788 66.442 12.9322C66.4405 13.0915 66.439 13.2507 66.4374 13.4148C66.4348 13.579 66.4322 13.7432 66.4296 13.9123C66.423 14.347 66.4175 14.7818 66.4126 15.2166C66.4072 15.6609 66.4004 16.1052 66.3938 16.5495C66.381 17.42 66.3699 18.2906 66.3596 19.1611C65.3952 19.1611 64.4309 19.1611 63.4374 19.1611C63.4374 15.2162 63.4374 11.2713 63.4374 7.20677C64.3579 7.20677 65.2783 7.20677 66.2267 7.20677C66.2706 7.55743 66.3144 7.90809 66.3596 8.26938C66.4883 8.14884 66.6171 8.0283 66.7497 7.90411C68.1658 6.72547 70.3739 6.45728 72.0612 7.29653Z" fill="#3353F3"/>
<path d="M97.8062 7.82933C98.8566 8.58622 99.8096 9.63566 100.037 10.9426C100.067 11.1316 100.067 11.1316 100.097 11.3243C99.5579 11.3552 99.0187 11.3741 98.4786 11.3907C98.3258 11.3996 98.173 11.4085 98.0155 11.4177C97.5788 11.4278 97.2021 11.4251 96.7768 11.3243C96.5147 11.0733 96.3848 10.8552 96.2394 10.5243C96.0587 10.15 95.8174 9.99247 95.4511 9.81291C94.7294 9.59096 94.0585 9.6669 93.3482 9.88814C92.6107 10.3075 92.1475 10.8192 91.8264 11.6004C91.5399 12.7463 91.5225 14.1605 92.1014 15.2126C92.5349 15.8367 93.0046 16.2474 93.7218 16.5045C94.626 16.6292 95.3644 16.5084 96.1126 15.9732C96.4809 15.5856 96.6683 15.2604 96.9096 14.7778C98.0054 14.7778 99.1012 14.7778 100.23 14.7778C99.8952 16.2855 99.2906 17.496 97.9722 18.3641C96.266 19.2761 94.5261 19.5913 92.6093 19.2031C91.7938 18.9239 91.0786 18.495 90.4011 17.9656C90.3193 17.9021 90.2374 17.8386 90.1531 17.7731C88.9785 16.7369 88.3605 15.0822 88.2432 13.5554C88.1732 11.6297 88.7822 9.94544 90.069 8.51007C92.1396 6.53585 95.4167 6.3754 97.8062 7.82933Z" fill="#3454F3"/>
<path d="M102.355 3.62061C103.32 3.62061 104.284 3.62061 105.278 3.62061C105.278 4.80409 105.278 5.98757 105.278 7.20691C106.242 7.20691 107.206 7.20691 108.2 7.20691C108.2 7.9959 108.2 8.78489 108.2 9.59778C107.235 9.59778 106.271 9.59778 105.278 9.59778C105.287 10.418 105.298 11.2381 105.312 12.0583C105.317 12.3372 105.321 12.6161 105.324 12.8951C105.328 13.2964 105.335 13.6976 105.342 14.0988C105.343 14.2232 105.344 14.3476 105.345 14.4758C105.36 15.1248 105.384 15.581 105.809 16.1063C106.454 16.58 107.443 16.4627 108.2 16.5047C108.2 17.3376 108.2 18.1704 108.2 19.0284C107.268 19.4943 105.707 19.4105 104.705 19.1945C103.832 18.8986 103.287 18.4489 102.754 17.7002C102.321 16.7879 102.303 15.9937 102.317 14.9938C102.317 14.8391 102.318 14.6843 102.318 14.5249C102.32 14.0337 102.325 13.5425 102.331 13.0513C102.333 12.7169 102.334 12.3826 102.336 12.0483C102.34 11.2314 102.347 10.4146 102.355 9.59778C101.654 9.59778 100.953 9.59778 100.23 9.59778C100.23 8.80879 100.23 8.01981 100.23 7.20691C100.932 7.20691 101.633 7.20691 102.355 7.20691C102.355 6.02343 102.355 4.83995 102.355 3.62061Z" fill="#3352F3"/>
<path d="M8.20713 0.599129C9.16439 1.26576 9.77662 2.12999 10.1741 3.22193C10.3313 4.61112 10.2298 5.83412 9.41761 6.99813C8.71415 7.86678 7.90274 8.31803 6.85345 8.6678C5.34738 8.79665 4.16523 8.52418 2.97763 7.57458C2.21393 6.83219 1.7293 5.93979 1.62861 4.87551C1.6179 3.84425 1.64861 3.04185 2.20454 2.15932C2.25933 2.06686 2.31412 1.9744 2.37057 1.87914C3.6441 -0.0456348 6.23825 -0.52745 8.20713 0.599129Z" fill="#3656F3"/>
<path d="M82.7231 9.63652C83.0785 9.85287 83.3273 10.0513 83.602 10.3614C83.7184 10.4877 83.7184 10.4877 83.8371 10.6166C84.0254 10.9259 84.0254 10.9259 84.1582 11.8557C82.3173 11.8557 80.4763 11.8557 78.5795 11.8557C78.7677 10.9147 79.1783 10.2788 79.9078 9.65572C80.7318 9.25388 81.8922 9.30033 82.7231 9.63652Z" fill="var(--background)"/>
<path d="M50.5532 7.20679C51.4737 7.20679 52.3942 7.20679 53.3426 7.20679C53.3426 7.68895 53.3426 8.1711 53.3426 8.66787C53.2987 8.66787 53.2549 8.66787 53.2097 8.66787C53.2097 8.22955 53.2097 7.79122 53.2097 7.33961C52.3769 7.33961 51.5441 7.33961 50.686 7.33961C50.686 11.1531 50.686 14.9665 50.686 18.8955C51.5627 18.8955 52.4394 18.8955 53.3426 18.8955C53.3405 18.6871 53.3384 18.4787 53.3362 18.264C53.329 17.489 53.3245 16.7139 53.3207 15.9388C53.3187 15.6037 53.316 15.2687 53.3125 14.9336C53.3077 14.4512 53.3054 13.9689 53.3037 13.4865C53.3016 13.3373 53.2995 13.1881 53.2974 13.0344C53.2973 12.2254 53.3532 11.6411 53.741 10.9259C53.7849 11.0136 53.8287 11.1012 53.8739 11.1916C53.83 11.3231 53.7862 11.4546 53.741 11.59C53.7256 11.8365 53.7176 12.0834 53.7138 12.3303C53.7111 12.4818 53.7085 12.6334 53.7057 12.7895C53.7035 12.9531 53.7013 13.1166 53.699 13.2851C53.6963 13.4526 53.6935 13.6201 53.6907 13.7927C53.6834 14.2375 53.6768 14.6823 53.6704 15.1271C53.6637 15.5812 53.6563 16.0352 53.649 16.4893C53.6347 17.3799 53.6213 18.2705 53.6082 19.1611C52.6001 19.1611 51.5919 19.1611 50.5532 19.1611C50.5532 15.2162 50.5532 11.2713 50.5532 7.20679Z" fill="#1B33F3"/>
<path d="M33.5515 18.6298C33.683 18.6955 33.683 18.6955 33.8172 18.7626C34.0481 18.7829 34.2797 18.7957 34.5114 18.8046C34.6484 18.8102 34.7853 18.8157 34.9265 18.8215C35.07 18.8267 35.2134 18.8319 35.3613 18.8373C35.578 18.8459 35.578 18.8459 35.7992 18.8547C36.1568 18.8688 36.5145 18.8824 36.8722 18.8954C36.916 18.8077 36.9598 18.7201 37.005 18.6298C37.0927 18.8051 37.1803 18.9804 37.2706 19.1611C36.131 19.1611 34.9913 19.1611 33.8172 19.1611C33.7295 18.9857 33.6418 18.8104 33.5515 18.6298Z" fill="#2E4AF4"/>
<path d="M65.9611 7.3396C66.0487 7.3396 66.1364 7.3396 66.2267 7.3396C66.2705 7.64643 66.3144 7.95326 66.3595 8.26938C66.5349 8.09405 66.7102 7.91872 66.8908 7.73808C66.9785 7.78191 67.0662 7.82574 67.1565 7.8709C66.8935 8.1339 66.6305 8.3969 66.3595 8.66786C66.228 8.62403 66.0965 8.5802 65.9611 8.53503C65.9611 8.14054 65.9611 7.74605 65.9611 7.3396Z" fill="#1E3FF3"/>
</svg>
