<svg width="512" height="512" version="1.1" xmlns="http://www.w3.org/2000/svg" desc="Created with imagetracer.js version 1.2.6" ><path fill="rgb(224,133,41)" stroke="rgb(224,133,41)" stroke-width="1" opacity="0.9764705882352941" d="M 337.5 10 Q 346.4 8.6 351.5 11 L 365.5 19 L 369 22.5 L 374 33.5 L 374 47.5 L 371 60.5 L 361 89.5 L 338.5 139 Q 327.2 133.8 320 124.5 Q 305.3 108.7 295 88.5 L 292 79.5 L 292 70.5 L 295 56.5 L 300 44.5 Q 307.9 29.4 320.5 19 Q 327.3 12.8 337.5 10 Z M 345 33 L 337 37 Q 321 48 316 71 Q 315 80 319 84 L 323 84 L 332 79 Q 345 68 350 49 L 350 37 L 349 36 Q 350 31 345 33 Z " /><path fill="rgb(224,133,41)" stroke="rgb(224,133,41)" stroke-width="1" opacity="0.9764705882352941" d="M 387.5 213 L 392.5 213 L 398.5 215 L 414 224 Q 418.4 228.9 420 237.5 L 420 251.5 L 407 292.5 L 385.5 342 L 376.5 337 L 361 321.5 L 344 296.5 L 340 286.5 L 339 274.5 Q 345.2 238.7 369.5 221 Q 376.8 215.3 387.5 213 Z M 393 235 L 381 241 Q 366 253 362 275 L 362 281 L 364 288 Q 375 287 382 280 Q 390 272 395 260 L 398 245 L 396 237 L 393 235 Z " /><path fill="rgb(0,0,0)" stroke="rgb(0,0,0)" stroke-width="1" opacity="0" d="M 0 0 L 512 0 L 512 512 L 0 512 L 0 0 Z M 338 10 Q 327 13 321 19 Q 308 29 300 45 L 295 57 L 292 71 L 292 80 L 295 89 L 284 87 L 275 87 L 274 86 L 238 86 L 237 87 L 229 87 L 207 91 L 184 98 Q 141 114 112 143 Q 82 171 64 211 L 52 247 L 48 270 L 48 280 L 47 281 L 47 309 L 48 310 L 49 327 L 57 360 Q 73 404 102 436 Q 130 466 170 484 L 200 495 L 223 500 L 239 501 L 240 502 L 273 502 L 274 501 L 290 500 L 313 495 L 334 488 Q 375 471 404 442 Q 431 415 448 378 L 460 342 L 464 319 L 464 309 L 465 308 L 465 281 L 464 280 L 463 263 L 458 239 L 452 221 Q 437 181 410 153 Q 386 126 353 110 L 364 82 L 374 48 L 374 34 L 369 23 L 366 19 L 352 11 Q 346 9 338 10 Z " /><path fill="rgb(0,0,0)" stroke="rgb(0,0,0)" stroke-width="1" opacity="0" d="M 344.5 33 Q 350.4 30.9 349 35.5 L 350 36.5 L 350 48.5 Q 345.2 68.2 331.5 79 L 322.5 84 L 318.5 84 Q 314.8 79.8 316 70.5 Q 320.7 48.2 336.5 37 L 344.5 33 Z " /><path fill="rgb(191,197,195)" stroke="rgb(191,197,195)" stroke-width="1" opacity="1" d="M 303.5 103 L 304.5 105 L 303.5 103 Z " /><path fill="rgb(191,197,195)" stroke="rgb(191,197,195)" stroke-width="1" opacity="1" d="M 311.5 114 L 313.5 117 L 311.5 114 Z " /><path fill="rgb(191,197,195)" stroke="rgb(191,197,195)" stroke-width="1" opacity="1" d="M 316.5 120 L 319.5 124 L 316.5 120 Z " /><path fill="rgb(191,197,195)" stroke="rgb(191,197,195)" stroke-width="1" opacity="1" d="M 325.5 130 L 327.5 133 L 325.5 130 Z " /><path fill="rgb(191,197,195)" stroke="rgb(191,197,195)" stroke-width="1" opacity="1" d="M 329.5 133 L 330.5 135 L 329.5 133 Z " /><path fill="rgb(191,197,195)" stroke="rgb(191,197,195)" stroke-width="1" opacity="1" d="M 336.5 137 L 337.5 139 L 336.5 137 Z " /><path fill="rgb(191,197,195)" stroke="rgb(191,197,195)" stroke-width="1" opacity="1" d="M 330.5 168 L 331 170.5 L 330 170.5 L 330.5 168 Z " /><path fill="rgb(191,197,195)" stroke="rgb(191,197,195)" stroke-width="1" opacity="1" d="M 336.5 170 L 337 172.5 L 336 172.5 L 336.5 170 Z " /><path fill="rgb(191,197,195)" stroke="rgb(191,197,195)" stroke-width="1" opacity="1" d="M 122.5 183 L 133.5 184 L 142 189.5 L 139.5 190 L 134.5 189 Q 115.3 193.8 105 207.5 L 91 230.5 L 87 243.5 L 86 257.5 L 89 268.5 L 93 276.5 L 114 305 L 117 306.5 L 119 309.5 L 117.5 309 Q 106.8 304.8 101 295.5 Q 88 281.5 79 263.5 Q 74 254.5 76 238.5 Q 82.7 210.2 101.5 194 Q 109.7 186.2 122.5 183 Z " /><path fill="rgb(191,197,195)" stroke="rgb(191,197,195)" stroke-width="1" opacity="1" d="M 336.5 189 L 337 194.5 L 336 194.5 L 336.5 189 Z " /><path fill="rgb(191,197,195)" stroke="rgb(191,197,195)" stroke-width="1" opacity="1" d="M 330.5 192 L 331 195 L 335 195.5 L 331.5 196 Q 329 195 330.5 192 Z " /><path fill="rgb(191,197,195)" stroke="rgb(191,197,195)" stroke-width="1" opacity="1" d="M 132 205 Q 139.3 204.9 142 210.5 Q 145.7 216.3 144 227.5 Q 139.2 247.2 125.5 258 Q 120.1 263.6 109.5 264 Q 103.8 262.8 101 258.5 L 113.5 253 L 124 242.5 Q 133 231.5 134 212.5 L 132 205 Z " /><path fill="rgb(191,197,195)" stroke="rgb(191,197,195)" stroke-width="1" opacity="1" d="M 399.5 215 L 400.5 217 L 399.5 215 Z " /><path fill="rgb(191,197,195)" stroke="rgb(191,197,195)" stroke-width="1" opacity="1" d="M 371.5 219 L 370.5 221 L 371.5 219 Z " /><path fill="rgb(191,197,195)" stroke="rgb(191,197,195)" stroke-width="1" opacity="1" d="M 367.5 222 L 357.5 233 L 367.5 222 Z " /><path fill="rgb(191,197,195)" stroke="rgb(191,197,195)" stroke-width="1" opacity="1" d="M 380.5 241 L 379.5 243 L 380.5 241 Z " /><path fill="rgb(191,197,195)" stroke="rgb(191,197,195)" stroke-width="1" opacity="1" d="M 375.5 246 L 374.5 248 L 375.5 246 Z " /><path fill="rgb(191,197,195)" stroke="rgb(191,197,195)" stroke-width="1" opacity="1" d="M 357.5 316 L 358.5 318 L 357.5 316 Z " /><path fill="rgb(191,197,195)" stroke="rgb(191,197,195)" stroke-width="1" opacity="1" d="M 368.5 329 L 375.5 337 L 368.5 329 Z " /><path fill="rgb(136,218,239)" stroke="rgb(136,218,239)" stroke-width="1" opacity="1" d="M 308.5 111 L 310.5 114 L 308.5 111 Z " /><path fill="rgb(136,218,239)" stroke="rgb(136,218,239)" stroke-width="1" opacity="1" d="M 314.5 118 L 315.5 120 L 314.5 118 Z " /><path fill="rgb(136,218,239)" stroke="rgb(136,218,239)" stroke-width="1" opacity="1" d="M 319.5 124 L 324.5 130 L 319.5 124 Z " /><path fill="rgb(136,218,239)" stroke="rgb(136,218,239)" stroke-width="1" opacity="1" d="M 341.5 171 L 344 171.5 L 341.5 172 L 341.5 171 Z " /><path fill="rgb(136,218,239)" stroke="rgb(136,218,239)" stroke-width="1" opacity="1" d="M 346.5 172 L 349 173.5 L 347.5 173 L 346.5 172 Z " /><path fill="rgb(136,218,239)" stroke="rgb(136,218,239)" stroke-width="1" opacity="1" d="M 332.5 173 L 337 173.5 L 335.5 176 L 335 174 Q 331.7 174.8 332.5 173 Z " /><path fill="rgb(136,218,239)" stroke="rgb(136,218,239)" stroke-width="1" opacity="1" d="M 336.5 177 L 337 178.5 L 330.5 183 L 331.5 181 L 336 178.5 L 336.5 177 Z " /><path fill="rgb(136,218,239)" stroke="rgb(136,218,239)" stroke-width="1" opacity="1" d="M 339.5 181 L 340 183.5 L 339 183.5 L 339.5 181 Z " /><path fill="rgb(136,218,239)" stroke="rgb(136,218,239)" stroke-width="1" opacity="1" d="M 338.5 186 L 336.5 189 L 338.5 186 Z " /><path fill="rgb(136,218,239)" stroke="rgb(136,218,239)" stroke-width="1" opacity="1" d="M 343.5 186 L 341.5 189 L 343.5 186 Z " /><path fill="rgb(136,218,239)" stroke="rgb(136,218,239)" stroke-width="1" opacity="1" d="M 359.5 188 L 360.5 190 L 359.5 188 Z " /><path fill="rgb(136,218,239)" stroke="rgb(136,218,239)" stroke-width="1" opacity="1" d="M 350.5 193 Q 357.3 191.7 360 194.5 L 358.5 195 Q 356.8 192.3 350.5 194 L 350.5 193 Z " /><path fill="rgb(136,218,239)" stroke="rgb(136,218,239)" stroke-width="1" opacity="1" d="M 194.5 201 L 209 201.5 L 194.5 202 L 194.5 201 Z " /><path fill="rgb(136,218,239)" stroke="rgb(136,218,239)" stroke-width="1" opacity="1" d="M 346.5 201 L 349 202.5 L 347.5 202 L 346.5 201 Z " /><path fill="rgb(136,218,239)" stroke="rgb(136,218,239)" stroke-width="1" opacity="1" d="M 349.5 204 L 350.5 206 L 349.5 204 Z " /><path fill="rgb(136,218,239)" stroke="rgb(136,218,239)" stroke-width="1" opacity="1" d="M 350.5 209 L 349.5 211 L 350.5 209 Z " /><path fill="rgb(136,218,239)" stroke="rgb(136,218,239)" stroke-width="1" opacity="1" d="M 378.5 211 L 381 211.5 L 378.5 212 L 378.5 211 Z " /><path fill="rgb(136,218,239)" stroke="rgb(136,218,239)" stroke-width="1" opacity="1" d="M 331.5 212 L 330 214.5 L 329.5 223 L 329 214.5 L 331.5 212 Z " /><path fill="rgb(136,218,239)" stroke="rgb(136,218,239)" stroke-width="1" opacity="1" d="M 375.5 212 L 377 212.5 L 373.5 214 L 373.5 213 L 375.5 212 Z " /><path fill="rgb(136,218,239)" stroke="rgb(136,218,239)" stroke-width="1" opacity="1" d="M 382.5 212 L 383.5 214 L 382.5 212 Z " /><path fill="rgb(136,218,239)" stroke="rgb(136,218,239)" stroke-width="1" opacity="1" d="M 365.5 214 L 356.5 224 L 365.5 214 Z " /><path fill="rgb(136,218,239)" stroke="rgb(136,218,239)" stroke-width="1" opacity="1" d="M 369.5 214 L 372 214.5 L 369.5 215 L 369.5 214 Z " /><path fill="rgb(136,218,239)" stroke="rgb(136,218,239)" stroke-width="1" opacity="1" d="M 419.5 230 L 418.5 232 L 419.5 230 Z " /><path fill="rgb(136,218,239)" stroke="rgb(136,218,239)" stroke-width="1" opacity="1" d="M 349.5 233 L 352 233.5 L 349.5 234 L 349.5 233 Z " /><path fill="rgb(136,218,239)" stroke="rgb(136,218,239)" stroke-width="1" opacity="1" d="M 344.5 234 L 347 234.5 L 344.5 235 L 344.5 234 Z " /><path fill="rgb(136,218,239)" stroke="rgb(136,218,239)" stroke-width="1" opacity="1" d="M 394.5 235 L 395.5 237 L 394.5 235 Z " /><path fill="rgb(136,218,239)" stroke="rgb(136,218,239)" stroke-width="1" opacity="1" d="M 333.5 238 L 330 242.5 L 328.5 246 L 328 244.5 L 333.5 238 Z " /><path fill="rgb(136,218,239)" stroke="rgb(136,218,239)" stroke-width="1" opacity="1" d="M 326.5 250 L 323.5 254 L 326.5 250 Z " /><path fill="rgb(136,218,239)" stroke="rgb(136,218,239)" stroke-width="1" opacity="1" d="M 114.5 251 L 113.5 253 L 114.5 251 Z " /><path fill="rgb(136,218,239)" stroke="rgb(136,218,239)" stroke-width="1" opacity="1" d="M 321.5 254 L 320.5 256 L 321.5 254 Z " /><path fill="rgb(136,218,239)" stroke="rgb(136,218,239)" stroke-width="1" opacity="1" d="M 318.5 256 L 315.5 260 L 318.5 256 Z " /><path fill="rgb(136,218,239)" stroke="rgb(136,218,239)" stroke-width="1" opacity="1" d="M 98.5 292 L 100.5 295 L 98.5 292 Z " /><path fill="rgb(136,218,239)" stroke="rgb(136,218,239)" stroke-width="1" opacity="1" d="M 106.5 301 L 110.5 306 L 106.5 301 Z " /><path fill="rgb(136,218,239)" stroke="rgb(136,218,239)" stroke-width="1" opacity="1" d="M 119.5 310 L 122 311.5 L 120.5 312 L 119.5 310 Z " /><path fill="rgb(136,218,239)" stroke="rgb(136,218,239)" stroke-width="1" opacity="1" d="M 390.5 422 L 384.5 429 L 390.5 422 Z " /><path fill="rgb(201,232,244)" stroke="rgb(201,232,244)" stroke-width="1" opacity="1" d="M 323.5 167 L 330 167 L 330 172.5 L 331.5 173 L 335 174 L 336 178.5 L 328 183 L 328 189.5 Q 331.3 190.9 330 196 L 337 196 L 337 188.5 Q 340.2 186.5 340 182 L 345 183 L 341 189.5 L 345.5 193 L 358 194.5 L 342 199.5 L 349 203.5 L 351 208.5 Q 347.7 214 338 212 L 338 206 L 331 206 L 332 211.5 L 329 214.5 L 329 224.5 L 328 225.5 L 331.5 230 L 335 231.5 L 336 236.5 L 329 242.5 Q 328.3 250.8 322.5 254 L 315 259.5 Q 315.8 261.8 313.5 261 L 300 249.5 Q 292 240.5 288 227.5 L 286 218.5 L 286 205.5 Q 289.4 184.9 303.5 175 Q 311.5 169 323.5 167 Z " /><path fill="rgb(201,232,244)" stroke="rgb(201,232,244)" stroke-width="1" opacity="1" d="M 337.5 167 Q 359.6 171.4 372 185.5 L 364.5 190 L 361.5 190 L 351 179.5 L 347.5 172 L 341.5 171 L 337.5 173 L 337.5 167 Z " /><path fill="rgb(201,232,244)" stroke="rgb(201,232,244)" stroke-width="1" opacity="1" d="M 134.5 189 L 143.5 190 L 151 195.5 Q 158.1 203.9 156 221.5 L 146 254.5 L 122 311 L 117 307.5 L 115.5 305 Q 113.3 305.8 114 303.5 Q 101.8 291.7 93 276.5 Q 86.3 266.7 86 250.5 Q 91.7 217.7 112.5 200 Q 120.8 191.8 134.5 189 Z M 127 205 L 119 209 Q 103 220 98 243 L 98 251 L 101 259 Q 104 263 110 264 Q 120 264 126 258 Q 139 247 144 228 Q 146 216 142 211 Q 139 203 127 205 Z " /><path fill="rgb(201,232,244)" stroke="rgb(201,232,244)" stroke-width="1" opacity="1" d="M 377.5 212 Q 382 211 383 213.5 Q 366.8 219.3 357.5 232 L 342 235 Q 340.3 230.5 345.5 232 L 350.5 230 L 366.5 214 L 368.5 214 L 371.5 215 L 377.5 212 Z " /><path fill="rgb(201,232,244)" stroke="rgb(201,232,244)" stroke-width="1" opacity="1" d="M 385 238 Q 388 237 387 240 Q 384 241 385 238 Z " /><path fill="rgb(116,205,243)" stroke="rgb(116,205,243)" stroke-width="1" opacity="1" d="M 253.5 86 Q 258.9 84.1 258 87.5 L 255.5 90 L 229.5 91 L 223 95.5 L 222.5 97 L 217 94 L 213.5 101 L 195.5 100 L 190.5 101 L 177.5 108 L 173 112.5 Q 173.8 114.8 171.5 114 L 159 119.5 L 167.5 125 L 171.5 125 L 172.5 124 L 184.5 123 L 195.5 126 L 202 132.5 L 203 137 L 209.5 136 L 208 138.5 L 206 142.5 L 210 150.5 Q 202 165 197.5 183 L 176.5 167 Q 173.7 171.8 167 171 L 165 164 L 146.5 161 L 142 164.5 L 141 170.5 L 144 177.5 L 138 180 L 139 186.5 L 137.5 186 L 127.5 180 Q 109.3 177.7 97 169.5 Q 96.3 163.8 100.5 163 L 119 155 Q 117.9 157.7 120.5 157 L 121.5 158 L 135 158 Q 136.1 155.3 133.5 156 L 123 152 Q 121.9 148.5 129.5 150 L 134 149 L 131 142.5 L 146 142 L 145 148 L 153.5 146 Q 156.5 147.5 153.5 149 Q 145.1 149.6 141 154.5 L 144.5 157 L 177.5 162 L 179 159.5 L 172.5 152 L 183.5 154 L 187 149 L 175.5 146 L 171 142.5 L 168.5 139 L 139.5 130 L 130.5 130 L 128.5 131 L 130.5 128 L 134 126.5 Q 133.3 124.3 135.5 125 Q 162 104.5 198.5 94 L 220.5 89 L 234.5 88 L 235.5 87 L 252.5 87 L 253.5 86 Z " /><path fill="rgb(116,205,243)" stroke="rgb(116,205,243)" stroke-width="1" opacity="1" d="M 394.5 141 L 396.5 144 L 394.5 141 Z " /><path fill="rgb(116,205,243)" stroke="rgb(116,205,243)" stroke-width="1" opacity="1" d="M 338.5 147 L 339 149.5 L 338 149.5 L 338.5 147 Z " /><path fill="rgb(116,205,243)" stroke="rgb(116,205,243)" stroke-width="1" opacity="1" d="M 308.5 150 L 311 150.5 L 308.5 151 L 308.5 150 Z " /><path fill="rgb(116,205,243)" stroke="rgb(116,205,243)" stroke-width="1" opacity="1" d="M 196.5 191 L 197.5 193 L 196.5 191 Z " /><path fill="rgb(116,205,243)" stroke="rgb(116,205,243)" stroke-width="1" opacity="1" d="M 194.5 192 L 195 195.5 L 194 198.5 L 193 200.5 L 193 202.5 L 192 217.5 L 191 218.5 L 191 247.5 L 192 248.5 L 192 256.5 L 195 273.5 L 198 285.5 L 201 291.5 L 201 296.5 L 203 298.5 L 210 316.5 L 213 319.5 L 209.5 317 Q 206.5 314 199.5 315 L 188 306.5 Q 188.8 302.8 186.5 302 L 172.5 303 L 166 301 L 167 296.5 L 165.5 293 L 164.5 294 L 156.5 294 L 154 295.5 L 155 300 L 144.5 307 L 137.5 305 Q 136 307.5 130.5 306 Q 127.3 304.3 127 299.5 L 138.5 273 L 147.5 276 L 146.5 274 L 140 269.5 L 154 231.5 L 156 219 L 161.5 220 L 163 212 L 168.5 210 L 172.5 210 Q 173 213.5 177.5 213 L 192 207.5 L 189.5 205 L 181.5 204 L 179 201.5 Q 180.1 198.2 177.5 199 Q 176.3 196.7 171.5 198 L 169.5 199 L 172.5 195 L 178.5 194 L 182.5 198 L 183.5 197 L 194.5 192 Z M 160 277 L 154 281 L 157 282 L 166 282 L 167 283 L 167 282 Q 165 277 160 277 Z M 179 292 L 177 294 L 178 298 L 189 298 L 190 297 L 189 294 L 189 292 L 179 292 Z M 143 296 L 136 298 L 132 298 L 132 304 L 143 303 L 144 302 L 143 296 Z " /><path fill="rgb(116,205,243)" stroke="rgb(116,205,243)" stroke-width="1" opacity="1" d="M 112.5 249 L 117 249.5 Q 111.5 256.9 100 257 L 99 252 L 112.5 249 Z " /><path fill="rgb(116,205,243)" stroke="rgb(116,205,243)" stroke-width="1" opacity="1" d="M 51.5 256 L 55 258 L 55 259.5 L 65 269.5 Q 65.5 277 70.5 280 L 89.5 289 L 95.5 289 L 98 291.5 L 110.5 306 L 122 312 L 124 306 L 131.5 311 L 134.5 311 L 136 310.5 L 141 324.5 L 138.5 328 L 135 330.5 L 133 346.5 L 147 369.5 L 151.5 374 Q 158.3 376.3 162 381.5 Q 164.3 384.7 163 391.5 L 162 392.5 L 160 409.5 L 154 429.5 L 153 437.5 L 153 439.5 L 149 464.5 Q 151.5 466 150 471.5 L 148.5 471 Q 124 458 106 438.5 Q 76.4 408.6 60 365.5 L 53 342.5 L 49 320.5 L 49 311.5 L 48 310.5 L 48 277.5 L 49 276.5 L 49 267.5 L 50.5 266 L 56 269 L 56 266.5 L 51 259.5 L 51.5 256 Z " /><path fill="rgb(116,205,243)" stroke="rgb(116,205,243)" stroke-width="1" opacity="1" d="M 212.5 291 L 213 296.5 L 212 296.5 L 212.5 291 Z " /><path fill="rgb(116,205,243)" stroke="rgb(116,205,243)" stroke-width="1" opacity="1" d="M 223.5 291 L 224 296.5 L 223 296.5 L 223.5 291 Z " /><path fill="rgb(116,205,243)" stroke="rgb(116,205,243)" stroke-width="1" opacity="1" d="M 235.5 294 L 236 296.5 Q 234.5 299.5 228.5 298 L 228.5 297 L 235 297 L 235.5 294 Z " /><path fill="rgb(116,205,243)" stroke="rgb(116,205,243)" stroke-width="1" opacity="1" d="M 246.5 294 L 247 298 L 249 298.5 L 247.5 299 Q 244.8 297.8 246.5 294 Z " /><path fill="rgb(116,205,243)" stroke="rgb(116,205,243)" stroke-width="1" opacity="1" d="M 159 300 L 164 300.5 L 159.5 304 L 159 300 Z " /><path fill="rgb(116,205,243)" stroke="rgb(116,205,243)" stroke-width="1" opacity="1" d="M 278.5 302 L 281 302.5 L 278.5 303 L 278.5 302 Z " /><path fill="rgb(116,205,243)" stroke="rgb(116,205,243)" stroke-width="1" opacity="1" d="M 215.5 322 L 216.5 324 L 215.5 322 Z " /><path fill="rgb(116,205,243)" stroke="rgb(116,205,243)" stroke-width="1" opacity="1" d="M 249 371 L 275.5 392 L 310.5 412 L 341.5 423 L 364.5 428 L 382.5 430 L 384 429.5 Q 355.3 457.8 314.5 474 L 296.5 480 L 267.5 486 Q 261.3 484.2 259.5 487 L 219.5 487 L 218.5 486 L 211.5 486 L 194.5 483 L 167 475 L 166 470.5 L 176 461.5 Q 176.8 459.3 174.5 460 L 171 457.5 L 179 449.5 L 179 446.5 L 177 443.5 L 183 443 L 184 439 Q 186.7 437.1 193.5 438 L 199 433.5 L 199 427 L 204.5 427 L 211 422.5 Q 214.5 414 222 409.5 L 223 401.5 L 226.5 398 L 235.5 394 L 238.5 394 L 244 389.5 Q 249.1 382.3 249 371 Z " /><path fill="rgb(116,205,243)" stroke="rgb(116,205,243)" stroke-width="1" opacity="1" d="M 392.5 420 L 391.5 422 L 392.5 420 Z " /><path fill="rgb(132,219,255)" stroke="rgb(132,219,255)" stroke-width="1" opacity="1" d="M 258.5 87 L 272.5 87 L 273.5 88 L 282.5 88 L 290 89.5 L 256.5 90 L 258.5 87 Z " /><path fill="rgb(132,219,255)" stroke="rgb(132,219,255)" stroke-width="1" opacity="1" d="M 291.5 90 Q 296.9 88.1 296 91.5 L 303 105 Q 298.3 106 297 102.5 L 293 91 L 291.5 90 Z " /><path fill="rgb(132,219,255)" stroke="rgb(132,219,255)" stroke-width="1" opacity="1" d="M 352.5 110 Q 376.3 121.2 393 139.5 L 397 144.5 L 370 163.5 Q 368.9 172.1 374.5 174 L 380.5 174 L 385 171 L 388.5 179 Q 400.3 180.8 403 173.5 L 407 166 L 402 162.5 L 408.5 160 L 418 173.5 Q 412.4 173.4 411 177.5 L 410 183 L 388.5 183 L 384 179.5 Q 385.8 173.8 379.5 176 Q 375.5 177.7 377 184 L 372.5 186 L 357.5 174 L 346.5 169 L 338.5 168 L 337 166.5 Q 339.2 160.2 333.5 162 L 331 161 L 330 167 Q 305.5 167.6 295 183.5 Q 284.6 195.1 286 218.5 Q 290.9 244.6 308.5 258 L 314 261.5 L 310 271.5 L 310 286.5 Q 307 289.5 308 296.5 L 313.5 303 Q 316.5 302.1 315 306.5 L 314 309.5 L 315.5 311 L 324.5 313 L 328 316.5 Q 327.3 318.8 329.5 318 Q 330.5 321 335.5 320 Q 336.3 317.3 340.5 318 L 346.5 320 L 350.5 317 L 356.5 316 L 359 319.5 L 357 325 L 367.5 329 Q 374.3 338.5 386 342 L 389 347.5 L 391 358.5 L 393 362.5 L 387 370.5 L 387 378.5 L 394 391.5 Q 396.9 396.1 396 404.5 L 400 409.5 L 400 411.5 L 382.5 430 L 353.5 426 L 334.5 421 L 310.5 412 Q 275.5 396 250 370.5 L 259 355.5 L 261 349.5 L 257.5 345 L 239.5 337 L 221 332 Q 218.1 322.2 210 316.5 L 202 297.5 L 213 297 L 213 291 L 200.5 291 L 200 289.5 L 195 273.5 L 192 256.5 L 192 248.5 L 191 247.5 L 191 218.5 L 192 217.5 L 193 202 L 208.5 202 L 210 200.5 L 208.5 198 L 201 194 L 203 187.5 L 198 182.5 L 198 180.5 L 209 151 Q 211.7 149.9 211 152.5 L 219.5 163 L 234.5 168 L 243 160.5 Q 243.5 155 247.5 153 L 256.5 152 L 268.5 147 Q 284.4 145.7 295 140 L 293 132 Q 301.2 132.4 304 126.5 L 305 121.5 Q 301.8 120 303 115 L 308.5 112 L 328.5 134 L 337.5 139 L 340 139 L 352.5 110 Z M 333 139 L 332 151 L 338 152 L 340 140 L 333 139 Z M 295 150 L 292 151 L 293 156 L 302 159 Q 312 160 317 154 Q 319 155 318 152 Q 310 148 295 150 Z M 223 291 L 223 297 L 236 298 L 236 291 L 223 291 Z M 247 292 L 246 298 L 248 299 Q 255 298 258 300 L 259 293 L 247 292 Z M 271 295 Q 268 296 269 301 L 281 303 L 282 296 L 271 295 Z M 292 299 L 292 305 L 304 307 L 305 301 L 292 299 Z " /><path fill="rgb(132,219,255)" stroke="rgb(132,219,255)" stroke-width="1" opacity="1" d="M 197.5 191 L 197 192.5 L 194.5 197 L 195 195.5 Q 193.5 191.1 196.5 192 L 197.5 191 Z " /><path fill="rgb(132,219,255)" stroke="rgb(132,219,255)" stroke-width="1" opacity="1" d="M 390.5 207 L 406 218.5 L 404.5 218 L 395.5 214 L 389 208.5 L 390.5 207 Z " /><path fill="rgb(132,219,255)" stroke="rgb(132,219,255)" stroke-width="1" opacity="1" d="M 424.5 220 Q 426.7 227.8 432.5 232 L 441.5 233 L 443 234.5 L 445 244.5 L 442.5 246 L 441.5 245 L 421 243 L 419 231.5 Q 422.2 230.3 421 224.5 L 420 222 L 424.5 220 Z " /><path fill="rgb(132,219,255)" stroke="rgb(132,219,255)" stroke-width="1" opacity="1" d="M 390.5 236 Q 395 235 396 237.5 L 397 244 L 394.5 244 L 387 239.5 L 388.5 237 L 390.5 236 Z " /><path fill="rgb(49,200,115)" stroke="rgb(49,200,115)" stroke-width="1" opacity="0.5647058823529412" d="M 237.5 86 L 242 86.5 L 237.5 87 L 237.5 86 Z " /><path fill="rgb(49,200,115)" stroke="rgb(49,200,115)" stroke-width="1" opacity="0.5647058823529412" d="M 269.5 86 L 274 86.5 L 269.5 87 L 269.5 86 Z " /><path fill="rgb(49,200,115)" stroke="rgb(49,200,115)" stroke-width="1" opacity="0.5647058823529412" d="M 228.5 87 L 231 87.5 L 228.5 88 L 228.5 87 Z " /><path fill="rgb(49,200,115)" stroke="rgb(49,200,115)" stroke-width="1" opacity="0.5647058823529412" d="M 280.5 87 L 284 87.5 L 280.5 88 L 280.5 87 Z " /><path fill="rgb(49,200,115)" stroke="rgb(49,200,115)" stroke-width="1" opacity="0.5647058823529412" d="M 221.5 88 L 224 88.5 L 221.5 89 L 221.5 88 Z " /><path fill="rgb(49,200,115)" stroke="rgb(49,200,115)" stroke-width="1" opacity="0.5647058823529412" d="M 162.5 107 L 164 107.5 L 161.5 109 L 162.5 107 Z " /><path fill="rgb(49,200,115)" stroke="rgb(49,200,115)" stroke-width="1" opacity="0.5647058823529412" d="M 151.5 113 L 150.5 115 L 151.5 113 Z " /><path fill="rgb(49,200,115)" stroke="rgb(49,200,115)" stroke-width="1" opacity="0.5647058823529412" d="M 360.5 113 L 361.5 115 L 360.5 113 Z " /><path fill="rgb(49,200,115)" stroke="rgb(49,200,115)" stroke-width="1" opacity="0.5647058823529412" d="M 146.5 116 L 145.5 118 L 146.5 116 Z " /><path fill="rgb(49,200,115)" stroke="rgb(49,200,115)" stroke-width="1" opacity="0.5647058823529412" d="M 365.5 116 L 366.5 118 L 365.5 116 Z " /><path fill="rgb(49,200,115)" stroke="rgb(49,200,115)" stroke-width="1" opacity="0.5647058823529412" d="M 143.5 118 L 142.5 120 L 143.5 118 Z " /><path fill="rgb(49,200,115)" stroke="rgb(49,200,115)" stroke-width="1" opacity="0.5647058823529412" d="M 140.5 120 L 139.5 122 L 140.5 120 Z " /><path fill="rgb(49,200,115)" stroke="rgb(49,200,115)" stroke-width="1" opacity="0.5647058823529412" d="M 137.5 122 L 136.5 124 L 137.5 122 Z " /><path fill="rgb(49,200,115)" stroke="rgb(49,200,115)" stroke-width="1" opacity="0.5647058823529412" d="M 374.5 122 L 375.5 124 L 374.5 122 Z " /><path fill="rgb(49,200,115)" stroke="rgb(49,200,115)" stroke-width="1" opacity="0.5647058823529412" d="M 134.5 124 L 132.5 127 L 134.5 124 Z " /><path fill="rgb(49,200,115)" stroke="rgb(49,200,115)" stroke-width="1" opacity="0.5647058823529412" d="M 377.5 124 L 378.5 126 L 377.5 124 Z " /><path fill="rgb(49,200,115)" stroke="rgb(49,200,115)" stroke-width="1" opacity="0.5647058823529412" d="M 130.5 127 L 129.5 129 L 130.5 127 Z " /><path fill="rgb(49,200,115)" stroke="rgb(49,200,115)" stroke-width="1" opacity="0.5647058823529412" d="M 381.5 127 L 382.5 129 L 381.5 127 Z " /><path fill="rgb(49,200,115)" stroke="rgb(49,200,115)" stroke-width="1" opacity="0.5647058823529412" d="M 126.5 130 L 121.5 136 L 105 150.5 Q 88.1 168.1 75.5 190 L 76 188.5 Q 90.4 162.4 111.5 143 L 126.5 130 Z " /><path fill="rgb(49,200,115)" stroke="rgb(49,200,115)" stroke-width="1" opacity="0.5647058823529412" d="M 385.5 130 L 388.5 134 L 385.5 130 Z " /><path fill="rgb(49,200,115)" stroke="rgb(49,200,115)" stroke-width="1" opacity="0.5647058823529412" d="M 390.5 134 L 396.5 141 L 390.5 134 Z " /><path fill="rgb(49,200,115)" stroke="rgb(49,200,115)" stroke-width="1" opacity="0.5647058823529412" d="M 398.5 141 L 409.5 153 L 398.5 141 Z " /><path fill="rgb(49,200,115)" stroke="rgb(49,200,115)" stroke-width="1" opacity="0.5647058823529412" d="M 410.5 154 L 421 165.5 L 416 161.5 L 410.5 154 Z " /><path fill="rgb(49,200,115)" stroke="rgb(49,200,115)" stroke-width="1" opacity="0.5647058823529412" d="M 421.5 167 L 423.5 170 L 421.5 167 Z " /><path fill="rgb(49,200,115)" stroke="rgb(49,200,115)" stroke-width="1" opacity="0.5647058823529412" d="M 424.5 171 L 425.5 173 L 424.5 171 Z " /><path fill="rgb(49,200,115)" stroke="rgb(49,200,115)" stroke-width="1" opacity="0.5647058823529412" d="M 426.5 174 L 428.5 177 L 426.5 174 Z " /><path fill="rgb(49,200,115)" stroke="rgb(49,200,115)" stroke-width="1" opacity="0.5647058823529412" d="M 429.5 178 L 430.5 180 L 429.5 178 Z " /><path fill="rgb(49,200,115)" stroke="rgb(49,200,115)" stroke-width="1" opacity="0.5647058823529412" d="M 431.5 181 L 434 184.5 L 432 183.5 L 431.5 181 Z " /><path fill="rgb(49,200,115)" stroke="rgb(49,200,115)" stroke-width="1" opacity="0.5647058823529412" d="M 434.5 186 L 435.5 188 L 434.5 186 Z " /><path fill="rgb(49,200,115)" stroke="rgb(49,200,115)" stroke-width="1" opacity="0.5647058823529412" d="M 74.5 191 L 74 192.5 L 69.5 201 L 70 199.5 L 74.5 191 Z " /><path fill="rgb(49,200,115)" stroke="rgb(49,200,115)" stroke-width="1" opacity="0.5647058823529412" d="M 437.5 191 L 441 196.5 L 439 195.5 L 437.5 191 Z " /><path fill="rgb(49,200,115)" stroke="rgb(49,200,115)" stroke-width="1" opacity="0.5647058823529412" d="M 67.5 204 L 68 205.5 L 64.5 212 L 64 210.5 L 67.5 204 Z " /><path fill="rgb(49,200,115)" stroke="rgb(49,200,115)" stroke-width="1" opacity="0.5647058823529412" d="M 446.5 208 L 448 211.5 L 447 211.5 L 446.5 208 Z " /><path fill="rgb(49,200,115)" stroke="rgb(49,200,115)" stroke-width="1" opacity="0.5647058823529412" d="M 63.5 213 L 64 214.5 L 62.5 217 L 62 215.5 L 63.5 213 Z " /><path fill="rgb(49,200,115)" stroke="rgb(49,200,115)" stroke-width="1" opacity="0.5647058823529412" d="M 61.5 218 L 62 219.5 L 60.5 222 L 60 220.5 L 61.5 218 Z " /><path fill="rgb(49,200,115)" stroke="rgb(49,200,115)" stroke-width="1" opacity="0.5647058823529412" d="M 55.5 235 L 56 237.5 L 55 237.5 L 55.5 235 Z " /><path fill="rgb(49,200,115)" stroke="rgb(49,200,115)" stroke-width="1" opacity="0.5647058823529412" d="M 457.5 238 L 458 240.5 L 457 240.5 L 457.5 238 Z " /><path fill="rgb(49,200,115)" stroke="rgb(49,200,115)" stroke-width="1" opacity="0.5647058823529412" d="M 53.5 242 L 54 244.5 L 53 244.5 L 53.5 242 Z " /><path fill="rgb(49,200,115)" stroke="rgb(49,200,115)" stroke-width="1" opacity="0.5647058823529412" d="M 458.5 242 L 459 244.5 L 458 244.5 L 458.5 242 Z " /><path fill="rgb(49,200,115)" stroke="rgb(49,200,115)" stroke-width="1" opacity="0.5647058823529412" d="M 52.5 246 L 53 249.5 L 52 249.5 L 52.5 246 Z " /><path fill="rgb(49,200,115)" stroke="rgb(49,200,115)" stroke-width="1" opacity="0.5647058823529412" d="M 459.5 246 L 460 248.5 L 459 248.5 L 459.5 246 Z " /><path fill="rgb(49,200,115)" stroke="rgb(49,200,115)" stroke-width="1" opacity="0.5647058823529412" d="M 51.5 251 L 52 254.5 L 51 254.5 L 51.5 251 Z " /><path fill="rgb(49,200,115)" stroke="rgb(49,200,115)" stroke-width="1" opacity="0.5647058823529412" d="M 460.5 251 L 461 253.5 L 460 253.5 L 460.5 251 Z " /><path fill="rgb(49,200,115)" stroke="rgb(49,200,115)" stroke-width="1" opacity="0.5647058823529412" d="M 461.5 256 L 462 258.5 L 461 258.5 L 461.5 256 Z " /><path fill="rgb(49,200,115)" stroke="rgb(49,200,115)" stroke-width="1" opacity="0.5647058823529412" d="M 49.5 262 L 50 264.5 L 49 264.5 L 49.5 262 Z " /><path fill="rgb(49,200,115)" stroke="rgb(49,200,115)" stroke-width="1" opacity="0.5647058823529412" d="M 462.5 262 L 463 265.5 L 462 265.5 L 462.5 262 Z " /><path fill="rgb(49,200,115)" stroke="rgb(49,200,115)" stroke-width="1" opacity="0.5647058823529412" d="M 48.5 269 L 49 272.5 L 48 272.5 L 48.5 269 Z " /><path fill="rgb(49,200,115)" stroke="rgb(49,200,115)" stroke-width="1" opacity="0.5647058823529412" d="M 463.5 269 L 464 273.5 L 463 273.5 L 463.5 269 Z " /><path fill="rgb(49,200,115)" stroke="rgb(49,200,115)" stroke-width="1" opacity="0.5647058823529412" d="M 47.5 280 L 48 286.5 L 47 286.5 L 47.5 280 Z " /><path fill="rgb(49,200,115)" stroke="rgb(49,200,115)" stroke-width="1" opacity="0.5647058823529412" d="M 464.5 280 L 465 307.5 L 464 307.5 L 464.5 280 Z " /><path fill="rgb(49,200,115)" stroke="rgb(49,200,115)" stroke-width="1" opacity="0.5647058823529412" d="M 47.5 301 L 48 308.5 L 47 308.5 L 47.5 301 Z " /><path fill="rgb(49,200,115)" stroke="rgb(49,200,115)" stroke-width="1" opacity="0.5647058823529412" d="M 463.5 314 L 464 318.5 L 463 318.5 L 463.5 314 Z " /><path fill="rgb(49,200,115)" stroke="rgb(49,200,115)" stroke-width="1" opacity="0.5647058823529412" d="M 48.5 316 L 49 318.5 L 48 318.5 L 48.5 316 Z " /><path fill="rgb(49,200,115)" stroke="rgb(49,200,115)" stroke-width="1" opacity="0.5647058823529412" d="M 462.5 323 L 463 325.5 L 462 325.5 L 462.5 323 Z " /><path fill="rgb(49,200,115)" stroke="rgb(49,200,115)" stroke-width="1" opacity="0.5647058823529412" d="M 49.5 324 L 50 326.5 L 49 326.5 L 49.5 324 Z " /><path fill="rgb(49,200,115)" stroke="rgb(49,200,115)" stroke-width="1" opacity="0.5647058823529412" d="M 461.5 329 L 462 331.5 L 461 331.5 L 461.5 329 Z " /><path fill="rgb(49,200,115)" stroke="rgb(49,200,115)" stroke-width="1" opacity="0.5647058823529412" d="M 460.5 334 L 461 336.5 L 460 336.5 L 460.5 334 Z " /><path fill="rgb(49,200,115)" stroke="rgb(49,200,115)" stroke-width="1" opacity="0.5647058823529412" d="M 459.5 339 L 460 341.5 L 459 341.5 L 459.5 339 Z " /><path fill="rgb(49,200,115)" stroke="rgb(49,200,115)" stroke-width="1" opacity="0.5647058823529412" d="M 458.5 343 L 459 345.5 L 458 345.5 L 458.5 343 Z " /><path fill="rgb(49,200,115)" stroke="rgb(49,200,115)" stroke-width="1" opacity="0.5647058823529412" d="M 457.5 347 L 458 349.5 L 457 349.5 L 457.5 347 Z " /><path fill="rgb(49,200,115)" stroke="rgb(49,200,115)" stroke-width="1" opacity="0.5647058823529412" d="M 447.5 376 L 448 377.5 L 445.5 382 L 445 380.5 L 447.5 376 Z " /><path fill="rgb(49,200,115)" stroke="rgb(49,200,115)" stroke-width="1" opacity="0.5647058823529412" d="M 440.5 391 L 440 392.5 L 437.5 397 L 438 395.5 L 440.5 391 Z " /><path fill="rgb(49,200,115)" stroke="rgb(49,200,115)" stroke-width="1" opacity="0.5647058823529412" d="M 74.5 397 L 75.5 399 L 74.5 397 Z " /><path fill="rgb(49,200,115)" stroke="rgb(49,200,115)" stroke-width="1" opacity="0.5647058823529412" d="M 436.5 398 L 436 399.5 L 434.5 402 L 435 400.5 L 436.5 398 Z " /><path fill="rgb(49,200,115)" stroke="rgb(49,200,115)" stroke-width="1" opacity="0.5647058823529412" d="M 77.5 402 L 78.5 404 L 77.5 402 Z " /><path fill="rgb(49,200,115)" stroke="rgb(49,200,115)" stroke-width="1" opacity="0.5647058823529412" d="M 433.5 403 L 433 404.5 L 426.5 414 L 428 411.5 L 433.5 403 Z " /><path fill="rgb(49,200,115)" stroke="rgb(49,200,115)" stroke-width="1" opacity="0.5647058823529412" d="M 79.5 405 L 80.5 407 L 79.5 405 Z " /><path fill="rgb(49,200,115)" stroke="rgb(49,200,115)" stroke-width="1" opacity="0.5647058823529412" d="M 81.5 408 L 82.5 410 L 81.5 408 Z " /><path fill="rgb(49,200,115)" stroke="rgb(49,200,115)" stroke-width="1" opacity="0.5647058823529412" d="M 83.5 411 L 84.5 413 L 83.5 411 Z " /><path fill="rgb(49,200,115)" stroke="rgb(49,200,115)" stroke-width="1" opacity="0.5647058823529412" d="M 85.5 414 L 86.5 416 L 85.5 414 Z " /><path fill="rgb(49,200,115)" stroke="rgb(49,200,115)" stroke-width="1" opacity="0.5647058823529412" d="M 425.5 415 L 424 417.5 L 420.5 422 L 423 418.5 L 425.5 415 Z " /><path fill="rgb(49,200,115)" stroke="rgb(49,200,115)" stroke-width="1" opacity="0.5647058823529412" d="M 88.5 418 L 89.5 420 L 88.5 418 Z " /><path fill="rgb(49,200,115)" stroke="rgb(49,200,115)" stroke-width="1" opacity="0.5647058823529412" d="M 91.5 422 L 93.5 425 L 91.5 422 Z " /><path fill="rgb(49,200,115)" stroke="rgb(49,200,115)" stroke-width="1" opacity="0.5647058823529412" d="M 419.5 423 L 416.5 427 L 419.5 423 Z " /><path fill="rgb(49,200,115)" stroke="rgb(49,200,115)" stroke-width="1" opacity="0.5647058823529412" d="M 95.5 427 L 99.5 432 L 95.5 427 Z " /><path fill="rgb(49,200,115)" stroke="rgb(49,200,115)" stroke-width="1" opacity="0.5647058823529412" d="M 415.5 428 L 408.5 436 L 415.5 428 Z " /><path fill="rgb(49,200,115)" stroke="rgb(49,200,115)" stroke-width="1" opacity="0.5647058823529412" d="M 102.5 435 L 113.5 447 L 102.5 435 Z " /><path fill="rgb(49,200,115)" stroke="rgb(49,200,115)" stroke-width="1" opacity="0.5647058823529412" d="M 407.5 437 L 403.5 442 L 407.5 437 Z " /><path fill="rgb(49,200,115)" stroke="rgb(49,200,115)" stroke-width="1" opacity="0.5647058823529412" d="M 400.5 443 L 392.5 452 L 382.5 460 L 385.5 456 L 400.5 443 Z " /><path fill="rgb(49,200,115)" stroke="rgb(49,200,115)" stroke-width="1" opacity="0.5647058823529412" d="M 117.5 449 L 121.5 454 L 117.5 449 Z " /><path fill="rgb(49,200,115)" stroke="rgb(49,200,115)" stroke-width="1" opacity="0.5647058823529412" d="M 124.5 455 L 126.5 458 L 124.5 455 Z " /><path fill="rgb(49,200,115)" stroke="rgb(49,200,115)" stroke-width="1" opacity="0.5647058823529412" d="M 128.5 458 L 130.5 461 L 128.5 458 Z " /><path fill="rgb(49,200,115)" stroke="rgb(49,200,115)" stroke-width="1" opacity="0.5647058823529412" d="M 380.5 460 L 378.5 463 L 366.5 471 L 367.5 469 L 380.5 460 Z " /><path fill="rgb(49,200,115)" stroke="rgb(49,200,115)" stroke-width="1" opacity="0.5647058823529412" d="M 133.5 462 L 134.5 464 L 133.5 462 Z " /><path fill="rgb(49,200,115)" stroke="rgb(49,200,115)" stroke-width="1" opacity="0.5647058823529412" d="M 136.5 464 L 137.5 466 L 136.5 464 Z " /><path fill="rgb(49,200,115)" stroke="rgb(49,200,115)" stroke-width="1" opacity="0.5647058823529412" d="M 139.5 466 L 140.5 468 L 139.5 466 Z " /><path fill="rgb(49,200,115)" stroke="rgb(49,200,115)" stroke-width="1" opacity="0.5647058823529412" d="M 144.5 469 L 145.5 471 L 144.5 469 Z " /><path fill="rgb(49,200,115)" stroke="rgb(49,200,115)" stroke-width="1" opacity="0.5647058823529412" d="M 364.5 471 L 363.5 473 L 339.5 485 L 339.5 484 L 364.5 471 Z " /><path fill="rgb(49,200,115)" stroke="rgb(49,200,115)" stroke-width="1" opacity="0.5647058823529412" d="M 149.5 472 L 153 474.5 L 151.5 474 L 149.5 472 Z " /><path fill="rgb(49,200,115)" stroke="rgb(49,200,115)" stroke-width="1" opacity="0.5647058823529412" d="M 154.5 475 L 171 483.5 L 169.5 484 L 155.5 477 L 154.5 475 Z " /><path fill="rgb(49,200,115)" stroke="rgb(49,200,115)" stroke-width="1" opacity="0.5647058823529412" d="M 172.5 484 L 178 486.5 L 176.5 487 L 172.5 485 L 172.5 484 Z " /><path fill="rgb(49,200,115)" stroke="rgb(49,200,115)" stroke-width="1" opacity="0.5647058823529412" d="M 336.5 485 L 338 485.5 L 329.5 489 L 329.5 488 L 336.5 485 Z " /><path fill="rgb(49,200,115)" stroke="rgb(49,200,115)" stroke-width="1" opacity="0.5647058823529412" d="M 179.5 487 L 186 489.5 L 184.5 490 L 179.5 488 L 179.5 487 Z " /><path fill="rgb(49,200,115)" stroke="rgb(49,200,115)" stroke-width="1" opacity="0.5647058823529412" d="M 196.5 493 L 202 494.5 L 199.5 495 L 196.5 494 L 196.5 493 Z " /><path fill="rgb(49,200,115)" stroke="rgb(49,200,115)" stroke-width="1" opacity="0.5647058823529412" d="M 313.5 493 L 316 493.5 L 310.5 495 L 310.5 494 L 313.5 493 Z " /><path fill="rgb(49,200,115)" stroke="rgb(49,200,115)" stroke-width="1" opacity="0.5647058823529412" d="M 203.5 495 L 206 495.5 L 203.5 496 L 203.5 495 Z " /><path fill="rgb(49,200,115)" stroke="rgb(49,200,115)" stroke-width="1" opacity="0.5647058823529412" d="M 306.5 495 L 309 495.5 L 306.5 496 L 306.5 495 Z " /><path fill="rgb(49,200,115)" stroke="rgb(49,200,115)" stroke-width="1" opacity="0.5647058823529412" d="M 207.5 496 L 210 496.5 L 207.5 497 L 207.5 496 Z " /><path fill="rgb(49,200,115)" stroke="rgb(49,200,115)" stroke-width="1" opacity="0.5647058823529412" d="M 302.5 496 L 305 496.5 L 302.5 497 L 302.5 496 Z " /><path fill="rgb(49,200,115)" stroke="rgb(49,200,115)" stroke-width="1" opacity="0.5647058823529412" d="M 211.5 497 L 215 497.5 L 211.5 498 L 211.5 497 Z " /><path fill="rgb(49,200,115)" stroke="rgb(49,200,115)" stroke-width="1" opacity="0.5647058823529412" d="M 297.5 497 L 300 497.5 L 297.5 498 L 297.5 497 Z " /><path fill="rgb(49,200,115)" stroke="rgb(49,200,115)" stroke-width="1" opacity="0.5647058823529412" d="M 217.5 498 L 221 498.5 L 217.5 499 L 217.5 498 Z " /><path fill="rgb(49,200,115)" stroke="rgb(49,200,115)" stroke-width="1" opacity="0.5647058823529412" d="M 292.5 498 L 296 498.5 L 292.5 499 L 292.5 498 Z " /><path fill="rgb(49,200,115)" stroke="rgb(49,200,115)" stroke-width="1" opacity="0.5647058823529412" d="M 222.5 499 L 227 499.5 L 222.5 500 L 222.5 499 Z " /><path fill="rgb(49,200,115)" stroke="rgb(49,200,115)" stroke-width="1" opacity="0.5647058823529412" d="M 285.5 499 L 290 499.5 L 285.5 500 L 285.5 499 Z " /><path fill="rgb(49,200,115)" stroke="rgb(49,200,115)" stroke-width="1" opacity="0.5647058823529412" d="M 229.5 500 L 235 500.5 L 229.5 501 L 229.5 500 Z " /><path fill="rgb(49,200,115)" stroke="rgb(49,200,115)" stroke-width="1" opacity="0.5647058823529412" d="M 277.5 500 L 283 500.5 L 277.5 501 L 277.5 500 Z " /><path fill="rgb(49,200,115)" stroke="rgb(49,200,115)" stroke-width="1" opacity="0.5647058823529412" d="M 239.5 501 L 252 501.5 L 239.5 502 L 239.5 501 Z " /><path fill="rgb(49,200,115)" stroke="rgb(49,200,115)" stroke-width="1" opacity="0.5647058823529412" d="M 258.5 501 L 273 501.5 L 258.5 502 L 258.5 501 Z " /><path fill="rgb(46,204,113)" stroke="rgb(46,204,113)" stroke-width="1" opacity="0.996078431372549" d="M 271.5 90 L 288.5 90 L 293 92.5 L 296 101.5 L 299.5 106 L 304.5 105 L 309 110.5 L 302 116.5 L 304 124.5 L 300.5 130 L 292 132.5 L 294 140 L 282.5 144 L 269.5 146 L 257.5 151 L 248.5 152 L 244 155.5 Q 241.9 163.4 235.5 167 Q 222.8 165.9 216 160 L 210 149.5 L 224 125.5 L 247 97 L 254.5 91 L 270.5 91 L 271.5 90 Z " /><path fill="rgb(46,204,113)" stroke="rgb(46,204,113)" stroke-width="1" opacity="0.996078431372549" d="M 389.5 134 L 410 153.5 Q 438.5 184 454 227.5 L 460 249.5 L 463 266.5 L 463 273.5 L 464 274.5 L 464 313.5 L 457 350.5 L 445 382.5 Q 427.9 417.4 401.5 443 L 384.5 448 L 358.5 452 L 361.5 448 Q 381.8 434.8 397 416.5 L 401 410.5 L 397 404.5 L 397 398.5 L 388 379.5 L 387 372.5 L 393 363.5 L 393 360.5 L 391 356.5 L 390 348.5 L 386 341.5 L 410 285.5 L 418 261.5 L 421 243 L 437.5 246 L 445 246 L 444 236.5 L 441.5 232 Q 430.4 233.6 428 226.5 L 424.5 220 L 419 222 L 421 228.5 L 418.5 230 L 411.5 222 L 405 217.5 Q 405.8 215.3 403.5 216 L 390.5 206 L 389 209.5 L 393 212.5 L 387 213 Q 383.7 196.6 373 186.5 L 378 184 L 378 177 L 384 177 Q 383 181.7 386.5 183 L 410.5 183 Q 411.5 183 411 178.5 L 413.5 175 L 417.5 174 L 419 174.5 L 408.5 159 L 401 162.5 L 406 166.5 Q 403.4 173.9 397.5 178 L 389.5 179 Q 385.4 176.3 386 171 L 382.5 171 L 376.5 174 L 372 170.5 L 370 165.5 L 374.5 160 Q 388 154 398 144.5 L 389.5 134 Z " /><path fill="rgb(46,204,113)" stroke="rgb(46,204,113)" stroke-width="1" opacity="0.996078431372549" d="M 293 151 L 312.5 151 L 317 152 Q 318.1 154.7 315.5 154 Q 311.1 159.6 299.5 158 L 293 154.5 L 293 151 Z " /><path fill="rgb(46,204,113)" stroke="rgb(46,204,113)" stroke-width="1" opacity="0.996078431372549" d="M 197 184 L 202 187.5 L 200 194 L 209 199.5 L 208.5 201 L 194 201 L 198 191 L 195.5 192 L 196 190.5 L 197 184 Z " /><path fill="rgb(46,204,113)" stroke="rgb(46,204,113)" stroke-width="1" opacity="0.996078431372549" d="M 386 241 L 397 245 Q 394.5 269.9 378.5 282 L 369.5 287 L 364 287 L 363 284.5 L 363 270.5 L 365.5 266 Q 373.9 262.4 379 255.5 L 386 243.5 L 386 241 Z " /><path fill="rgb(46,204,113)" stroke="rgb(46,204,113)" stroke-width="1" opacity="0.996078431372549" d="M 314.5 262 L 325.5 268 L 339 271 Q 337.6 282.8 341 290.5 L 356 316 L 348.5 317 L 349 315.5 Q 349.8 312.9 346.5 314 L 337 311 L 336 317 L 338 317.5 L 332.5 320 L 327 315.5 L 326 309.5 L 327 307 L 314.5 303 L 309 297.5 L 308 292.5 Q 313 284.5 311 269.5 L 314.5 262 Z " /><path fill="rgb(46,204,113)" stroke="rgb(46,204,113)" stroke-width="1" opacity="0.996078431372549" d="M 213.5 321 L 222.5 333 L 250.5 342 L 260 348.5 L 260 352.5 L 249.5 370 Q 236.8 358.7 227 344.5 L 213 322.5 L 213.5 321 Z " /><path fill="rgb(112,210,184)" stroke="rgb(112,210,184)" stroke-width="1" opacity="0.9764705882352941" d="M 242.5 86 L 253 86.5 L 242.5 87 L 242.5 86 Z " /><path fill="rgb(112,210,184)" stroke="rgb(112,210,184)" stroke-width="1" opacity="0.9764705882352941" d="M 258.5 86 L 269 86.5 L 258.5 87 L 258.5 86 Z " /><path fill="rgb(112,210,184)" stroke="rgb(112,210,184)" stroke-width="1" opacity="0.9764705882352941" d="M 231.5 87 L 235 87.5 L 231.5 88 L 231.5 87 Z " /><path fill="rgb(112,210,184)" stroke="rgb(112,210,184)" stroke-width="1" opacity="0.9764705882352941" d="M 276.5 87 L 280 87.5 L 276.5 88 L 276.5 87 Z " /><path fill="rgb(112,210,184)" stroke="rgb(112,210,184)" stroke-width="1" opacity="0.9764705882352941" d="M 224.5 88 L 227 88.5 L 224.5 89 L 224.5 88 Z " /><path fill="rgb(112,210,184)" stroke="rgb(112,210,184)" stroke-width="1" opacity="0.9764705882352941" d="M 285.5 88 L 288 88.5 L 285.5 89 L 285.5 88 Z " /><path fill="rgb(112,210,184)" stroke="rgb(112,210,184)" stroke-width="1" opacity="0.9764705882352941" d="M 291.5 89 L 294 89.5 L 291.5 90 L 291.5 89 Z " /><path fill="rgb(112,210,184)" stroke="rgb(112,210,184)" stroke-width="1" opacity="0.9764705882352941" d="M 243.5 90 L 271 90.5 L 243.5 91 L 243.5 90 Z " /><path fill="rgb(112,210,184)" stroke="rgb(112,210,184)" stroke-width="1" opacity="0.9764705882352941" d="M 225.5 93 L 223.5 96 L 225.5 93 Z " /><path fill="rgb(112,210,184)" stroke="rgb(112,210,184)" stroke-width="1" opacity="0.9764705882352941" d="M 195.5 100 L 200 100.5 L 195.5 101 L 195.5 100 Z " /><path fill="rgb(112,210,184)" stroke="rgb(112,210,184)" stroke-width="1" opacity="0.9764705882352941" d="M 208.5 101 L 213 101.5 L 208.5 102 L 208.5 101 Z " /><path fill="rgb(112,210,184)" stroke="rgb(112,210,184)" stroke-width="1" opacity="0.9764705882352941" d="M 299.5 105 L 302 105.5 L 299.5 106 L 299.5 105 Z " /><path fill="rgb(112,210,184)" stroke="rgb(112,210,184)" stroke-width="1" opacity="0.9764705882352941" d="M 174.5 111 L 173.5 113 L 174.5 111 Z " /><path fill="rgb(112,210,184)" stroke="rgb(112,210,184)" stroke-width="1" opacity="0.9764705882352941" d="M 369.5 119 L 370.5 121 L 369.5 119 Z " /><path fill="rgb(112,210,184)" stroke="rgb(112,210,184)" stroke-width="1" opacity="0.9764705882352941" d="M 372.5 121 L 373.5 123 L 372.5 121 Z " /><path fill="rgb(112,210,184)" stroke="rgb(112,210,184)" stroke-width="1" opacity="0.9764705882352941" d="M 177.5 123 L 181 123.5 L 177.5 124 L 177.5 123 Z " /><path fill="rgb(112,210,184)" stroke="rgb(112,210,184)" stroke-width="1" opacity="0.9764705882352941" d="M 185.5 123 L 188 123.5 L 185.5 124 L 185.5 123 Z " /><path fill="rgb(112,210,184)" stroke="rgb(112,210,184)" stroke-width="1" opacity="0.9764705882352941" d="M 133.5 126 L 132.5 128 L 131 127.5 L 133.5 126 Z " /><path fill="rgb(112,210,184)" stroke="rgb(112,210,184)" stroke-width="1" opacity="0.9764705882352941" d="M 379.5 126 L 380.5 128 L 379.5 126 Z " /><path fill="rgb(112,210,184)" stroke="rgb(112,210,184)" stroke-width="1" opacity="0.9764705882352941" d="M 197.5 127 L 200.5 131 L 197.5 127 Z " /><path fill="rgb(112,210,184)" stroke="rgb(112,210,184)" stroke-width="1" opacity="0.9764705882352941" d="M 128.5 129 L 126.5 132 L 128.5 129 Z " /><path fill="rgb(112,210,184)" stroke="rgb(112,210,184)" stroke-width="1" opacity="0.9764705882352941" d="M 383.5 129 L 391.5 138 L 383.5 129 Z " /><path fill="rgb(112,210,184)" stroke="rgb(112,210,184)" stroke-width="1" opacity="0.9764705882352941" d="M 209.5 137 L 208.5 139 L 209.5 137 Z " /><path fill="rgb(112,210,184)" stroke="rgb(112,210,184)" stroke-width="1" opacity="0.9764705882352941" d="M 334.5 139 L 334 140.5 L 333.5 142 L 333 140.5 L 334.5 139 Z " /><path fill="rgb(112,210,184)" stroke="rgb(112,210,184)" stroke-width="1" opacity="0.9764705882352941" d="M 171.5 143 L 172.5 145 L 171.5 143 Z " /><path fill="rgb(112,210,184)" stroke="rgb(112,210,184)" stroke-width="1" opacity="0.9764705882352941" d="M 338.5 144 L 339 146.5 L 338 146.5 L 338.5 144 Z " /><path fill="rgb(112,210,184)" stroke="rgb(112,210,184)" stroke-width="1" opacity="0.9764705882352941" d="M 397.5 144 L 395.5 147 L 397.5 144 Z " /><path fill="rgb(112,210,184)" stroke="rgb(112,210,184)" stroke-width="1" opacity="0.9764705882352941" d="M 332.5 147 L 333 150.5 L 332 150.5 L 332.5 147 Z " /><path fill="rgb(112,210,184)" stroke="rgb(112,210,184)" stroke-width="1" opacity="0.9764705882352941" d="M 392.5 148 L 391.5 150 L 392.5 148 Z " /><path fill="rgb(112,210,184)" stroke="rgb(112,210,184)" stroke-width="1" opacity="0.9764705882352941" d="M 127.5 149 L 130 149.5 L 127.5 150 L 127.5 149 Z " /><path fill="rgb(112,210,184)" stroke="rgb(112,210,184)" stroke-width="1" opacity="0.9764705882352941" d="M 121.5 150 Q 123.8 149.3 123 151.5 L 121.5 150 Z " /><path fill="rgb(112,210,184)" stroke="rgb(112,210,184)" stroke-width="1" opacity="0.9764705882352941" d="M 295.5 150 L 308 150.5 L 295.5 151 L 295.5 150 Z " /><path fill="rgb(112,210,184)" stroke="rgb(112,210,184)" stroke-width="1" opacity="0.9764705882352941" d="M 252.5 151 L 256 151.5 L 252.5 152 L 252.5 151 Z " /><path fill="rgb(112,210,184)" stroke="rgb(112,210,184)" stroke-width="1" opacity="0.9764705882352941" d="M 121.5 157 L 126 157.5 L 121.5 158 L 121.5 157 Z " /><path fill="rgb(112,210,184)" stroke="rgb(112,210,184)" stroke-width="1" opacity="0.9764705882352941" d="M 302.5 158 L 306 158.5 L 302.5 159 L 302.5 158 Z " /><path fill="rgb(112,210,184)" stroke="rgb(112,210,184)" stroke-width="1" opacity="0.9764705882352941" d="M 162.5 159 L 165 159.5 L 162.5 160 L 162.5 159 Z " /><path fill="rgb(112,210,184)" stroke="rgb(112,210,184)" stroke-width="1" opacity="0.9764705882352941" d="M 178.5 160 L 177.5 162 L 176 161.5 L 178.5 160 Z " /><path fill="rgb(112,210,184)" stroke="rgb(112,210,184)" stroke-width="1" opacity="0.9764705882352941" d="M 217.5 160 L 218.5 162 L 217.5 160 Z " /><path fill="rgb(112,210,184)" stroke="rgb(112,210,184)" stroke-width="1" opacity="0.9764705882352941" d="M 146.5 161 L 150 161.5 L 146.5 162 L 146.5 161 Z " /><path fill="rgb(112,210,184)" stroke="rgb(112,210,184)" stroke-width="1" opacity="0.9764705882352941" d="M 241.5 161 L 236.5 167 L 241.5 161 Z " /><path fill="rgb(112,210,184)" stroke="rgb(112,210,184)" stroke-width="1" opacity="0.9764705882352941" d="M 410.5 161 L 411.5 163 L 410.5 161 Z " /><path fill="rgb(112,210,184)" stroke="rgb(112,210,184)" stroke-width="1" opacity="0.9764705882352941" d="M 153.5 162 L 156 162.5 L 153.5 163 L 153.5 162 Z " /><path fill="rgb(112,210,184)" stroke="rgb(112,210,184)" stroke-width="1" opacity="0.9764705882352941" d="M 336.5 162 L 337 169.5 L 336 169.5 L 336.5 162 Z " /><path fill="rgb(112,210,184)" stroke="rgb(112,210,184)" stroke-width="1" opacity="0.9764705882352941" d="M 401.5 162 L 403.5 165 L 401.5 162 Z " /><path fill="rgb(112,210,184)" stroke="rgb(112,210,184)" stroke-width="1" opacity="0.9764705882352941" d="M 98.5 164 L 97.5 166 L 98.5 164 Z " /><path fill="rgb(112,210,184)" stroke="rgb(112,210,184)" stroke-width="1" opacity="0.9764705882352941" d="M 180.5 169 L 181.5 171 L 180.5 169 Z " /><path fill="rgb(112,210,184)" stroke="rgb(112,210,184)" stroke-width="1" opacity="0.9764705882352941" d="M 372.5 171 L 373.5 173 L 372.5 171 Z " /><path fill="rgb(112,210,184)" stroke="rgb(112,210,184)" stroke-width="1" opacity="0.9764705882352941" d="M 382.5 171 L 381.5 173 L 382.5 171 Z " /><path fill="rgb(112,210,184)" stroke="rgb(112,210,184)" stroke-width="1" opacity="0.9764705882352941" d="M 339.5 172 Q 346.8 170.8 349 174.5 L 352 182 L 359 187.5 L 360.5 190 L 363.5 191 L 372.5 186 Q 383.6 196.2 387 213 L 384.5 214 L 378.5 211 L 372.5 214 L 368.5 214 L 366.5 214 L 356 223.5 L 351.5 229 L 342 232 L 341.5 234 L 341 228 L 332.5 230 L 330 229 L 329 223.5 L 330 222.5 L 330 214.5 L 331.5 213 L 333 218 L 339 216.5 L 338 212 L 347.5 212 L 351 209.5 L 351 205.5 L 347.5 201 L 343 199.5 L 360 194.5 Q 356.4 191.1 347.5 193 L 341 189.5 L 346 183.5 L 339.5 181 Q 340 186.5 336.5 188 L 336 184 L 330 184 L 330 189.5 L 331 191.5 L 329 190.5 L 328 184.5 L 337 178.5 L 336 174.5 L 339.5 172 Z " /><path fill="rgb(112,210,184)" stroke="rgb(112,210,184)" stroke-width="1" opacity="0.9764705882352941" d="M 185.5 173 L 186.5 175 L 185.5 173 Z " /><path fill="rgb(112,210,184)" stroke="rgb(112,210,184)" stroke-width="1" opacity="0.9764705882352941" d="M 401.5 174 L 398.5 178 L 401.5 174 Z " /><path fill="rgb(112,210,184)" stroke="rgb(112,210,184)" stroke-width="1" opacity="0.9764705882352941" d="M 380.5 176 L 384 176.5 L 380.5 177 L 380.5 176 Z " /><path fill="rgb(112,210,184)" stroke="rgb(112,210,184)" stroke-width="1" opacity="0.9764705882352941" d="M 190.5 177 L 191.5 179 L 190.5 177 Z " /><path fill="rgb(112,210,184)" stroke="rgb(112,210,184)" stroke-width="1" opacity="0.9764705882352941" d="M 377.5 178 L 378 183.5 L 377 183.5 L 377.5 178 Z " /><path fill="rgb(112,210,184)" stroke="rgb(112,210,184)" stroke-width="1" opacity="0.9764705882352941" d="M 138.5 180 L 139 182.5 L 138 182.5 L 138.5 180 Z " /><path fill="rgb(112,210,184)" stroke="rgb(112,210,184)" stroke-width="1" opacity="0.9764705882352941" d="M 195.5 181 L 196.5 183 L 195.5 181 Z " /><path fill="rgb(112,210,184)" stroke="rgb(112,210,184)" stroke-width="1" opacity="0.9764705882352941" d="M 130.5 182 L 131.5 184 Q 128.7 184.7 130.5 182 Z " /><path fill="rgb(112,210,184)" stroke="rgb(112,210,184)" stroke-width="1" opacity="0.9764705882352941" d="M 139.5 185 L 140 187.5 L 139 187.5 L 139.5 185 Z " /><path fill="rgb(112,210,184)" stroke="rgb(112,210,184)" stroke-width="1" opacity="0.9764705882352941" d="M 200.5 185 L 202.5 188 L 200.5 185 Z " /><path fill="rgb(112,210,184)" stroke="rgb(112,210,184)" stroke-width="1" opacity="0.9764705882352941" d="M 103.5 192 L 102.5 194 L 103.5 192 Z " /><path fill="rgb(112,210,184)" stroke="rgb(112,210,184)" stroke-width="1" opacity="0.9764705882352941" d="M 180.5 195 L 182.5 198 L 180.5 195 Z " /><path fill="rgb(112,210,184)" stroke="rgb(112,210,184)" stroke-width="1" opacity="0.9764705882352941" d="M 151.5 196 L 152.5 198 L 151.5 196 Z " /><path fill="rgb(112,210,184)" stroke="rgb(112,210,184)" stroke-width="1" opacity="0.9764705882352941" d="M 94.5 201 L 93.5 203 L 94.5 201 Z " /><path fill="rgb(112,210,184)" stroke="rgb(112,210,184)" stroke-width="1" opacity="0.9764705882352941" d="M 179.5 202 L 180.5 204 L 179.5 202 Z " /><path fill="rgb(112,210,184)" stroke="rgb(112,210,184)" stroke-width="1" opacity="0.9764705882352941" d="M 182.5 204 L 185 204.5 L 182.5 205 L 182.5 204 Z " /><path fill="rgb(112,210,184)" stroke="rgb(112,210,184)" stroke-width="1" opacity="0.9764705882352941" d="M 189.5 205 L 191.5 208 L 189.5 205 Z " /><path fill="rgb(112,210,184)" stroke="rgb(112,210,184)" stroke-width="1" opacity="0.9764705882352941" d="M 332.5 206 L 336 206.5 L 332.5 207 L 332.5 206 Z " /><path fill="rgb(112,210,184)" stroke="rgb(112,210,184)" stroke-width="1" opacity="0.9764705882352941" d="M 390.5 206 L 389.5 208 L 390.5 206 Z " /><path fill="rgb(112,210,184)" stroke="rgb(112,210,184)" stroke-width="1" opacity="0.9764705882352941" d="M 337.5 208 L 338 210.5 L 337 210.5 L 337.5 208 Z " /><path fill="rgb(112,210,184)" stroke="rgb(112,210,184)" stroke-width="1" opacity="0.9764705882352941" d="M 389.5 209 L 391.5 212 L 389.5 209 Z " /><path fill="rgb(112,210,184)" stroke="rgb(112,210,184)" stroke-width="1" opacity="0.9764705882352941" d="M 156.5 210 L 157 216.5 L 156 216.5 L 156.5 210 Z " /><path fill="rgb(112,210,184)" stroke="rgb(112,210,184)" stroke-width="1" opacity="0.9764705882352941" d="M 133.5 212 L 134 217.5 L 133 217.5 L 133.5 212 Z " /><path fill="rgb(112,210,184)" stroke="rgb(112,210,184)" stroke-width="1" opacity="0.9764705882352941" d="M 175.5 212 L 178 212.5 L 175.5 213 L 175.5 212 Z " /><path fill="rgb(112,210,184)" stroke="rgb(112,210,184)" stroke-width="1" opacity="0.9764705882352941" d="M 399.5 212 L 400.5 214 L 399.5 212 Z " /><path fill="rgb(112,210,184)" stroke="rgb(112,210,184)" stroke-width="1" opacity="0.9764705882352941" d="M 429.5 228 L 431.5 231 L 429.5 228 Z " /><path fill="rgb(112,210,184)" stroke="rgb(112,210,184)" stroke-width="1" opacity="0.9764705882352941" d="M 437.5 232 L 442 232.5 L 437.5 233 L 437.5 232 Z " /><path fill="rgb(112,210,184)" stroke="rgb(112,210,184)" stroke-width="1" opacity="0.9764705882352941" d="M 352.5 233 L 357 233.5 Q 350.1 240.1 346.5 250 L 344.5 249 L 341 250 L 343 258.5 L 340 271 Q 325 269.7 315 263 L 315 260.5 L 319.5 256 L 327 250.5 Q 328.5 242 334.5 238 Q 337.1 238.8 336 235.5 L 337 235.5 Q 335.1 240.9 338.5 240 L 343 239 L 342 235 L 352.5 233 Z " /><path fill="rgb(112,210,184)" stroke="rgb(112,210,184)" stroke-width="1" opacity="0.9764705882352941" d="M 382.5 240 L 387 240.5 Q 382.7 254.2 372.5 262 L 364.5 267 L 365 265.5 L 367 258.5 L 378.5 243 L 382.5 240 Z " /><path fill="rgb(112,210,184)" stroke="rgb(112,210,184)" stroke-width="1" opacity="0.9764705882352941" d="M 123.5 242 L 122.5 244 L 123.5 242 Z " /><path fill="rgb(112,210,184)" stroke="rgb(112,210,184)" stroke-width="1" opacity="0.9764705882352941" d="M 75.5 243 L 76 251.5 L 75 251.5 L 75.5 243 Z " /><path fill="rgb(112,210,184)" stroke="rgb(112,210,184)" stroke-width="1" opacity="0.9764705882352941" d="M 98.5 243 L 99 251 L 103 251.5 L 99.5 252 L 98 250.5 L 98.5 243 Z " /><path fill="rgb(112,210,184)" stroke="rgb(112,210,184)" stroke-width="1" opacity="0.9764705882352941" d="M 424.5 243 L 427 243.5 L 424.5 244 L 424.5 243 Z " /><path fill="rgb(112,210,184)" stroke="rgb(112,210,184)" stroke-width="1" opacity="0.9764705882352941" d="M 437.5 245 L 440 245.5 L 437.5 246 L 437.5 245 Z " /><path fill="rgb(112,210,184)" stroke="rgb(112,210,184)" stroke-width="1" opacity="0.9764705882352941" d="M 52.5 256 L 53.5 258 L 52.5 256 Z " /><path fill="rgb(112,210,184)" stroke="rgb(112,210,184)" stroke-width="1" opacity="0.9764705882352941" d="M 55.5 259 L 59.5 264 L 55.5 259 Z " /><path fill="rgb(112,210,184)" stroke="rgb(112,210,184)" stroke-width="1" opacity="0.9764705882352941" d="M 49 265 L 52 266.5 L 49 266.5 L 49 265 Z " /><path fill="rgb(112,210,184)" stroke="rgb(112,210,184)" stroke-width="1" opacity="0.9764705882352941" d="M 138.5 272 L 139.5 274 L 138.5 272 Z " /><path fill="rgb(112,210,184)" stroke="rgb(112,210,184)" stroke-width="1" opacity="0.9764705882352941" d="M 48.5 273 L 49 276.5 L 48 276.5 L 48.5 273 Z " /><path fill="rgb(112,210,184)" stroke="rgb(112,210,184)" stroke-width="1" opacity="0.9764705882352941" d="M 310.5 273 L 311 284.5 L 310 284.5 L 310.5 273 Z " /><path fill="rgb(112,210,184)" stroke="rgb(112,210,184)" stroke-width="1" opacity="0.9764705882352941" d="M 146.5 274 L 147 276 L 145 275.5 L 146.5 274 Z " /><path fill="rgb(112,210,184)" stroke="rgb(112,210,184)" stroke-width="1" opacity="0.9764705882352941" d="M 68.5 277 L 70.5 280 L 68.5 277 Z " /><path fill="rgb(112,210,184)" stroke="rgb(112,210,184)" stroke-width="1" opacity="0.9764705882352941" d="M 159.5 277 L 162 277.5 L 159.5 278 L 159.5 277 Z " /><path fill="rgb(112,210,184)" stroke="rgb(112,210,184)" stroke-width="1" opacity="0.9764705882352941" d="M 155.5 279 L 154.5 281 L 155.5 279 Z " /><path fill="rgb(112,210,184)" stroke="rgb(112,210,184)" stroke-width="1" opacity="0.9764705882352941" d="M 156.5 281 L 159 281.5 L 156.5 282 L 156.5 281 Z " /><path fill="rgb(112,210,184)" stroke="rgb(112,210,184)" stroke-width="1" opacity="0.9764705882352941" d="M 47.5 287 L 48 300.5 L 47 300.5 L 47.5 287 Z " /><path fill="rgb(112,210,184)" stroke="rgb(112,210,184)" stroke-width="1" opacity="0.9764705882352941" d="M 226.5 291 L 234.5 291 L 236 292.5 L 235.5 294 L 235 292 L 226.5 292 L 226.5 291 Z " /><path fill="rgb(112,210,184)" stroke="rgb(112,210,184)" stroke-width="1" opacity="0.9764705882352941" d="M 178.5 292 L 180 292.5 L 177.5 294 L 178.5 292 Z " /><path fill="rgb(112,210,184)" stroke="rgb(112,210,184)" stroke-width="1" opacity="0.9764705882352941" d="M 247.5 292 L 250 292.5 L 247.5 293 L 247.5 292 Z " /><path fill="rgb(112,210,184)" stroke="rgb(112,210,184)" stroke-width="1" opacity="0.9764705882352941" d="M 256.5 293 L 259 294.5 L 258.5 296 L 258 294 L 256.5 293 Z " /><path fill="rgb(112,210,184)" stroke="rgb(112,210,184)" stroke-width="1" opacity="0.9764705882352941" d="M 156.5 294 L 160 294.5 L 156.5 295 L 156.5 294 Z " /><path fill="rgb(112,210,184)" stroke="rgb(112,210,184)" stroke-width="1" opacity="0.9764705882352941" d="M 189.5 294 L 190 296.5 Q 189.3 298.8 185.5 298 L 185.5 297 Q 190.5 298.5 189.5 294 Z " /><path fill="rgb(112,210,184)" stroke="rgb(112,210,184)" stroke-width="1" opacity="0.9764705882352941" d="M 272.5 295 L 275 295.5 L 272.5 296 L 272.5 295 Z " /><path fill="rgb(112,210,184)" stroke="rgb(112,210,184)" stroke-width="1" opacity="0.9764705882352941" d="M 166.5 296 L 167 298.5 L 163.5 300 L 163.5 299 Q 167.5 300.1 166.5 296 Z " /><path fill="rgb(112,210,184)" stroke="rgb(112,210,184)" stroke-width="1" opacity="0.9764705882352941" d="M 278.5 296 L 282 297.5 L 280.5 297 Q 277.5 297.5 278.5 296 Z " /><path fill="rgb(112,210,184)" stroke="rgb(112,210,184)" stroke-width="1" opacity="0.9764705882352941" d="M 143.5 298 L 144 300.5 L 143 300.5 L 143.5 298 Z " /><path fill="rgb(112,210,184)" stroke="rgb(112,210,184)" stroke-width="1" opacity="0.9764705882352941" d="M 249.5 298 L 253 298.5 L 249.5 299 L 249.5 298 Z " /><path fill="rgb(112,210,184)" stroke="rgb(112,210,184)" stroke-width="1" opacity="0.9764705882352941" d="M 269.5 298 L 270 300.5 L 269 300.5 L 269.5 298 Z " /><path fill="rgb(112,210,184)" stroke="rgb(112,210,184)" stroke-width="1" opacity="0.9764705882352941" d="M 309.5 298 L 312.5 302 L 309.5 298 Z " /><path fill="rgb(112,210,184)" stroke="rgb(112,210,184)" stroke-width="1" opacity="0.9764705882352941" d="M 153.5 300 L 152.5 302 L 153.5 300 Z " /><path fill="rgb(112,210,184)" stroke="rgb(112,210,184)" stroke-width="1" opacity="0.9764705882352941" d="M 176.5 302 L 180 302.5 L 176.5 303 L 176.5 302 Z " /><path fill="rgb(112,210,184)" stroke="rgb(112,210,184)" stroke-width="1" opacity="0.9764705882352941" d="M 315.5 303 L 316.5 305 Q 313.7 305.7 315.5 303 Z " /><path fill="rgb(112,210,184)" stroke="rgb(112,210,184)" stroke-width="1" opacity="0.9764705882352941" d="M 129.5 305 L 133 306.5 L 130.5 307 L 129.5 305 Z " /><path fill="rgb(112,210,184)" stroke="rgb(112,210,184)" stroke-width="1" opacity="0.9764705882352941" d="M 137.5 305 L 141 305.5 L 137.5 306 L 137.5 305 Z " /><path fill="rgb(112,210,184)" stroke="rgb(112,210,184)" stroke-width="1" opacity="0.9764705882352941" d="M 48.5 311 L 49 315.5 L 48 315.5 L 48.5 311 Z " /><path fill="rgb(112,210,184)" stroke="rgb(112,210,184)" stroke-width="1" opacity="0.9764705882352941" d="M 196.5 312 L 197.5 314 L 196.5 312 Z " /><path fill="rgb(112,210,184)" stroke="rgb(112,210,184)" stroke-width="1" opacity="0.9764705882352941" d="M 325.5 313 L 326.5 315 L 325.5 313 Z " /><path fill="rgb(112,210,184)" stroke="rgb(112,210,184)" stroke-width="1" opacity="0.9764705882352941" d="M 336.5 318 L 335.5 320 L 336.5 318 Z " /><path fill="rgb(112,210,184)" stroke="rgb(112,210,184)" stroke-width="1" opacity="0.9764705882352941" d="M 213.5 320 L 214.5 322 L 213.5 320 Z " /><path fill="rgb(112,210,184)" stroke="rgb(112,210,184)" stroke-width="1" opacity="0.9764705882352941" d="M 49.5 321 L 50 323.5 L 49 323.5 L 49.5 321 Z " /><path fill="rgb(112,210,184)" stroke="rgb(112,210,184)" stroke-width="1" opacity="0.9764705882352941" d="M 137.5 328 L 135.5 331 L 137.5 328 Z " /><path fill="rgb(112,210,184)" stroke="rgb(112,210,184)" stroke-width="1" opacity="0.9764705882352941" d="M 257.5 345 L 258.5 347 L 257.5 345 Z " /><path fill="rgb(112,210,184)" stroke="rgb(112,210,184)" stroke-width="1" opacity="0.9764705882352941" d="M 254.5 361 L 253.5 363 L 254.5 361 Z " /><path fill="rgb(112,210,184)" stroke="rgb(112,210,184)" stroke-width="1" opacity="0.9764705882352941" d="M 389.5 367 L 388.5 369 L 389.5 367 Z " /><path fill="rgb(112,210,184)" stroke="rgb(112,210,184)" stroke-width="1" opacity="0.9764705882352941" d="M 147.5 369 L 148.5 371 L 147.5 369 Z " /><path fill="rgb(112,210,184)" stroke="rgb(112,210,184)" stroke-width="1" opacity="0.9764705882352941" d="M 150.5 372 L 151.5 374 L 150.5 372 Z " /><path fill="rgb(112,210,184)" stroke="rgb(112,210,184)" stroke-width="1" opacity="0.9764705882352941" d="M 248.5 373 L 249 375.5 L 248 375.5 L 248.5 373 Z " /><path fill="rgb(112,210,184)" stroke="rgb(112,210,184)" stroke-width="1" opacity="0.9764705882352941" d="M 159.5 378 L 160.5 380 L 159.5 378 Z " /><path fill="rgb(112,210,184)" stroke="rgb(112,210,184)" stroke-width="1" opacity="0.9764705882352941" d="M 162.5 392 L 163 394.5 L 162 394.5 L 162.5 392 Z " /><path fill="rgb(112,210,184)" stroke="rgb(112,210,184)" stroke-width="1" opacity="0.9764705882352941" d="M 396.5 398 L 397 403.5 L 396 403.5 L 396.5 398 Z " /><path fill="rgb(112,210,184)" stroke="rgb(112,210,184)" stroke-width="1" opacity="0.9764705882352941" d="M 222.5 403 L 223 406.5 L 222 406.5 L 222.5 403 Z " /><path fill="rgb(112,210,184)" stroke="rgb(112,210,184)" stroke-width="1" opacity="0.9764705882352941" d="M 221.5 409 L 219.5 412 L 221.5 409 Z " /><path fill="rgb(112,210,184)" stroke="rgb(112,210,184)" stroke-width="1" opacity="0.9764705882352941" d="M 216.5 414 L 213.5 418 L 216.5 414 Z " /><path fill="rgb(112,210,184)" stroke="rgb(112,210,184)" stroke-width="1" opacity="0.9764705882352941" d="M 87.5 416 L 88.5 418 L 87.5 416 Z " /><path fill="rgb(112,210,184)" stroke="rgb(112,210,184)" stroke-width="1" opacity="0.9764705882352941" d="M 396.5 416 L 393.5 420 L 396.5 416 Z " /><path fill="rgb(112,210,184)" stroke="rgb(112,210,184)" stroke-width="1" opacity="0.9764705882352941" d="M 90.5 420 L 91.5 422 L 90.5 420 Z " /><path fill="rgb(112,210,184)" stroke="rgb(112,210,184)" stroke-width="1" opacity="0.9764705882352941" d="M 210.5 422 L 208.5 425 L 210.5 422 Z " /><path fill="rgb(112,210,184)" stroke="rgb(112,210,184)" stroke-width="1" opacity="0.9764705882352941" d="M 94.5 425 L 95.5 427 L 94.5 425 Z " /><path fill="rgb(112,210,184)" stroke="rgb(112,210,184)" stroke-width="1" opacity="0.9764705882352941" d="M 100.5 432 L 105.5 438 L 100.5 432 Z " /><path fill="rgb(112,210,184)" stroke="rgb(112,210,184)" stroke-width="1" opacity="0.9764705882352941" d="M 153.5 434 L 154 437.5 L 153 437.5 L 153.5 434 Z " /><path fill="rgb(112,210,184)" stroke="rgb(112,210,184)" stroke-width="1" opacity="0.9764705882352941" d="M 378.5 434 L 376.5 437 L 378.5 434 Z " /><path fill="rgb(112,210,184)" stroke="rgb(112,210,184)" stroke-width="1" opacity="0.9764705882352941" d="M 190.5 437 L 194 437.5 L 190.5 438 L 190.5 437 Z " /><path fill="rgb(112,210,184)" stroke="rgb(112,210,184)" stroke-width="1" opacity="0.9764705882352941" d="M 153.5 439 L 154 441.5 L 153 441.5 L 153.5 439 Z " /><path fill="rgb(112,210,184)" stroke="rgb(112,210,184)" stroke-width="1" opacity="0.9764705882352941" d="M 371.5 440 L 370.5 442 L 371.5 440 Z " /><path fill="rgb(112,210,184)" stroke="rgb(112,210,184)" stroke-width="1" opacity="0.9764705882352941" d="M 111.5 443 L 116.5 449 L 111.5 443 Z " /><path fill="rgb(112,210,184)" stroke="rgb(112,210,184)" stroke-width="1" opacity="0.9764705882352941" d="M 366.5 444 L 365.5 446 L 366.5 444 Z " /><path fill="rgb(112,210,184)" stroke="rgb(112,210,184)" stroke-width="1" opacity="0.9764705882352941" d="M 178.5 449 L 175.5 453 L 178.5 449 Z " /><path fill="rgb(112,210,184)" stroke="rgb(112,210,184)" stroke-width="1" opacity="0.9764705882352941" d="M 121.5 452 L 123.5 455 L 121.5 452 Z " /><path fill="rgb(112,210,184)" stroke="rgb(112,210,184)" stroke-width="1" opacity="0.9764705882352941" d="M 131.5 460 L 132.5 462 L 131.5 460 Z " /><path fill="rgb(112,210,184)" stroke="rgb(112,210,184)" stroke-width="1" opacity="0.9764705882352941" d="M 149.5 461 L 150 464.5 L 149 464.5 L 149.5 461 Z " /><path fill="rgb(112,210,184)" stroke="rgb(112,210,184)" stroke-width="1" opacity="0.9764705882352941" d="M 173.5 463 L 171.5 466 L 173.5 463 Z " /><path fill="rgb(112,210,184)" stroke="rgb(112,210,184)" stroke-width="1" opacity="0.9764705882352941" d="M 208.5 485 L 211 485.5 L 208.5 486 L 208.5 485 Z " /><path fill="rgb(112,210,184)" stroke="rgb(112,210,184)" stroke-width="1" opacity="0.9764705882352941" d="M 268.5 485 L 271 485.5 L 268.5 486 L 268.5 485 Z " /><path fill="rgb(112,210,184)" stroke="rgb(112,210,184)" stroke-width="1" opacity="0.9764705882352941" d="M 216.5 486 L 219 486.5 L 216.5 487 L 216.5 486 Z " /><path fill="rgb(112,210,184)" stroke="rgb(112,210,184)" stroke-width="1" opacity="0.9764705882352941" d="M 260.5 486 L 263 486.5 L 260.5 487 L 260.5 486 Z " /><path fill="rgb(112,210,184)" stroke="rgb(112,210,184)" stroke-width="1" opacity="0.9764705882352941" d="M 228.5 487 L 251 487.5 L 228.5 488 L 228.5 487 Z " /><path fill="rgb(49,184,125)" stroke="rgb(49,184,125)" stroke-width="1" opacity="0.9882352941176471" d="M 230.5 91 L 254 91.5 L 247 97 L 224 125.5 L 210.5 149 L 206 142.5 L 210 136 L 204.5 137 L 197.5 127 L 187.5 123 L 177.5 123 L 168.5 125 L 159 119.5 L 167.5 117 L 175 111.5 L 177.5 108 L 191.5 101 L 207.5 101 L 212.5 102 Q 216.6 99.7 217 95 L 222.5 97 Q 224.8 92.3 230.5 91 Z " /><path fill="rgb(49,184,125)" stroke="rgb(49,184,125)" stroke-width="1" opacity="0.9882352941176471" d="M 131.5 130 L 142.5 131 L 170 140 L 172.5 145 L 186 149 L 184.5 153 L 180.5 154 Q 178.2 151.3 172.5 152 L 179 159.5 L 177.5 161 L 145.5 157 L 141 154.5 L 143.5 152 L 155 149 Q 156.8 144.5 151.5 146 L 145 148 L 146 142 L 131.5 142 L 131 143.5 L 134 149 L 121 150.5 L 135 157.5 L 126.5 158 L 116.5 155 L 97 165.5 L 96 168.5 L 99.5 172 L 106.5 175 L 119.5 179 L 123.5 179 L 130 182.5 Q 120.4 181.9 114.5 185 Q 101.6 191.6 93 202.5 Q 83.6 214.1 78 229.5 L 75 243.5 L 75 251.5 L 76 256.5 L 83 271.5 L 95 289 L 89.5 289 L 80.5 285 Q 71.8 282.2 67 275.5 L 65 269.5 L 52.5 256 L 51 255.5 L 56 234.5 L 69 201.5 Q 86 168.5 111.5 144 L 125.5 132 L 131.5 130 Z " /><path fill="rgb(49,184,125)" stroke="rgb(49,184,125)" stroke-width="1" opacity="0.9882352941176471" d="M 334 140 L 339 140 L 339 143.5 L 338 144.5 L 338 151 L 333 151 L 333 142.5 L 334 140 Z " /><path fill="rgb(49,184,125)" stroke="rgb(49,184,125)" stroke-width="1" opacity="0.9882352941176471" d="M 144.5 162 L 152.5 162 L 165 165 L 167.5 171 L 171.5 171 L 177.5 167 L 198 183.5 L 194.5 192 L 182.5 197 Q 180.6 192.9 173.5 194 L 169 197 Q 167.8 200 171.5 199 L 176.5 198 L 180.5 204 L 188.5 205 L 191 207.5 L 180.5 212 L 174.5 212 L 171.5 209 L 170.5 210 Q 164.1 209.6 162 213.5 Q 164.8 221.8 156.5 219 L 157 217.5 Q 158 198 146.5 191 L 140 187.5 L 139 180 L 145 178 L 141 168.5 L 144.5 162 Z " /><path fill="rgb(49,184,125)" stroke="rgb(49,184,125)" stroke-width="1" opacity="0.9882352941176471" d="M 331 162 L 336 162 L 336 173 L 331 173 L 331 162 Z " /><path fill="rgb(49,184,125)" stroke="rgb(49,184,125)" stroke-width="1" opacity="0.9882352941176471" d="M 330 184 L 336 184 L 336 195 L 331 195 L 331 190.5 L 330 184 Z " /><path fill="rgb(49,184,125)" stroke="rgb(49,184,125)" stroke-width="1" opacity="0.9882352941176471" d="M 128.5 205 L 132 206.5 L 133 208.5 L 133 221.5 Q 129.1 239.1 117.5 249 L 99 251 L 99 239.5 L 102 230.5 Q 107.2 218.7 116.5 211 L 128.5 205 Z " /><path fill="rgb(49,184,125)" stroke="rgb(49,184,125)" stroke-width="1" opacity="0.9882352941176471" d="M 336.5 206 L 339 216.5 L 333 218 L 332 207 L 336.5 206 Z " /><path fill="rgb(49,184,125)" stroke="rgb(49,184,125)" stroke-width="1" opacity="0.9882352941176471" d="M 411.5 222 L 412.5 224 L 411.5 222 Z " /><path fill="rgb(49,184,125)" stroke="rgb(49,184,125)" stroke-width="1" opacity="0.9882352941176471" d="M 414.5 225 L 415.5 227 L 414.5 225 Z " /><path fill="rgb(49,184,125)" stroke="rgb(49,184,125)" stroke-width="1" opacity="0.9882352941176471" d="M 337.5 228 Q 343.6 226.2 341 233.5 L 343 239 L 337 240 L 335 229 L 337.5 228 Z " /><path fill="rgb(49,184,125)" stroke="rgb(49,184,125)" stroke-width="1" opacity="0.9882352941176471" d="M 420.5 243 L 421 246.5 L 420 246.5 L 420.5 243 Z " /><path fill="rgb(49,184,125)" stroke="rgb(49,184,125)" stroke-width="1" opacity="0.9882352941176471" d="M 344.5 249 Q 347.1 248.2 346 251.5 L 344 257 Q 341 258.3 342 254.5 L 341 250 L 344.5 249 Z " /><path fill="rgb(49,184,125)" stroke="rgb(49,184,125)" stroke-width="1" opacity="0.9882352941176471" d="M 50.5 260 L 56 268.5 L 54.5 268 L 50 264.5 L 50.5 260 Z " /><path fill="rgb(49,184,125)" stroke="rgb(49,184,125)" stroke-width="1" opacity="0.9882352941176471" d="M 139 271 L 141.5 271 L 146 274.5 L 144.5 275 L 139 272.5 L 139 271 Z " /><path fill="rgb(49,184,125)" stroke="rgb(49,184,125)" stroke-width="1" opacity="0.9882352941176471" d="M 339.5 271 L 340 273.5 L 339 273.5 L 339.5 271 Z " /><path fill="rgb(49,184,125)" stroke="rgb(49,184,125)" stroke-width="1" opacity="0.9882352941176471" d="M 387.5 272 L 386.5 274 L 387.5 272 Z " /><path fill="rgb(49,184,125)" stroke="rgb(49,184,125)" stroke-width="1" opacity="0.9882352941176471" d="M 362.5 274 L 363 280.5 L 362 280.5 L 362.5 274 Z " /><path fill="rgb(49,184,125)" stroke="rgb(49,184,125)" stroke-width="1" opacity="0.9882352941176471" d="M 157.5 278 Q 164.5 276.5 166 280.5 Q 166.5 283.5 159.5 282 L 155 280.5 L 157.5 278 Z " /><path fill="rgb(49,184,125)" stroke="rgb(49,184,125)" stroke-width="1" opacity="0.9882352941176471" d="M 382.5 278 L 381.5 280 L 382.5 278 Z " /><path fill="rgb(49,184,125)" stroke="rgb(49,184,125)" stroke-width="1" opacity="0.9882352941176471" d="M 377.5 282 L 376.5 284 L 377.5 282 Z " /><path fill="rgb(49,184,125)" stroke="rgb(49,184,125)" stroke-width="1" opacity="0.9882352941176471" d="M 364.5 287 L 368 287.5 L 364.5 288 L 364.5 287 Z " /><path fill="rgb(49,184,125)" stroke="rgb(49,184,125)" stroke-width="1" opacity="0.9882352941176471" d="M 201 291 L 212 291 L 212 297 L 201 297 L 201 291 Z " /><path fill="rgb(49,184,125)" stroke="rgb(49,184,125)" stroke-width="1" opacity="0.9882352941176471" d="M 224 291 Q 227.4 293.1 235 292 L 235 297 L 224 297 L 224 291 Z " /><path fill="rgb(49,184,125)" stroke="rgb(49,184,125)" stroke-width="1" opacity="0.9882352941176471" d="M 180.5 292 L 189 292 L 189 297 L 178 298 L 178 293 L 179.5 293 L 180.5 292 Z " /><path fill="rgb(49,184,125)" stroke="rgb(49,184,125)" stroke-width="1" opacity="0.9882352941176471" d="M 247 293 Q 254.6 291.9 258 294 L 258 299 L 253.5 299 L 247 298 L 247 293 Z " /><path fill="rgb(49,184,125)" stroke="rgb(49,184,125)" stroke-width="1" opacity="0.9882352941176471" d="M 160.5 294 Q 168.8 291.5 166 299 L 159 300 L 159.5 304 L 165.5 300 Q 169.3 304.7 179.5 303 L 184.5 302 L 188 303 L 188 308 L 189.5 308 L 197.5 314 L 203.5 316 L 205.5 316 L 207.5 316 L 213 320.5 L 220 334.5 Q 232.4 354.1 249 369.5 L 249 372.5 L 246 385.5 L 241.5 392 L 224 399 Q 221.3 401.6 222 408.5 L 217.5 414 L 213 417.5 Q 211.6 423.6 206.5 426 L 199 427 Q 200.3 434.5 195.5 437 L 185.5 438 L 183 440.5 L 183 443 L 177.5 443 L 177 444.5 L 179 448.5 L 171 457.5 L 176 461.5 L 166 470.5 Q 165.3 474.3 167.5 475 L 181.5 480 L 208.5 486 L 227.5 487 L 228.5 488 L 250.5 488 L 251.5 487 L 262.5 487 L 263.5 486 L 270.5 486 L 286.5 483 L 315.5 474 Q 338.9 464.9 357.5 451 L 360.5 452 L 361.5 451 L 368.5 451 L 384.5 448 L 399.5 443 L 392.5 451 Q 365.5 475 328.5 489 L 291.5 499 L 277.5 500 L 276.5 501 L 258.5 501 Q 257.3 503.3 252.5 502 L 251.5 501 L 227.5 500 L 195.5 493 Q 170.3 485.3 150 472.5 L 150 470.5 L 150 457.5 L 154 441.5 L 154 431.5 L 158 419.5 L 162 400.5 L 163 382.5 L 159.5 378 L 149 372 L 136 351.5 L 133 343.5 L 135 338.5 Q 132.8 337.3 134 332.5 L 141 324.5 L 136 310 L 132.5 311 L 125 305.5 L 126.5 301 L 130.5 307 L 142.5 306 L 145.5 307 L 155 299.5 Q 152.8 292.8 159.5 295 L 160.5 294 Z " /><path fill="rgb(49,184,125)" stroke="rgb(49,184,125)" stroke-width="1" opacity="0.9882352941176471" d="M 270 295 L 281 297 L 281 302 L 276.5 302 L 270 301 L 270 295 Z " /><path fill="rgb(49,184,125)" stroke="rgb(49,184,125)" stroke-width="1" opacity="0.9882352941176471" d="M 138.5 297 Q 144.8 294.8 143 300.5 L 143.5 302 L 133 304 L 132 298 L 138.5 297 Z " /><path fill="rgb(49,184,125)" stroke="rgb(49,184,125)" stroke-width="1" opacity="0.9882352941176471" d="M 293.5 299 L 304 301 L 302.5 307 Q 299.6 304.4 293.5 305 L 292 303.5 L 293.5 299 Z " /><path fill="rgb(49,184,125)" stroke="rgb(49,184,125)" stroke-width="1" opacity="0.9882352941176471" d="M 317.5 304 L 327 307 L 326 313 L 315 310 L 315 305 L 316.5 305 L 317.5 304 Z " /><path fill="rgb(49,184,125)" stroke="rgb(49,184,125)" stroke-width="1" opacity="0.9882352941176471" d="M 337 311 L 349 314 L 346.5 320 L 336 317 L 337 311 Z " /><path fill="rgb(49,184,125)" stroke="rgb(49,184,125)" stroke-width="1" opacity="0.9882352941176471" d="M 353.5 311 L 354.5 313 L 353.5 311 Z " /><path fill="rgb(49,184,125)" stroke="rgb(49,184,125)" stroke-width="1" opacity="0.9882352941176471" d="M 359 320 Q 361.7 318.9 361 321.5 L 366.5 328 L 358 323.5 L 359 320 Z " /></svg>