<svg width="512" height="512" version="1.1" xmlns="http://www.w3.org/2000/svg" desc="Created with imagetracer.js version 1.2.6" ><path fill="rgb(236,93,113)" stroke="rgb(236,93,113)" stroke-width="1" opacity="0.9764705882352941" d="M 246.5 63 L 249 63.5 L 246.5 64 L 246.5 63 Z " /><path fill="rgb(236,93,113)" stroke="rgb(236,93,113)" stroke-width="1" opacity="0.9764705882352941" d="M 270.5 63 L 273 63.5 L 270.5 64 L 270.5 63 Z " /><path fill="rgb(236,93,113)" stroke="rgb(236,93,113)" stroke-width="1" opacity="0.9764705882352941" d="M 177.5 93 L 176.5 95 L 177.5 93 Z " /><path fill="rgb(236,93,113)" stroke="rgb(236,93,113)" stroke-width="1" opacity="0.9764705882352941" d="M 173.5 96 L 172.5 98 L 173.5 96 Z " /><path fill="rgb(236,93,113)" stroke="rgb(236,93,113)" stroke-width="1" opacity="0.9764705882352941" d="M 97.5 102 L 139 127.5 Q 95.4 173.4 70 237.5 L 59 271.5 L 54 295.5 L 53 310.5 L 52 311.5 L 52 347.5 L 53 348.5 L 54 361.5 L 60 382.5 Q 68.5 404.5 85.5 418 L 90 421.5 L 88.5 421 L 51.5 400 L 34 385.5 Q 22.3 372.2 16 353.5 L 10 325.5 L 9 299.5 L 10 298.5 L 10 285.5 L 11 284.5 L 12 270.5 L 17 246.5 L 25 220.5 L 36 193.5 Q 60.3 141.3 97.5 102 Z " /><path fill="rgb(236,93,113)" stroke="rgb(236,93,113)" stroke-width="1" opacity="0.9764705882352941" d="M 164.5 103 L 162.5 106 L 164.5 103 Z " /><path fill="rgb(236,93,113)" stroke="rgb(236,93,113)" stroke-width="1" opacity="0.9764705882352941" d="M 156.5 110 L 153.5 114 L 156.5 110 Z " /><path fill="rgb(236,93,113)" stroke="rgb(236,93,113)" stroke-width="1" opacity="0.9764705882352941" d="M 285.5 112 L 292.5 120 L 285.5 112 Z " /><path fill="rgb(236,93,113)" stroke="rgb(236,93,113)" stroke-width="1" opacity="0.9764705882352941" d="M 173.5 129 L 172.5 131 L 173.5 129 Z " /><path fill="rgb(236,93,113)" stroke="rgb(236,93,113)" stroke-width="1" opacity="0.9764705882352941" d="M 167.5 134 L 166.5 136 L 167.5 134 Z " /><path fill="rgb(236,93,113)" stroke="rgb(236,93,113)" stroke-width="1" opacity="0.9764705882352941" d="M 157.5 143 L 153.5 148 L 157.5 143 Z " /><path fill="rgb(236,93,113)" stroke="rgb(236,93,113)" stroke-width="1" opacity="0.9764705882352941" d="M 270.5 150 L 271.5 152 L 270.5 150 Z " /><path fill="rgb(236,93,113)" stroke="rgb(236,93,113)" stroke-width="1" opacity="0.9764705882352941" d="M 183.5 153 L 182.5 155 L 183.5 153 Z " /><path fill="rgb(236,93,113)" stroke="rgb(236,93,113)" stroke-width="1" opacity="0.9764705882352941" d="M 144.5 157 L 143.5 159 L 144.5 157 Z " /><path fill="rgb(236,93,113)" stroke="rgb(236,93,113)" stroke-width="1" opacity="0.9764705882352941" d="M 173.5 161 L 171.5 164 L 173.5 161 Z " /><path fill="rgb(236,93,113)" stroke="rgb(236,93,113)" stroke-width="1" opacity="0.9764705882352941" d="M 242.5 174 L 243.5 176 L 242.5 174 Z " /><path fill="rgb(236,93,113)" stroke="rgb(236,93,113)" stroke-width="1" opacity="0.9764705882352941" d="M 159.5 175 L 156.5 179 L 159.5 175 Z " /><path fill="rgb(236,93,113)" stroke="rgb(236,93,113)" stroke-width="1" opacity="0.9764705882352941" d="M 247.5 179 L 248.5 181 L 247.5 179 Z " /><path fill="rgb(236,93,113)" stroke="rgb(236,93,113)" stroke-width="1" opacity="0.9764705882352941" d="M 152.5 183 L 151.5 185 L 152.5 183 Z " /><path fill="rgb(236,93,113)" stroke="rgb(236,93,113)" stroke-width="1" opacity="0.9764705882352941" d="M 182.5 185 L 181.5 187 L 182.5 185 Z " /><path fill="rgb(236,93,113)" stroke="rgb(236,93,113)" stroke-width="1" opacity="0.9764705882352941" d="M 148.5 188 L 147.5 190 L 148.5 188 Z " /><path fill="rgb(236,93,113)" stroke="rgb(236,93,113)" stroke-width="1" opacity="0.9764705882352941" d="M 166.5 201 L 165.5 203 L 166.5 201 Z " /><path fill="rgb(236,93,113)" stroke="rgb(236,93,113)" stroke-width="1" opacity="0.9764705882352941" d="M 162.5 206 L 161.5 208 L 162.5 206 Z " /><path fill="rgb(236,93,113)" stroke="rgb(236,93,113)" stroke-width="1" opacity="0.9764705882352941" d="M 223.5 207 L 224.5 209 L 223.5 207 Z " /><path fill="rgb(236,93,113)" stroke="rgb(236,93,113)" stroke-width="1" opacity="0.9764705882352941" d="M 257.5 209 L 258 215.5 L 257 215.5 L 257.5 209 Z " /><path fill="rgb(236,93,113)" stroke="rgb(236,93,113)" stroke-width="1" opacity="0.9764705882352941" d="M 179.5 221 L 178.5 223 L 179.5 221 Z " /><path fill="rgb(236,93,113)" stroke="rgb(236,93,113)" stroke-width="1" opacity="0.9764705882352941" d="M 209.5 276 L 205.5 281 L 209.5 276 Z " /><path fill="rgb(236,93,113)" stroke="rgb(236,93,113)" stroke-width="1" opacity="0.9764705882352941" d="M 107.5 286 L 108 288.5 L 107 288.5 L 107.5 286 Z " /><path fill="rgb(236,93,113)" stroke="rgb(236,93,113)" stroke-width="1" opacity="0.9764705882352941" d="M 227.5 290 L 226.5 292 L 227.5 290 Z " /><path fill="rgb(236,93,113)" stroke="rgb(236,93,113)" stroke-width="1" opacity="0.9764705882352941" d="M 177.5 292 L 183 292.5 L 177.5 293 L 177.5 292 Z " /><path fill="rgb(236,93,113)" stroke="rgb(236,93,113)" stroke-width="1" opacity="0.9764705882352941" d="M 222.5 296 L 220.5 299 L 222.5 296 Z " /><path fill="rgb(236,93,113)" stroke="rgb(236,93,113)" stroke-width="1" opacity="0.9764705882352941" d="M 247.5 300 L 246.5 302 L 247.5 300 Z " /><path fill="rgb(236,93,113)" stroke="rgb(236,93,113)" stroke-width="1" opacity="0.9764705882352941" d="M 213.5 305 L 211.5 308 L 213.5 305 Z " /><path fill="rgb(236,93,113)" stroke="rgb(236,93,113)" stroke-width="1" opacity="0.9764705882352941" d="M 107.5 308 L 108 310.5 L 107 310.5 L 107.5 308 Z " /><path fill="rgb(236,93,113)" stroke="rgb(236,93,113)" stroke-width="1" opacity="0.9764705882352941" d="M 241.5 308 L 240.5 310 L 241.5 308 Z " /><path fill="rgb(236,93,113)" stroke="rgb(236,93,113)" stroke-width="1" opacity="0.9764705882352941" d="M 141.5 313 L 142.5 315 L 141.5 313 Z " /><path fill="rgb(236,93,113)" stroke="rgb(236,93,113)" stroke-width="1" opacity="0.9764705882352941" d="M 237.5 313 L 235.5 316 L 237.5 313 Z " /><path fill="rgb(236,93,113)" stroke="rgb(236,93,113)" stroke-width="1" opacity="0.9764705882352941" d="M 261.5 319 L 260.5 321 L 261.5 319 Z " /><path fill="rgb(236,93,113)" stroke="rgb(236,93,113)" stroke-width="1" opacity="0.9764705882352941" d="M 228.5 323 L 223.5 329 L 228.5 323 Z " /><path fill="rgb(236,93,113)" stroke="rgb(236,93,113)" stroke-width="1" opacity="0.9764705882352941" d="M 258.5 323 L 257.5 325 L 258.5 323 Z " /><path fill="rgb(236,93,113)" stroke="rgb(236,93,113)" stroke-width="1" opacity="0.9764705882352941" d="M 250.5 333 L 249.5 335 L 250.5 333 Z " /><path fill="rgb(236,93,113)" stroke="rgb(236,93,113)" stroke-width="1" opacity="0.9764705882352941" d="M 216.5 334 L 214.5 337 L 216.5 334 Z " /><path fill="rgb(236,93,113)" stroke="rgb(236,93,113)" stroke-width="1" opacity="0.9764705882352941" d="M 244.5 340 L 240.5 345 L 244.5 340 Z " /><path fill="rgb(236,93,113)" stroke="rgb(236,93,113)" stroke-width="1" opacity="0.9764705882352941" d="M 118.5 342 L 119.5 344 L 118.5 342 Z " /><path fill="rgb(236,93,113)" stroke="rgb(236,93,113)" stroke-width="1" opacity="0.9764705882352941" d="M 122.5 347 L 125.5 351 L 122.5 347 Z " /><path fill="rgb(236,93,113)" stroke="rgb(236,93,113)" stroke-width="1" opacity="0.9764705882352941" d="M 230.5 354 L 227.5 358 L 230.5 354 Z " /><path fill="rgb(236,93,113)" stroke="rgb(236,93,113)" stroke-width="1" opacity="0.9764705882352941" d="M 151.5 361 L 154 361.5 L 151.5 362 L 151.5 361 Z " /><path fill="rgb(236,93,113)" stroke="rgb(236,93,113)" stroke-width="1" opacity="0.9764705882352941" d="M 158.5 361 L 162 361.5 L 158.5 362 L 158.5 361 Z " /><path fill="rgb(236,93,113)" stroke="rgb(236,93,113)" stroke-width="1" opacity="0.9764705882352941" d="M 221.5 362 L 220.5 364 L 221.5 362 Z " /><path fill="rgb(236,93,113)" stroke="rgb(236,93,113)" stroke-width="1" opacity="0.9764705882352941" d="M 97.5 374 L 98.5 376 L 97.5 374 Z " /><path fill="rgb(236,93,113)" stroke="rgb(236,93,113)" stroke-width="1" opacity="0.9764705882352941" d="M 106.5 383 L 107.5 385 L 106.5 383 Z " /><path fill="rgb(0,0,0)" stroke="rgb(0,0,0)" stroke-width="1" opacity="0" d="M 0 0 L 512 0 L 512 512 L 0 512 L 0 0 Z M 209 38 L 185 43 L 161 53 Q 132 68 111 89 Q 64 132 36 194 L 25 221 L 17 247 L 11 277 L 10 299 L 9 300 L 10 326 L 16 354 Q 22 372 34 386 L 52 400 L 95 425 Q 105 431 119 433 L 145 433 L 172 426 Q 207 412 233 388 Q 267 358 292 318 L 355 354 L 387 418 L 422 438 L 427 435 L 407 388 L 408 385 L 417 390 L 420 394 L 450 455 L 484 474 Q 488 474 490 471 L 470 424 L 471 422 L 480 427 L 486 426 Q 492 422 494 413 L 493 407 L 475 396 L 503 360 L 470 340 L 462 344 L 432 369 L 428 368 L 412 359 L 440 324 L 407 304 L 401 306 L 368 333 L 304 296 Q 320 268 330 234 L 337 204 L 338 192 L 339 191 L 339 181 L 340 180 L 340 152 L 335 123 Q 329 102 317 88 Q 309 77 298 71 L 251 44 L 243 41 L 228 38 L 209 38 Z " /><path fill="rgb(243,146,170)" stroke="rgb(243,146,170)" stroke-width="1" opacity="0.9725490196078431" d="M 208.5 38 L 227.5 38 L 245.5 42 L 294 69.5 L 292.5 69 L 272.5 63 L 246.5 63 L 219.5 70 L 194.5 82 Q 163.1 101.1 138.5 127 L 98 102.5 L 109.5 90 Q 131.8 68.3 160.5 53 L 184.5 43 L 208.5 38 Z " /><path fill="rgb(243,146,170)" stroke="rgb(243,146,170)" stroke-width="1" opacity="0.9725490196078431" d="M 239.5 99 L 244 99.5 L 239.5 100 L 239.5 99 Z " /><path fill="rgb(243,146,170)" stroke="rgb(243,146,170)" stroke-width="1" opacity="0.9725490196078431" d="M 250.5 99 L 254 99.5 L 250.5 100 L 250.5 99 Z " /><path fill="rgb(243,146,170)" stroke="rgb(243,146,170)" stroke-width="1" opacity="0.9725490196078431" d="M 293.5 121 L 294.5 123 L 293.5 121 Z " /><path fill="rgb(243,146,170)" stroke="rgb(243,146,170)" stroke-width="1" opacity="0.9725490196078431" d="M 176.5 127 L 175.5 129 L 176.5 127 Z " /><path fill="rgb(243,146,170)" stroke="rgb(243,146,170)" stroke-width="1" opacity="0.9725490196078431" d="M 171.5 131 L 170.5 133 L 171.5 131 Z " /><path fill="rgb(243,146,170)" stroke="rgb(243,146,170)" stroke-width="1" opacity="0.9725490196078431" d="M 230.5 133 L 240 133.5 L 230.5 134 L 230.5 133 Z " /><path fill="rgb(243,146,170)" stroke="rgb(243,146,170)" stroke-width="1" opacity="0.9725490196078431" d="M 165.5 136 L 163.5 139 L 165.5 136 Z " /><path fill="rgb(243,146,170)" stroke="rgb(243,146,170)" stroke-width="1" opacity="0.9725490196078431" d="M 265.5 144 L 269.5 149 L 265.5 144 Z " /><path fill="rgb(243,146,170)" stroke="rgb(243,146,170)" stroke-width="1" opacity="0.9725490196078431" d="M 148.5 153 L 145.5 157 L 148.5 153 Z " /><path fill="rgb(243,146,170)" stroke="rgb(243,146,170)" stroke-width="1" opacity="0.9725490196078431" d="M 180.5 155 L 179.5 157 L 180.5 155 Z " /><path fill="rgb(243,146,170)" stroke="rgb(243,146,170)" stroke-width="1" opacity="0.9725490196078431" d="M 175.5 159 L 174.5 161 L 175.5 159 Z " /><path fill="rgb(243,146,170)" stroke="rgb(243,146,170)" stroke-width="1" opacity="0.9725490196078431" d="M 140.5 162 L 139.5 164 L 140.5 162 Z " /><path fill="rgb(243,146,170)" stroke="rgb(243,146,170)" stroke-width="1" opacity="0.9725490196078431" d="M 136.5 167 L 135.5 169 L 136.5 167 Z " /><path fill="rgb(243,146,170)" stroke="rgb(243,146,170)" stroke-width="1" opacity="0.9725490196078431" d="M 165.5 168 L 164.5 170 L 165.5 168 Z " /><path fill="rgb(243,146,170)" stroke="rgb(243,146,170)" stroke-width="1" opacity="0.9725490196078431" d="M 219.5 168 L 227 168.5 L 219.5 169 L 219.5 168 Z " /><path fill="rgb(243,146,170)" stroke="rgb(243,146,170)" stroke-width="1" opacity="0.9725490196078431" d="M 310.5 168 L 311 171.5 L 310 171.5 L 310.5 168 Z " /><path fill="rgb(243,146,170)" stroke="rgb(243,146,170)" stroke-width="1" opacity="0.9725490196078431" d="M 130.5 175 L 129.5 177 L 130.5 175 Z " /><path fill="rgb(243,146,170)" stroke="rgb(243,146,170)" stroke-width="1" opacity="0.9725490196078431" d="M 244.5 176 L 246.5 179 L 244.5 176 Z " /><path fill="rgb(243,146,170)" stroke="rgb(243,146,170)" stroke-width="1" opacity="0.9725490196078431" d="M 155.5 179 L 153.5 182 L 155.5 179 Z " /><path fill="rgb(243,146,170)" stroke="rgb(243,146,170)" stroke-width="1" opacity="0.9725490196078431" d="M 150.5 185 L 149.5 187 L 150.5 185 Z " /><path fill="rgb(243,146,170)" stroke="rgb(243,146,170)" stroke-width="1" opacity="0.9725490196078431" d="M 180.5 187 L 178.5 190 L 180.5 187 Z " /><path fill="rgb(243,146,170)" stroke="rgb(243,146,170)" stroke-width="1" opacity="0.9725490196078431" d="M 310.5 191 L 311 195.5 L 310 195.5 L 310.5 191 Z " /><path fill="rgb(243,146,170)" stroke="rgb(243,146,170)" stroke-width="1" opacity="0.9725490196078431" d="M 144.5 193 L 143.5 195 L 144.5 193 Z " /><path fill="rgb(243,146,170)" stroke="rgb(243,146,170)" stroke-width="1" opacity="0.9725490196078431" d="M 284.5 194 L 285 199.5 L 284 199.5 L 284.5 194 Z " /><path fill="rgb(243,146,170)" stroke="rgb(243,146,170)" stroke-width="1" opacity="0.9725490196078431" d="M 169.5 198 L 167.5 201 L 169.5 198 Z " /><path fill="rgb(243,146,170)" stroke="rgb(243,146,170)" stroke-width="1" opacity="0.9725490196078431" d="M 256.5 201 L 257 203.5 L 256 203.5 L 256.5 201 Z " /><path fill="rgb(243,146,170)" stroke="rgb(243,146,170)" stroke-width="1" opacity="0.9725490196078431" d="M 209.5 202 L 213 202.5 L 209.5 203 L 209.5 202 Z " /><path fill="rgb(243,146,170)" stroke="rgb(243,146,170)" stroke-width="1" opacity="0.9725490196078431" d="M 309.5 202 L 310 204.5 L 309 204.5 L 309.5 202 Z " /><path fill="rgb(243,146,170)" stroke="rgb(243,146,170)" stroke-width="1" opacity="0.9725490196078431" d="M 164.5 204 L 163.5 206 L 164.5 204 Z " /><path fill="rgb(243,146,170)" stroke="rgb(243,146,170)" stroke-width="1" opacity="0.9725490196078431" d="M 221.5 205 L 222.5 207 L 221.5 205 Z " /><path fill="rgb(243,146,170)" stroke="rgb(243,146,170)" stroke-width="1" opacity="0.9725490196078431" d="M 190.5 210 L 189.5 212 L 190.5 210 Z " /><path fill="rgb(243,146,170)" stroke="rgb(243,146,170)" stroke-width="1" opacity="0.9725490196078431" d="M 283.5 210 L 284 212.5 L 283 212.5 L 283.5 210 Z " /><path fill="rgb(243,146,170)" stroke="rgb(243,146,170)" stroke-width="1" opacity="0.9725490196078431" d="M 184.5 215 L 181.5 219 L 184.5 215 Z " /><path fill="rgb(243,146,170)" stroke="rgb(243,146,170)" stroke-width="1" opacity="0.9725490196078431" d="M 256.5 221 L 257 223.5 L 256 223.5 L 256.5 221 Z " /><path fill="rgb(243,146,170)" stroke="rgb(243,146,170)" stroke-width="1" opacity="0.9725490196078431" d="M 230.5 222 L 231 226.5 L 230 226.5 L 230.5 222 Z " /><path fill="rgb(243,146,170)" stroke="rgb(243,146,170)" stroke-width="1" opacity="0.9725490196078431" d="M 177.5 223 L 176.5 225 L 177.5 223 Z " /><path fill="rgb(243,146,170)" stroke="rgb(243,146,170)" stroke-width="1" opacity="0.9725490196078431" d="M 230.5 228 L 231 232.5 L 230 232.5 L 230.5 228 Z " /><path fill="rgb(243,146,170)" stroke="rgb(243,146,170)" stroke-width="1" opacity="0.9725490196078431" d="M 245.5 260 L 244.5 262 L 245.5 260 Z " /><path fill="rgb(243,146,170)" stroke="rgb(243,146,170)" stroke-width="1" opacity="0.9725490196078431" d="M 160.5 263 L 161 272.5 L 160 272.5 L 160.5 263 Z " /><path fill="rgb(243,146,170)" stroke="rgb(243,146,170)" stroke-width="1" opacity="0.9725490196078431" d="M 134.5 272 L 135 274.5 L 134 274.5 L 134.5 272 Z " /><path fill="rgb(243,146,170)" stroke="rgb(243,146,170)" stroke-width="1" opacity="0.9725490196078431" d="M 212.5 273 L 210.5 276 L 212.5 273 Z " /><path fill="rgb(243,146,170)" stroke="rgb(243,146,170)" stroke-width="1" opacity="0.9725490196078431" d="M 204.5 281 L 202.5 284 L 204.5 281 Z " /><path fill="rgb(243,146,170)" stroke="rgb(243,146,170)" stroke-width="1" opacity="0.9725490196078431" d="M 107.5 283 L 108 285.5 L 107 285.5 L 107.5 283 Z " /><path fill="rgb(243,146,170)" stroke="rgb(243,146,170)" stroke-width="1" opacity="0.9725490196078431" d="M 229.5 287 L 228.5 289 L 229.5 287 Z " /><path fill="rgb(243,146,170)" stroke="rgb(243,146,170)" stroke-width="1" opacity="0.9725490196078431" d="M 81.5 291 L 82 293.5 L 81 293.5 L 81.5 291 Z " /><path fill="rgb(243,146,170)" stroke="rgb(243,146,170)" stroke-width="1" opacity="0.9725490196078431" d="M 134.5 291 L 135 293.5 L 134 293.5 L 134.5 291 Z " /><path fill="rgb(243,146,170)" stroke="rgb(243,146,170)" stroke-width="1" opacity="0.9725490196078431" d="M 225.5 292 L 224.5 294 L 225.5 292 Z " /><path fill="rgb(243,146,170)" stroke="rgb(243,146,170)" stroke-width="1" opacity="0.9725490196078431" d="M 219.5 299 L 214.5 305 L 219.5 299 Z " /><path fill="rgb(243,146,170)" stroke="rgb(243,146,170)" stroke-width="1" opacity="0.9725490196078431" d="M 80.5 300 L 81 304.5 L 80 304.5 L 80.5 300 Z " /><path fill="rgb(243,146,170)" stroke="rgb(243,146,170)" stroke-width="1" opacity="0.9725490196078431" d="M 208.5 309 L 207.5 311 L 208.5 309 Z " /><path fill="rgb(243,146,170)" stroke="rgb(243,146,170)" stroke-width="1" opacity="0.9725490196078431" d="M 239.5 311 L 238.5 313 L 239.5 311 Z " /><path fill="rgb(243,146,170)" stroke="rgb(243,146,170)" stroke-width="1" opacity="0.9725490196078431" d="M 233.5 318 L 229.5 323 L 233.5 318 Z " /><path fill="rgb(243,146,170)" stroke="rgb(243,146,170)" stroke-width="1" opacity="0.9725490196078431" d="M 147.5 319 L 148.5 321 L 147.5 319 Z " /><path fill="rgb(243,146,170)" stroke="rgb(243,146,170)" stroke-width="1" opacity="0.9725490196078431" d="M 80.5 322 L 81 326.5 L 80 326.5 L 80.5 322 Z " /><path fill="rgb(243,146,170)" stroke="rgb(243,146,170)" stroke-width="1" opacity="0.9725490196078431" d="M 222.5 329 L 219.5 333 L 222.5 329 Z " /><path fill="rgb(243,146,170)" stroke="rgb(243,146,170)" stroke-width="1" opacity="0.9725490196078431" d="M 253.5 329 L 252.5 331 L 253.5 329 Z " /><path fill="rgb(243,146,170)" stroke="rgb(243,146,170)" stroke-width="1" opacity="0.9725490196078431" d="M 248.5 335 L 246.5 338 L 248.5 335 Z " /><path fill="rgb(243,146,170)" stroke="rgb(243,146,170)" stroke-width="1" opacity="0.9725490196078431" d="M 213.5 337 L 212.5 339 L 213.5 337 Z " /><path fill="rgb(243,146,170)" stroke="rgb(243,146,170)" stroke-width="1" opacity="0.9725490196078431" d="M 209.5 340 L 208.5 342 L 209.5 340 Z " /><path fill="rgb(243,146,170)" stroke="rgb(243,146,170)" stroke-width="1" opacity="0.9725490196078431" d="M 120.5 345 L 121.5 347 L 120.5 345 Z " /><path fill="rgb(243,146,170)" stroke="rgb(243,146,170)" stroke-width="1" opacity="0.9725490196078431" d="M 239.5 345 L 231.5 354 L 239.5 345 Z " /><path fill="rgb(243,146,170)" stroke="rgb(243,146,170)" stroke-width="1" opacity="0.9725490196078431" d="M 126.5 351 L 127.5 353 L 126.5 351 Z " /><path fill="rgb(243,146,170)" stroke="rgb(243,146,170)" stroke-width="1" opacity="0.9725490196078431" d="M 223.5 360 L 222.5 362 L 223.5 360 Z " /><path fill="rgb(243,146,170)" stroke="rgb(243,146,170)" stroke-width="1" opacity="0.9725490196078431" d="M 148.5 361 L 151 361.5 L 148.5 362 L 148.5 361 Z " /><path fill="rgb(243,146,170)" stroke="rgb(243,146,170)" stroke-width="1" opacity="0.9725490196078431" d="M 217.5 365 L 216.5 367 L 217.5 365 Z " /><path fill="rgb(243,146,170)" stroke="rgb(243,146,170)" stroke-width="1" opacity="0.9725490196078431" d="M 213.5 368 L 212.5 370 L 213.5 368 Z " /><path fill="rgb(243,146,170)" stroke="rgb(243,146,170)" stroke-width="1" opacity="0.9725490196078431" d="M 95.5 371 L 96.5 373 L 95.5 371 Z " /><path fill="rgb(243,146,170)" stroke="rgb(243,146,170)" stroke-width="1" opacity="0.9725490196078431" d="M 206.5 373 L 205.5 375 L 206.5 373 Z " /><path fill="rgb(243,146,170)" stroke="rgb(243,146,170)" stroke-width="1" opacity="0.9725490196078431" d="M 99.5 376 L 105.5 383 L 99.5 376 Z " /><path fill="rgb(243,146,170)" stroke="rgb(243,146,170)" stroke-width="1" opacity="0.9725490196078431" d="M 152.5 395 L 155 395.5 L 152.5 396 L 152.5 395 Z " /><path fill="rgb(227,69,85)" stroke="rgb(227,69,85)" stroke-width="1" opacity="0.9921568627450981" d="M 295.5 71 Q 308.8 76.8 317 87.5 Q 329.1 101.9 335 122.5 L 340 151.5 L 340 179.5 L 339 180.5 L 339 190.5 L 338 191.5 L 337 203.5 L 330 233.5 Q 320 268 303.5 296 L 303 294.5 Q 319.9 265.4 330 229.5 L 338 189.5 L 338 180.5 L 339 179.5 L 339 151.5 L 338 150.5 L 338 142.5 L 335 126.5 L 330 111.5 Q 321.4 91.1 305.5 78 L 295.5 72 L 295.5 71 Z " /><path fill="rgb(227,69,85)" stroke="rgb(227,69,85)" stroke-width="1" opacity="0.9921568627450981" d="M 179.5 92 L 178.5 94 L 179.5 92 Z " /><path fill="rgb(227,69,85)" stroke="rgb(227,69,85)" stroke-width="1" opacity="0.9921568627450981" d="M 171.5 98 L 170.5 100 L 171.5 98 Z " /><path fill="rgb(227,69,85)" stroke="rgb(227,69,85)" stroke-width="1" opacity="0.9921568627450981" d="M 167.5 101 L 166.5 103 L 167.5 101 Z " /><path fill="rgb(227,69,85)" stroke="rgb(227,69,85)" stroke-width="1" opacity="0.9921568627450981" d="M 161.5 106 L 159.5 109 L 161.5 106 Z " /><path fill="rgb(227,69,85)" stroke="rgb(227,69,85)" stroke-width="1" opacity="0.9921568627450981" d="M 152.5 114 L 136.5 131 L 152.5 114 Z " /><path fill="rgb(227,69,85)" stroke="rgb(227,69,85)" stroke-width="1" opacity="0.9921568627450981" d="M 132.5 135 L 128.5 140 L 132.5 135 Z " /><path fill="rgb(227,69,85)" stroke="rgb(227,69,85)" stroke-width="1" opacity="0.9921568627450981" d="M 126.5 142 L 124.5 145 L 126.5 142 Z " /><path fill="rgb(227,69,85)" stroke="rgb(227,69,85)" stroke-width="1" opacity="0.9921568627450981" d="M 122.5 147 L 120.5 150 L 122.5 147 Z " /><path fill="rgb(227,69,85)" stroke="rgb(227,69,85)" stroke-width="1" opacity="0.9921568627450981" d="M 118.5 152 L 116.5 155 L 118.5 152 Z " /><path fill="rgb(227,69,85)" stroke="rgb(227,69,85)" stroke-width="1" opacity="0.9921568627450981" d="M 115.5 156 L 114.5 158 L 115.5 156 Z " /><path fill="rgb(227,69,85)" stroke="rgb(227,69,85)" stroke-width="1" opacity="0.9921568627450981" d="M 112.5 160 L 111.5 162 L 112.5 160 Z " /><path fill="rgb(227,69,85)" stroke="rgb(227,69,85)" stroke-width="1" opacity="0.9921568627450981" d="M 110.5 163 L 109.5 165 L 110.5 163 Z " /><path fill="rgb(227,69,85)" stroke="rgb(227,69,85)" stroke-width="1" opacity="0.9921568627450981" d="M 102.5 175 L 101.5 177 L 102.5 175 Z " /><path fill="rgb(227,69,85)" stroke="rgb(227,69,85)" stroke-width="1" opacity="0.9921568627450981" d="M 100.5 178 L 99.5 180 L 100.5 178 Z " /><path fill="rgb(227,69,85)" stroke="rgb(227,69,85)" stroke-width="1" opacity="0.9921568627450981" d="M 97.5 183 L 96.5 185 L 97.5 183 Z " /><path fill="rgb(227,69,85)" stroke="rgb(227,69,85)" stroke-width="1" opacity="0.9921568627450981" d="M 94.5 188 L 93.5 190 L 94.5 188 Z " /><path fill="rgb(227,69,85)" stroke="rgb(227,69,85)" stroke-width="1" opacity="0.9921568627450981" d="M 90.5 195 L 89.5 197 L 90.5 195 Z " /><path fill="rgb(227,69,85)" stroke="rgb(227,69,85)" stroke-width="1" opacity="0.9921568627450981" d="M 54.5 295 L 55 297.5 L 54 297.5 L 54.5 295 Z " /><path fill="rgb(227,69,85)" stroke="rgb(227,69,85)" stroke-width="1" opacity="0.9921568627450981" d="M 53.5 302 L 54 304.5 L 53 304.5 L 53.5 302 Z " /><path fill="rgb(227,69,85)" stroke="rgb(227,69,85)" stroke-width="1" opacity="0.9921568627450981" d="M 52.5 311 L 53 314.5 L 52 314.5 L 52.5 311 Z " /><path fill="rgb(227,69,85)" stroke="rgb(227,69,85)" stroke-width="1" opacity="0.9921568627450981" d="M 290.5 317 L 291 318.5 Q 266.4 357.9 232.5 388 Q 211.5 406.5 185.5 420 L 159.5 430 L 144.5 433 L 134.5 433 L 134.5 432 L 144.5 432 L 165.5 427 L 192.5 415 Q 226.4 395.4 252 367.5 Q 273.5 344.5 290.5 317 Z " /><path fill="rgb(227,69,85)" stroke="rgb(227,69,85)" stroke-width="1" opacity="0.9921568627450981" d="M 52.5 344 L 53 347.5 L 52 347.5 L 52.5 344 Z " /><path fill="rgb(227,69,85)" stroke="rgb(227,69,85)" stroke-width="1" opacity="0.9921568627450981" d="M 68.5 398 L 69.5 400 L 68.5 398 Z " /><path fill="rgb(227,69,85)" stroke="rgb(227,69,85)" stroke-width="1" opacity="0.9921568627450981" d="M 70.5 401 L 71.5 403 L 70.5 401 Z " /><path fill="rgb(227,69,85)" stroke="rgb(227,69,85)" stroke-width="1" opacity="0.9921568627450981" d="M 73.5 405 L 75.5 408 L 73.5 405 Z " /><path fill="rgb(227,69,85)" stroke="rgb(227,69,85)" stroke-width="1" opacity="0.9921568627450981" d="M 82.5 414 L 85.5 418 L 82.5 414 Z " /><path fill="rgb(227,69,85)" stroke="rgb(227,69,85)" stroke-width="1" opacity="0.9921568627450981" d="M 88.5 419 Q 103 432 130 432.5 L 118.5 433 L 98.5 427 Q 91 424.3 88.5 419 Z " /><path fill="rgb(228,69,85)" stroke="rgb(228,69,85)" stroke-width="1" opacity="1" d="M 249.5 63 L 269.5 63 L 288.5 68 Q 306 75.5 317 89.5 Q 329.3 104.7 335 126.5 L 338 142.5 L 338 150.5 L 339 151.5 L 339 179.5 L 338 180.5 L 338 189.5 L 337 190.5 L 336 203.5 L 328 236.5 L 314 273.5 L 302.5 295 L 284 285 L 298 252.5 L 307 222.5 L 310 205.5 L 310 198.5 L 311 197.5 L 311 166.5 L 308 149.5 L 303 135.5 Q 296.5 121.5 285.5 112 Q 275.7 103.7 261.5 100 Q 256.7 101.3 255.5 99 L 237.5 99 Q 213.2 103.2 195.5 114 Q 171.6 128.1 153 147.5 Q 118.9 182.4 98 230.5 L 87 261.5 L 82 283.5 L 81 297.5 L 80 298.5 L 80 328.5 L 83 345.5 L 87 357.5 Q 94.1 374.4 107.5 385 Q 116.2 391.8 128.5 395 L 145.5 397 L 146.5 396 L 156.5 396 L 172.5 392 L 194.5 382 Q 223.5 365 245 340.5 L 262 319.5 L 270 306 L 274.5 307 L 290 316 Q 269.2 352.9 238.5 381 Q 213.5 405 180.5 421 L 165.5 427 L 150.5 431 L 130.5 433 L 129.5 432 L 113.5 431 L 101.5 427 Q 86.3 420.3 76 408.5 Q 63.2 393.8 57 372.5 L 52 343.5 L 52 315.5 L 53 314.5 L 53 305.5 L 54 304.5 L 56 286.5 L 65 252.5 L 78 219.5 L 89 197.5 Q 116.9 146.4 158.5 109 Q 176.2 93.2 197.5 81 L 218.5 71 L 233.5 66 L 249.5 63 Z " /><path fill="rgb(228,69,85)" stroke="rgb(228,69,85)" stroke-width="1" opacity="1" d="M 226.5 134 L 242.5 134 L 253.5 137 Q 263.6 141.4 270 149.5 Q 278.4 159.6 282 174.5 L 283 185.5 L 284 186.5 L 284 207.5 L 278 238.5 Q 272.6 257.6 263.5 273 L 245 261.5 Q 257.1 241.1 258 209.5 L 254 189.5 Q 250.2 179.8 242.5 174 L 228.5 168 L 217.5 168 Q 201.6 171.1 190.5 179 Q 176 189 165 202.5 Q 149.3 221.3 140 246.5 L 134 270.5 L 134 294.5 Q 136 305.5 141 313.5 L 149.5 322 L 160.5 327 L 176.5 327 Q 187.9 324.4 196.5 319 Q 211.6 309.6 223 296.5 L 232.5 284 L 251 293 L 251 295.5 L 240 310.5 L 217.5 334 Q 203.8 346.8 185.5 355 L 171.5 360 L 154.5 362 L 153.5 361 L 142.5 360 L 131.5 355 L 120 344.5 Q 112.2 334.8 109 320.5 L 108 308.5 L 107 307.5 L 107 289.5 L 108 288.5 L 108 280.5 L 111 264.5 L 115 250.5 L 131 214.5 Q 147.3 185.8 170.5 164 L 196.5 145 Q 209.3 137.3 226.5 134 Z " /><path fill="rgb(228,69,85)" stroke="rgb(228,69,85)" stroke-width="1" opacity="1" d="M 206.5 203 Q 221.5 201.5 226 210.5 Q 232.1 218.9 230 235.5 L 225.5 251 L 206.5 239 L 199.5 237 Q 192.1 238.1 189 243.5 Q 186.5 247 188 254.5 L 192.5 260 L 213 271 L 213 272.5 L 201.5 284 L 186.5 292 L 174.5 292 L 166 286.5 L 161 275.5 L 161 259.5 Q 167.6 229.6 187.5 213 Q 195.2 206.2 206.5 203 Z " /><path fill="rgb(251,234,236)" stroke="rgb(251,234,236)" stroke-width="1" opacity="1" d="M 244.5 99 L 250 99.5 L 244.5 100 L 244.5 99 Z " /><path fill="rgb(251,234,236)" stroke="rgb(251,234,236)" stroke-width="1" opacity="1" d="M 283.5 111 L 285.5 114 L 283.5 111 Z " /><path fill="rgb(251,234,236)" stroke="rgb(251,234,236)" stroke-width="1" opacity="1" d="M 291.5 119 L 292.5 121 L 291.5 119 Z " /><path fill="rgb(251,234,236)" stroke="rgb(251,234,236)" stroke-width="1" opacity="1" d="M 179.5 125 L 178.5 127 L 179.5 125 Z " /><path fill="rgb(251,234,236)" stroke="rgb(251,234,236)" stroke-width="1" opacity="1" d="M 174.5 129 L 173.5 131 L 174.5 129 Z " /><path fill="rgb(251,234,236)" stroke="rgb(251,234,236)" stroke-width="1" opacity="1" d="M 169.5 133 L 168.5 135 L 169.5 133 Z " /><path fill="rgb(251,234,236)" stroke="rgb(251,234,236)" stroke-width="1" opacity="1" d="M 162.5 139 L 149.5 153 L 162.5 139 Z " /><path fill="rgb(251,234,236)" stroke="rgb(251,234,236)" stroke-width="1" opacity="1" d="M 263.5 142 L 264.5 144 L 263.5 142 Z " /><path fill="rgb(251,234,236)" stroke="rgb(251,234,236)" stroke-width="1" opacity="1" d="M 194.5 145 L 193.5 147 L 194.5 145 Z " /><path fill="rgb(251,234,236)" stroke="rgb(251,234,236)" stroke-width="1" opacity="1" d="M 270.5 149 L 271.5 151 L 270.5 149 Z " /><path fill="rgb(251,234,236)" stroke="rgb(251,234,236)" stroke-width="1" opacity="1" d="M 182.5 153 L 181.5 155 L 182.5 153 Z " /><path fill="rgb(251,234,236)" stroke="rgb(251,234,236)" stroke-width="1" opacity="1" d="M 177.5 157 L 176.5 159 L 177.5 157 Z " /><path fill="rgb(251,234,236)" stroke="rgb(251,234,236)" stroke-width="1" opacity="1" d="M 144.5 158 L 141.5 162 L 144.5 158 Z " /><path fill="rgb(251,234,236)" stroke="rgb(251,234,236)" stroke-width="1" opacity="1" d="M 172.5 161 L 166.5 168 L 172.5 161 Z " /><path fill="rgb(251,234,236)" stroke="rgb(251,234,236)" stroke-width="1" opacity="1" d="M 309.5 162 L 310 164.5 L 309 164.5 L 309.5 162 Z " /><path fill="rgb(251,234,236)" stroke="rgb(251,234,236)" stroke-width="1" opacity="1" d="M 138.5 165 L 137.5 167 L 138.5 165 Z " /><path fill="rgb(251,234,236)" stroke="rgb(251,234,236)" stroke-width="1" opacity="1" d="M 134.5 170 L 133.5 172 L 134.5 170 Z " /><path fill="rgb(251,234,236)" stroke="rgb(251,234,236)" stroke-width="1" opacity="1" d="M 163.5 170 L 156.5 178 L 163.5 170 Z " /><path fill="rgb(251,234,236)" stroke="rgb(251,234,236)" stroke-width="1" opacity="1" d="M 310.5 172 L 311 179.5 L 310 179.5 L 310.5 172 Z " /><path fill="rgb(251,234,236)" stroke="rgb(251,234,236)" stroke-width="1" opacity="1" d="M 247.5 180 L 248.5 182 L 247.5 180 Z " /><path fill="rgb(251,234,236)" stroke="rgb(251,234,236)" stroke-width="1" opacity="1" d="M 188.5 181 L 187.5 183 L 188.5 181 Z " /><path fill="rgb(251,234,236)" stroke="rgb(251,234,236)" stroke-width="1" opacity="1" d="M 152.5 182 L 151.5 184 L 152.5 182 Z " /><path fill="rgb(251,234,236)" stroke="rgb(251,234,236)" stroke-width="1" opacity="1" d="M 310.5 183 L 311 190.5 L 310 190.5 L 310.5 183 Z " /><path fill="rgb(251,234,236)" stroke="rgb(251,234,236)" stroke-width="1" opacity="1" d="M 184.5 184 L 183.5 186 L 184.5 184 Z " /><path fill="rgb(251,234,236)" stroke="rgb(251,234,236)" stroke-width="1" opacity="1" d="M 148.5 187 L 147.5 189 L 148.5 187 Z " /><path fill="rgb(251,234,236)" stroke="rgb(251,234,236)" stroke-width="1" opacity="1" d="M 284.5 188 L 285 193.5 L 284 193.5 L 284.5 188 Z " /><path fill="rgb(251,234,236)" stroke="rgb(251,234,236)" stroke-width="1" opacity="1" d="M 177.5 190 L 170.5 198 L 177.5 190 Z " /><path fill="rgb(251,234,236)" stroke="rgb(251,234,236)" stroke-width="1" opacity="1" d="M 145.5 191 L 144.5 193 L 145.5 191 Z " /><path fill="rgb(251,234,236)" stroke="rgb(251,234,236)" stroke-width="1" opacity="1" d="M 284.5 200 L 285 205.5 L 284 205.5 L 284.5 200 Z " /><path fill="rgb(251,234,236)" stroke="rgb(251,234,236)" stroke-width="1" opacity="1" d="M 166.5 202 L 165.5 204 L 166.5 202 Z " /><path fill="rgb(251,234,236)" stroke="rgb(251,234,236)" stroke-width="1" opacity="1" d="M 256.5 204 L 257 206.5 L 256 206.5 L 256.5 204 Z " /><path fill="rgb(251,234,236)" stroke="rgb(251,234,236)" stroke-width="1" opacity="1" d="M 162.5 207 L 161.5 209 L 162.5 207 Z " /><path fill="rgb(251,234,236)" stroke="rgb(251,234,236)" stroke-width="1" opacity="1" d="M 187.5 212 L 185.5 215 L 187.5 212 Z " /><path fill="rgb(251,234,236)" stroke="rgb(251,234,236)" stroke-width="1" opacity="1" d="M 157.5 214 L 156.5 216 L 157.5 214 Z " /><path fill="rgb(251,234,236)" stroke="rgb(251,234,236)" stroke-width="1" opacity="1" d="M 256.5 218 L 257 220.5 L 256 220.5 L 256.5 218 Z " /><path fill="rgb(251,234,236)" stroke="rgb(251,234,236)" stroke-width="1" opacity="1" d="M 180.5 219 L 178.5 222 L 180.5 219 Z " /><path fill="rgb(251,234,236)" stroke="rgb(251,234,236)" stroke-width="1" opacity="1" d="M 160.5 260 L 161 262.5 L 160 262.5 L 160.5 260 Z " /><path fill="rgb(251,234,236)" stroke="rgb(251,234,236)" stroke-width="1" opacity="1" d="M 134.5 275 L 135 277.5 L 134 277.5 L 134.5 275 Z " /><path fill="rgb(251,234,236)" stroke="rgb(251,234,236)" stroke-width="1" opacity="1" d="M 283.5 282 L 282.5 284 L 283.5 282 Z " /><path fill="rgb(251,234,236)" stroke="rgb(251,234,236)" stroke-width="1" opacity="1" d="M 165.5 286 L 168.5 290 L 165.5 286 Z " /><path fill="rgb(251,234,236)" stroke="rgb(251,234,236)" stroke-width="1" opacity="1" d="M 134.5 288 L 135 290.5 L 134 290.5 L 134.5 288 Z " /><path fill="rgb(251,234,236)" stroke="rgb(251,234,236)" stroke-width="1" opacity="1" d="M 227.5 289 L 226.5 291 L 227.5 289 Z " /><path fill="rgb(251,234,236)" stroke="rgb(251,234,236)" stroke-width="1" opacity="1" d="M 106.5 291 L 107 305.5 L 106 305.5 L 106.5 291 Z " /><path fill="rgb(251,234,236)" stroke="rgb(251,234,236)" stroke-width="1" opacity="1" d="M 223.5 294 L 221.5 297 L 223.5 294 Z " /><path fill="rgb(251,234,236)" stroke="rgb(251,234,236)" stroke-width="1" opacity="1" d="M 247.5 301 L 246.5 303 L 247.5 301 Z " /><path fill="rgb(251,234,236)" stroke="rgb(251,234,236)" stroke-width="1" opacity="1" d="M 80.5 305 L 81 321.5 L 80 321.5 L 80.5 305 Z " /><path fill="rgb(251,234,236)" stroke="rgb(251,234,236)" stroke-width="1" opacity="1" d="M 244.5 305 L 243.5 307 L 244.5 305 Z " /><path fill="rgb(251,234,236)" stroke="rgb(251,234,236)" stroke-width="1" opacity="1" d="M 211.5 306 L 209.5 309 L 211.5 306 Z " /><path fill="rgb(251,234,236)" stroke="rgb(251,234,236)" stroke-width="1" opacity="1" d="M 241.5 309 L 240.5 311 L 241.5 309 Z " /><path fill="rgb(251,234,236)" stroke="rgb(251,234,236)" stroke-width="1" opacity="1" d="M 205.5 311 L 204.5 313 L 205.5 311 Z " /><path fill="rgb(251,234,236)" stroke="rgb(251,234,236)" stroke-width="1" opacity="1" d="M 141.5 312 L 142.5 314 L 141.5 312 Z " /><path fill="rgb(251,234,236)" stroke="rgb(251,234,236)" stroke-width="1" opacity="1" d="M 236.5 315 L 234.5 318 L 236.5 315 Z " /><path fill="rgb(251,234,236)" stroke="rgb(251,234,236)" stroke-width="1" opacity="1" d="M 144.5 316 L 146.5 319 L 144.5 316 Z " /><path fill="rgb(251,234,236)" stroke="rgb(251,234,236)" stroke-width="1" opacity="1" d="M 261.5 318 L 260.5 320 L 261.5 318 Z " /><path fill="rgb(251,234,236)" stroke="rgb(251,234,236)" stroke-width="1" opacity="1" d="M 258.5 322 L 257.5 324 L 258.5 322 Z " /><path fill="rgb(251,234,236)" stroke="rgb(251,234,236)" stroke-width="1" opacity="1" d="M 163.5 326 L 167 326.5 L 163.5 327 L 163.5 326 Z " /><path fill="rgb(251,234,236)" stroke="rgb(251,234,236)" stroke-width="1" opacity="1" d="M 170.5 326 L 173 326.5 L 170.5 327 L 170.5 326 Z " /><path fill="rgb(251,234,236)" stroke="rgb(251,234,236)" stroke-width="1" opacity="1" d="M 255.5 326 L 254.5 328 L 255.5 326 Z " /><path fill="rgb(251,234,236)" stroke="rgb(251,234,236)" stroke-width="1" opacity="1" d="M 81.5 330 L 82 332.5 L 81 332.5 L 81.5 330 Z " /><path fill="rgb(251,234,236)" stroke="rgb(251,234,236)" stroke-width="1" opacity="1" d="M 251.5 331 L 249.5 334 L 251.5 331 Z " /><path fill="rgb(251,234,236)" stroke="rgb(251,234,236)" stroke-width="1" opacity="1" d="M 218.5 333 L 215.5 337 L 218.5 333 Z " /><path fill="rgb(251,234,236)" stroke="rgb(251,234,236)" stroke-width="1" opacity="1" d="M 245.5 338 L 242.5 342 L 245.5 338 Z " /><path fill="rgb(251,234,236)" stroke="rgb(251,234,236)" stroke-width="1" opacity="1" d="M 118.5 343 L 119.5 345 L 118.5 343 Z " /><path fill="rgb(251,234,236)" stroke="rgb(251,234,236)" stroke-width="1" opacity="1" d="M 204.5 344 L 203.5 346 L 204.5 344 Z " /><path fill="rgb(251,234,236)" stroke="rgb(251,234,236)" stroke-width="1" opacity="1" d="M 201.5 346 L 200.5 348 L 201.5 346 Z " /><path fill="rgb(251,234,236)" stroke="rgb(251,234,236)" stroke-width="1" opacity="1" d="M 128.5 353 L 129.5 355 L 128.5 353 Z " /><path fill="rgb(251,234,236)" stroke="rgb(251,234,236)" stroke-width="1" opacity="1" d="M 228.5 355 L 224.5 360 L 228.5 355 Z " /><path fill="rgb(251,234,236)" stroke="rgb(251,234,236)" stroke-width="1" opacity="1" d="M 220.5 362 L 218.5 365 L 220.5 362 Z " /><path fill="rgb(251,234,236)" stroke="rgb(251,234,236)" stroke-width="1" opacity="1" d="M 94.5 369 L 95.5 371 L 94.5 369 Z " /><path fill="rgb(251,234,236)" stroke="rgb(251,234,236)" stroke-width="1" opacity="1" d="M 97.5 373 L 98.5 375 L 97.5 373 Z " /><path fill="rgb(251,234,236)" stroke="rgb(251,234,236)" stroke-width="1" opacity="1" d="M 204.5 374 L 203.5 376 L 204.5 374 Z " /><path fill="rgb(251,234,236)" stroke="rgb(251,234,236)" stroke-width="1" opacity="1" d="M 107.5 383 L 108.5 385 L 107.5 383 Z " /><path fill="rgb(251,234,236)" stroke="rgb(251,234,236)" stroke-width="1" opacity="1" d="M 136.5 395 L 139 395.5 L 136.5 396 L 136.5 395 Z " /><path fill="rgb(251,234,236)" stroke="rgb(251,234,236)" stroke-width="1" opacity="1" d="M 149.5 395 L 152 395.5 L 149.5 396 L 149.5 395 Z " /><path fill="rgb(255,255,255)" stroke="rgb(255,255,255)" stroke-width="1" opacity="0.996078431372549" d="M 236.5 100 L 256.5 100 L 268.5 103 Q 282.1 108.4 291 118.5 Q 302 131 307 149.5 L 310 165.5 Q 308.3 176.3 311 182.5 L 310 183.5 L 309 206.5 L 303 234.5 L 291 267.5 L 282.5 283 L 265 272.5 Q 275.4 253.9 281 230.5 L 284 214.5 L 284 206.5 L 285 205.5 L 285 188.5 L 284 187.5 L 283 175.5 L 279 162.5 Q 273.6 149.9 263.5 142 Q 251.9 131.6 228.5 133 L 211.5 137 L 194.5 145 Q 172.4 158.4 156 177.5 Q 131.7 205.2 117 242.5 L 108 274.5 L 107 290.5 L 106 291.5 L 106 305.5 L 107 306.5 L 108 319.5 L 112 332.5 Q 117.8 346.7 129.5 355 L 146.5 362 L 165.5 362 Q 186 358 200.5 348 Q 221.4 334.4 237 315.5 L 252.5 295 L 270 305.5 Q 252.9 333.4 229.5 355 Q 208.6 375.1 180.5 388 L 156.5 395 L 139.5 396 L 138.5 395 L 127.5 394 L 113.5 388 L 99 375.5 Q 87.5 362 83 341.5 L 82 330.5 L 81 329.5 L 81 296.5 L 82 295.5 L 82 288.5 L 85 272.5 L 89 257.5 Q 96.8 232.8 108 211.5 Q 131.4 166.9 167.5 135 L 195.5 115 L 219.5 104 L 236.5 100 Z " /><path fill="rgb(255,255,255)" stroke="rgb(255,255,255)" stroke-width="1" opacity="0.996078431372549" d="M 216.5 169 Q 238.5 167.5 247 179.5 L 255 195.5 L 256 206.5 L 257 207.5 L 257 217.5 L 256 218.5 L 256 226.5 L 254 236.5 L 245 261 L 226 250.5 L 230 240.5 L 231 220.5 Q 228.6 209.4 220.5 204 Q 215.9 201.1 207.5 202 L 194.5 207 L 178 221.5 Q 169.2 231.7 164 245.5 L 160 260.5 L 160 274.5 Q 161.8 284.8 168.5 290 Q 173.7 294.8 185.5 293 L 201.5 285 L 214.5 273 L 232 283.5 L 212.5 306 Q 201.5 316.5 186.5 323 L 176.5 326 L 167.5 327 L 156.5 325 L 152.5 323 L 143 314.5 L 137 303.5 L 134 287.5 L 134 278.5 L 138 255.5 Q 142.9 238.4 151 224.5 Q 163.6 202.1 182.5 186 Q 196.1 174.1 216.5 169 Z " /><path fill="rgb(63,72,98)" stroke="rgb(63,72,98)" stroke-width="1" opacity="0.9764705882352941" d="M 199.5 237 L 206.5 239 L 228.5 253 L 322.5 306 L 368 333.5 L 365 335 L 366.5 338 L 407.5 361 L 435.5 326 L 437.5 325 L 436 327.5 L 412 358.5 L 431 369.5 L 428 374 L 466.5 396 L 470.5 397 L 497.5 363 L 501.5 361 L 497 366.5 L 480.5 388 L 479 388.5 L 480 389.5 L 476 393.5 L 475 395.5 L 493 406.5 L 494 412.5 Q 492.1 421.6 485.5 426 L 479.5 427 L 470.5 422 L 470 423.5 L 489 468.5 L 489 472 L 485.5 474 L 466 428.5 L 463 418.5 L 459.5 415 L 407.5 385 L 407 387.5 L 419 414.5 L 426 434.5 L 422.5 437 L 401 384.5 L 396.5 378 L 306.5 327 L 264.5 301 L 202.5 266 L 189 256.5 Q 186.5 253 188 245.5 L 193.5 239 L 199.5 237 Z " /><path fill="rgb(128,173,219)" stroke="rgb(128,173,219)" stroke-width="1" opacity="0.796078431372549" d="M 404.5 304 L 412.5 307 L 440 323.5 L 433.5 326 L 400 306.5 L 404.5 304 Z " /><path fill="rgb(128,173,219)" stroke="rgb(128,173,219)" stroke-width="1" opacity="0.796078431372549" d="M 468.5 340 L 503 359.5 L 497.5 363 L 464 344 Q 462.9 341.3 465.5 342 L 468.5 340 Z " /><path fill="rgb(102,139,199)" stroke="rgb(102,139,199)" stroke-width="1" opacity="0.9686274509803922" d="M 399.5 307 L 403.5 308 L 435 326.5 L 407.5 361 L 365 336.5 Q 364.3 334.3 366.5 335 L 368 332 L 399.5 307 Z " /><path fill="rgb(102,139,199)" stroke="rgb(102,139,199)" stroke-width="1" opacity="0.9686274509803922" d="M 426.5 340 L 425.5 342 L 426.5 340 Z " /><path fill="rgb(102,139,199)" stroke="rgb(102,139,199)" stroke-width="1" opacity="0.9686274509803922" d="M 463.5 343 L 497 362 L 493 369.5 L 470.5 397 L 466.5 396 L 428 374 L 434.5 366 L 463.5 343 Z " /><path fill="rgb(102,139,199)" stroke="rgb(102,139,199)" stroke-width="1" opacity="0.9686274509803922" d="M 356.5 355 L 399 380.5 L 422 437.5 L 420.5 437 L 387 417.5 L 356 356.5 L 356.5 355 Z " /><path fill="rgb(102,139,199)" stroke="rgb(102,139,199)" stroke-width="1" opacity="0.9686274509803922" d="M 501.5 360 L 500.5 362 L 501.5 360 Z " /><path fill="rgb(102,139,199)" stroke="rgb(102,139,199)" stroke-width="1" opacity="0.9686274509803922" d="M 483.5 384 L 482.5 386 L 483.5 384 Z " /><path fill="rgb(102,139,199)" stroke="rgb(102,139,199)" stroke-width="1" opacity="0.9686274509803922" d="M 419.5 392 L 456.5 413 L 463 418.5 L 464 423.5 L 485 473.5 L 483.5 474 L 450 453.5 L 419.5 392 Z " /><path fill="rgb(102,139,199)" stroke="rgb(102,139,199)" stroke-width="1" opacity="0.9686274509803922" d="M 426.5 434 L 425.5 436 L 426.5 434 Z " /></svg>