<svg width="512" height="512" version="1.1" xmlns="http://www.w3.org/2000/svg" desc="Created with imagetracer.js version 1.2.6" ><path fill="rgb(228,72,88)" stroke="rgb(228,72,88)" stroke-width="1" opacity="0.8588235294117647" d="M 308.5 113 L 307.5 115 L 308.5 113 Z " /><path fill="rgb(228,72,88)" stroke="rgb(228,72,88)" stroke-width="1" opacity="0.8588235294117647" d="M 318.5 187 L 319.5 189 L 318.5 187 Z " /><path fill="rgb(228,72,88)" stroke="rgb(228,72,88)" stroke-width="1" opacity="0.8588235294117647" d="M 320.5 190 L 322 192.5 L 320 191.5 L 320.5 190 Z " /><path fill="rgb(228,72,88)" stroke="rgb(228,72,88)" stroke-width="1" opacity="0.8588235294117647" d="M 323.5 196 L 325 198.5 L 323 197.5 L 323.5 196 Z " /><path fill="rgb(228,72,88)" stroke="rgb(228,72,88)" stroke-width="1" opacity="0.8588235294117647" d="M 326.5 201 L 333 209.5 L 331 208.5 L 326.5 201 Z " /><path fill="rgb(228,72,88)" stroke="rgb(228,72,88)" stroke-width="1" opacity="0.8588235294117647" d="M 134.5 213 L 147.5 213 Q 154.9 215.6 159 221.5 L 160 225 Q 141.4 231.2 130 245.5 Q 123.8 252.5 121 262 L 113 255.5 L 110 247.5 L 110 239.5 Q 113.1 225.1 123.5 218 L 134.5 213 Z " /><path fill="rgb(0,0,0)" stroke="rgb(0,0,0)" stroke-width="1" opacity="0" d="M 0 0 L 512 0 L 512 512 L 0 512 L 0 0 Z M 310 10 L 309 11 L 296 12 L 286 16 L 263 32 Q 250 43 242 58 Q 240 62 239 59 L 224 59 L 214 62 L 205 66 L 188 78 Q 172 91 162 109 Q 153 122 150 142 L 150 156 L 155 169 Q 159 174 166 176 L 162 209 L 172 214 L 192 184 L 194 182 L 204 180 L 214 175 L 235 159 L 255 134 L 258 135 L 270 135 L 281 132 Q 299 124 312 111 L 333 118 L 328 94 L 328 91 L 339 72 L 344 54 Q 346 36 340 27 Q 334 18 324 14 L 317 11 Q 311 13 310 10 Z M 350 114 L 336 118 L 330 122 L 321 131 L 316 142 L 314 151 L 315 178 Q 320 198 333 211 L 333 226 L 326 229 L 322 234 L 292 256 Q 280 267 274 284 L 271 298 L 271 316 L 270 317 L 271 352 L 274 359 Q 279 366 289 369 L 306 373 L 334 372 L 366 364 Q 396 353 419 333 Q 433 320 442 303 Q 445 294 443 282 L 444 281 L 443 279 L 443 260 L 442 259 L 441 245 L 436 227 L 429 214 Q 423 201 405 202 L 407 193 L 407 164 L 405 154 Q 404 148 406 147 Q 408 134 403 129 Q 397 120 386 117 L 376 115 L 368 115 L 367 114 L 350 114 Z M 135 213 L 124 218 Q 113 225 110 240 Q 109 257 120 263 L 117 280 Q 120 311 137 330 L 137 340 L 131 342 L 124 350 L 117 356 Q 93 376 80 407 L 74 423 L 68 454 L 68 473 L 72 486 Q 77 492 86 496 L 104 501 L 133 501 L 134 500 L 151 498 L 175 491 Q 206 479 230 459 Q 242 448 252 434 L 258 421 L 258 412 L 259 411 L 259 392 L 258 391 L 258 381 L 255 365 L 247 344 L 237 330 L 223 318 L 214 315 L 218 295 L 218 266 Q 214 257 214 246 L 207 232 Q 200 222 187 220 L 169 221 L 161 224 L 159 222 Q 155 216 148 213 L 135 213 Z " /><path fill="rgb(246,219,204)" stroke="rgb(246,219,204)" stroke-width="1" opacity="0.9921568627450981" d="M 300.5 11 L 315.5 11 L 327 16.5 L 323.5 17 L 322.5 16 L 313.5 16 Q 298.1 18.6 287.5 26 Q 271.7 36.2 260 50.5 Q 249.8 62.8 243 78.5 L 238 93.5 L 237 107.5 L 240 121.5 L 244 127.5 L 242.5 127 L 234.5 123 L 232.5 124 L 229 121.5 L 228 93.5 Q 235.7 58.2 257.5 37 L 259 37 L 259 35 Q 261.7 36.1 261 33.5 L 278.5 20 Q 287.9 13.9 300.5 11 Z " /><path fill="rgb(246,219,204)" stroke="rgb(246,219,204)" stroke-width="1" opacity="0.9921568627450981" d="M 321.5 51 L 327 53.5 L 328 58.5 Q 326.3 67.8 319.5 72 L 313.5 73 Q 310.3 71.3 310 66.5 L 312 59.5 L 317.5 53 L 321.5 51 Z " /><path fill="rgb(246,219,204)" stroke="rgb(246,219,204)" stroke-width="1" opacity="0.9921568627450981" d="M 295.5 66 L 301 68.5 L 302 73.5 Q 300.3 82.8 293.5 87 L 287.5 88 Q 284.3 86.3 284 81.5 Q 285.5 72.5 291.5 68 L 295.5 66 Z " /><path fill="rgb(246,219,204)" stroke="rgb(246,219,204)" stroke-width="1" opacity="0.9921568627450981" d="M 269.5 81 L 275 83.5 L 276 88.5 Q 274.3 97.8 267.5 102 L 261.5 103 Q 258.3 101.3 258 96.5 Q 259.5 87.5 265.5 83 L 269.5 81 Z " /><path fill="rgb(246,219,204)" stroke="rgb(246,219,204)" stroke-width="1" opacity="0.9921568627450981" d="M 212.5 117 Q 218 116 219 119.5 L 219 127.5 L 213.5 136 L 206.5 139 L 203 136.5 L 204 125.5 L 210.5 118 L 212.5 117 Z " /><path fill="rgb(246,219,204)" stroke="rgb(246,219,204)" stroke-width="1" opacity="0.9921568627450981" d="M 186.5 132 Q 192 131 193 134.5 L 193 142.5 L 187.5 151 L 180.5 154 L 177 151.5 L 178 140.5 L 184.5 133 L 186.5 132 Z " /><path fill="rgb(246,219,204)" stroke="rgb(246,219,204)" stroke-width="1" opacity="0.9921568627450981" d="M 404.5 151 L 407 163.5 L 407 192.5 L 403 207.5 L 397 219.5 L 402 228.5 L 407 246.5 L 408 263.5 L 409 264.5 L 409 282.5 L 408 283.5 L 407 305.5 L 404.5 315 L 393 279.5 L 388 267.5 L 385.5 265 L 383 263.5 L 387 254.5 L 381.5 248 L 376.5 246 Q 372 252.2 372 262 L 377 264.5 L 375 272.5 L 376 273.5 L 376 280.5 L 381 309.5 L 379 308.5 Q 362.6 275.9 337 252.5 L 331 243.5 L 329 234.5 L 333 227.5 L 333.5 210 L 335 210.5 L 330 196.5 L 328 179.5 L 330 173.5 L 332.5 171 Q 337.3 170.3 338 173.5 L 340 184.5 L 339 187 L 344 187 L 344 179.5 L 352 167.5 L 353 161 Q 360.3 165 372.5 165 L 397.5 157 L 404 152.5 L 404.5 151 Z " /><path fill="rgb(246,219,204)" stroke="rgb(246,219,204)" stroke-width="1" opacity="0.9921568627450981" d="M 209.5 253 Q 211.8 252.3 211 254.5 L 214 258.5 L 218 269.5 L 218 294.5 L 215 311.5 L 212 317.5 L 208 332.5 L 214 344.5 L 219 364.5 L 220 384.5 L 221 385.5 L 221 398.5 L 220 399.5 L 220 414.5 L 219 415.5 L 219 423.5 L 216.5 438 L 215 436.5 L 213 427.5 L 201 394.5 L 197 385.5 L 193.5 382 Q 190.9 382.8 192 379.5 L 196 373.5 L 196 370.5 L 188.5 363 L 184 362 L 180 374.5 L 180 378.5 L 186 382.5 L 183 388.5 L 184 389.5 L 187 417.5 L 190 432.5 L 188 431.5 L 172 404.5 L 136 361.5 L 133 355.5 L 133 347.5 L 137 340.5 L 138 314.5 L 140 305.5 Q 144.9 293.9 153 285.5 L 156.5 275 L 157.5 276 L 173.5 276 L 189.5 270 Q 201.1 263.1 209.5 253 Z " /><path fill="rgb(76,73,85)" stroke="rgb(76,73,85)" stroke-width="1" opacity="0.984313725490196" d="M 349.5 114 L 366.5 114 L 367.5 115 L 375.5 115 L 385.5 117 Q 396.6 120.4 403 128.5 L 406 135.5 L 406 145.5 Q 405.1 152.1 400.5 155 L 375.5 164 L 363.5 164 L 352 160 L 352 166.5 L 344 178.5 L 344 187 L 340 187 L 340 178.5 L 338 172.5 L 335.5 170 L 330 172 Q 326.1 177.2 328 189.5 L 334 208.5 L 328 203.5 L 326.5 201 Q 323.9 201.8 325 198.5 L 324 196 L 322 195.5 L 322.5 194 L 321 193.5 L 321 191.5 Q 321.8 189.3 319.5 190 L 318.5 185 L 317 184.5 L 318 182.5 Q 314.5 181 317 179.5 L 315 176.5 Q 316.8 170.3 314 168.5 L 314 164.5 L 314 154.5 L 315 153.5 L 314 151.5 L 316 141.5 L 320 132.5 L 329.5 122 L 335.5 118 L 349.5 114 Z " /><path fill="rgb(76,73,85)" stroke="rgb(76,73,85)" stroke-width="1" opacity="0.984313725490196" d="M 404 202 Q 422.5 201.1 429 213.5 L 436 226.5 L 441 244.5 L 442 258.5 L 443 259.5 L 443 278.5 L 444 280.5 L 443 281.5 Q 444.7 294.2 442 302.5 Q 432.9 320.4 418.5 333 Q 396.3 352.8 365.5 364 L 333.5 372 L 305.5 373 L 288.5 369 Q 279.2 365.8 274 358.5 L 271 351.5 L 270 316.5 L 271 315.5 L 271 297.5 L 274 283.5 Q 279.6 266.6 291.5 256 L 322 233.5 L 325.5 229 L 332.5 226 L 332 227.5 Q 327.7 230.7 329 239.5 L 335 250.5 L 356 273.5 L 373 297.5 L 382 312.5 L 398.5 347 L 402 334.5 L 407 307.5 L 407 300.5 L 408 299.5 L 408 290.5 L 409 289.5 L 409 258.5 L 408 257.5 L 406 239.5 L 402 227.5 L 398 220.5 L 398 217.5 Q 403.6 211.9 404 202 Z " /><path fill="rgb(87,146,249)" stroke="rgb(87,146,249)" stroke-width="1" opacity="0.984313725490196" d="M 223.5 59 L 238.5 59 L 240 60.5 L 231 80.5 L 228 93.5 L 228 107.5 L 229 108.5 L 229 121.5 L 230.5 123 L 233.5 124 L 236.5 123 Q 243.8 129.8 254 133 Q 246.8 147.9 234.5 159 L 213.5 175 L 203.5 180 L 193.5 182 L 192 183.5 L 171.5 214 L 162 209 L 166 176 Q 159.1 174.2 155 168.5 L 150 155.5 L 150 141.5 Q 153.3 122.3 162 108.5 Q 172.5 91 187.5 78 L 204.5 66 L 223.5 59 Z M 213 117 L 211 118 L 204 126 L 203 137 L 207 139 L 214 136 L 219 128 L 219 120 Q 218 116 213 117 Z M 187 132 L 185 133 L 178 141 L 177 152 L 181 154 L 188 151 L 193 143 L 193 135 Q 192 131 187 132 Z " /><path fill="rgb(87,146,249)" stroke="rgb(87,146,249)" stroke-width="1" opacity="0.984313725490196" d="M 376.5 246 Q 383 247.5 386 252.5 L 387 255.5 L 383 263.5 L 388 267.5 L 404 311.5 L 405 319.5 L 398.5 347 L 380 308.5 L 375 269.5 L 377 264.5 L 372 262 Q 372 252.2 376.5 246 Z " /><path fill="rgb(126,202,138)" stroke="rgb(126,202,138)" stroke-width="1" opacity="0.9764705882352941" d="M 399.5 215 L 398.5 217 L 399.5 215 Z " /><path fill="rgb(126,202,138)" stroke="rgb(126,202,138)" stroke-width="1" opacity="0.9764705882352941" d="M 333.5 247 L 334.5 249 L 333.5 247 Z " /><path fill="rgb(126,202,138)" stroke="rgb(126,202,138)" stroke-width="1" opacity="0.9764705882352941" d="M 335.5 250 L 336.5 252 L 335.5 250 Z " /><path fill="rgb(126,202,138)" stroke="rgb(126,202,138)" stroke-width="1" opacity="0.9764705882352941" d="M 339.5 255 L 341.5 258 L 339.5 255 Z " /><path fill="rgb(126,202,138)" stroke="rgb(126,202,138)" stroke-width="1" opacity="0.9764705882352941" d="M 408.5 258 L 409 263.5 L 408 263.5 L 408.5 258 Z " /><path fill="rgb(126,202,138)" stroke="rgb(126,202,138)" stroke-width="1" opacity="0.9764705882352941" d="M 347.5 264 L 352.5 270 L 347.5 264 Z " /><path fill="rgb(126,202,138)" stroke="rgb(126,202,138)" stroke-width="1" opacity="0.9764705882352941" d="M 356.5 274 L 357.5 276 L 356.5 274 Z " /><path fill="rgb(126,202,138)" stroke="rgb(126,202,138)" stroke-width="1" opacity="0.9764705882352941" d="M 360.5 279 L 361.5 281 L 360.5 279 Z " /><path fill="rgb(126,202,138)" stroke="rgb(126,202,138)" stroke-width="1" opacity="0.9764705882352941" d="M 408.5 283 L 409 289.5 L 408 289.5 L 408.5 283 Z " /><path fill="rgb(126,202,138)" stroke="rgb(126,202,138)" stroke-width="1" opacity="0.9764705882352941" d="M 365.5 286 L 366.5 288 L 365.5 286 Z " /><path fill="rgb(126,202,138)" stroke="rgb(126,202,138)" stroke-width="1" opacity="0.9764705882352941" d="M 367.5 289 L 368.5 291 L 367.5 289 Z " /><path fill="rgb(126,202,138)" stroke="rgb(126,202,138)" stroke-width="1" opacity="0.9764705882352941" d="M 407.5 297 L 408 299.5 L 407 299.5 L 407.5 297 Z " /><path fill="rgb(126,202,138)" stroke="rgb(126,202,138)" stroke-width="1" opacity="0.9764705882352941" d="M 213 315 L 222.5 318 L 237 329.5 L 247 343.5 L 255 364.5 L 258 380.5 L 258 390.5 L 259 391.5 L 259 410.5 L 258 411.5 L 258 420.5 L 252 433.5 Q 242.5 448 229.5 459 Q 206.4 479.4 174.5 491 L 150.5 498 L 133.5 500 L 132.5 501 L 103.5 501 L 85.5 496 Q 77.1 492.4 72 485.5 L 68 472.5 L 68 453.5 L 74 422.5 L 80 406.5 Q 93.5 376.5 116.5 356 L 124 349.5 L 130.5 342 L 136.5 340 L 136 341.5 L 133 347.5 L 133 355.5 L 140 367.5 L 162 391.5 L 178 413.5 Q 195.5 440.5 208.5 472 L 212 462.5 L 217 437.5 L 219 415.5 L 220 414.5 L 221 385.5 L 220 384.5 L 220 371.5 L 217 354.5 L 208 330.5 L 213 315 Z " /><path fill="rgb(236,94,113)" stroke="rgb(236,94,113)" stroke-width="1" opacity="0.9921568627450981" d="M 313.5 16 Q 333.5 14.5 340 26.5 Q 346.1 35.9 344 53.5 L 340 68.5 Q 335.7 81.2 328 90.5 L 328 93.5 L 333 117.5 L 331.5 117 L 310 111 Q 311.1 113.7 308.5 113 Q 298 124.5 282.5 131 L 269.5 135 L 257.5 135 Q 247.9 132.1 242 125.5 L 238 115.5 L 237 99.5 Q 246.9 56.9 276.5 34 L 296.5 21 L 313.5 16 Z M 322 51 L 318 53 L 312 60 L 310 67 Q 310 71 314 73 L 320 72 Q 326 68 328 59 L 327 54 L 322 51 Z M 296 66 L 292 68 Q 286 73 284 82 Q 284 86 288 88 L 294 87 Q 300 83 302 74 L 301 69 L 296 66 Z M 270 81 L 266 83 Q 259 87 258 97 Q 258 101 262 103 L 268 102 Q 274 98 276 89 L 275 84 L 270 81 Z " /><path fill="rgb(236,94,113)" stroke="rgb(236,94,113)" stroke-width="1" opacity="0.9921568627450981" d="M 402.5 153 L 401.5 155 L 402.5 153 Z " /><path fill="rgb(236,94,113)" stroke="rgb(236,94,113)" stroke-width="1" opacity="0.9921568627450981" d="M 352 160 L 354 160.5 L 352.5 165 L 352 160 Z " /><path fill="rgb(236,94,113)" stroke="rgb(236,94,113)" stroke-width="1" opacity="0.9921568627450981" d="M 368.5 164 L 371 164.5 L 368.5 165 L 368.5 164 Z " /><path fill="rgb(236,94,113)" stroke="rgb(236,94,113)" stroke-width="1" opacity="0.9921568627450981" d="M 333.5 170 L 336 170.5 L 333.5 171 L 333.5 170 Z " /><path fill="rgb(236,94,113)" stroke="rgb(236,94,113)" stroke-width="1" opacity="0.9921568627450981" d="M 349.5 171 L 348.5 173 L 349.5 171 Z " /><path fill="rgb(236,94,113)" stroke="rgb(236,94,113)" stroke-width="1" opacity="0.9921568627450981" d="M 328.5 187 L 329 189.5 L 328 189.5 L 328.5 187 Z " /><path fill="rgb(236,94,113)" stroke="rgb(236,94,113)" stroke-width="1" opacity="0.9921568627450981" d="M 333.5 209 L 334.5 211 L 333.5 209 Z " /><path fill="rgb(236,94,113)" stroke="rgb(236,94,113)" stroke-width="1" opacity="0.9921568627450981" d="M 176.5 220 L 186.5 220 L 194.5 222 L 207 231.5 L 214 245.5 L 218 268.5 L 217 268.5 Q 215.1 259 211 253 L 195.5 266 L 183.5 273 L 173.5 276 L 157.5 276 L 156 275.5 L 153 285.5 Q 144.9 293.9 140 305.5 L 138 314.5 L 138 325.5 L 136.5 329 Q 129.3 321.3 125 310.5 L 119 293.5 L 118 281.5 L 117 280.5 L 118 279.5 L 119 265.5 L 125 252.5 L 139.5 236 L 157.5 225 L 165.5 222 L 176.5 220 Z " /><path fill="rgb(236,94,113)" stroke="rgb(236,94,113)" stroke-width="1" opacity="0.9921568627450981" d="M 184 362 L 188.5 363 L 196 370.5 L 196 373.5 Q 191.4 376.2 192 382 L 197 385.5 L 209 415.5 L 216 437.5 L 216 442.5 L 210 470.5 L 208.5 472 L 189 431.5 L 187 410.5 L 183 388.5 L 186 382.5 L 180 378.5 L 180 374.5 L 184 362 Z " /></svg>