<svg width="512" height="512" version="1.1" xmlns="http://www.w3.org/2000/svg" desc="Created with imagetracer.js version 1.2.6" ><path fill="rgb(0,0,0)" stroke="rgb(0,0,0)" stroke-width="1" opacity="0" d="M 0 0 L 512 0 L 512 512 L 0 512 L 0 0 Z M 399 24 L 388 27 L 379 32 Q 375 37 373 46 L 365 87 L 354 133 L 353 142 L 350 151 L 349 160 L 345 172 L 338 203 L 341 213 L 334 225 L 332 235 L 334 254 L 342 281 Q 344 291 341 297 L 330 316 Q 329 320 333 321 Q 346 323 353 318 L 379 298 Q 394 284 407 267 L 414 254 L 417 242 L 417 237 L 415 231 L 419 228 L 422 225 L 426 214 L 426 210 L 432 187 L 433 174 L 444 128 L 457 64 L 459 60 Q 460 49 455 45 Q 446 32 430 27 L 418 24 L 399 24 Z M 159 260 Q 110 268 79 293 L 60 313 L 56 321 L 53 333 L 53 342 L 54 343 L 54 413 Q 58 426 66 436 Q 77 448 92 457 L 118 469 L 143 477 L 173 484 L 193 486 L 194 487 L 203 487 L 204 488 L 220 488 L 221 489 L 270 488 L 271 487 L 291 486 L 292 485 L 307 484 L 326 480 L 331 480 L 377 469 L 414 455 L 421 447 L 424 437 L 424 371 L 420 359 L 412 351 L 399 347 L 390 347 L 389 346 L 381 346 L 372 348 L 345 348 L 344 347 L 337 347 L 327 345 L 310 339 L 303 334 L 293 323 Q 290 308 282 299 Q 263 277 232 267 L 221 264 L 204 262 L 203 261 L 195 261 L 194 260 L 159 260 Z " /><path fill="rgb(202,111,78)" stroke="rgb(202,111,78)" stroke-width="1" opacity="0.984313725490196" d="M 398.5 24 L 416.5 24 L 429.5 27 Q 445.3 32.7 455 44.5 L 459 53.5 L 459 59.5 L 457 63.5 L 449 104.5 L 438 150.5 L 437 159.5 L 430 188 Q 427.3 186.9 428 189.5 L 424.5 194 L 412.5 200 L 407.5 201 L 389.5 201 L 380.5 199 L 371.5 195 L 369.5 196 Q 359.2 191.8 352 184.5 Q 345 179 347 164.5 L 353 141.5 L 354 132.5 L 356 127.5 L 357 118.5 L 365 86.5 L 374 41.5 Q 376.1 33.6 382.5 30 Q 389 25.5 398.5 24 Z " /><path fill="rgb(202,111,78)" stroke="rgb(202,111,78)" stroke-width="1" opacity="0.984313725490196" d="M 419.5 226 L 418.5 228 L 415 230.5 L 417 240.5 L 414 253.5 L 410 261.5 L 392.5 284 Q 390.3 283.3 391 285.5 L 388 287 L 388 288.5 L 379.5 297 L 352.5 318 L 345.5 321 L 332.5 321 L 330 315.5 L 337 303 L 341.5 302 L 355.5 292 L 385 263.5 Q 397.3 251.5 403 234 Q 413.1 232.5 419.5 226 Z " /><path fill="rgb(202,111,78)" stroke="rgb(202,111,78)" stroke-width="1" opacity="0.984313725490196" d="M 332.5 235 L 333 240.5 L 332 240.5 L 332.5 235 Z " /><path fill="rgb(202,111,78)" stroke="rgb(202,111,78)" stroke-width="1" opacity="0.984313725490196" d="M 136 289 Q 146.4 291.4 152 299.5 Q 154.8 302.2 154 308.5 L 148.5 317 Q 141.5 323 130.5 325 L 112.5 325 Q 97.2 322.3 90 311.5 L 97.5 303 L 105.5 299 L 113.5 297 L 130.5 297 L 138.5 299 L 138.5 298 L 136 297.5 L 136 289 Z " /><path fill="rgb(202,111,78)" stroke="rgb(202,111,78)" stroke-width="1" opacity="0.984313725490196" d="M 116.5 348 Q 141.8 346.7 153 359.5 L 154 363.5 Q 143.2 379.2 113.5 376 L 100.5 372 L 91 364.5 L 90 362.5 L 96.5 355 L 106.5 350 L 116.5 348 Z " /><path fill="rgb(202,111,78)" stroke="rgb(202,111,78)" stroke-width="1" opacity="0.984313725490196" d="M 185.5 382 Q 211.6 379.9 223 392.5 L 224 397.5 Q 213.3 412.3 185.5 410 L 170.5 405 L 162 396.5 L 165 391 L 177.5 384 L 185.5 382 Z " /><path fill="rgb(202,111,78)" stroke="rgb(202,111,78)" stroke-width="1" opacity="0.984313725490196" d="M 277.5 387 Q 306 384 318 397.5 L 318 400.5 L 309.5 409 L 296.5 413 L 278.5 413 L 265.5 409 L 257 401.5 Q 257.7 395.2 262.5 393 Q 268.5 388.5 277.5 387 Z " /><path fill="rgb(241,211,125)" stroke="rgb(241,211,125)" stroke-width="1" opacity="0.9686274509803922" d="M 340.5 214 Q 344.5 213.5 345 216.5 L 348.5 221 Q 358.4 229.1 372.5 233 L 383.5 235 L 399.5 235 L 403 234.5 Q 398.7 248.2 390 257.5 L 363.5 285 Q 352.5 296.5 338 303 L 342 293.5 L 342 280.5 L 335 257.5 L 335 255.5 L 334 253.5 L 334 251.5 L 332 241.5 Q 334.3 240.2 333 235.5 L 333 233.5 Q 333.5 220.5 340.5 214 Z " /><path fill="rgb(241,211,125)" stroke="rgb(241,211,125)" stroke-width="1" opacity="0.9686274509803922" d="M 116.5 287 L 128.5 287 L 136 289 L 136 297.5 L 134.5 298 L 127.5 296 L 117.5 296 L 104.5 299 L 91 307.5 L 90.5 309 Q 88 308 89 303.5 L 96.5 294 L 104.5 290 L 116.5 287 Z " /><path fill="rgb(241,211,125)" stroke="rgb(241,211,125)" stroke-width="1" opacity="0.9686274509803922" d="M 370.5 304 L 369.5 306 L 370.5 304 Z " /><path fill="rgb(241,211,125)" stroke="rgb(241,211,125)" stroke-width="1" opacity="0.9686274509803922" d="M 114.5 337 L 133.5 338 L 147.5 344 L 153 349.5 Q 156.3 353.4 155 361 Q 152.3 362.1 153 359.5 Q 144.8 349.4 128 349 Q 129.1 346.3 126.5 347 Q 125.3 349.3 120.5 348 L 115.5 347 L 115.5 349 L 108.5 348 L 108.5 349 L 110 349.5 L 108.5 350 L 105.5 349 L 105.5 351 L 102.5 350 L 102.5 351 L 104 351.5 L 102.5 352 L 100.5 351 L 100.5 353 L 98.5 352 L 97.5 355 L 95.5 354 L 96 355.5 L 91.5 360 L 90 359.5 L 91 361.5 L 89.5 361 L 88 360.5 L 88 352.5 L 92.5 346 L 102.5 340 L 114.5 337 Z " /><path fill="rgb(241,211,125)" stroke="rgb(241,211,125)" stroke-width="1" opacity="0.9686274509803922" d="M 153.5 364 L 149.5 369 L 153.5 364 Z " /><path fill="rgb(241,211,125)" stroke="rgb(241,211,125)" stroke-width="1" opacity="0.9686274509803922" d="M 95.5 368 L 96.5 370 L 95.5 368 Z " /><path fill="rgb(241,211,125)" stroke="rgb(241,211,125)" stroke-width="1" opacity="0.9686274509803922" d="M 147.5 369 L 146.5 371 L 147.5 369 Z " /><path fill="rgb(241,211,125)" stroke="rgb(241,211,125)" stroke-width="1" opacity="0.9686274509803922" d="M 98.5 370 L 99.5 372 L 98.5 370 Z " /><path fill="rgb(241,211,125)" stroke="rgb(241,211,125)" stroke-width="1" opacity="0.9686274509803922" d="M 110.5 375 L 113 375.5 L 110.5 376 L 110.5 375 Z " /><path fill="rgb(241,211,125)" stroke="rgb(241,211,125)" stroke-width="1" opacity="0.9686274509803922" d="M 132.5 375 L 135 375.5 L 132.5 376 L 132.5 375 Z " /><path fill="rgb(241,211,125)" stroke="rgb(241,211,125)" stroke-width="1" opacity="0.9686274509803922" d="M 116.5 376 L 129 376.5 L 116.5 377 L 116.5 376 Z " /><path fill="rgb(177,184,187)" stroke="rgb(177,184,187)" stroke-width="1" opacity="0.996078431372549" d="M 431.5 184 L 432 186.5 L 425 217.5 L 421 226 L 412.5 231 L 411 230.5 L 410.5 232 L 409.5 231 L 407 232.5 L 409 228.5 L 414 200.5 L 413.5 199 L 418.5 198 L 426 192.5 Q 425.3 190.3 427.5 191 L 428.5 188 Q 430.8 188.8 430 186.5 L 431.5 184 Z " /><path fill="rgb(177,184,187)" stroke="rgb(177,184,187)" stroke-width="1" opacity="0.996078431372549" d="M 371.5 195 L 370.5 197 L 371.5 195 Z " /><path fill="rgb(177,184,187)" stroke="rgb(177,184,187)" stroke-width="1" opacity="0.996078431372549" d="M 397.5 201 L 401 201.5 L 397.5 202 L 397.5 201 Z " /><path fill="rgb(177,184,187)" stroke="rgb(177,184,187)" stroke-width="1" opacity="0.996078431372549" d="M 113.5 287 L 116 287.5 L 113.5 288 L 113.5 287 Z " /><path fill="rgb(177,184,187)" stroke="rgb(177,184,187)" stroke-width="1" opacity="0.996078431372549" d="M 140.5 290 L 145 292.5 L 143.5 292 Q 139.8 291.7 140.5 290 Z " /><path fill="rgb(177,184,187)" stroke="rgb(177,184,187)" stroke-width="1" opacity="0.996078431372549" d="M 146.5 293 L 150.5 298 L 146.5 293 Z " /><path fill="rgb(177,184,187)" stroke="rgb(177,184,187)" stroke-width="1" opacity="0.996078431372549" d="M 94.5 295 L 91.5 299 L 94.5 295 Z " /><path fill="rgb(177,184,187)" stroke="rgb(177,184,187)" stroke-width="1" opacity="0.996078431372549" d="M 117.5 296 L 128 296.5 L 117.5 297 L 117.5 296 Z " /><path fill="rgb(177,184,187)" stroke="rgb(177,184,187)" stroke-width="1" opacity="0.996078431372549" d="M 131.5 297 L 134 297.5 L 131.5 298 L 131.5 297 Z " /><path fill="rgb(177,184,187)" stroke="rgb(177,184,187)" stroke-width="1" opacity="0.996078431372549" d="M 138.5 298 L 139.5 300 L 138.5 298 Z " /><path fill="rgb(177,184,187)" stroke="rgb(177,184,187)" stroke-width="1" opacity="0.996078431372549" d="M 237.5 298 Q 248.5 302.5 255 311.5 L 261 324.5 L 269 333.5 L 269 355.5 Q 266.8 356.8 269.5 358 L 275 361.5 Q 276.3 365.7 271.5 364 L 248.5 359 L 228.5 352 Q 209.8 344.2 197 330.5 Q 193.2 325.8 193 317.5 L 202.5 312 L 215.5 311 Q 233.5 314 242.5 326 L 243 324.5 L 237 318.5 L 237.5 298 Z M 245 327 L 244 329 L 246 330 L 245 327 Z " /><path fill="rgb(177,184,187)" stroke="rgb(177,184,187)" stroke-width="1" opacity="0.996078431372549" d="M 152.5 300 L 154 302.5 L 153 302.5 L 152.5 300 Z " /><path fill="rgb(177,184,187)" stroke="rgb(177,184,187)" stroke-width="1" opacity="0.996078431372549" d="M 145.5 302 L 148 303.5 L 146.5 303 L 145.5 302 Z " /><path fill="rgb(177,184,187)" stroke="rgb(177,184,187)" stroke-width="1" opacity="0.996078431372549" d="M 96.5 303 L 91 309.5 L 90.5 311 L 89 308.5 L 91 308.5 L 93.5 305 L 96.5 303 Z " /><path fill="rgb(177,184,187)" stroke="rgb(177,184,187)" stroke-width="1" opacity="0.996078431372549" d="M 154.5 304 L 155 308.5 L 151.5 314 L 153 311.5 L 154.5 304 Z " /><path fill="rgb(177,184,187)" stroke="rgb(177,184,187)" stroke-width="1" opacity="0.996078431372549" d="M 91.5 313 L 95.5 318 L 91.5 313 Z " /><path fill="rgb(177,184,187)" stroke="rgb(177,184,187)" stroke-width="1" opacity="0.996078431372549" d="M 147.5 317 L 145.5 320 L 147.5 317 Z " /><path fill="rgb(177,184,187)" stroke="rgb(177,184,187)" stroke-width="1" opacity="0.996078431372549" d="M 98.5 319 L 99.5 321 L 98.5 319 Z " /><path fill="rgb(177,184,187)" stroke="rgb(177,184,187)" stroke-width="1" opacity="0.996078431372549" d="M 115.5 325 L 127 325.5 L 115.5 326 L 115.5 325 Z " /><path fill="rgb(177,184,187)" stroke="rgb(177,184,187)" stroke-width="1" opacity="0.996078431372549" d="M 364.5 354 Q 388.2 352.3 399 363.5 Q 403.3 366.7 402 375.5 L 396.5 383 Q 386 391 366.5 390 L 351.5 386 L 343 379.5 Q 340.1 375.9 341 368.5 L 345.5 362 L 353.5 357 L 364.5 354 Z " /><path fill="rgb(177,184,187)" stroke="rgb(177,184,187)" stroke-width="1" opacity="0.996078431372549" d="M 194.5 372 L 212.5 375 L 224 383.5 Q 227.2 386.8 226 394.5 L 224.5 397 Q 223.6 391.4 219.5 389 L 205.5 383 L 200.5 382 L 185.5 382 L 182 383 L 182 374.5 L 183.5 374 L 194.5 372 Z " /><path fill="rgb(177,184,187)" stroke="rgb(177,184,187)" stroke-width="1" opacity="0.996078431372549" d="M 422.5 375 L 423 435.5 L 424 436.5 L 422 437 Q 422.5 444.8 418 448.5 L 418.5 450 Q 416.3 449.3 417 451.5 L 413.5 455 L 411.5 455 L 397 460.5 L 397.5 462 L 394.5 461 L 382.5 466 L 345 475 L 345 412.5 L 346.5 411 L 376.5 404 L 405.5 394 Q 414.5 390 420 382.5 L 422.5 375 Z " /><path fill="rgb(177,184,187)" stroke="rgb(177,184,187)" stroke-width="1" opacity="0.996078431372549" d="M 281.5 377 L 294.5 377 L 303.5 379 L 316 386 L 319 390.5 L 320 397.5 L 319 400.5 L 310.5 409 L 318 400.5 L 318 397.5 L 313.5 393 L 297.5 387 L 277.5 387 L 267.5 390 L 263.5 393 L 261.5 393 L 259 394.5 L 259.5 396 L 258 395.5 L 257 397.5 L 257 399.5 L 256.5 401 L 255 395.5 Q 257.1 387.2 263.5 383 L 269.5 380 L 281.5 377 Z " /><path fill="rgb(177,184,187)" stroke="rgb(177,184,187)" stroke-width="1" opacity="0.996078431372549" d="M 168.5 388 L 166.5 391 L 168.5 388 Z " /><path fill="rgb(177,184,187)" stroke="rgb(177,184,187)" stroke-width="1" opacity="0.996078431372549" d="M 164.5 392 L 162.5 395 L 164.5 392 Z " /><path fill="rgb(177,184,187)" stroke="rgb(177,184,187)" stroke-width="1" opacity="0.996078431372549" d="M 162.5 397 L 168.5 404 L 162.5 397 Z " /><path fill="rgb(177,184,187)" stroke="rgb(177,184,187)" stroke-width="1" opacity="0.996078431372549" d="M 222.5 399 L 219.5 403 L 222.5 399 Z " /><path fill="rgb(177,184,187)" stroke="rgb(177,184,187)" stroke-width="1" opacity="0.996078431372549" d="M 257.5 402 L 261.5 407 L 257.5 402 Z " /><path fill="rgb(177,184,187)" stroke="rgb(177,184,187)" stroke-width="1" opacity="0.996078431372549" d="M 217.5 403 L 216.5 405 L 217.5 403 Z " /><path fill="rgb(177,184,187)" stroke="rgb(177,184,187)" stroke-width="1" opacity="0.996078431372549" d="M 263.5 407 L 264.5 409 L 263.5 407 Z " /><path fill="rgb(177,184,187)" stroke="rgb(177,184,187)" stroke-width="1" opacity="0.996078431372549" d="M 201.5 409 L 204 409.5 L 201.5 410 L 201.5 409 Z " /><path fill="rgb(177,184,187)" stroke="rgb(177,184,187)" stroke-width="1" opacity="0.996078431372549" d="M 191.5 410 L 195 410.5 L 191.5 411 L 191.5 410 Z " /><path fill="rgb(177,184,187)" stroke="rgb(177,184,187)" stroke-width="1" opacity="0.996078431372549" d="M 275.5 412 L 278 412.5 L 275.5 413 L 275.5 412 Z " /><path fill="rgb(177,184,187)" stroke="rgb(177,184,187)" stroke-width="1" opacity="0.996078431372549" d="M 297.5 412 L 300 412.5 L 297.5 413 L 297.5 412 Z " /><path fill="rgb(177,184,187)" stroke="rgb(177,184,187)" stroke-width="1" opacity="0.996078431372549" d="M 145.5 413 L 171.5 419 L 190.5 421 L 191.5 422 L 214.5 423 L 215.5 424 L 255.5 424 L 256.5 423 L 271 423 L 271 485.5 L 270.5 486 L 258.5 486 L 257.5 487 L 215.5 487 L 214.5 486 L 192.5 485 L 191.5 484 L 185.5 484 L 162.5 480 L 143.5 475 L 130 469.5 L 130 431.5 Q 133.1 420.6 141.5 415 L 145.5 413 Z " /><path fill="rgb(177,184,187)" stroke="rgb(177,184,187)" stroke-width="1" opacity="0.996078431372549" d="M 281.5 413 L 294 413.5 L 281.5 414 L 281.5 413 Z " /><path fill="rgb(214,211,209)" stroke="rgb(214,211,209)" stroke-width="1" opacity="0.984313725490196" d="M 345.5 171 Q 348.1 170.2 347 173.5 L 346 173.5 L 345.5 171 Z " /><path fill="rgb(214,211,209)" stroke="rgb(214,211,209)" stroke-width="1" opacity="0.984313725490196" d="M 356.5 188 L 357.5 190 L 356.5 188 Z " /><path fill="rgb(214,211,209)" stroke="rgb(214,211,209)" stroke-width="1" opacity="0.984313725490196" d="M 428.5 189 L 427.5 191 L 428.5 189 Z " /><path fill="rgb(214,211,209)" stroke="rgb(214,211,209)" stroke-width="1" opacity="0.984313725490196" d="M 371.5 196 L 382.5 200 L 400.5 202 L 401.5 201 Q 409.5 201.7 414 200 L 409 228.5 L 406.5 233 L 397.5 235 L 383.5 235 L 372.5 233 L 364.5 229 L 363 229.5 L 370 201.5 L 370 197.5 L 371.5 196 Z " /><path fill="rgb(214,211,209)" stroke="rgb(214,211,209)" stroke-width="1" opacity="0.984313725490196" d="M 215.5 295 L 228.5 295 L 237 297 L 237 318.5 Q 246.2 325.3 250 337.5 L 249 337.5 Q 244.9 325.6 235.5 319 L 221.5 312 L 208.5 311 Q 207.3 313.2 202.5 312 L 193.5 317 L 194 315.5 Q 196 305.5 203.5 301 L 215.5 295 Z " /><path fill="rgb(214,211,209)" stroke="rgb(214,211,209)" stroke-width="1" opacity="0.984313725490196" d="M 238.5 298 L 243 300.5 L 241.5 300 Q 237.7 299.8 238.5 298 Z " /><path fill="rgb(214,211,209)" stroke="rgb(214,211,209)" stroke-width="1" opacity="0.984313725490196" d="M 244.5 301 L 245.5 303 L 244.5 301 Z " /><path fill="rgb(214,211,209)" stroke="rgb(214,211,209)" stroke-width="1" opacity="0.984313725490196" d="M 247.5 303 L 253.5 310 L 247.5 303 Z " /><path fill="rgb(214,211,209)" stroke="rgb(214,211,209)" stroke-width="1" opacity="0.984313725490196" d="M 255.5 312 L 258 315.5 L 256 314.5 L 255.5 312 Z " /><path fill="rgb(214,211,209)" stroke="rgb(214,211,209)" stroke-width="1" opacity="0.984313725490196" d="M 193.5 320 L 194 322.5 L 193 322.5 L 193.5 320 Z " /><path fill="rgb(214,211,209)" stroke="rgb(214,211,209)" stroke-width="1" opacity="0.984313725490196" d="M 263.5 327 L 266.5 331 L 263.5 327 Z " /><path fill="rgb(214,211,209)" stroke="rgb(214,211,209)" stroke-width="1" opacity="0.984313725490196" d="M 269.5 333 L 287 346.5 L 288 355.5 L 282.5 362 L 276.5 363 L 274.5 365 L 275 363.5 Q 275.5 359.5 272.5 359 L 268 356.5 L 269 355.5 L 269.5 333 Z " /><path fill="rgb(214,211,209)" stroke="rgb(214,211,209)" stroke-width="1" opacity="0.984313725490196" d="M 203.5 336 L 205.5 339 L 203.5 336 Z " /><path fill="rgb(214,211,209)" stroke="rgb(214,211,209)" stroke-width="1" opacity="0.984313725490196" d="M 251.5 341 L 252.5 343 L 251.5 341 Z " /><path fill="rgb(214,211,209)" stroke="rgb(214,211,209)" stroke-width="1" opacity="0.984313725490196" d="M 54.5 345 Q 59.4 366.1 73.5 378 Q 91.8 394.7 118 403.5 L 107 410.5 Q 117.1 413.9 123 421.5 L 128.5 431 L 130.5 430 L 130 431.5 L 130 469.5 L 131.5 471 L 162.5 480 L 185.5 484 L 191.5 484 L 192.5 485 L 214.5 486 L 215.5 487 L 257.5 487 L 258.5 486 L 271 486 L 271 423.5 L 270.5 423 L 263.5 423 L 263.5 422 L 279.5 422 L 280.5 421 L 304.5 419 L 345.5 411 L 345 412.5 L 345 474.5 L 346.5 475 L 382.5 466 L 410.5 455 L 410.5 456 L 379.5 468 L 349.5 476 L 324.5 481 L 312.5 482 L 298.5 485 L 291.5 485 L 290.5 486 L 270.5 487 L 269.5 488 L 220.5 489 L 219.5 488 L 193.5 487 L 192.5 486 L 185.5 486 L 162.5 482 L 112.5 467 Q 84.8 456.7 67 436.5 Q 58.1 426.4 54 411.5 L 54.5 345 Z " /><path fill="rgb(214,211,209)" stroke="rgb(214,211,209)" stroke-width="1" opacity="0.984313725490196" d="M 255.5 346 L 260.5 352 L 255.5 346 Z " /><path fill="rgb(214,211,209)" stroke="rgb(214,211,209)" stroke-width="1" opacity="0.984313725490196" d="M 262.5 352 L 267 355.5 L 265.5 355 L 262.5 352 Z " /><path fill="rgb(214,211,209)" stroke="rgb(214,211,209)" stroke-width="1" opacity="0.984313725490196" d="M 91.5 365 L 94.5 369 L 91.5 365 Z " /><path fill="rgb(214,211,209)" stroke="rgb(214,211,209)" stroke-width="1" opacity="0.984313725490196" d="M 185.5 371 L 200.5 371 L 212 374.5 L 210.5 375 L 204.5 373 Q 197.7 374.3 194.5 372 L 182 374 L 181.5 383 L 179 382 L 178.5 384 L 176 383 L 175.5 385 L 174 384.5 L 173.5 386 L 172 385.5 L 171.5 387 L 170 386.5 Q 170.8 388.8 168.5 388 L 162 394.5 L 161.5 397 L 160 387.5 L 167.5 378 L 174.5 374 L 185.5 371 Z " /><path fill="rgb(214,211,209)" stroke="rgb(214,211,209)" stroke-width="1" opacity="0.984313725490196" d="M 422 371 L 424 371.5 L 424 435.5 L 423 435.5 L 423 375.5 L 422 371 Z " /><path fill="rgb(214,211,209)" stroke="rgb(214,211,209)" stroke-width="1" opacity="0.984313725490196" d="M 215.5 376 L 220 379.5 L 217.5 378 L 215.5 376 Z " /><path fill="rgb(214,211,209)" stroke="rgb(214,211,209)" stroke-width="1" opacity="0.984313725490196" d="M 420.5 379 L 421 380.5 L 417.5 385 L 419 382.5 L 420.5 379 Z " /><path fill="rgb(214,211,209)" stroke="rgb(214,211,209)" stroke-width="1" opacity="0.984313725490196" d="M 221.5 380 L 222.5 382 L 221.5 380 Z " /><path fill="rgb(214,211,209)" stroke="rgb(214,211,209)" stroke-width="1" opacity="0.984313725490196" d="M 344.5 381 L 345.5 383 L 344.5 381 Z " /><path fill="rgb(214,211,209)" stroke="rgb(214,211,209)" stroke-width="1" opacity="0.984313725490196" d="M 261.5 384 L 259.5 387 L 261.5 384 Z " /><path fill="rgb(214,211,209)" stroke="rgb(214,211,209)" stroke-width="1" opacity="0.984313725490196" d="M 313.5 384 L 314.5 386 L 313.5 384 Z " /><path fill="rgb(214,211,209)" stroke="rgb(214,211,209)" stroke-width="1" opacity="0.984313725490196" d="M 316.5 387 L 317.5 389 L 316.5 387 Z " /><path fill="rgb(214,211,209)" stroke="rgb(214,211,209)" stroke-width="1" opacity="0.984313725490196" d="M 414.5 387 L 412.5 390 L 414.5 387 Z " /><path fill="rgb(214,211,209)" stroke="rgb(214,211,209)" stroke-width="1" opacity="0.984313725490196" d="M 408.5 391 L 407.5 393 L 404.5 394 L 404.5 393 L 408.5 391 Z " /><path fill="rgb(214,211,209)" stroke="rgb(214,211,209)" stroke-width="1" opacity="0.984313725490196" d="M 262.5 392 L 260.5 395 Q 258.3 394.3 259 396.5 L 257 397.5 L 260.5 393 L 262.5 392 Z " /><path fill="rgb(214,211,209)" stroke="rgb(214,211,209)" stroke-width="1" opacity="0.984313725490196" d="M 224.5 397 L 223.5 399 L 224.5 397 Z " /><path fill="rgb(214,211,209)" stroke="rgb(214,211,209)" stroke-width="1" opacity="0.984313725490196" d="M 356.5 408 L 359 408.5 L 356.5 409 L 356.5 408 Z " /><path fill="rgb(214,211,209)" stroke="rgb(214,211,209)" stroke-width="1" opacity="0.984313725490196" d="M 186.5 410 L 191 410.5 L 186.5 411 L 186.5 410 Z " /><path fill="rgb(214,211,209)" stroke="rgb(214,211,209)" stroke-width="1" opacity="0.984313725490196" d="M 195.5 410 L 200 410.5 L 195.5 411 L 195.5 410 Z " /><path fill="rgb(214,211,209)" stroke="rgb(214,211,209)" stroke-width="1" opacity="0.984313725490196" d="M 347.5 410 L 350 410.5 L 347.5 411 L 347.5 410 Z " /><path fill="rgb(214,211,209)" stroke="rgb(214,211,209)" stroke-width="1" opacity="0.984313725490196" d="M 149.5 413 L 152 413.5 L 149.5 414 L 149.5 413 Z " /><path fill="rgb(214,211,209)" stroke="rgb(214,211,209)" stroke-width="1" opacity="0.984313725490196" d="M 153.5 414 L 156 414.5 L 153.5 415 L 153.5 414 Z " /><path fill="rgb(214,211,209)" stroke="rgb(214,211,209)" stroke-width="1" opacity="0.984313725490196" d="M 157.5 415 L 160 415.5 L 157.5 416 L 157.5 415 Z " /><path fill="rgb(214,211,209)" stroke="rgb(214,211,209)" stroke-width="1" opacity="0.984313725490196" d="M 139.5 416 L 134.5 422 L 139.5 416 Z " /><path fill="rgb(214,211,209)" stroke="rgb(214,211,209)" stroke-width="1" opacity="0.984313725490196" d="M 162.5 416 L 165 416.5 L 162.5 417 L 162.5 416 Z " /><path fill="rgb(214,211,209)" stroke="rgb(214,211,209)" stroke-width="1" opacity="0.984313725490196" d="M 166.5 417 L 169 417.5 L 166.5 418 L 166.5 417 Z " /><path fill="rgb(214,211,209)" stroke="rgb(214,211,209)" stroke-width="1" opacity="0.984313725490196" d="M 171.5 418 L 175 418.5 L 171.5 419 L 171.5 418 Z " /><path fill="rgb(214,211,209)" stroke="rgb(214,211,209)" stroke-width="1" opacity="0.984313725490196" d="M 177.5 419 L 181 419.5 L 177.5 420 L 177.5 419 Z " /><path fill="rgb(214,211,209)" stroke="rgb(214,211,209)" stroke-width="1" opacity="0.984313725490196" d="M 184.5 420 L 188 420.5 L 184.5 421 L 184.5 420 Z " /><path fill="rgb(214,211,209)" stroke="rgb(214,211,209)" stroke-width="1" opacity="0.984313725490196" d="M 191.5 421 L 197 421.5 L 191.5 422 L 191.5 421 Z " /><path fill="rgb(214,211,209)" stroke="rgb(214,211,209)" stroke-width="1" opacity="0.984313725490196" d="M 201.5 422 L 209 422.5 L 201.5 423 L 201.5 422 Z " /><path fill="rgb(214,211,209)" stroke="rgb(214,211,209)" stroke-width="1" opacity="0.984313725490196" d="M 215.5 423 L 256 423.5 L 215.5 424 L 215.5 423 Z " /><path fill="rgb(214,211,209)" stroke="rgb(214,211,209)" stroke-width="1" opacity="0.984313725490196" d="M 422.5 437 L 423 441.5 L 421.5 444 L 421 442.5 L 422.5 437 Z " /><path fill="rgb(214,211,209)" stroke="rgb(214,211,209)" stroke-width="1" opacity="0.984313725490196" d="M 419.5 447 L 418.5 449 L 419.5 447 Z " /><path fill="rgb(233,232,230)" stroke="rgb(233,232,230)" stroke-width="1" opacity="0.9882352941176471" d="M 345.5 172 Q 348 184.5 357.5 190 L 367.5 196 L 370 196 L 370 201.5 L 367 210.5 L 364 227.5 L 362.5 229 Q 351.9 225.1 345 217.5 L 343 213 L 340 211.5 L 338 202.5 L 345.5 172 Z " /><path fill="rgb(233,232,230)" stroke="rgb(233,232,230)" stroke-width="1" opacity="0.9882352941176471" d="M 158.5 260 L 193.5 260 L 194.5 261 L 201.5 261 L 202.5 262 L 220.5 264 Q 224.5 267 231.5 267 Q 262.7 276.8 282 298.5 Q 289.8 308.2 293 322.5 L 302.5 334 L 309.5 339 L 326.5 345 L 336.5 347 L 343.5 347 L 344.5 348 L 371.5 348 L 380.5 346 L 388.5 346 L 389.5 347 L 398.5 347 L 411.5 351 L 420 358.5 L 424 370.5 L 422 371 Q 422 381.6 415.5 387 L 403.5 394 L 387.5 400 L 367.5 406 L 323.5 416 L 311.5 417 L 304.5 419 L 297.5 419 L 296.5 420 L 289.5 420 L 288.5 421 L 280.5 421 L 279.5 422 L 263.5 422 L 262.5 423 L 209.5 423 L 208.5 422 L 197.5 422 L 196.5 421 L 188.5 421 L 187.5 420 L 169.5 418 L 146.5 412 Q 138.8 415.3 134 421.5 L 129.5 431 L 127 429.5 Q 124.2 420.8 117.5 416 L 107 410.5 L 118 403.5 Q 89 394 70 374.5 Q 61.9 366.1 57 354.5 L 53 341.5 L 53 332.5 L 56 320.5 L 60 312.5 L 78.5 293 L 98.5 280 L 115.5 272 L 137.5 264 L 158.5 260 Z M 113 287 Q 102 289 96 294 Q 89 297 88 306 L 90 313 L 100 321 L 115 326 L 134 325 L 146 320 L 155 310 Q 156 303 153 300 Q 142 284 113 287 Z M 216 295 L 204 301 Q 196 306 193 317 Q 192 325 196 330 L 206 339 L 228 352 L 251 360 L 275 365 L 277 363 L 283 362 L 288 356 L 287 347 L 269 333 L 262 326 L 254 310 Q 248 302 240 298 L 229 295 L 216 295 Z M 115 337 L 103 340 L 93 346 L 88 353 L 88 361 L 90 361 L 91 366 Q 99 375 115 377 Q 137 379 149 370 L 155 363 Q 157 354 153 350 L 148 344 L 134 338 L 115 337 Z M 364 354 Q 353 356 347 361 L 341 368 Q 340 377 344 382 L 354 387 L 366 390 Q 385 391 396 384 L 402 376 Q 403 368 400 365 Q 395 358 388 356 L 379 354 L 364 354 Z M 186 371 L 175 374 L 168 378 L 160 388 L 161 397 L 170 405 L 178 409 L 187 411 Q 207 412 219 404 Q 225 400 227 392 Q 226 385 223 382 Q 212 369 186 371 Z M 280 377 L 269 380 L 262 384 L 255 394 L 256 402 L 263 408 L 271 412 L 280 414 L 296 414 L 301 413 L 311 409 L 316 405 L 320 399 Q 321 392 318 389 Q 307 375 280 377 Z " /><path fill="rgb(233,232,230)" stroke="rgb(233,232,230)" stroke-width="1" opacity="0.9882352941176471" d="M 115.5 347 L 118 347.5 L 115.5 348 L 115.5 347 Z " /><path fill="rgb(233,232,230)" stroke="rgb(233,232,230)" stroke-width="1" opacity="0.9882352941176471" d="M 108.5 348 L 111 348.5 L 108.5 349 L 108.5 348 Z " /><path fill="rgb(233,232,230)" stroke="rgb(233,232,230)" stroke-width="1" opacity="0.9882352941176471" d="M 102.5 350 L 104 350.5 Q 95.5 353.5 90.5 360 L 95.5 354 L 102.5 350 Z " /></svg>