<svg class="box-icon" width="200" height="200" viewBox="0 0 512 512"
  xmlns="http://www.w3.org/2000/svg">
  <path fill="rgb(254,215,156)" stroke="rgb(254,215,156)" stroke-width="1" opacity="0.5686274509803921" d="M 166.5 47 L 168 47.5 L 10.5 139 L 12.5 136 L 166.5 47 Z " />
  <path fill="rgb(254,215,156)" stroke="rgb(254,215,156)" stroke-width="1" opacity="0.5686274509803921" d="M 169.5 47 L 246.5 111 L 255.5 117 L 335.5 50 L 339.5 47 L 342.5 47 L 499 137 L 498.5 139 L 351.5 53 L 342.5 48 L 339.5 48 L 254.5 118 L 172.5 51 L 169.5 47 Z " />
  <path fill="rgb(254,215,156)" stroke="rgb(254,215,156)" stroke-width="1" opacity="0.5686274509803921" d="M 21.5 150 L 23.5 153 L 21.5 150 Z " />
  <path fill="rgb(254,215,156)" stroke="rgb(254,215,156)" stroke-width="1" opacity="0.5686274509803921" d="M 484.5 153 L 483.5 155 L 484.5 153 Z " />
  <path fill="rgb(254,215,156)" stroke="rgb(254,215,156)" stroke-width="1" opacity="0.5686274509803921" d="M 468.5 166 L 466.5 169 L 468.5 166 Z " />
  <path fill="rgb(254,215,156)" stroke="rgb(254,215,156)" stroke-width="1" opacity="0.5686274509803921" d="M 44.5 169 L 46.5 172 L 44.5 169 Z " />
  <path fill="rgb(254,215,156)" stroke="rgb(254,215,156)" stroke-width="1" opacity="0.5686274509803921" d="M 461.5 172 L 460.5 174 L 461.5 172 Z " />
  <path fill="rgb(254,215,156)" stroke="rgb(254,215,156)" stroke-width="1" opacity="0.5686274509803921" d="M 62.5 184 L 63.5 186 L 62.5 184 Z " />
  <path fill="rgb(254,215,156)" stroke="rgb(254,215,156)" stroke-width="1" opacity="0.5686274509803921" d="M 444.5 186 L 443.5 188 L 444.5 186 Z " />
  <path fill="rgb(254,215,156)" stroke="rgb(254,215,156)" stroke-width="1" opacity="0.5686274509803921" d="M 438.5 191 L 437.5 193 L 438.5 191 Z " />
  <path fill="rgb(254,215,156)" stroke="rgb(254,215,156)" stroke-width="1" opacity="0.5686274509803921" d="M 432.5 196 L 431.5 198 L 432.5 196 Z " />
  <path fill="rgb(254,215,156)" stroke="rgb(254,215,156)" stroke-width="1" opacity="0.5686274509803921" d="M 85.5 203 L 86.5 205 L 85.5 203 Z " />
  <path fill="rgb(254,215,156)" stroke="rgb(254,215,156)" stroke-width="1" opacity="0.5686274509803921" d="M 421.5 205 L 420.5 207 L 421.5 205 Z " />
  <path fill="rgb(254,215,156)" stroke="rgb(254,215,156)" stroke-width="1" opacity="0.5686274509803921" d="M 415.5 210 L 416 212 L 502 282.5 L 499.5 281 L 415 211.5 L 415.5 210 Z " />
  <path fill="rgb(254,215,156)" stroke="rgb(254,215,156)" stroke-width="1" opacity="0.5686274509803921" d="M 95.5 211 L 96 212.5 L 10.5 283 L 13.5 279 L 95 213 L 95.5 211 Z " />
  <path fill="rgb(254,215,156)" stroke="rgb(254,215,156)" stroke-width="1" opacity="0.5686274509803921" d="M 95.5 335 L 96 373 L 106 378.5 L 104.5 378 L 95 372.5 L 95.5 335 Z " />
  <path fill="rgb(254,215,156)" stroke="rgb(254,215,156)" stroke-width="1" opacity="0.5686274509803921" d="M 107.5 379 L 132 393.5 L 130.5 393 L 108.5 381 L 107.5 379 Z " />
  <path fill="rgb(254,215,156)" stroke="rgb(254,215,156)" stroke-width="1" opacity="0.5686274509803921" d="M 391.5 386 L 390.5 388 L 391.5 386 Z " />
  <path fill="rgb(254,215,156)" stroke="rgb(254,215,156)" stroke-width="1" opacity="0.5686274509803921" d="M 133.5 394 L 158 408.5 L 156.5 408 L 134.5 396 L 133.5 394 Z " />
  <path fill="rgb(254,215,156)" stroke="rgb(254,215,156)" stroke-width="1" opacity="0.5686274509803921" d="M 159.5 409 L 203 434.5 L 201.5 434 L 160.5 411 L 159.5 409 Z " />
  <path fill="rgb(254,215,156)" stroke="rgb(254,215,156)" stroke-width="1" opacity="0.5686274509803921" d="M 317.5 429 L 316.5 431 L 317.5 429 Z " />
  <path fill="rgb(254,215,156)" stroke="rgb(254,215,156)" stroke-width="1" opacity="0.5686274509803921" d="M 204.5 435 L 229 449.5 L 227.5 449 L 205.5 437 L 204.5 435 Z " />
  <path fill="rgb(254,215,156)" stroke="rgb(254,215,156)" stroke-width="1" opacity="0.5686274509803921" d="M 230.5 450 L 256 464.5 L 254.5 465 L 231.5 452 L 230.5 450 Z " />
  <path fill="rgb(254,213,153)" stroke="rgb(254,213,153)" stroke-width="1" opacity="0.996078431372549" d="M 497.5 138 L 495.5 141 L 497.5 138 Z " />
  <path fill="rgb(254,213,153)" stroke="rgb(254,213,153)" stroke-width="1" opacity="0.996078431372549" d="M 16.5 142 L 17.5 144 L 16.5 142 Z " />
  <path fill="rgb(254,213,153)" stroke="rgb(254,213,153)" stroke-width="1" opacity="0.996078431372549" d="M 492.5 142 L 490.5 145 L 492.5 142 Z " />
  <path fill="rgb(254,213,153)" stroke="rgb(254,213,153)" stroke-width="1" opacity="0.996078431372549" d="M 21.5 146 L 22.5 148 L 21.5 146 Z " />
  <path fill="rgb(254,213,153)" stroke="rgb(254,213,153)" stroke-width="1" opacity="0.996078431372549" d="M 486.5 147 L 484.5 150 L 486.5 147 Z " />
  <path fill="rgb(254,213,153)" stroke="rgb(254,213,153)" stroke-width="1" opacity="0.996078431372549" d="M 26.5 150 L 28.5 153 L 26.5 150 Z " />
  <path fill="rgb(254,213,153)" stroke="rgb(254,213,153)" stroke-width="1" opacity="0.996078431372549" d="M 479.5 153 L 478.5 155 L 479.5 153 Z " />
  <path fill="rgb(254,213,153)" stroke="rgb(254,213,153)" stroke-width="1" opacity="0.996078431372549" d="M 32.5 155 L 34.5 158 L 32.5 155 Z " />
  <path fill="rgb(254,213,153)" stroke="rgb(254,213,153)" stroke-width="1" opacity="0.996078431372549" d="M 473.5 158 L 472.5 160 L 473.5 158 Z " />
  <path fill="rgb(254,213,153)" stroke="rgb(254,213,153)" stroke-width="1" opacity="0.996078431372549" d="M 323.5 160 L 324.5 162 L 323.5 160 Z " />
  <path fill="rgb(254,213,153)" stroke="rgb(254,213,153)" stroke-width="1" opacity="0.996078431372549" d="M 39.5 161 L 40.5 163 L 39.5 161 Z " />
  <path fill="rgb(254,213,153)" stroke="rgb(254,213,153)" stroke-width="1" opacity="0.996078431372549" d="M 468.5 162 L 467.5 164 L 468.5 162 Z " />
  <path fill="rgb(254,213,153)" stroke="rgb(254,213,153)" stroke-width="1" opacity="0.996078431372549" d="M 44.5 165 L 45.5 167 L 44.5 165 Z " />
  <path fill="rgb(254,213,153)" stroke="rgb(254,213,153)" stroke-width="1" opacity="0.996078431372549" d="M 463.5 166 L 461.5 169 L 463.5 166 Z " />
  <path fill="rgb(254,213,153)" stroke="rgb(254,213,153)" stroke-width="1" opacity="0.996078431372549" d="M 49.5 169 L 51.5 172 L 49.5 169 Z " />
  <path fill="rgb(254,213,153)" stroke="rgb(254,213,153)" stroke-width="1" opacity="0.996078431372549" d="M 456.5 172 L 455.5 174 L 456.5 172 Z " />
  <path fill="rgb(254,213,153)" stroke="rgb(254,213,153)" stroke-width="1" opacity="0.996078431372549" d="M 56.5 175 L 57.5 177 L 56.5 175 Z " />
  <path fill="rgb(254,213,153)" stroke="rgb(254,213,153)" stroke-width="1" opacity="0.996078431372549" d="M 451.5 176 L 449.5 179 L 451.5 176 Z " />
  <path fill="rgb(254,213,153)" stroke="rgb(254,213,153)" stroke-width="1" opacity="0.996078431372549" d="M 62.5 180 L 63.5 182 L 62.5 180 Z " />
  <path fill="rgb(254,213,153)" stroke="rgb(254,213,153)" stroke-width="1" opacity="0.996078431372549" d="M 445.5 181 L 444.5 183 L 445.5 181 Z " />
  <path fill="rgb(254,213,153)" stroke="rgb(254,213,153)" stroke-width="1" opacity="0.996078431372549" d="M 67.5 184 L 68.5 186 L 67.5 184 Z " />
  <path fill="rgb(254,213,153)" stroke="rgb(254,213,153)" stroke-width="1" opacity="0.996078431372549" d="M 440.5 185 L 438.5 188 L 440.5 185 Z " />
  <path fill="rgb(254,213,153)" stroke="rgb(254,213,153)" stroke-width="1" opacity="0.996078431372549" d="M 73.5 189 L 74.5 191 L 73.5 189 Z " />
  <path fill="rgb(254,213,153)" stroke="rgb(254,213,153)" stroke-width="1" opacity="0.996078431372549" d="M 433.5 191 L 432.5 193 L 433.5 191 Z " />
  <path fill="rgb(254,213,153)" stroke="rgb(254,213,153)" stroke-width="1" opacity="0.996078431372549" d="M 79.5 194 L 80.5 196 L 79.5 194 Z " />
  <path fill="rgb(254,213,153)" stroke="rgb(254,213,153)" stroke-width="1" opacity="0.996078431372549" d="M 428.5 195 L 426.5 198 L 428.5 195 Z " />
  <path fill="rgb(254,213,153)" stroke="rgb(254,213,153)" stroke-width="1" opacity="0.996078431372549" d="M 85.5 199 L 86.5 201 L 85.5 199 Z " />
  <path fill="rgb(254,213,153)" stroke="rgb(254,213,153)" stroke-width="1" opacity="0.996078431372549" d="M 422.5 200 L 421.5 202 L 422.5 200 Z " />
  <path fill="rgb(254,213,153)" stroke="rgb(254,213,153)" stroke-width="1" opacity="0.996078431372549" d="M 394.5 201 L 395.5 203 L 394.5 201 Z " />
  <path fill="rgb(254,213,153)" stroke="rgb(254,213,153)" stroke-width="1" opacity="0.996078431372549" d="M 90.5 203 L 91.5 205 L 90.5 203 Z " />
  <path fill="rgb(254,213,153)" stroke="rgb(254,213,153)" stroke-width="1" opacity="0.996078431372549" d="M 417.5 204 L 415.5 207 L 417.5 204 Z " />
  <path fill="rgb(254,213,153)" stroke="rgb(254,213,153)" stroke-width="1" opacity="0.996078431372549" d="M 96.5 208 Q 101 210 97.5 212 L 96.5 208 Z " />
  <path fill="rgb(254,213,153)" stroke="rgb(254,213,153)" stroke-width="1" opacity="0.996078431372549" d="M 409.5 210 L 412 211.5 L 410.5 211 L 409.5 210 Z " />
  <path fill="rgb(254,213,153)" stroke="rgb(254,213,153)" stroke-width="1" opacity="0.996078431372549" d="M 406.5 213 L 405.5 215 L 404 214.5 L 406.5 213 Z " />
  <path fill="rgb(254,213,153)" stroke="rgb(254,213,153)" stroke-width="1" opacity="0.996078431372549" d="M 394.5 220 L 393.5 222 L 391.5 223 L 392.5 221 L 394.5 220 Z " />
  <path fill="rgb(254,213,153)" stroke="rgb(254,213,153)" stroke-width="1" opacity="0.996078431372549" d="M 380.5 228 L 379.5 230 L 380.5 228 Z " />
  <path fill="rgb(254,213,153)" stroke="rgb(254,213,153)" stroke-width="1" opacity="0.996078431372549" d="M 375.5 231 L 374.5 233 L 372.5 234 L 373.5 232 L 375.5 231 Z " />
  <path fill="rgb(254,213,153)" stroke="rgb(254,213,153)" stroke-width="1" opacity="0.996078431372549" d="M 368.5 235 L 367.5 237 L 368.5 235 Z " />
  <path fill="rgb(254,213,153)" stroke="rgb(254,213,153)" stroke-width="1" opacity="0.996078431372549" d="M 354.5 243 L 353.5 245 L 354.5 243 Z " />
  <path fill="rgb(254,213,153)" stroke="rgb(254,213,153)" stroke-width="1" opacity="0.996078431372549" d="M 349.5 246 L 348.5 248 L 349.5 246 Z " />
  <path fill="rgb(254,213,153)" stroke="rgb(254,213,153)" stroke-width="1" opacity="0.996078431372549" d="M 167.5 249 L 168.5 251 L 167.5 249 Z " />
  <path fill="rgb(254,213,153)" stroke="rgb(254,213,153)" stroke-width="1" opacity="0.996078431372549" d="M 342.5 250 L 341.5 252 L 342.5 250 Z " />
  <path fill="rgb(254,213,153)" stroke="rgb(254,213,153)" stroke-width="1" opacity="0.996078431372549" d="M 337.5 253 L 336.5 255 L 334.5 256 L 335.5 254 L 337.5 253 Z " />
  <path fill="rgb(254,213,153)" stroke="rgb(254,213,153)" stroke-width="1" opacity="0.996078431372549" d="M 323.5 261 L 322.5 263 L 323.5 261 Z " />
  <path fill="rgb(254,213,153)" stroke="rgb(254,213,153)" stroke-width="1" opacity="0.996078431372549" d="M 318.5 264 L 317.5 266 L 318.5 264 Z " />
  <path fill="rgb(254,213,153)" stroke="rgb(254,213,153)" stroke-width="1" opacity="0.996078431372549" d="M 311.5 268 L 310.5 270 L 311.5 268 Z " />
  <path fill="rgb(254,213,153)" stroke="rgb(254,213,153)" stroke-width="1" opacity="0.996078431372549" d="M 270.5 292 L 269.5 294 L 270.5 292 Z " />
  <path fill="rgb(254,213,153)" stroke="rgb(254,213,153)" stroke-width="1" opacity="0.996078431372549" d="M 255.5 300 L 257.5 303 L 255.5 302 L 254 302.5 L 255.5 300 Z " />
  <path fill="rgb(254,213,153)" stroke="rgb(254,213,153)" stroke-width="1" opacity="0.996078431372549" d="M 259.5 303 L 261.5 306 L 259.5 303 Z " />
<path fill="rgb(254,213,153)" stroke="rgb(254,213,153)" stroke-width="1" opacity="0.996078431372549" d="M 250.5 305 L 248.5 308 L 250.5 305 Z " />
<path fill="rgb(254,213,153)" stroke="rgb(254,213,153)" stroke-width="1" opacity="0.996078431372549" d="M 265.5 308 L 267.5 311 L 265.5 308 Z " />
<path fill="rgb(254,213,153)" stroke="rgb(254,213,153)" stroke-width="1" opacity="0.996078431372549" d="M 245.5 309 L 242.5 313 L 245.5 309 Z " />
    <path fill="rgb(254,213,153)" stroke="rgb(254,213,153)" stroke-width="1" opacity="0.996078431372549" d="M 271.5 313 L 272.5 315 L 271.5 313 Z " />
    <path fill="rgb(254,213,153)" stroke="rgb(254,213,153)" stroke-width="1" opacity="0.996078431372549" d="M 238.5 315 L 237.5 317 L 238.5 315 Z " />
    <path fill="rgb(254,213,153)" stroke="rgb(254,213,153)" stroke-width="1" opacity="0.996078431372549" d="M 276.5 317 L 279.5 321 L 276.5 317 Z " />
    <path fill="rgb(254,213,153)" stroke="rgb(254,213,153)" stroke-width="1" opacity="0.996078431372549" d="M 233.5 319 L 231.5 322 L 233.5 319 Z " />
    <path fill="rgb(254,213,153)" stroke="rgb(254,213,153)" stroke-width="1" opacity="0.996078431372549" d="M 282.5 322 L 284.5 325 L 282.5 322 Z " />
    <path fill="rgb(254,213,153)" stroke="rgb(254,213,153)" stroke-width="1" opacity="0.996078431372549" d="M 227.5 324 L 225.5 327 L 227.5 324 Z " />
    <path fill="rgb(254,213,153)" stroke="rgb(254,213,153)" stroke-width="1" opacity="0.996078431372549" d="M 288.5 327 L 289.5 329 L 288.5 327 Z " />
    <path fill="rgb(254,213,153)" stroke="rgb(254,213,153)" stroke-width="1" opacity="0.996078431372549" d="M 222.5 328 L 219.5 332 L 222.5 328 Z " />
    <path fill="rgb(254,213,153)" stroke="rgb(254,213,153)" stroke-width="1" opacity="0.996078431372549" d="M 294.5 332 L 296.5 335 L 294.5 332 Z " />
    <path fill="rgb(254,213,153)" stroke="rgb(254,213,153)" stroke-width="1" opacity="0.996078431372549" d="M 215.5 334 L 214.5 336 L 215.5 334 Z " />
    <path fill="rgb(254,213,153)" stroke="rgb(254,213,153)" stroke-width="1" opacity="0.996078431372549" d="M 299.5 336 L 301.5 339 L 299.5 336 Z " />
    <path fill="rgb(254,213,153)" stroke="rgb(254,213,153)" stroke-width="1" opacity="0.996078431372549" d="M 210.5 338 L 208.5 341 L 210.5 338 Z " />
    <path fill="rgb(254,213,153)" stroke="rgb(254,213,153)" stroke-width="1" opacity="0.996078431372549" d="M 306.5 342 L 308.5 345 L 306.5 342 Z " />
    <path fill="rgb(254,213,153)" stroke="rgb(254,213,153)" stroke-width="1" opacity="0.996078431372549" d="M 204.5 343 L 202.5 346 L 204.5 343 Z " />
    <path fill="rgb(254,213,153)" stroke="rgb(254,213,153)" stroke-width="1" opacity="0.996078431372549" d="M 311.5 346 L 313.5 349 L 311.5 346 Z " />
    <path fill="rgb(254,213,153)" stroke="rgb(254,213,153)" stroke-width="1" opacity="0.996078431372549" d="M 198.5 348 L 196.5 351 L 198.5 348 Z " />
    <path fill="rgb(254,213,153)" stroke="rgb(254,213,153)" stroke-width="1" opacity="0.996078431372549" d="M 317.5 351 L 319.5 354 L 317.5 351 Z " />
    <path fill="rgb(254,213,153)" stroke="rgb(254,213,153)" stroke-width="1" opacity="0.996078431372549" d="M 192.5 353 L 191.5 355 L 192.5 353 Z " />
    <path fill="rgb(254,213,153)" stroke="rgb(254,213,153)" stroke-width="1" opacity="0.996078431372549" d="M 323.5 356 L 325.5 359 L 323.5 356 Z " />
    <path fill="rgb(254,213,153)" stroke="rgb(254,213,153)" stroke-width="1" opacity="0.996078431372549" d="M 187.5 357 L 185.5 360 L 187.5 357 Z " />
    <path fill="rgb(254,213,153)" stroke="rgb(254,213,153)" stroke-width="1" opacity="0.996078431372549" d="M 329.5 361 L 331.5 364 L 329.5 361 Z " />
    <path fill="rgb(254,213,153)" stroke="rgb(254,213,153)" stroke-width="1" opacity="0.996078431372549" d="M 181.5 362 L 179.5 365 L 181.5 362 Z " />
    <path fill="rgb(254,213,153)" stroke="rgb(254,213,153)" stroke-width="1" opacity="0.996078431372549" d="M 334.5 365 L 336.5 368 L 334.5 365 Z " />
    <path fill="rgb(254,213,153)" stroke="rgb(254,213,153)" stroke-width="1" opacity="0.996078431372549" d="M 175.5 367 L 173.5 370 L 175.5 367 Z " />
    <path fill="rgb(254,213,153)" stroke="rgb(254,213,153)" stroke-width="1" opacity="0.996078431372549" d="M 340.5 370 L 342.5 373 L 340.5 370 Z " />
    <path fill="rgb(0,0,0)" stroke="rgb(0,0,0)" stroke-width="1" opacity="0" d="M 0 0 L 512 0 L 512 512 L 0 512 L 0 0 Z M 167 47 L 13 136 Q 9 137 10 142 L 94 210 L 95 213 L 14 279 Q 9 280 10 286 L 14 289 L 94 334 L 95 336 L 95 373 L 255 465 L 260 464 L 415 374 L 416 373 L 416 337 L 501 288 Q 503 287 502 283 L 418 212 Q 415 213 416 211 L 500 141 L 499 137 L 343 47 L 340 47 L 336 50 L 256 117 L 247 111 L 173 49 Q 171 46 167 47 Z " />
    <path fill="rgb(255,214,154)" stroke="rgb(255,214,154)" stroke-width="1" opacity="1" d="M 168.5 47 L 247.5 113 L 254 117 L 254.5 119 L 305.5 76 L 311 73 Q 309.9 70.3 312.5 71 L 339.5 48 L 342.5 48 L 497 137 L 493.5 142 L 411.5 210 L 408.5 210 L 254.5 121 L 101 210 Q 99.9 212.7 102.5 212 L 255 300.5 L 251.5 305 L 170.5 372 L 167.5 373 L 11 282.5 L 99 210.5 L 12 138.5 Q 11.3 136.3 13.5 137 L 168.5 47 Z " />
    <path fill="rgb(255,214,154)" stroke="rgb(255,214,154)" stroke-width="1" opacity="1" d="M 412.5 211 L 418.5 214 L 501 282.5 L 343.5 373 L 257 301.5 Q 256.3 299.3 258.5 300 L 374.5 233 L 384.5 226 L 393.5 222 L 403.5 215 L 412.5 211 Z " />
    <path fill="rgb(212,170,107)" stroke="rgb(212,170,107)" stroke-width="1" opacity="0.984313725490196" d="M 254.5 122 L 255 245 L 304 272.5 L 259.5 299 L 255.5 300 L 107.5 214 L 102 212 Q 100.9 209.3 103.5 210 L 254.5 122 Z " />
    <path fill="rgb(212,170,107)" stroke="rgb(212,170,107)" stroke-width="1" opacity="0.984313725490196" d="M 10 139 L 14.5 141 L 98 210.5 L 94.5 211 L 74 195 Q 75.1 192.3 72.5 193 L 44.5 169 L 33 161 Q 34.1 158.3 31.5 159 L 10 142 L 10 139 Z " />
    <path fill="rgb(212,170,107)" stroke="rgb(212,170,107)" stroke-width="1" opacity="0.984313725490196" d="M 497.5 139 L 500 140.5 L 497 142 L 495.5 145 L 491 147 Q 492.1 149.7 489.5 149 L 416.5 210 L 413.5 210 L 417.5 205 L 497.5 139 Z " /><path fill="rgb(212,170,107)" stroke="rgb(212,170,107)" stroke-width="1" opacity="0.984313725490196" d="M 10 283 L 15.5 285 L 168.5 374 L 254.5 303 L 304.5 345 L 316 353 Q 314.9 355.7 317.5 355 L 342.5 376 L 346.5 372 L 501.5 283 L 502 287 L 416 335 L 416 372.5 L 414.5 373 L 256 465 L 255.5 305 L 178.5 369 L 169.5 376 L 167.5 376 L 11 286.5 L 10 283 Z " /><path fill="rgb(212,170,107)" stroke="rgb(212,170,107)" stroke-width="1" opacity="0.984313725490196" d="M 181.5 389 L 180.5 391 L 181.5 389 Z " /><path fill="rgb(212,170,107)" stroke="rgb(212,170,107)" stroke-width="1" opacity="0.984313725490196" d="M 186.5 392 L 185.5 394 L 186.5 392 Z " /><path fill="rgb(212,170,107)" stroke="rgb(212,170,107)" stroke-width="1" opacity="0.984313725490196" d="M 188.5 393 L 187.5 395 L 188.5 393 Z " /><path fill="rgb(212,170,107)" stroke="rgb(212,170,107)" stroke-width="1" opacity="0.984313725490196" d="M 193.5 396 L 192.5 398 L 193.5 396 Z " /><path fill="rgb(212,170,107)" stroke="rgb(212,170,107)" stroke-width="1" opacity="0.984313725490196" d="M 195.5 397 L 194.5 399 L 195.5 397 Z " /><path fill="rgb(212,170,107)" stroke="rgb(212,170,107)" stroke-width="1" opacity="0.984313725490196" d="M 198.5 401 L 200 423.5 L 199 423.5 L 198.5 422 L 197 422.5 L 198 421.5 L 198.5 401 Z " /><path fill="rgb(212,170,107)" stroke="rgb(212,170,107)" stroke-width="1" opacity="0.984313725490196" d="M 203.5 403 L 204 425.5 L 203 425.5 L 203.5 403 Z " /><path fill="rgb(212,170,107)" stroke="rgb(212,170,107)" stroke-width="1" opacity="0.984313725490196" d="M 207.5 404 L 206.5 406 L 207.5 404 Z " /><path fill="rgb(212,170,107)" stroke="rgb(212,170,107)" stroke-width="1" opacity="0.984313725490196" d="M 184.5 407 L 184 408.5 L 183.5 410 L 183 408.5 L 184.5 407 Z " /><path fill="rgb(212,170,107)" stroke="rgb(212,170,107)" stroke-width="1" opacity="0.984313725490196" d="M 212.5 407 L 210.5 410 L 212.5 407 Z " /><path fill="rgb(212,170,107)" stroke="rgb(212,170,107)" stroke-width="1" opacity="0.984313725490196" d="M 186.5 408 L 185.5 410 L 186.5 408 Z " /><path fill="rgb(212,170,107)" stroke="rgb(212,170,107)" stroke-width="1" opacity="0.984313725490196" d="M 214.5 408 L 213.5 410 L 214.5 408 Z " /><path fill="rgb(212,170,107)" stroke="rgb(212,170,107)" stroke-width="1" opacity="0.984313725490196" d="M 188.5 411 L 189 412.5 L 187 413.5 L 188.5 411 Z " /><path fill="rgb(212,170,107)" stroke="rgb(212,170,107)" stroke-width="1" opacity="0.984313725490196" d="M 191.5 411 L 191 412.5 L 189.5 415 L 190 413.5 L 191.5 411 Z " /><path fill="rgb(212,170,107)" stroke="rgb(212,170,107)" stroke-width="1" opacity="0.984313725490196" d="M 219.5 411 L 217.5 414 L 219.5 411 Z " /><path fill="rgb(212,170,107)" stroke="rgb(212,170,107)" stroke-width="1" opacity="0.984313725490196" d="M 182.5 412 L 181.5 414 L 182.5 412 Z " /><path fill="rgb(212,170,107)" stroke="rgb(212,170,107)" stroke-width="1" opacity="0.984313725490196" d="M 224.5 415 L 225 436.5 L 223 437.5 L 224 436.5 L 224.5 415 Z " /><path fill="rgb(212,170,107)" stroke="rgb(212,170,107)" stroke-width="1" opacity="0.984313725490196" d="M 189.5 416 L 188.5 418 L 189.5 416 Z " /><path fill="rgb(212,170,107)" stroke="rgb(212,170,107)" stroke-width="1" opacity="0.984313725490196" d="M 195.5 416 L 196 418 L 194 417.5 L 195.5 416 Z " /><path fill="rgb(212,170,107)" stroke="rgb(212,170,107)" stroke-width="1" opacity="0.984313725490196" d="M 228.5 417 L 230 419.5 L 230 439.5 L 228 440.5 L 229 439.5 L 229 423.5 Q 226.4 421.9 228.5 417 Z " /><path fill="rgb(212,170,107)" stroke="rgb(212,170,107)" stroke-width="1" opacity="0.984313725490196" d="M 194.5 419 L 193.5 421 L 194.5 419 Z " /><path fill="rgb(212,170,107)" stroke="rgb(212,170,107)" stroke-width="1" opacity="0.984313725490196" d="M 233.5 419 L 232.5 421 L 233.5 419 Z " /><path fill="rgb(212,170,107)" stroke="rgb(212,170,107)" stroke-width="1" opacity="0.984313725490196" d="M 196.5 420 L 195.5 422 L 196.5 420 Z " /><path fill="rgb(212,170,107)" stroke="rgb(212,170,107)" stroke-width="1" opacity="0.984313725490196" d="M 218.5 422 L 217.5 424 L 218.5 422 Z " /><path fill="rgb(212,170,107)" stroke="rgb(212,170,107)" stroke-width="1" opacity="0.984313725490196" d="M 238.5 422 L 237.5 424 L 238.5 422 Z " /><path fill="rgb(212,170,107)" stroke="rgb(212,170,107)" stroke-width="1" opacity="0.984313725490196" d="M 240.5 423 L 239.5 427 L 237 425.5 L 240.5 423 Z " /><path fill="rgb(212,170,107)" stroke="rgb(212,170,107)" stroke-width="1" opacity="0.984313725490196" d="M 211 426 L 213 426.5 L 211 427.5 L 211 426 Z " />
    <path fill="rgb(212,170,107)" stroke="rgb(212,170,107)" stroke-width="1" opacity="0.984313725490196" d="M 245.5 426 L 244.5 428 L 245.5 426 Z " />
    <path fill="rgb(212,170,107)" stroke="rgb(212,170,107)" stroke-width="1" opacity="0.984313725490196" d="M 208.5 427 L 207.5 429 L 208.5 427 Z " />
    <path fill="rgb(212,170,107)" stroke="rgb(212,170,107)" stroke-width="1" opacity="0.984313725490196" d="M 242.5 429 L 243.5 431 L 242.5 429 Z " />
    <path fill="rgb(212,170,107)" stroke="rgb(212,170,107)" stroke-width="1" opacity="0.984313725490196" d="M 215.5 431 L 214.5 433 L 215.5 431 Z " />
    <path fill="rgb(212,170,107)" stroke="rgb(212,170,107)" stroke-width="1" opacity="0.984313725490196" d="M 220.5 434 L 219.5 436 L 220.5 434 Z " />
    <path fill="rgb(212,170,107)" stroke="rgb(212,170,107)" stroke-width="1" opacity="0.984313725490196" d="M 222.5 435 L 221.5 437 L 222.5 435 Z " />
    <path fill="rgb(212,170,107)" stroke="rgb(212,170,107)" stroke-width="1" opacity="0.984313725490196" d="M 234.5 440 L 239 442.5 L 236 442.5 Q 236.8 440.3 234.5 441 L 234.5 440 Z " />
    <path fill="rgb(212,170,107)" stroke="rgb(212,170,107)" stroke-width="1" opacity="0.984313725490196" d="M 234.5 442 L 233.5 444 L 234.5 442 Z " />
    <path fill="rgb(212,170,107)" stroke="rgb(212,170,107)" stroke-width="1" opacity="0.984313725490196" d="M 239.5 445 L 238.5 447 L 239.5 445 Z " />
    <path fill="rgb(212,170,107)" stroke="rgb(212,170,107)" stroke-width="1" opacity="0.984313725490196" d="M 241.5 446 L 240.5 448 L 241.5 446 Z " />
    <path fill="rgb(212,170,107)" stroke="rgb(212,170,107)" stroke-width="1" opacity="0.984313725490196" d="M 246.5 449 L 245.5 451 L 246.5 449 Z " />
    <path fill="rgb(253,204,129)" stroke="rgb(253,204,129)" stroke-width="1" opacity="0.9882352941176471" d="M 255 122 L 410.5 211 L 414 208.5 L 413 211 L 404.5 214 L 304.5 273 L 255 245 L 255 122 Z " />
    <path fill="rgb(253,204,129)" stroke="rgb(253,204,129)" stroke-width="1" opacity="0.9882352941176471" d="M 12.5 139 L 13.5 141 L 12.5 139 Z " />
    <path fill="rgb(253,204,129)" stroke="rgb(253,204,129)" stroke-width="1" opacity="0.9882352941176471" d="M 494.5 141 L 493.5 143 L 494.5 141 Z " />
    <path fill="rgb(253,204,129)" stroke="rgb(253,204,129)" stroke-width="1" opacity="0.9882352941176471" d="M 18.5 144 L 19.5 146 L 18.5 144 Z " />
    <path fill="rgb(253,204,129)" stroke="rgb(253,204,129)" stroke-width="1" opacity="0.9882352941176471" d="M 488.5 146 L 487.5 148 L 488.5 146 Z " />
    <path fill="rgb(253,204,129)" stroke="rgb(253,204,129)" stroke-width="1" opacity="0.9882352941176471" d="M 24.5 149 L 25.5 151 L 24.5 149 Z " />
    <path fill="rgb(253,204,129)" stroke="rgb(253,204,129)" stroke-width="1" opacity="0.9882352941176471" d="M 35.5 158 L 36.5 160 L 35.5 158 Z " />
    <path fill="rgb(253,204,129)" stroke="rgb(253,204,129)" stroke-width="1" opacity="0.9882352941176471" d="M 471.5 160 L 470.5 162 L 471.5 160 Z " />
    <path fill="rgb(253,204,129)" stroke="rgb(253,204,129)" stroke-width="1" opacity="0.9882352941176471" d="M 41.5 163 L 42.5 165 L 41.5 163 Z " />
    <path fill="rgb(253,204,129)" stroke="rgb(253,204,129)" stroke-width="1" opacity="0.9882352941176471" d="M 465.5 165 L 464.5 167 L 465.5 165 Z " />
    <path fill="rgb(253,204,129)" stroke="rgb(253,204,129)" stroke-width="1" opacity="0.9882352941176471" d="M 47.5 168 L 48.5 170 L 47.5 168 Z " />
    <path fill="rgb(253,204,129)" stroke="rgb(253,204,129)" stroke-width="1" opacity="0.9882352941176471" d="M 170.5 170 L 169.5 172 L 170.5 170 Z " />
    <path fill="rgb(253,204,129)" stroke="rgb(253,204,129)" stroke-width="1" opacity="0.9882352941176471" d="M 459.5 170 L 458.5 172 L 459.5 170 Z " />
    <path fill="rgb(253,204,129)" stroke="rgb(253,204,129)" stroke-width="1" opacity="0.9882352941176471" d="M 53.5 173 L 54.5 175 L 53.5 173 Z " />
    <path fill="rgb(253,204,129)" stroke="rgb(253,204,129)" stroke-width="1" opacity="0.9882352941176471" d="M 58.5 177 L 59.5 179 L 58.5 177 Z " />
    <path fill="rgb(253,204,129)" stroke="rgb(253,204,129)" stroke-width="1" opacity="0.9882352941176471" d="M 448.5 179 L 447.5 181 L 448.5 179 Z " />
    <path fill="rgb(253,204,129)" stroke="rgb(253,204,129)" stroke-width="1" opacity="0.9882352941176471" d="M 64.5 182 L 65.5 184 L 64.5 182 Z " />
    <path fill="rgb(253,204,129)" stroke="rgb(253,204,129)" stroke-width="1" opacity="0.9882352941176471" d="M 442.5 184 L 441.5 186 L 442.5 184 Z " />
    <path fill="rgb(253,204,129)" stroke="rgb(253,204,129)" stroke-width="1" opacity="0.9882352941176471" d="M 70.5 187 L 71.5 189 L 70.5 187 Z " />
    <path fill="rgb(253,204,129)" stroke="rgb(253,204,129)" stroke-width="1" opacity="0.9882352941176471" d="M 76.5 192 L 77.5 194 L 76.5 192 Z " />
    <path fill="rgb(253,204,129)" stroke="rgb(253,204,129)" stroke-width="1" opacity="0.9882352941176471" d="M 127.5 195 L 126.5 197 L 127.5 195 Z " />
    <path fill="rgb(253,204,129)" stroke="rgb(253,204,129)" stroke-width="1" opacity="0.9882352941176471" d="M 81.5 196 L 82.5 198 L 81.5 196 Z " />
    <path fill="rgb(253,204,129)" stroke="rgb(253,204,129)" stroke-width="1" opacity="0.9882352941176471" d="M 425.5 198 L 424.5 200 L 425.5 198 Z " />
    <path fill="rgb(253,204,129)" stroke="rgb(253,204,129)" stroke-width="1" opacity="0.9882352941176471" d="M 87.5 201 L 88.5 203 L 87.5 201 Z " />
    <path fill="rgb(253,204,129)" stroke="rgb(253,204,129)" stroke-width="1" opacity="0.9882352941176471" d="M 419.5 203 L 418.5 205 L 419.5 203 Z " />
    <path fill="rgb(253,204,129)" stroke="rgb(253,204,129)" stroke-width="1" opacity="0.9882352941176471" d="M 93.5 206 L 94.5 208 L 93.5 206 Z " />
    <path fill="rgb(253,204,129)" stroke="rgb(253,204,129)" stroke-width="1" opacity="0.9882352941176471" d="M 255 302 L 262.5 306 L 331.5 364 L 342.5 373 L 345 373.5 Q 342.8 378.3 340.5 374 L 316 355 Q 317.1 352.3 314.5 353 L 256.5 305 L 256 464 L 96 373 L 96.5 335 L 163.5 374 L 169.5 376 L 256 304.5 L 255 302 Z M 180 388 L 179 412 L 200 424 L 200 401 L 180 388 Z M 203 403 L 203 426 L 224 438 L 225 437 L 225 416 L 208 404 L 203 403 Z M 228 417 L 228 441 L 248 452 L 249 452 L 249 428 L 228 417 Z " />
    <path fill="rgb(253,204,129)" stroke="rgb(253,204,129)" stroke-width="1" opacity="0.9882352941176471" d="M 253.5 303 L 251.5 306 L 253.5 303 Z " />
    <path fill="rgb(253,204,129)" stroke="rgb(253,204,129)" stroke-width="1" opacity="0.9882352941176471" d="M 247.5 308 L 245.5 311 L 247.5 308 Z " />
    <path fill="rgb(253,204,129)" stroke="rgb(253,204,129)" stroke-width="1" opacity="0.9882352941176471" d="M 241.5 313 L 240.5 315 L 241.5 313 Z " />
    <path fill="rgb(253,204,129)" stroke="rgb(253,204,129)" stroke-width="1" opacity="0.9882352941176471" d="M 236.5 317 L 234.5 320 L 236.5 317 Z " />
    <path fill="rgb(253,204,129)" stroke="rgb(253,204,129)" stroke-width="1" opacity="0.9882352941176471" d="M 230.5 322 L 228.5 325 L 230.5 322 Z " />
    <path fill="rgb(253,204,129)" stroke="rgb(253,204,129)" stroke-width="1" opacity="0.9882352941176471" d="M 224.5 327 L 222.5 330 L 224.5 327 Z " />
    <path fill="rgb(253,204,129)" stroke="rgb(253,204,129)" stroke-width="1" opacity="0.9882352941176471" d="M 218.5 332 L 217.5 334 L 218.5 332 Z " />
    <path fill="rgb(253,204,129)" stroke="rgb(253,204,129)" stroke-width="1" opacity="0.9882352941176471" d="M 213.5 336 L 211.5 339 L 213.5 336 Z " />
    <path fill="rgb(253,204,129)" stroke="rgb(253,204,129)" stroke-width="1" opacity="0.9882352941176471" d="M 207.5 341 L 205.5 344 L 207.5 341 Z " />
    <path fill="rgb(253,204,129)" stroke="rgb(253,204,129)" stroke-width="1" opacity="0.9882352941176471" d="M 201.5 346 L 199.5 349 L 201.5 346 Z " />
    <path fill="rgb(253,204,129)" stroke="rgb(253,204,129)" stroke-width="1" opacity="0.9882352941176471" d="M 195.5 351 L 193.5 354 L 195.5 351 Z " />
    <path fill="rgb(253,204,129)" stroke="rgb(253,204,129)" stroke-width="1" opacity="0.9882352941176471" d="M 190.5 355 L 188.5 358 L 190.5 355 Z " />
    <path fill="rgb(253,204,129)" stroke="rgb(253,204,129)" stroke-width="1" opacity="0.9882352941176471" d="M 184.5 360 L 182.5 363 L 184.5 360 Z " />
    <path fill="rgb(253,204,129)" stroke="rgb(253,204,129)" stroke-width="1" opacity="0.9882352941176471" d="M 178.5 365 L 176.5 368 L 178.5 365 Z " />
    <path fill="rgb(253,204,129)" stroke="rgb(253,204,129)" stroke-width="1" opacity="0.9882352941176471" d="M 172.5 370 L 170.5 373 L 172.5 370 Z " />
    <path fill="rgb(253,204,129)" stroke="rgb(253,204,129)" stroke-width="1" opacity="0.9882352941176471" d="M 180 391 L 198 400 L 197.5 421 L 180 410.5 L 180 391 Z M 186 396 L 183 399 Q 182 401 185 400 L 185 407 Q 182 406 183 411 L 195 418 Q 197 419 196 416 L 193 415 L 192 413 L 195 415 L 196 415 Q 192 413 194 406 L 196 406 L 194 400 L 190 403 L 190 404 L 192 405 L 192 411 L 189 410 Q 185 408 187 402 L 189 402 L 187 399 Q 188 395 186 396 Z " />
    <path fill="rgb(253,204,129)" stroke="rgb(253,204,129)" stroke-width="1" opacity="0.9882352941176471" d="M 205.5 405 L 223 415.5 L 223 434.5 L 221.5 435 L 205 426 L 205.5 405 Z M 209 408 L 208 415 L 213 425 Q 214 427 211 426 L 211 428 L 216 430 L 217 430 L 215 426 L 218 424 Q 221 422 220 416 L 209 408 Z " />
    <path fill="rgb(253,204,129)" stroke="rgb(253,204,129)" stroke-width="1" opacity="0.9882352941176471" d="M 184.5 409 L 188 411.5 L 186.5 411 L 184.5 409 Z " />
    <path fill="rgb(253,204,129)" stroke="rgb(253,204,129)" stroke-width="1" opacity="0.9882352941176471" d="M 230.5 419 L 248 429 L 247.5 450 L 230 439.5 L 230.5 419 Z M 234 425 L 231 429 L 238 432 L 238 441 L 237 441 L 235 437 L 234 441 Q 235 444 239 443 L 240 433 L 245 436 L 246 437 L 244 431 L 239 425 L 234 425 Z " />
    <path fill="rgb(114,127,124)" stroke="rgb(114,127,124)" stroke-width="1" opacity="0.9686274509803922" d="M 179 389 L 200 400 L 199.5 419 L 199 401.5 L 196.5 399 L 180.5 390 L 180 412 L 199 422.5 L 197.5 422 L 179 411.5 L 179 389 Z " />
    <path fill="rgb(114,127,124)" stroke="rgb(114,127,124)" stroke-width="1" opacity="0.9686274509803922" d="M 185.5 396 L 188 401.5 L 186 408.5 L 191.5 412 L 192 404.5 Q 187.8 402.3 192.5 400 L 195 405.5 Q 192.5 407 194 412.5 L 195.5 415 L 194 415.5 L 194.5 417 L 183 410.5 L 184.5 410 L 186.5 411 L 185.5 409 L 183 407.5 L 185 407.5 Q 186.8 400.3 183 398.5 L 185.5 396 Z M 188 411 Q 188 414 193 415 L 194 415 L 188 411 Z " />
    <path fill="rgb(114,127,124)" stroke="rgb(114,127,124)" stroke-width="1" opacity="0.9686274509803922" d="M 204.5 403 L 224 414.5 L 224 436.5 L 222.5 437 L 204 427 L 204.5 403 Z M 205 405 L 205 426 L 223 436 L 223 416 L 205 405 Z " />
    <path fill="rgb(114,127,124)" stroke="rgb(114,127,124)" stroke-width="1" opacity="0.9686274509803922" d="M 208 409 L 220 415.5 L 220 419.5 L 215 425.5 L 215 429 L 217 429.5 L 215.5 430 L 212 427.5 L 213 423.5 Q 208 418.2 208 409 Z " />
    <path fill="rgb(114,127,124)" stroke="rgb(114,127,124)" stroke-width="1" opacity="0.9686274509803922" d="M 229.5 417 L 249 428 L 248.5 452 L 228 439.5 L 228.5 423 L 229 440 L 248 450 L 248 429.5 L 246.5 428 L 229 419 L 229.5 417 Z " />
    <path fill="rgb(114,127,124)" stroke="rgb(114,127,124)" stroke-width="1" opacity="0.9686274509803922" d="M 234.5 425 L 242 428.5 L 246 435.5 L 243.5 436 L 239.5 433 L 239 441.5 L 237.5 443 L 238 441.5 L 238 432.5 L 236.5 432 L 232 428.5 Q 230.9 425.2 233.5 426 L 234.5 425 Z " />
    <path fill="rgb(114,127,124)" stroke="rgb(114,127,124)" stroke-width="1" opacity="0.9686274509803922" d="M 234.5 437 L 235 439.5 L 234 439.5 L 234.5 437 Z" />
</svg>

