<svg width="512" height="512" version="1.1" xmlns="http://www.w3.org/2000/svg" desc="Created with imagetracer.js version 1.2.6" ><path fill="rgb(0,0,0)" stroke="rgb(0,0,0)" stroke-width="1" opacity="0" d="M 0 0 L 512 0 L 512 512 L 0 512 L 0 0 Z M 414 41 L 407 54 L 367 151 L 387 162 L 391 160 L 391 267 L 411 278 L 415 277 L 455 253 L 456 253 L 456 122 L 480 109 L 435 54 L 414 41 Z M 233 107 L 232 108 L 214 110 L 195 116 L 174 128 Q 161 137 156 154 L 156 404 Q 159 415 166 422 Q 177 433 194 440 L 222 448 L 240 449 L 241 450 L 268 449 L 289 444 L 310 457 L 322 461 L 336 461 L 350 457 Q 366 450 379 438 Q 416 404 428 345 L 428 322 Q 426 320 427 316 Q 424 304 418 296 L 413 290 L 387 274 L 373 269 L 355 270 L 341 276 L 340 155 Q 338 143 331 137 Q 300 103 233 107 Z M 79 234 L 32 344 L 51 355 L 56 354 L 56 451 L 57 452 L 57 460 L 76 471 L 79 471 L 120 447 L 121 446 L 121 317 L 145 302 L 100 247 L 79 234 Z " /><path fill="rgb(248,75,47)" stroke="rgb(248,75,47)" stroke-width="1" opacity="0.9725490196078431" d="M 413.5 41 L 435 53.5 L 480 109 L 456 122 L 456 252.5 L 454.5 253 L 412.5 278 L 410.5 278 L 391 267 L 390.5 160 L 386.5 162 L 367 150.5 L 407 53.5 L 413.5 41 Z " /><path fill="rgb(254,214,87)" stroke="rgb(254,214,87)" stroke-width="1" opacity="0.996078431372549" d="M 236.5 117 Q 294.1 114.4 321 142.5 L 328 155.5 L 328 165.5 Q 325.1 175.1 318.5 181 L 306.5 190 L 288.5 198 L 265.5 203 L 244.5 204 L 243.5 203 L 224.5 202 L 202.5 196 Q 186.6 190.4 176 179.5 Q 170.5 174 168 165.5 L 168 154.5 Q 172.1 142.6 181.5 136 Q 190.8 128.3 203.5 124 L 216.5 120 L 227.5 118 L 235.5 118 L 236.5 117 Z M 240 132 L 228 135 L 222 138 L 217 136 L 213 138 Q 210 137 211 140 L 214 142 Q 208 144 206 152 L 208 159 L 211 161 L 222 166 L 234 166 L 247 162 L 251 162 L 264 170 Q 266 169 265 172 L 253 175 L 244 175 L 244 183 Q 262 184 274 177 L 277 177 L 281 180 L 285 178 Q 287 179 286 176 L 281 174 L 286 170 L 290 162 L 288 157 L 285 153 L 272 148 Q 256 148 247 153 L 245 153 L 230 144 L 241 140 L 246 140 L 245 135 L 245 132 L 240 132 Z " /><path fill="rgb(254,214,87)" stroke="rgb(254,214,87)" stroke-width="1" opacity="0.996078431372549" d="M 223.5 147 L 238 155.5 Q 233.1 158.1 224.5 157 L 220 153.5 Q 219.3 147.8 223.5 147 Z " /><path fill="rgb(254,214,87)" stroke="rgb(254,214,87)" stroke-width="1" opacity="0.996078431372549" d="M 262.5 157 Q 272.9 155.6 276 161.5 L 271.5 168 L 257 159.5 L 262.5 157 Z " /><path fill="rgb(254,214,87)" stroke="rgb(254,214,87)" stroke-width="1" opacity="0.996078431372549" d="M 229.5 221 Q 231.1 230.9 238.5 235 L 247 238.5 Q 236.2 239.7 232 247.5 L 229.5 255 Q 227.4 246.6 221.5 242 L 212 238.5 L 221.5 234 L 225 230.5 L 229.5 221 Z " /><path fill="rgb(254,214,87)" stroke="rgb(254,214,87)" stroke-width="1" opacity="0.996078431372549" d="M 376.5 303 Q 395.6 301.4 403 311.5 L 410 324.5 L 412 335.5 L 412 346.5 L 411 347.5 L 410 359.5 L 402 382.5 Q 391.8 404.3 375.5 420 Q 365.6 429.6 352.5 436 L 338.5 440 L 330.5 440 Q 317.8 437.8 312 428.5 Q 307.5 422.5 306 413.5 L 305 398.5 L 308 382 Q 300.9 383.2 297 388.5 L 292.5 399 Q 291 389.5 284.5 385 L 276 381.5 L 283.5 378 L 289 372.5 L 292.5 364 Q 294.1 373.9 301.5 378 L 309 380 Q 318.3 344 342.5 322 Q 355.6 308.6 376.5 303 Z M 363 330 L 359 333 Q 356 332 357 340 L 354 342 Q 341 351 337 368 L 338 379 L 345 383 L 354 381 L 357 382 L 357 401 L 345 404 L 339 403 L 336 415 L 339 416 Q 350 416 357 411 L 357 417 L 363 414 Q 365 415 364 408 L 370 403 Q 380 395 384 380 Q 385 370 382 366 L 378 364 Q 371 363 368 366 L 364 366 L 364 346 L 376 343 L 378 344 L 381 331 L 373 332 L 366 335 L 364 335 L 364 330 L 363 330 Z " /><path fill="rgb(254,214,87)" stroke="rgb(254,214,87)" stroke-width="1" opacity="0.996078431372549" d="M 356.5 351 L 357 369 Q 349.9 370.8 348 366.5 Q 348.4 354.9 356.5 351 Z " /><path fill="rgb(254,214,87)" stroke="rgb(254,214,87)" stroke-width="1" opacity="0.996078431372549" d="M 364 378 L 371.5 378 L 373 379.5 Q 372.9 391.9 364.5 396 L 364 378 Z " /><path fill="rgb(220,154,82)" stroke="rgb(220,154,82)" stroke-width="1" opacity="0.6705882352941176" d="M 232.5 107 L 246 107.5 L 232.5 108 L 232.5 107 Z " /><path fill="rgb(220,154,82)" stroke="rgb(220,154,82)" stroke-width="1" opacity="0.6705882352941176" d="M 249.5 107 L 263 107.5 L 249.5 108 L 249.5 107 Z " /><path fill="rgb(220,154,82)" stroke="rgb(220,154,82)" stroke-width="1" opacity="0.6705882352941176" d="M 224.5 108 L 230 108.5 L 224.5 109 L 224.5 108 Z " /><path fill="rgb(220,154,82)" stroke="rgb(220,154,82)" stroke-width="1" opacity="0.6705882352941176" d="M 266.5 108 L 271 108.5 L 266.5 109 L 266.5 108 Z " /><path fill="rgb(220,154,82)" stroke="rgb(220,154,82)" stroke-width="1" opacity="0.6705882352941176" d="M 218.5 109 L 223 109.5 L 206.5 113 L 206.5 112 L 218.5 109 Z " /><path fill="rgb(220,154,82)" stroke="rgb(220,154,82)" stroke-width="1" opacity="0.6705882352941176" d="M 273.5 109 L 277 109.5 L 273.5 110 L 273.5 109 Z " /><path fill="rgb(220,154,82)" stroke="rgb(220,154,82)" stroke-width="1" opacity="0.6705882352941176" d="M 278.5 110 L 282 110.5 L 278.5 111 L 278.5 110 Z " /><path fill="rgb(220,154,82)" stroke="rgb(220,154,82)" stroke-width="1" opacity="0.6705882352941176" d="M 283.5 111 L 286 111.5 L 283.5 112 L 283.5 111 Z " /><path fill="rgb(220,154,82)" stroke="rgb(220,154,82)" stroke-width="1" opacity="0.6705882352941176" d="M 287.5 112 L 303 117.5 L 301.5 118 L 287.5 113 L 287.5 112 Z " /><path fill="rgb(220,154,82)" stroke="rgb(220,154,82)" stroke-width="1" opacity="0.6705882352941176" d="M 197.5 115 L 199 115.5 L 181.5 124 L 182.5 122 L 197.5 115 Z " /><path fill="rgb(220,154,82)" stroke="rgb(220,154,82)" stroke-width="1" opacity="0.6705882352941176" d="M 304.5 118 Q 320.7 124.3 331 136.5 L 336 144.5 L 334 143.5 L 325.5 132 Q 316.8 123.7 304.5 119 L 304.5 118 Z " /><path fill="rgb(220,154,82)" stroke="rgb(220,154,82)" stroke-width="1" opacity="0.6705882352941176" d="M 179.5 124 L 178.5 126 L 164 138.5 L 157.5 152 L 157 149.5 Q 162.5 136 173.5 128 L 179.5 124 Z " /><path fill="rgb(220,154,82)" stroke="rgb(220,154,82)" stroke-width="1" opacity="0.6705882352941176" d="M 336.5 146 L 338 149.5 L 337 149.5 L 336.5 146 Z " /><path fill="rgb(220,154,82)" stroke="rgb(220,154,82)" stroke-width="1" opacity="0.6705882352941176" d="M 338.5 151 L 339 153.5 L 338 153.5 L 338.5 151 Z " /><path fill="rgb(220,154,82)" stroke="rgb(220,154,82)" stroke-width="1" opacity="0.6705882352941176" d="M 156.5 153 L 157 159.5 L 156 159.5 L 156.5 153 Z " /><path fill="rgb(220,154,82)" stroke="rgb(220,154,82)" stroke-width="1" opacity="0.6705882352941176" d="M 339.5 155 L 340.5 276 L 349.5 272 L 349.5 273 L 339 277 L 339 261.5 L 338 259.5 L 339 258.5 L 339 230.5 L 338 228.5 L 339 227.5 L 339 200.5 L 338 198.5 L 339 197.5 L 339 169.5 L 339 167.5 L 339.5 155 Z " /><path fill="rgb(220,154,82)" stroke="rgb(220,154,82)" stroke-width="1" opacity="0.6705882352941176" d="M 156.5 161 L 158 169.5 L 156 168.5 L 156.5 161 Z " /><path fill="rgb(220,154,82)" stroke="rgb(220,154,82)" stroke-width="1" opacity="0.6705882352941176" d="M 156.5 192 L 158 199.5 L 156 200 L 156.5 192 Z " /><path fill="rgb(220,154,82)" stroke="rgb(220,154,82)" stroke-width="1" opacity="0.6705882352941176" d="M 156.5 217 L 157 219.5 L 156 219.5 L 156.5 217 Z " /><path fill="rgb(220,154,82)" stroke="rgb(220,154,82)" stroke-width="1" opacity="0.6705882352941176" d="M 156.5 222 L 158 230.5 L 156 229.5 L 156.5 222 Z " /><path fill="rgb(220,154,82)" stroke="rgb(220,154,82)" stroke-width="1" opacity="0.6705882352941176" d="M 156.5 252 L 158 260.5 L 156 259.5 L 156.5 252 Z " /><path fill="rgb(220,154,82)" stroke="rgb(220,154,82)" stroke-width="1" opacity="0.6705882352941176" d="M 359.5 269 L 373 269.5 L 359.5 270 L 359.5 269 Z " /><path fill="rgb(220,154,82)" stroke="rgb(220,154,82)" stroke-width="1" opacity="0.6705882352941176" d="M 354.5 270 L 358 270.5 L 351.5 272 L 351.5 271 L 354.5 270 Z " /><path fill="rgb(220,154,82)" stroke="rgb(220,154,82)" stroke-width="1" opacity="0.6705882352941176" d="M 374.5 270 L 377.5 270 L 386.5 274 L 412.5 290 L 417 294.5 L 421 300.5 L 419 299.5 L 413.5 292 L 406.5 287 L 402 286 L 401.5 284 L 399.5 285 L 399.5 283 L 380.5 272 L 374.5 271 L 374.5 270 Z " /><path fill="rgb(220,154,82)" stroke="rgb(220,154,82)" stroke-width="1" opacity="0.6705882352941176" d="M 156.5 283 L 158 291.5 L 156 290.5 L 156.5 283 Z " /><path fill="rgb(220,154,82)" stroke="rgb(220,154,82)" stroke-width="1" opacity="0.6705882352941176" d="M 382.5 283 L 385 283.5 L 382.5 284 L 382.5 283 Z " /><path fill="rgb(220,154,82)" stroke="rgb(220,154,82)" stroke-width="1" opacity="0.6705882352941176" d="M 393.5 283 L 397 283.5 L 393.5 284 L 393.5 283 Z " /><path fill="rgb(220,154,82)" stroke="rgb(220,154,82)" stroke-width="1" opacity="0.6705882352941176" d="M 358.5 292 L 359 309.5 L 358 309.5 L 358.5 292 Z " /><path fill="rgb(220,154,82)" stroke="rgb(220,154,82)" stroke-width="1" opacity="0.6705882352941176" d="M 353.5 295 L 352.5 297 L 353.5 295 Z " /><path fill="rgb(220,154,82)" stroke="rgb(220,154,82)" stroke-width="1" opacity="0.6705882352941176" d="M 350.5 297 L 349.5 299 L 350.5 297 Z " /><path fill="rgb(220,154,82)" stroke="rgb(220,154,82)" stroke-width="1" opacity="0.6705882352941176" d="M 346.5 300 L 344.5 303 L 346.5 300 Z " /><path fill="rgb(220,154,82)" stroke="rgb(220,154,82)" stroke-width="1" opacity="0.6705882352941176" d="M 421.5 302 Q 426.7 308.3 427 319.5 L 426 319.5 L 425 311.5 L 421.5 302 Z " /><path fill="rgb(220,154,82)" stroke="rgb(220,154,82)" stroke-width="1" opacity="0.6705882352941176" d="M 156.5 313 L 158 321.5 L 156 320.5 L 156.5 313 Z " /><path fill="rgb(220,154,82)" stroke="rgb(220,154,82)" stroke-width="1" opacity="0.6705882352941176" d="M 427.5 321 L 428 344.5 L 427 344.5 L 427.5 321 Z " /><path fill="rgb(220,154,82)" stroke="rgb(220,154,82)" stroke-width="1" opacity="0.6705882352941176" d="M 156.5 344 L 158 352.5 L 156 351.5 L 156.5 344 Z " /><path fill="rgb(220,154,82)" stroke="rgb(220,154,82)" stroke-width="1" opacity="0.6705882352941176" d="M 426.5 346 L 427 350.5 L 426 350.5 L 426.5 346 Z " /><path fill="rgb(220,154,82)" stroke="rgb(220,154,82)" stroke-width="1" opacity="0.6705882352941176" d="M 425.5 352 L 426 355.5 L 425 355.5 L 425.5 352 Z " /><path fill="rgb(220,154,82)" stroke="rgb(220,154,82)" stroke-width="1" opacity="0.6705882352941176" d="M 424.5 357 L 425 359.5 L 424 359.5 L 424.5 357 Z " /><path fill="rgb(220,154,82)" stroke="rgb(220,154,82)" stroke-width="1" opacity="0.6705882352941176" d="M 423.5 361 L 424 363.5 L 423 363.5 L 423.5 361 Z " /><path fill="rgb(220,154,82)" stroke="rgb(220,154,82)" stroke-width="1" opacity="0.6705882352941176" d="M 422.5 365 L 423 367.5 Q 408.6 410.6 378.5 438 L 359.5 452 L 350.5 456 L 350.5 455 L 358 452 L 358.5 433 L 359.5 451 Q 378.5 439.5 392 422.5 Q 412.3 398.8 422.5 365 Z " /><path fill="rgb(220,154,82)" stroke="rgb(220,154,82)" stroke-width="1" opacity="0.6705882352941176" d="M 156.5 374 L 158 382.5 L 156 381.5 L 156.5 374 Z " /><path fill="rgb(220,154,82)" stroke="rgb(220,154,82)" stroke-width="1" opacity="0.6705882352941176" d="M 164.5 395 L 166.5 398 L 164.5 395 Z " /><path fill="rgb(220,154,82)" stroke="rgb(220,154,82)" stroke-width="1" opacity="0.6705882352941176" d="M 156.5 397 Q 156.4 406.1 160 411.5 L 174.5 428 L 193 438.5 L 191.5 439 Q 176.5 432.5 166 421.5 L 158 409.5 Q 154.8 404.6 156.5 397 Z " /><path fill="rgb(220,154,82)" stroke="rgb(220,154,82)" stroke-width="1" opacity="0.6705882352941176" d="M 170.5 401 L 173.5 405 L 170.5 401 Z " /><path fill="rgb(220,154,82)" stroke="rgb(220,154,82)" stroke-width="1" opacity="0.6705882352941176" d="M 176.5 406 L 177.5 408 L 176.5 406 Z " /><path fill="rgb(220,154,82)" stroke="rgb(220,154,82)" stroke-width="1" opacity="0.6705882352941176" d="M 217.5 423 L 220 423.5 L 217.5 424 L 217.5 423 Z " /><path fill="rgb(220,154,82)" stroke="rgb(220,154,82)" stroke-width="1" opacity="0.6705882352941176" d="M 222.5 424 L 225 424.5 L 222.5 425 L 222.5 424 Z " /><path fill="rgb(220,154,82)" stroke="rgb(220,154,82)" stroke-width="1" opacity="0.6705882352941176" d="M 229.5 425 L 234 425.5 L 229.5 426 L 229.5 425 Z " /><path fill="rgb(220,154,82)" stroke="rgb(220,154,82)" stroke-width="1" opacity="0.6705882352941176" d="M 263.5 425 L 267 425.5 L 263.5 426 L 263.5 425 Z " /><path fill="rgb(220,154,82)" stroke="rgb(220,154,82)" stroke-width="1" opacity="0.6705882352941176" d="M 240.5 426 L 256 426.5 L 240.5 427 L 240.5 426 Z " /><path fill="rgb(220,154,82)" stroke="rgb(220,154,82)" stroke-width="1" opacity="0.6705882352941176" d="M 194.5 439 L 201 441.5 L 199.5 442 L 194.5 440 L 194.5 439 Z " /><path fill="rgb(220,154,82)" stroke="rgb(220,154,82)" stroke-width="1" opacity="0.6705882352941176" d="M 205.5 443 L 216 445.5 L 212.5 446 L 205.5 444 L 205.5 443 Z " /><path fill="rgb(220,154,82)" stroke="rgb(220,154,82)" stroke-width="1" opacity="0.6705882352941176" d="M 288.5 443 L 301.5 451 L 302.5 450 L 305.5 453 L 316 458.5 L 314.5 459 L 288.5 444 L 285.5 445 L 285.5 444 L 288.5 443 Z " /><path fill="rgb(220,154,82)" stroke="rgb(220,154,82)" stroke-width="1" opacity="0.6705882352941176" d="M 280.5 445 L 284 445.5 L 276.5 447 L 276.5 446 L 280.5 445 Z " /><path fill="rgb(220,154,82)" stroke="rgb(220,154,82)" stroke-width="1" opacity="0.6705882352941176" d="M 298.5 445 L 299.5 447 L 298.5 445 Z " /><path fill="rgb(220,154,82)" stroke="rgb(220,154,82)" stroke-width="1" opacity="0.6705882352941176" d="M 217.5 446 L 227 447.5 L 221.5 448 L 217.5 447 L 217.5 446 Z " /><path fill="rgb(220,154,82)" stroke="rgb(220,154,82)" stroke-width="1" opacity="0.6705882352941176" d="M 269.5 447 L 275 447.5 L 269.5 448 L 269.5 447 Z " /><path fill="rgb(220,154,82)" stroke="rgb(220,154,82)" stroke-width="1" opacity="0.6705882352941176" d="M 228.5 448 L 237 448.5 L 228.5 449 L 228.5 448 Z " /><path fill="rgb(220,154,82)" stroke="rgb(220,154,82)" stroke-width="1" opacity="0.6705882352941176" d="M 259.5 448 L 268 448.5 L 259.5 449 L 259.5 448 Z " /><path fill="rgb(220,154,82)" stroke="rgb(220,154,82)" stroke-width="1" opacity="0.6705882352941176" d="M 240.5 449 L 256 449.5 L 240.5 450 L 240.5 449 Z " /><path fill="rgb(220,154,82)" stroke="rgb(220,154,82)" stroke-width="1" opacity="0.6705882352941176" d="M 347.5 456 L 349 456.5 L 341.5 459 L 341.5 458 L 347.5 456 Z " /><path fill="rgb(220,154,82)" stroke="rgb(220,154,82)" stroke-width="1" opacity="0.6705882352941176" d="M 317.5 459 L 320 459.5 L 317.5 460 L 317.5 459 Z " /><path fill="rgb(220,154,82)" stroke="rgb(220,154,82)" stroke-width="1" opacity="0.6705882352941176" d="M 337.5 459 L 340 459.5 L 337.5 460 L 337.5 459 Z " /><path fill="rgb(220,154,82)" stroke="rgb(220,154,82)" stroke-width="1" opacity="0.6705882352941176" d="M 321.5 460 L 336 460.5 L 321.5 461 L 321.5 460 Z " /><path fill="rgb(219,153,82)" stroke="rgb(219,153,82)" stroke-width="1" opacity="1" d="M 156.5 169 Q 162.3 183.2 173.5 192 L 196.5 205 L 212.5 210 L 229.5 213 L 255.5 214 L 256.5 213 L 266.5 213 L 283.5 210 L 299.5 205 Q 318.8 197.8 331 183.5 L 337 174.5 L 338.5 169 L 339 190.5 L 335 200.5 L 328 210 L 307.5 224 L 289.5 231 L 263.5 236 L 240.5 236 L 233 229.5 Q 229.6 225.9 229.5 219 L 226 228.5 L 220.5 234 L 206.5 231 L 190.5 225 Q 175.5 217.9 165 206.5 L 157 192.5 L 156.5 169 Z " /><path fill="rgb(219,153,82)" stroke="rgb(219,153,82)" stroke-width="1" opacity="1" d="M 156 200 Q 159 198.8 158 202.5 Q 162.3 212.3 169.5 219 L 181.5 228 Q 196.8 237.7 218.5 241 L 226 247.5 L 229.5 257 L 230 252.5 L 235.5 244 Q 297.6 246.6 328 217.5 Q 335.3 210.8 338.5 200 L 339 220.5 Q 334.5 236.5 322.5 245 L 306.5 255 L 287.5 262 L 266.5 266 L 240.5 267 L 239.5 266 L 228.5 266 L 212.5 263 L 196.5 258 Q 176.5 250.5 164 235.5 L 157 222.5 L 156 200 Z " /><path fill="rgb(219,153,82)" stroke="rgb(219,153,82)" stroke-width="1" opacity="1" d="M 156.5 230 Q 162 243.5 172.5 252 L 182.5 259 L 205.5 269 L 230.5 274 Q 242.6 272.4 250.5 275 L 251.5 274 L 273.5 273 L 296.5 267 Q 316.8 259.8 330 245.5 Q 335.8 239.3 338.5 230 L 339 251.5 Q 333.8 267.3 321.5 276 L 300.5 288 L 281.5 294 L 276.5 294 L 270.5 296 L 262.5 296 L 261.5 297 L 234.5 297 L 233.5 296 L 215.5 294 L 195.5 288 Q 178.7 281.3 167 269.5 Q 160.4 262.6 157 252.5 Q 158.2 247.8 156 246.5 L 156.5 230 Z " /><path fill="rgb(219,153,82)" stroke="rgb(219,153,82)" stroke-width="1" opacity="1" d="M 156.5 260 L 168 279 L 183.5 290 L 204.5 299 L 220.5 303 L 235.5 304 L 236.5 305 L 259.5 305 L 260.5 304 L 269.5 304 L 280.5 302 L 302.5 295 Q 320.7 287.7 332 273.5 L 338.5 261 L 339 276.5 Q 319.2 287.7 305 304.5 L 291.5 323 L 287.5 322 L 272.5 326 L 245.5 328 L 244.5 327 L 223.5 326 L 194.5 318 Q 176.1 310.4 164 296.5 L 157 283.5 Q 158.2 278.8 156 277.5 L 156.5 260 Z " /><path fill="rgb(219,153,82)" stroke="rgb(219,153,82)" stroke-width="1" opacity="1" d="M 156.5 291 Q 162.3 304.2 172.5 313 L 192.5 325 L 213.5 332 L 230.5 334 L 231.5 335 L 264.5 335 L 265.5 334 L 272.5 334 L 282.5 332 L 287.5 329 L 286 331.5 Q 278.7 343.2 274.5 358 L 274 356 Q 269.1 357.8 260.5 357 L 259.5 358 L 236.5 358 L 235.5 357 L 227.5 357 L 211.5 354 L 193.5 348 Q 174.7 340.3 163 325.5 L 157 313.5 Q 158.2 308.8 156 307.5 L 156.5 291 Z " /><path fill="rgb(219,153,82)" stroke="rgb(219,153,82)" stroke-width="1" opacity="1" d="M 339.5 306 L 328.5 318 L 339.5 306 Z " /><path fill="rgb(219,153,82)" stroke="rgb(219,153,82)" stroke-width="1" opacity="1" d="M 156.5 321 Q 162.5 336 174.5 345 Q 204.5 367.5 258.5 366 L 259.5 365 Q 267.5 365.7 272 364 L 272.5 362 L 273 363.5 Q 267.9 373.9 267.5 389 L 267 387 L 264.5 388 L 230.5 388 L 213.5 385 L 192.5 378 Q 176 371 165 358.5 L 157 344.5 Q 158.2 339.7 156 338.5 L 156.5 321 Z " /><path fill="rgb(219,153,82)" stroke="rgb(219,153,82)" stroke-width="1" opacity="1" d="M 324.5 322 L 323.5 324 L 324.5 322 Z " /><path fill="rgb(219,153,82)" stroke="rgb(219,153,82)" stroke-width="1" opacity="1" d="M 289.5 326 L 288.5 328 L 289.5 326 Z " /><path fill="rgb(219,153,82)" stroke="rgb(219,153,82)" stroke-width="1" opacity="1" d="M 321.5 326 L 320.5 328 L 321.5 326 Z " /><path fill="rgb(219,153,82)" stroke="rgb(219,153,82)" stroke-width="1" opacity="1" d="M 318.5 330 L 317.5 332 L 318.5 330 Z " /><path fill="rgb(219,153,82)" stroke="rgb(219,153,82)" stroke-width="1" opacity="1" d="M 316.5 333 L 315.5 335 L 316.5 333 Z " /><path fill="rgb(219,153,82)" stroke="rgb(219,153,82)" stroke-width="1" opacity="1" d="M 314.5 336 L 313.5 338 L 314.5 336 Z " /><path fill="rgb(219,153,82)" stroke="rgb(219,153,82)" stroke-width="1" opacity="1" d="M 156.5 352 Q 162 364.5 171.5 373 Q 202.6 399.4 263.5 396 L 267 395 L 267 407.5 L 270 418.5 L 269 418.5 L 268.5 417 L 258.5 419 L 238.5 419 L 237.5 418 L 228.5 418 L 227.5 417 L 216.5 416 L 191.5 408 Q 174 400.5 163 386.5 L 157 374.5 Q 158.2 369.8 156 368.5 L 156.5 352 Z " /><path fill="rgb(219,153,82)" stroke="rgb(219,153,82)" stroke-width="1" opacity="1" d="M 288.5 372 L 287.5 374 L 288.5 372 Z " /><path fill="rgb(219,153,82)" stroke="rgb(219,153,82)" stroke-width="1" opacity="1" d="M 156.5 382 Q 162.1 396.4 173.5 405 L 194.5 417 L 212.5 423 L 229.5 426 L 255.5 427 L 256.5 426 L 271.5 425 Q 276.2 434.8 284.5 441 L 288 443.5 L 268.5 448 L 237.5 449 L 236.5 448 L 227.5 448 L 216.5 446 L 193.5 439 Q 175.3 431.6 164 417.5 L 157 403.5 L 156.5 382 Z " /><path fill="rgb(219,153,82)" stroke="rgb(219,153,82)" stroke-width="1" opacity="1" d="M 285.5 386 L 287.5 389 L 285.5 386 Z " /><path fill="rgb(219,153,82)" stroke="rgb(219,153,82)" stroke-width="1" opacity="1" d="M 290.5 396 L 291 400.5 L 290 400.5 L 290.5 396 Z " /><path fill="rgb(219,153,82)" stroke="rgb(219,153,82)" stroke-width="1" opacity="1" d="M 289.5 407 L 290 416.5 L 289 416.5 L 289.5 407 Z " /><path fill="rgb(219,153,82)" stroke="rgb(219,153,82)" stroke-width="1" opacity="1" d="M 290.5 422 L 291 424.5 L 290 424.5 L 290.5 422 Z " /><path fill="rgb(206,142,78)" stroke="rgb(206,142,78)" stroke-width="1" opacity="0.984313725490196" d="M 358.5 270 Q 370 268.5 377.5 271 L 400 283.5 L 397.5 284 L 396.5 283 L 382.5 283 Q 365.4 286.4 353.5 295 Q 339.2 304.7 328 317.5 Q 307.4 339.9 296.5 372 Q 292.6 368.4 292.5 361 L 291 368.5 L 285.5 376 L 273 381.5 Q 284.6 382.4 289 390.5 L 291 395.5 L 290 396.5 L 289 416.5 L 290 417.5 L 291 429.5 L 294 438.5 L 302 450.5 L 300.5 450 L 284.5 441 L 276 432.5 L 272 425.5 L 268 413.5 Q 269.3 408.8 267 407.5 L 267 389.5 L 271 367.5 L 282 338.5 L 300 310.5 L 319.5 290 L 338.5 277 L 358.5 270 Z " /><path fill="rgb(231,166,87)" stroke="rgb(231,166,87)" stroke-width="1" opacity="0.984313725490196" d="M 246.5 107 L 249.5 108 L 272.5 109 L 298.5 116 Q 316.1 122.4 328 134.5 Q 334.6 140.9 338 150.5 Q 340.3 157.2 339 167.5 Q 334.5 183.5 322.5 192 Q 308 203.5 287.5 209 L 266.5 213 L 240.5 214 L 239.5 213 L 229.5 213 L 212.5 210 L 196.5 205 L 177.5 195 L 165 183.5 L 160 176.5 L 156 160.5 Q 158.7 158.8 157 152.5 L 162 141.5 L 173.5 129 L 180.5 124 L 205.5 113 L 223.5 109 L 245.5 108 L 246.5 107 Z M 237 117 L 236 118 L 228 118 L 217 120 L 204 124 Q 191 128 182 136 Q 172 143 168 155 L 168 166 Q 170 174 176 180 Q 187 190 203 196 L 225 202 L 244 203 L 245 204 L 266 203 L 289 198 L 307 190 L 319 181 Q 325 175 328 166 L 328 156 L 321 143 Q 294 114 237 117 Z " /><path fill="rgb(231,166,87)" stroke="rgb(231,166,87)" stroke-width="1" opacity="0.984313725490196" d="M 239.5 132 L 245 132 L 245 134.5 L 246 140 L 240.5 140 L 230 143.5 L 244.5 153 L 246.5 153 Q 256.3 147.8 271.5 148 L 284.5 153 L 288 156.5 L 290 161.5 L 286 170 L 281 173.5 L 286 176 Q 287.1 178.7 284.5 178 L 280.5 180 L 276.5 177 L 273.5 177 Q 261.9 183.7 244 183 L 244 175 L 252.5 175 L 265 172 Q 266.1 169.3 263.5 170 L 250.5 162 L 246.5 162 L 233.5 166 L 221.5 166 L 210.5 161 L 208 158.5 L 206 151.5 Q 207.8 144.2 214 141.5 L 211 140 Q 209.9 137.3 212.5 138 L 216.5 136 L 221.5 138 L 227.5 135 L 239.5 132 Z M 224 147 Q 219 148 220 154 L 225 157 Q 233 158 238 156 L 224 147 Z M 263 157 L 257 160 L 272 168 L 276 162 Q 273 156 263 157 Z " /><path fill="rgb(231,166,87)" stroke="rgb(231,166,87)" stroke-width="1" opacity="0.984313725490196" d="M 156.5 188 L 157 191.5 L 156 191.5 L 156.5 188 Z " /><path fill="rgb(231,166,87)" stroke="rgb(231,166,87)" stroke-width="1" opacity="0.984313725490196" d="M 338.5 191 L 339 197.5 L 336 206.5 L 326.5 219 Q 296.3 246.3 236.5 244 L 238.5 241 L 247 238.5 L 242 236.5 L 263.5 236 L 289.5 231 L 307.5 224 L 328 210 L 335 200.5 L 338.5 191 Z " /><path fill="rgb(231,166,87)" stroke="rgb(231,166,87)" stroke-width="1" opacity="0.984313725490196" d="M 157.5 193 Q 161.6 204.9 170.5 212 L 190.5 225 L 206.5 231 L 218.5 233 L 220 234.5 L 212 238.5 L 218 240.5 L 215.5 241 Q 186.1 234.9 168 217.5 Q 157.8 209.1 157.5 193 Z " /><path fill="rgb(231,166,87)" stroke="rgb(231,166,87)" stroke-width="1" opacity="0.984313725490196" d="M 229.5 219 L 230 220.5 L 228.5 223 L 228 221.5 L 229.5 219 Z " /><path fill="rgb(231,166,87)" stroke="rgb(231,166,87)" stroke-width="1" opacity="0.984313725490196" d="M 338.5 221 L 339 227.5 Q 335.1 243.6 323.5 252 Q 309.7 263.2 290.5 269 L 273.5 273 L 247.5 275 L 246.5 274 L 223.5 273 L 205.5 269 L 194.5 265 Q 176.7 257.8 165 244.5 Q 157.8 237.2 157 223.5 L 158 223.5 Q 162.7 237.3 173.5 245 L 189.5 255 L 212.5 263 L 228.5 266 L 255.5 267 L 256.5 266 L 266.5 266 L 283.5 263 L 306.5 255 Q 321.2 248.2 331 236.5 L 338 224.5 L 338.5 221 Z " /><path fill="rgb(231,166,87)" stroke="rgb(231,166,87)" stroke-width="1" opacity="0.984313725490196" d="M 224.5 230 L 221.5 234 L 224.5 230 Z " /><path fill="rgb(231,166,87)" stroke="rgb(231,166,87)" stroke-width="1" opacity="0.984313725490196" d="M 221.5 242 L 224.5 246 L 221.5 242 Z " /><path fill="rgb(231,166,87)" stroke="rgb(231,166,87)" stroke-width="1" opacity="0.984313725490196" d="M 233.5 246 L 232.5 248 L 233.5 246 Z " /><path fill="rgb(231,166,87)" stroke="rgb(231,166,87)" stroke-width="1" opacity="0.984313725490196" d="M 338.5 252 L 339 258.5 Q 334.2 275.2 321.5 284 Q 304.7 296.7 280.5 302 L 269.5 304 L 260.5 304 L 259.5 305 L 236.5 305 L 235.5 304 L 220.5 303 L 198.5 297 L 183.5 290 L 168 279 L 160 267.5 L 157 259.5 L 157 253.5 L 158 253.5 Q 161.4 266.1 170.5 273 Q 201.4 299.6 261.5 297 L 262.5 296 L 270.5 296 L 276.5 294 L 281.5 294 L 300.5 288 Q 319.9 280.4 332 265.5 Q 336.8 260.3 338.5 252 Z " /><path fill="rgb(231,166,87)" stroke="rgb(231,166,87)" stroke-width="1" opacity="0.984313725490196" d="M 228.5 253 L 230 256.5 L 229 256.5 L 228.5 253 Z " /><path fill="rgb(231,166,87)" stroke="rgb(231,166,87)" stroke-width="1" opacity="0.984313725490196" d="M 156.5 279 L 157 282.5 L 156 282.5 L 156.5 279 Z " /><path fill="rgb(231,166,87)" stroke="rgb(231,166,87)" stroke-width="1" opacity="0.984313725490196" d="M 385.5 283 Q 406.8 282.7 416 294.5 Q 430.5 311 427 345.5 Q 414.5 408.5 372.5 442 L 359.5 451 L 359 432.5 L 379 416.5 Q 395.3 399.3 405 375.5 L 410 359.5 L 411 347.5 L 412 346.5 L 412 335.5 L 409 321.5 L 401.5 310 Q 394 301.5 376.5 303 Q 366.4 304.9 359.5 310 L 359 292 L 369.5 287 L 385.5 283 Z " /><path fill="rgb(231,166,87)" stroke="rgb(231,166,87)" stroke-width="1" opacity="0.984313725490196" d="M 157.5 284 Q 162.2 297.3 172.5 305 L 194.5 318 L 209.5 323 L 230.5 327 L 250.5 328 L 251.5 327 L 265.5 327 L 266.5 326 L 278.5 325 L 291.5 321 L 291 322.5 L 285.5 331 L 264.5 335 L 231.5 335 L 230.5 334 L 213.5 332 L 192.5 325 Q 176.7 318.3 166 306.5 L 159 295.5 L 157 289.5 L 157.5 284 Z " /><path fill="rgb(231,166,87)" stroke="rgb(231,166,87)" stroke-width="1" opacity="0.984313725490196" d="M 357.5 293 L 358 310.5 Q 345.9 317.4 337 327.5 Q 316.7 348 309 380 Q 299.1 379.2 295 371.5 L 298 370.5 Q 312.7 328.7 343.5 303 L 357.5 293 Z " /><path fill="rgb(231,166,87)" stroke="rgb(231,166,87)" stroke-width="1" opacity="0.984313725490196" d="M 156.5 310 L 157 312.5 L 156 312.5 L 156.5 310 Z " /><path fill="rgb(231,166,87)" stroke="rgb(231,166,87)" stroke-width="1" opacity="0.984313725490196" d="M 157.5 314 Q 162.5 329 174.5 337 L 193.5 348 L 211.5 354 L 227.5 357 L 235.5 357 L 236.5 358 L 259.5 358 L 260.5 357 Q 269.1 357.8 274 356 L 272 364 Q 267.5 365.7 259.5 365 L 258.5 366 L 238.5 366 L 237.5 365 L 228.5 365 L 227.5 364 L 216.5 363 L 191.5 355 Q 174.6 347.9 164 334.5 L 157 320.5 L 157.5 314 Z " /><path fill="rgb(231,166,87)" stroke="rgb(231,166,87)" stroke-width="1" opacity="0.984313725490196" d="M 362.5 330 L 364 330 L 364 335 L 365.5 335 L 372.5 332 L 381 331 L 378 344 L 375.5 343 L 364 346 L 364 365.5 L 367.5 366 Q 370.8 363.3 377.5 364 L 382 366 Q 385.3 369.9 384 379.5 Q 380 394.5 369.5 403 L 364 407.5 Q 365.5 414.5 362.5 414 L 357 417 L 356.5 411 Q 349.9 415.9 338.5 416 L 336 415 L 339 403 L 344.5 404 L 357 401 L 357 381.5 L 353.5 381 L 344.5 383 L 338 378.5 L 337 367.5 Q 341.1 350.6 353.5 342 L 357 339.5 Q 355.5 332.5 358.5 333 L 362.5 330 Z M 357 351 Q 348 355 348 367 Q 350 371 357 369 L 357 351 Z M 364 378 L 365 396 Q 373 392 373 380 L 372 378 L 364 378 Z " /><path fill="rgb(231,166,87)" stroke="rgb(231,166,87)" stroke-width="1" opacity="0.984313725490196" d="M 156.5 341 L 157 343.5 L 156 343.5 L 156.5 341 Z " /><path fill="rgb(231,166,87)" stroke="rgb(231,166,87)" stroke-width="1" opacity="0.984313725490196" d="M 157.5 345 Q 162.2 358.3 172.5 366 L 192.5 378 L 213.5 385 L 230.5 388 L 264.5 388 L 267 387 L 267 395 L 264.5 395 L 263.5 396 L 233.5 396 L 232.5 395 L 214.5 393 L 197.5 388 L 179.5 379 L 167 368.5 L 159 356.5 L 157 350.5 L 157.5 345 Z " /><path fill="rgb(231,166,87)" stroke="rgb(231,166,87)" stroke-width="1" opacity="0.984313725490196" d="M 156.5 371 L 157 373.5 L 156 373.5 L 156.5 371 Z " /><path fill="rgb(231,166,87)" stroke="rgb(231,166,87)" stroke-width="1" opacity="0.984313725490196" d="M 157.5 375 Q 162.5 390 174.5 398 L 185.5 405 L 204.5 413 L 228.5 418 L 258.5 419 L 268.5 417 L 271 425 L 263.5 425 L 262.5 426 L 234.5 426 L 233.5 425 L 225.5 425 L 219.5 423 L 214.5 423 L 195.5 417 Q 178.7 410.3 167 398.5 L 158 384.5 L 157.5 375 Z " /><path fill="rgb(231,166,87)" stroke="rgb(231,166,87)" stroke-width="1" opacity="0.984313725490196" d="M 276.5 380 L 275.5 382 L 274 381.5 L 276.5 380 Z " /><path fill="rgb(231,166,87)" stroke="rgb(231,166,87)" stroke-width="1" opacity="0.984313725490196" d="M 306.5 382 Q 308.8 381.3 308 383.5 L 306 389.5 L 305 406.5 L 309 423.5 L 319.5 436 L 330.5 440 L 338.5 440 L 347.5 438 L 357.5 433 L 358 452 L 336.5 460 L 320.5 460 Q 306.9 457.1 300 447.5 Q 293.5 439.5 291 427.5 Q 292.3 422.7 290 421.5 L 290 401.5 L 291.5 396 L 292.5 399 Q 294.2 389.7 300.5 385 L 306.5 382 Z " /><path fill="rgb(88,129,251)" stroke="rgb(88,129,251)" stroke-width="1" opacity="0.9725490196078431" d="M 78.5 234 L 100 246.5 L 145 301.5 L 121 316.5 L 121 445.5 L 119.5 447 L 78.5 471 L 75.5 471 L 57 459.5 L 57 451.5 L 56 450.5 L 56 354 L 50.5 355 L 32 343.5 L 78.5 234 Z " /></svg>