<svg width="512" height="512" version="1.1" xmlns="http://www.w3.org/2000/svg" desc="Created with imagetracer.js version 1.2.6" ><path fill="rgb(247,210,177)" stroke="rgb(247,210,177)" stroke-width="1" opacity="0.996078431372549" d="M 337.5 70 L 339 84.5 L 340 85.5 L 340 94.5 L 341 95.5 L 341 137.5 L 340 138.5 L 338 156.5 L 336 158.5 L 331 175.5 L 324 186.5 L 324.5 188 Q 323.3 185.8 322 188.5 L 319.5 192 L 309 199.5 L 303 212.5 L 288.5 233 L 288 231 L 274.5 228 L 241.5 216 L 225.5 208 L 215 199.5 L 215.5 171 L 218 172.5 L 208 138.5 Q 209.2 133.7 207 132.5 L 207 115.5 Q 208.5 108.5 213.5 105 L 219.5 104 L 222 105 Q 228 114.5 226 132 L 234 132 L 234 119.5 L 236 114.5 L 247 99.5 L 249 87 L 267.5 93 L 286.5 93 L 304.5 86 L 325.5 80 Q 332.3 77.8 336 72.5 L 337.5 70 Z " /><path fill="rgb(247,210,177)" stroke="rgb(247,210,177)" stroke-width="1" opacity="0.996078431372549" d="M 217.5 236 L 218.5 238 L 217.5 236 Z " /><path fill="rgb(247,210,177)" stroke="rgb(247,210,177)" stroke-width="1" opacity="0.996078431372549" d="M 298.5 236 L 303.5 242 L 298.5 236 Z " /><path fill="rgb(247,210,177)" stroke="rgb(247,210,177)" stroke-width="1" opacity="0.996078431372549" d="M 219.5 239 L 220.5 241 L 219.5 239 Z " /><path fill="rgb(247,210,177)" stroke="rgb(247,210,177)" stroke-width="1" opacity="0.996078431372549" d="M 306.5 246 L 308 248.5 L 307 248.5 L 306.5 246 Z " /><path fill="rgb(247,210,177)" stroke="rgb(247,210,177)" stroke-width="1" opacity="0.996078431372549" d="M 227.5 249 L 228.5 251 L 227.5 249 Z " /><path fill="rgb(247,210,177)" stroke="rgb(247,210,177)" stroke-width="1" opacity="0.996078431372549" d="M 303.5 255 L 302.5 257 L 303.5 255 Z " /><path fill="rgb(247,210,177)" stroke="rgb(247,210,177)" stroke-width="1" opacity="0.996078431372549" d="M 234.5 257 L 237.5 261 L 234.5 257 Z " /><path fill="rgb(247,210,177)" stroke="rgb(247,210,177)" stroke-width="1" opacity="0.996078431372549" d="M 342.5 257 L 343 259.5 L 342 259.5 L 342.5 257 Z " /><path fill="rgb(247,210,177)" stroke="rgb(247,210,177)" stroke-width="1" opacity="0.996078431372549" d="M 303.5 264 L 304.5 266 L 303.5 264 Z " /><path fill="rgb(247,210,177)" stroke="rgb(247,210,177)" stroke-width="1" opacity="0.996078431372549" d="M 343.5 270 L 344 273.5 L 343 273.5 L 343.5 270 Z " /><path fill="rgb(247,210,177)" stroke="rgb(247,210,177)" stroke-width="1" opacity="0.996078431372549" d="M 247.5 271 L 248.5 273 L 247.5 271 Z " /><path fill="rgb(247,210,177)" stroke="rgb(247,210,177)" stroke-width="1" opacity="0.996078431372549" d="M 284.5 272 L 285 278.5 L 284 278.5 L 284.5 272 Z " /><path fill="rgb(247,210,177)" stroke="rgb(247,210,177)" stroke-width="1" opacity="0.996078431372549" d="M 285.5 286 L 286 291.5 L 285 291.5 L 285.5 286 Z " /><path fill="rgb(247,210,177)" stroke="rgb(247,210,177)" stroke-width="1" opacity="0.996078431372549" d="M 286.5 299 L 287 305.5 L 286 305.5 L 286.5 299 Z " /><path fill="rgb(247,210,177)" stroke="rgb(247,210,177)" stroke-width="1" opacity="0.996078431372549" d="M 287.5 313 L 288 318.5 L 287 318.5 L 287.5 313 Z " /><path fill="rgb(247,210,177)" stroke="rgb(247,210,177)" stroke-width="1" opacity="0.996078431372549" d="M 343.5 325 L 344 330.5 L 343 330.5 L 343.5 325 Z " /><path fill="rgb(247,210,177)" stroke="rgb(247,210,177)" stroke-width="1" opacity="0.996078431372549" d="M 288.5 326 L 289 331.5 L 288 331.5 L 288.5 326 Z " /><path fill="rgb(247,210,177)" stroke="rgb(247,210,177)" stroke-width="1" opacity="0.996078431372549" d="M 289.5 339 L 290 346.5 L 289 346.5 L 288 344.5 L 289.5 339 Z " /><path fill="rgb(247,210,177)" stroke="rgb(247,210,177)" stroke-width="1" opacity="0.996078431372549" d="M 342.5 342 L 343 345.5 L 342 345.5 L 342.5 342 Z " /><path fill="rgb(247,210,177)" stroke="rgb(247,210,177)" stroke-width="1" opacity="0.996078431372549" d="M 341.5 355 L 342 358.5 L 341 358.5 L 341.5 355 Z " /><path fill="rgb(0,0,0)" stroke="rgb(0,0,0)" stroke-width="1" opacity="0" d="M 0 0 L 512 0 L 512 512 L 0 512 L 0 0 Z M 241 8 Q 220 12 207 23 Q 195 33 189 48 L 185 61 L 184 73 L 183 74 L 183 98 L 184 99 L 184 108 L 187 124 Q 196 152 215 171 L 215 199 L 212 199 L 202 205 L 195 214 L 147 248 Q 134 259 125 274 L 117 291 L 111 312 L 110 326 L 109 327 L 109 404 L 108 405 L 109 407 L 108 411 L 108 420 L 109 421 L 109 466 Q 111 476 117 483 Q 126 492 140 497 L 157 502 L 171 503 L 172 504 L 199 504 L 200 503 L 216 502 L 242 497 L 272 488 Q 325 469 363 434 Q 385 414 400 386 L 402 380 L 402 371 L 403 370 L 403 338 L 404 337 L 403 335 L 402 287 L 401 286 L 400 267 L 399 266 L 395 236 L 390 216 L 383 196 L 370 174 Q 360 159 338 157 L 340 146 L 340 139 L 341 138 L 341 96 L 340 95 L 338 71 L 337 70 L 339 64 L 339 44 L 334 32 Q 324 18 306 13 L 277 8 L 241 8 Z " /><path fill="rgb(40,46,58)" stroke="rgb(40,46,58)" stroke-width="1" opacity="0.996078431372549" d="M 334 167 L 335.5 167 L 345 176.5 L 358 197.5 L 346 218 L 352.5 217 L 366 217 L 368 228.5 L 368 236.5 L 369 237.5 L 369 248.5 L 370 249.5 L 370 304.5 L 369 305.5 L 369 316.5 L 368 317.5 L 366 341.5 L 357 384.5 L 345 421.5 L 328.5 457 L 328 453.5 L 335 418.5 L 339 382.5 L 340 381.5 L 341 364.5 L 342 363.5 L 343 339.5 L 344 338.5 L 344 318.5 L 345 317.5 L 345 280.5 L 344 279.5 L 343 252.5 L 342 251.5 L 342 244.5 L 338 222.5 Q 333.2 202.3 325 185.5 L 333 172.5 L 334 167 Z " /><path fill="rgb(40,46,58)" stroke="rgb(40,46,58)" stroke-width="1" opacity="0.996078431372549" d="M 211.5 199 L 215 199.5 Q 207.5 205 208 218.5 L 210 225.5 L 217 237.5 L 255 281.5 Q 268.1 299.9 278 321.5 L 300 374.5 L 316 422.5 L 326 458.5 L 323 456.5 Q 293.4 420.6 267 381.5 L 232 326.5 L 221 307.5 L 221 304.5 L 229 278.5 L 223.5 283 L 210.5 293 Q 199.9 281.6 194 265.5 L 189 245.5 L 189 229.5 L 195 212.5 L 201.5 205 L 211.5 199 Z " /><path fill="rgb(242,243,247)" stroke="rgb(242,243,247)" stroke-width="1" opacity="1" d="M 323.5 187 L 332 204.5 L 340 236.5 L 340 242.5 L 342 250.5 L 342 259.5 L 343 260.5 L 343 273.5 L 344 274.5 L 344 324.5 L 343 325.5 L 343 341.5 L 342 342.5 L 342 354.5 L 340.5 363 L 333 334.5 L 321 299.5 L 309 269.5 L 303.5 264 L 300 261.5 L 308 247.5 L 298.5 236 L 290 232 L 291 228.5 L 303 212.5 L 310.5 198 L 322 189.5 L 323.5 187 Z " /><path fill="rgb(242,243,247)" stroke="rgb(242,243,247)" stroke-width="1" opacity="1" d="M 215.5 200 L 225.5 208 L 241.5 216 L 274.5 228 L 288 231 L 280 258.5 L 288 263 L 284 272.5 L 284 278.5 L 285 279.5 L 289 343.5 L 288 343.5 L 283 330.5 L 262 290.5 L 249 272.5 L 224 245.5 L 213 229.5 L 209 219.5 L 209 211.5 L 215.5 200 Z " /><path fill="rgb(136,94,76)" stroke="rgb(136,94,76)" stroke-width="1" opacity="0.9882352941176471" d="M 240.5 8 L 276.5 8 L 305.5 13 Q 323.9 18.1 334 31.5 L 339 43.5 L 339 63.5 L 338 68.5 L 332.5 76 L 324.5 80 L 303.5 86 L 289.5 92 L 284.5 93 L 269.5 93 L 254.5 89 L 248 86 L 249 89.5 Q 246.8 90.8 248 95.5 L 244 104.5 L 234 117.5 L 234 132 L 227 132 L 227 121.5 L 224 108.5 L 220.5 104 L 217.5 103 Q 211.4 104.4 209 109.5 L 207 114.5 L 207 122.5 L 206 123.5 L 207 124.5 L 207 134.5 L 209 144.5 L 214 162.5 L 218 171.5 L 215.5 170 L 208 163.5 Q 194.2 146.8 187 123.5 L 184 107.5 L 184 98.5 L 183 97.5 L 183 73.5 L 184 72.5 L 185 60.5 L 189 47.5 Q 195.1 32.6 206.5 23 Q 219.6 11.6 240.5 8 Z " /><path fill="rgb(136,94,76)" stroke="rgb(136,94,76)" stroke-width="1" opacity="0.9882352941176471" d="M 208.5 212 L 209 218.5 L 208 218.5 L 208.5 212 Z " /><path fill="rgb(136,94,76)" stroke="rgb(136,94,76)" stroke-width="1" opacity="0.9882352941176471" d="M 221.5 242 L 222.5 244 L 221.5 242 Z " /><path fill="rgb(136,94,76)" stroke="rgb(136,94,76)" stroke-width="1" opacity="0.9882352941176471" d="M 225.5 247 L 226.5 249 L 225.5 247 Z " /><path fill="rgb(136,94,76)" stroke="rgb(136,94,76)" stroke-width="1" opacity="0.9882352941176471" d="M 231.5 254 L 233.5 257 L 231.5 254 Z " /><path fill="rgb(136,94,76)" stroke="rgb(136,94,76)" stroke-width="1" opacity="0.9882352941176471" d="M 342.5 254 L 343 256.5 L 342 256.5 L 342.5 254 Z " /><path fill="rgb(136,94,76)" stroke="rgb(136,94,76)" stroke-width="1" opacity="0.9882352941176471" d="M 343.5 265 L 344 269.5 L 343 269.5 L 343.5 265 Z " /><path fill="rgb(136,94,76)" stroke="rgb(136,94,76)" stroke-width="1" opacity="0.9882352941176471" d="M 242.5 266 L 246.5 271 L 242.5 266 Z " /><path fill="rgb(136,94,76)" stroke="rgb(136,94,76)" stroke-width="1" opacity="0.9882352941176471" d="M 250.5 275 L 251.5 277 L 250.5 275 Z " /><path fill="rgb(136,94,76)" stroke="rgb(136,94,76)" stroke-width="1" opacity="0.9882352941176471" d="M 344.5 285 L 345 313.5 L 344 313.5 L 344.5 285 Z " /><path fill="rgb(136,94,76)" stroke="rgb(136,94,76)" stroke-width="1" opacity="0.9882352941176471" d="M 343.5 331 L 344 335.5 L 343 335.5 L 343.5 331 Z " /><path fill="rgb(136,94,76)" stroke="rgb(136,94,76)" stroke-width="1" opacity="0.9882352941176471" d="M 342.5 346 L 343 350.5 L 342 350.5 L 342.5 346 Z " /><path fill="rgb(136,94,76)" stroke="rgb(136,94,76)" stroke-width="1" opacity="0.9882352941176471" d="M 341.5 359 L 342 361.5 L 341 361.5 L 341.5 359 Z " /><path fill="rgb(136,94,76)" stroke="rgb(136,94,76)" stroke-width="1" opacity="0.9882352941176471" d="M 340.5 367 L 341 370.5 L 340 370.5 L 340.5 367 Z " /><path fill="rgb(136,94,76)" stroke="rgb(136,94,76)" stroke-width="1" opacity="0.9882352941176471" d="M 339.5 377 L 340 379.5 L 339 379.5 L 339.5 377 Z " /><path fill="rgb(136,94,76)" stroke="rgb(136,94,76)" stroke-width="1" opacity="0.9882352941176471" d="M 337.5 393 L 338 395.5 L 337 395.5 L 337.5 393 Z " /><path fill="rgb(136,94,76)" stroke="rgb(136,94,76)" stroke-width="1" opacity="0.9882352941176471" d="M 336.5 401 L 337 403.5 L 336 403.5 L 336.5 401 Z " /><path fill="rgb(136,94,76)" stroke="rgb(136,94,76)" stroke-width="1" opacity="0.9882352941176471" d="M 335.5 408 L 336 410.5 L 335 410.5 L 335.5 408 Z " /><path fill="rgb(136,94,76)" stroke="rgb(136,94,76)" stroke-width="1" opacity="0.9882352941176471" d="M 333.5 421 L 334 423.5 L 333 423.5 L 333.5 421 Z " /><path fill="rgb(234,95,114)" stroke="rgb(234,95,114)" stroke-width="1" opacity="0.996078431372549" d="M 248 86 L 250 86.5 L 248 87.5 L 248 86 Z " /><path fill="rgb(234,95,114)" stroke="rgb(234,95,114)" stroke-width="1" opacity="0.996078431372549" d="M 248.5 90 L 249 92.5 L 248 92.5 L 248.5 90 Z " /><path fill="rgb(234,95,114)" stroke="rgb(234,95,114)" stroke-width="1" opacity="0.996078431372549" d="M 242.5 106 L 241.5 108 L 242.5 106 Z " /><path fill="rgb(234,95,114)" stroke="rgb(234,95,114)" stroke-width="1" opacity="0.996078431372549" d="M 237.5 112 L 236.5 114 L 237.5 112 Z " /><path fill="rgb(234,95,114)" stroke="rgb(234,95,114)" stroke-width="1" opacity="0.996078431372549" d="M 226.5 121 L 227 131.5 L 226 131.5 L 226.5 121 Z " /><path fill="rgb(234,95,114)" stroke="rgb(234,95,114)" stroke-width="1" opacity="0.996078431372549" d="M 215.5 170 L 218 170.5 L 217.5 173 L 215.5 170 Z " /><path fill="rgb(234,95,114)" stroke="rgb(234,95,114)" stroke-width="1" opacity="0.996078431372549" d="M 289.5 232 Q 299.9 235.1 305 243.5 L 307 249.5 Q 301.5 254.8 300 263 L 308 268.5 L 328 320.5 L 341 366.5 L 340 367.5 L 339 385.5 L 338 386.5 L 333 427.5 L 326.5 459 Q 311.8 400.2 290 348.5 L 288 313.5 L 287 312.5 L 287 299.5 L 286 298.5 L 286 286.5 L 285 285.5 L 285 271.5 L 288 263.5 L 281 260 Q 282.5 243.8 289.5 232 Z " /><path fill="rgb(55,63,81)" stroke="rgb(55,63,81)" stroke-width="1" opacity="0.9921568627450981" d="M 337 157 Q 359.6 158.7 370 173.5 L 383 195.5 L 390 215.5 L 395 235.5 L 399 265.5 L 400 266.5 L 401 285.5 L 402 286.5 L 403 334.5 L 404 336.5 L 403 337.5 L 403 369.5 L 402 370.5 L 402 379.5 L 400 385.5 Q 385.3 413.8 362.5 434 Q 346.7 449.7 327 460 L 327 457 Q 329.7 458.1 329 455.5 L 337 440.5 L 349 410.5 L 357 384.5 L 364 353.5 L 366 335.5 L 367 334.5 L 367 327.5 L 368 326.5 L 369 305.5 L 370 304.5 L 370 249.5 L 369 248.5 L 369 237.5 L 368 236.5 L 368 228.5 L 366 217 L 352.5 217 L 346 218 L 358 196.5 L 348 180.5 L 335 166.5 L 335 164.5 L 337 157 Z " /><path fill="rgb(55,63,81)" stroke="rgb(55,63,81)" stroke-width="1" opacity="0.9921568627450981" d="M 192.5 215 L 194 215.5 L 189 229.5 L 189 245.5 L 192 259.5 L 196 270.5 Q 201.6 283.4 210.5 293 L 228.5 278 L 229 279.5 L 221 307.5 Q 266.9 388.6 324.5 458 L 326 457.5 L 326 459.5 Q 327.1 462.8 324.5 462 L 315.5 468 L 289.5 481 L 252.5 494 L 232.5 499 L 209.5 502 L 208.5 503 L 199.5 503 L 198.5 504 L 171.5 504 L 170.5 503 L 156.5 502 L 139.5 497 Q 125.7 492.3 117 482.5 Q 111.1 475.9 109 465.5 L 109 420.5 L 108 419.5 L 108 410.5 L 109 406.5 L 108 404.5 L 109 403.5 L 109 326.5 L 110 325.5 L 111 311.5 L 117 290.5 L 125 273.5 Q 133.6 258.6 146.5 248 L 192.5 215 Z " /><path fill="rgb(55,63,81)" stroke="rgb(55,63,81)" stroke-width="1" opacity="0.9921568627450981" d="M 223.5 245 L 224.5 247 L 223.5 245 Z " /><path fill="rgb(55,63,81)" stroke="rgb(55,63,81)" stroke-width="1" opacity="0.9921568627450981" d="M 228.5 251 L 230.5 254 L 228.5 251 Z " /><path fill="rgb(55,63,81)" stroke="rgb(55,63,81)" stroke-width="1" opacity="0.9921568627450981" d="M 236.5 260 L 241.5 266 L 236.5 260 Z " /><path fill="rgb(55,63,81)" stroke="rgb(55,63,81)" stroke-width="1" opacity="0.9921568627450981" d="M 248.5 273 L 249.5 275 L 248.5 273 Z " /><path fill="rgb(55,63,81)" stroke="rgb(55,63,81)" stroke-width="1" opacity="0.9921568627450981" d="M 252.5 278 L 253.5 280 L 252.5 278 Z " /><path fill="rgb(55,63,81)" stroke="rgb(55,63,81)" stroke-width="1" opacity="0.9921568627450981" d="M 344.5 280 L 345 284.5 L 344 284.5 L 344.5 280 Z " /><path fill="rgb(55,63,81)" stroke="rgb(55,63,81)" stroke-width="1" opacity="0.9921568627450981" d="M 344.5 314 L 345 317.5 L 344 317.5 L 344.5 314 Z " /><path fill="rgb(55,63,81)" stroke="rgb(55,63,81)" stroke-width="1" opacity="0.9921568627450981" d="M 343.5 336 L 344 338.5 L 343 338.5 L 343.5 336 Z " /></svg>