<svg width="512" height="512" version="1.1" xmlns="http://www.w3.org/2000/svg" desc="Created with imagetracer.js version 1.2.6" ><path fill="rgb(227,226,224)" stroke="rgb(227,226,224)" stroke-width="1" opacity="0.8352941176470589" d="M 356.5 71 L 357 95.5 L 356 95.5 L 356.5 71 Z " /><path fill="rgb(227,226,224)" stroke="rgb(227,226,224)" stroke-width="1" opacity="0.8352941176470589" d="M 357.5 166 L 358 254.5 L 357 254.5 L 357.5 166 Z " /><path fill="rgb(227,226,224)" stroke="rgb(227,226,224)" stroke-width="1" opacity="0.8352941176470589" d="M 11.5 234 L 12 317.5 L 11 317.5 L 11.5 234 Z " /><path fill="rgb(227,226,224)" stroke="rgb(227,226,224)" stroke-width="1" opacity="0.8352941176470589" d="M 43.5 252 L 44 359.5 L 43 359.5 L 43.5 252 Z " /><path fill="rgb(227,226,224)" stroke="rgb(227,226,224)" stroke-width="1" opacity="0.8352941176470589" d="M 300.5 353 L 298.5 356 L 73.5 486 L 63.5 491 L 60.5 491 L 60.5 490 L 63.5 490 L 73.5 485 L 300.5 353 Z " /><path fill="rgb(227,226,224)" stroke="rgb(227,226,224)" stroke-width="1" opacity="0.8352941176470589" d="M 11.5 406 L 12 408.5 L 11 408.5 L 11.5 406 Z " /><path fill="rgb(227,226,224)" stroke="rgb(227,226,224)" stroke-width="1" opacity="0.8352941176470589" d="M 11.5 414 L 12 417.5 L 11 417.5 L 11.5 414 Z " /><path fill="rgb(227,226,224)" stroke="rgb(227,226,224)" stroke-width="1" opacity="0.8352941176470589" d="M 46.5 484 L 47.5 486 L 46.5 484 Z " /><path fill="rgb(227,226,224)" stroke="rgb(227,226,224)" stroke-width="1" opacity="0.8352941176470589" d="M 49.5 488 L 56 490.5 L 52.5 491 L 49.5 488 Z " /><path fill="rgb(253,254,254)" stroke="rgb(253,254,254)" stroke-width="1" opacity="0.9568627450980393" d="M 491.5 49 L 492 52 Q 485.6 51 484 56.5 L 483 62.5 Q 483.8 64.8 487.5 64 L 491 61.5 Q 489 54.6 493 56 Q 494.1 62.7 489.5 65 Q 487.8 67.8 482.5 67 Q 479.3 65.3 481 58.5 L 485.5 52 L 491.5 49 Z " /><path fill="rgb(253,254,254)" stroke="rgb(253,254,254)" stroke-width="1" opacity="0.9568627450980393" d="M 476.5 57 L 477 71.5 Q 475.8 74.3 474.5 72 L 468 68 L 468 76.5 L 466.5 78 L 466 63 L 468.5 63 L 474.5 68 L 475 58.5 L 476.5 57 Z " /><path fill="rgb(253,254,254)" stroke="rgb(253,254,254)" stroke-width="1" opacity="0.9568627450980393" d="M 459 67 L 461 67.5 L 461 80.5 L 459 81.5 L 459 67 Z " /><path fill="rgb(253,254,254)" stroke="rgb(253,254,254)" stroke-width="1" opacity="0.9568627450980393" d="M 454.5 70 L 455 85 L 453 84.5 L 453 77.5 L 452 77.5 L 447.5 87 Q 445.3 87.8 446 85.5 L 443 83.5 L 443 91.5 L 441.5 92 L 440 92.5 L 440 78.5 L 441.5 78 Q 442.8 75.8 444 78.5 L 447.5 83 Q 450.1 83.8 449 80.5 L 454.5 70 Z " /><path fill="rgb(253,254,254)" stroke="rgb(253,254,254)" stroke-width="1" opacity="0.9568627450980393" d="M 435.5 81 L 436 96 L 434 95.5 L 434 88.5 L 433 88.5 L 430 98 L 426 95.5 Q 426.7 92.9 424 94 L 424 102.5 L 422 103 L 422 89.5 L 423.5 88 L 428.5 94 Q 430.8 94.8 430 92.5 L 435.5 81 Z " /><path fill="rgb(253,254,254)" stroke="rgb(253,254,254)" stroke-width="1" opacity="0.9568627450980393" d="M 412.5 94 Q 414.8 93.3 414 95.5 L 419 103.5 L 419 106 Q 415.2 107.5 416 104.5 L 414.5 105 L 409 107 L 406.5 113 L 406 110.5 L 410 97.5 L 412.5 94 Z M 413 98 L 410 105 L 415 103 L 413 98 Z " /><path fill="rgb(253,254,254)" stroke="rgb(253,254,254)" stroke-width="1" opacity="0.9568627450980393" d="M 398.5 102 Q 405.7 99.7 403 107.5 L 401 111.5 L 403 115 L 400.5 116 L 399 113 L 395 115.5 Q 396.9 120.9 393.5 120 L 392 120.5 L 392 106.5 L 393.5 105 L 398.5 102 Z M 400 104 L 395 106 L 396 113 L 401 109 Q 402 105 400 104 Z " /><path fill="rgb(253,254,254)" stroke="rgb(253,254,254)" stroke-width="1" opacity="0.9568627450980393" d="M 384.5 110 Q 389.3 108.7 388 112 Q 382.4 112.1 380 116.5 L 379 124 L 386 123 L 387 116 Q 390.7 114.7 389 120.5 L 385.5 125 Q 383.8 127.8 378.5 127 L 376 122.5 Q 377.3 115.8 381.5 112 L 384.5 110 Z " /><path fill="rgb(253,254,254)" stroke="rgb(253,254,254)" stroke-width="1" opacity="0.9568627450980393" d="M 369.5 119 Q 373.5 118.5 374 121.5 Q 374.5 131.5 368.5 135 L 362.5 137 Q 358.8 135.8 360 129.5 L 365.5 121 L 369.5 119 Z M 368 122 L 362 130 L 363 133 Q 362 136 367 134 L 372 127 L 371 124 Q 372 121 368 122 Z " /><path fill="rgb(253,254,254)" stroke="rgb(253,254,254)" stroke-width="1" opacity="0.9568627450980393" d="M 354.5 128 L 357 129.5 L 357 134.5 L 355 138.5 Q 358.8 140.3 355.5 142 L 351.5 140 L 349 141 Q 350.3 145.6 347.5 147 L 346 146.5 L 346 132 L 354.5 128 Z M 353 131 L 351 132 Q 348 134 349 139 L 354 137 L 355 135 Q 357 130 353 131 Z " /><path fill="rgb(253,254,254)" stroke="rgb(253,254,254)" stroke-width="1" opacity="0.9568627450980393" d="M 340.5 136 L 343 137.5 L 343 142.5 L 339.5 147 L 335 149 Q 336.3 153.6 333.5 155 L 332 154.5 L 332 141.5 L 340.5 136 Z M 339 139 L 337 140 Q 334 142 335 147 L 340 145 L 341 141 L 339 139 Z " /><path fill="rgb(253,254,254)" stroke="rgb(253,254,254)" stroke-width="1" opacity="0.9568627450980393" d="M 357.5 158 L 358 165.5 L 357 165.5 L 357.5 158 Z " /><path fill="rgb(253,254,254)" stroke="rgb(253,254,254)" stroke-width="1" opacity="0.9568627450980393" d="M 11.5 423 L 12 425.5 L 11 425.5 L 11.5 423 Z " /><path fill="rgb(0,0,0)" stroke="rgb(0,0,0)" stroke-width="1" opacity="0" d="M 0 0 L 512 0 L 512 512 L 0 512 L 0 0 Z M 308 21 L 284 33 L 281 36 L 262 47 L 258 48 L 243 58 L 232 63 L 217 73 L 213 74 L 191 88 L 187 89 L 184 92 L 42 173 L 29 182 L 22 190 Q 23 192 20 191 L 20 194 L 15 201 L 11 216 L 11 426 L 12 427 L 12 462 L 14 467 L 20 472 L 53 491 Q 63 493 69 489 L 299 356 L 300 356 L 296 370 L 280 382 L 276 386 L 276 417 L 291 426 L 299 423 Q 302 422 303 425 L 292 452 L 325 471 L 327 471 L 341 452 Q 342 448 347 449 L 348 451 L 349 459 L 363 467 L 367 467 L 391 453 L 393 448 L 395 430 L 402 424 L 414 409 L 430 412 L 449 380 L 449 378 L 440 368 L 448 340 L 463 328 L 465 326 L 465 295 L 450 285 L 442 287 L 439 282 L 449 259 L 418 241 L 414 240 L 401 258 Q 399 262 393 260 L 392 254 L 378 244 L 375 244 L 359 254 L 358 159 L 357 156 L 500 74 L 501 74 L 501 29 L 490 21 L 487 21 L 479 25 L 357 95 L 357 54 L 354 46 L 347 39 L 323 25 L 315 21 L 308 21 Z " /><path fill="rgb(0,0,0)" stroke="rgb(0,0,0)" stroke-width="1" opacity="0" d="M 393.5 304 Q 399.5 302.5 401 305.5 Q 406.1 312.4 406 324.5 L 401.5 321 L 384.5 311 L 379 309.5 L 393.5 304 Z " /><path fill="rgb(0,0,0)" stroke="rgb(0,0,0)" stroke-width="1" opacity="0" d="M 335.5 386 L 337.5 389 L 352.5 398 L 362 401.5 Q 354.5 407 341.5 407 Q 333.5 400.5 335.5 386 Z " /><path fill="rgb(87,145,185)" stroke="rgb(87,145,185)" stroke-width="1" opacity="0.9882352941176471" d="M 486.5 21 L 489.5 21 L 501 28.5 L 501 73.5 L 499.5 74 L 323.5 176 L 310 167.5 L 310 124.5 L 311.5 124 L 322.5 131 L 395.5 88 L 415 78 Q 416.1 75.3 413.5 76 L 403.5 70 L 355.5 98 L 357.5 95 L 486.5 21 Z M 488 49 L 486 50 Q 478 53 479 65 L 484 68 Q 491 67 493 62 Q 494 55 492 54 L 489 58 L 490 61 L 486 63 L 483 62 L 485 56 Q 487 52 492 53 L 493 51 Q 494 48 488 49 Z M 476 56 L 473 59 L 473 66 Q 471 61 465 62 L 464 65 L 464 78 L 466 79 L 468 78 L 469 68 L 475 73 L 477 73 L 478 72 L 478 58 L 476 56 Z M 460 65 L 457 68 L 457 82 L 460 83 L 462 81 L 462 67 L 460 65 Z M 453 69 L 453 71 L 452 70 L 447 81 L 440 76 L 439 79 L 439 93 L 442 93 L 443 92 L 444 84 L 445 87 L 448 88 L 451 82 L 451 86 L 455 85 L 455 70 L 453 69 Z M 434 80 L 428 92 L 426 90 Q 425 86 421 87 L 420 90 L 420 104 L 423 104 Q 426 102 424 96 L 429 99 L 432 94 L 433 97 L 437 96 L 437 81 L 434 80 Z M 411 93 L 411 95 L 409 95 L 403 113 L 406 114 L 409 109 L 414 106 Q 415 103 417 107 L 420 106 L 414 95 Q 415 91 411 93 Z M 398 101 L 396 102 L 396 104 L 394 103 L 394 105 L 392 104 L 391 107 L 391 121 L 394 121 L 397 114 L 401 116 L 404 115 L 401 112 Q 405 110 404 104 Q 403 100 398 101 Z M 384 109 L 382 110 Q 375 113 375 122 L 374 121 L 371 118 L 366 119 Q 359 122 359 129 L 355 127 Q 351 126 352 129 L 351 128 L 345 132 L 345 147 L 347 148 L 349 147 Q 348 142 351 141 L 356 143 Q 361 140 355 138 L 357 134 L 362 137 L 368 136 Q 373 133 374 125 L 379 128 Q 387 128 389 122 L 389 115 L 386 115 L 385 121 Q 384 124 379 123 L 381 116 Q 383 112 388 113 L 389 111 Q 390 108 384 109 Z M 339 135 L 332 139 L 332 141 L 330 141 L 331 156 L 334 155 Q 337 156 335 151 L 338 149 Q 343 147 344 141 L 343 136 L 339 135 Z " /><path fill="rgb(87,145,185)" stroke="rgb(87,145,185)" stroke-width="1" opacity="0.9882352941176471" d="M 315.5 62 L 320.5 63 L 326 67.5 L 327 72.5 Q 325.3 81.8 318.5 86 L 313.5 87 Q 307.8 85.8 305 81.5 L 306 79.5 L 305 74.5 Q 307.6 67.1 313.5 63 L 315.5 62 Z M 316 63 L 319 66 L 321 65 L 316 63 Z M 306 80 L 309 84 L 310 84 L 309 82 L 306 80 Z " /><path fill="rgb(87,145,185)" stroke="rgb(87,145,185)" stroke-width="1" opacity="0.9882352941176471" d="M 286.5 79 Q 291.6 78.4 293 81.5 Q 286.6 82.6 284 87.5 Q 279.8 91.3 281 100.5 L 281.5 102 L 277 100 Q 275.3 97.6 276 91.5 Q 278.6 84.1 284.5 80 L 286.5 79 Z " /><path fill="rgb(87,145,185)" stroke="rgb(87,145,185)" stroke-width="1" opacity="0.9882352941176471" d="M 351.5 99 L 350.5 101 L 351.5 99 Z " /><path fill="rgb(87,145,185)" stroke="rgb(87,145,185)" stroke-width="1" opacity="0.9882352941176471" d="M 411 100 L 414 101.5 L 411.5 103 L 411 100 Z " /><path fill="rgb(87,145,185)" stroke="rgb(87,145,185)" stroke-width="1" opacity="0.9882352941176471" d="M 344.5 103 L 343.5 105 L 344.5 103 Z " /><path fill="rgb(87,145,185)" stroke="rgb(87,145,185)" stroke-width="1" opacity="0.9882352941176471" d="M 398.5 105 L 400 108.5 L 397 109.5 L 397.5 111 L 395 109.5 L 396.5 106 L 398.5 105 Z " /><path fill="rgb(87,145,185)" stroke="rgb(87,145,185)" stroke-width="1" opacity="0.9882352941176471" d="M 368.5 122 Q 371 123 370 127.5 L 366.5 132 L 363 133 Q 361.7 125.5 366.5 123 L 368.5 122 Z " /><path fill="rgb(87,145,185)" stroke="rgb(87,145,185)" stroke-width="1" opacity="0.9882352941176471" d="M 351.5 132 Q 354.1 131.2 353 134.5 L 349 137 L 349 133 L 350.5 133 L 351.5 132 Z " /><path fill="rgb(87,145,185)" stroke="rgb(87,145,185)" stroke-width="1" opacity="0.9882352941176471" d="M 337.5 140 Q 340.1 139.2 339 142.5 L 335 145 L 335 141 L 336.5 141 L 337.5 140 Z " /><path fill="rgb(87,145,185)" stroke="rgb(87,145,185)" stroke-width="1" opacity="0.9882352941176471" d="M 194.5 145 L 195 149.5 L 194 149.5 L 194.5 145 Z " /><path fill="rgb(87,145,185)" stroke="rgb(87,145,185)" stroke-width="1" opacity="0.9882352941176471" d="M 73.5 203 L 72.5 205 L 73.5 203 Z " /><path fill="rgb(87,145,185)" stroke="rgb(87,145,185)" stroke-width="1" opacity="0.9882352941176471" d="M 70.5 206 L 69.5 208 L 70.5 206 Z " /><path fill="rgb(232,231,229)" stroke="rgb(232,231,229)" stroke-width="1" opacity="0.996078431372549" d="M 483.5 54 L 482.5 56 L 483.5 54 Z " /><path fill="rgb(232,231,229)" stroke="rgb(232,231,229)" stroke-width="1" opacity="0.996078431372549" d="M 490.5 57 L 491 61.5 L 489 62.5 L 490.5 57 Z " /><path fill="rgb(232,231,229)" stroke="rgb(232,231,229)" stroke-width="1" opacity="0.996078431372549" d="M 480.5 61 L 481 63.5 L 480 63.5 L 480.5 61 Z " /><path fill="rgb(232,231,229)" stroke="rgb(232,231,229)" stroke-width="1" opacity="0.996078431372549" d="M 477.5 63 L 478 71.5 L 476 72.5 L 477 71.5 L 477.5 63 Z " /><path fill="rgb(232,231,229)" stroke="rgb(232,231,229)" stroke-width="1" opacity="0.996078431372549" d="M 465.5 64 L 466 78.5 L 465 78.5 L 465.5 64 Z " /><path fill="rgb(232,231,229)" stroke="rgb(232,231,229)" stroke-width="1" opacity="0.996078431372549" d="M 470.5 64 L 471.5 66 L 470.5 64 Z " /><path fill="rgb(232,231,229)" stroke="rgb(232,231,229)" stroke-width="1" opacity="0.996078431372549" d="M 460.5 66 L 462 66.5 L 462 80.5 L 460 81.5 L 461 80.5 L 461 67.5 L 460.5 66 Z " /><path fill="rgb(232,231,229)" stroke="rgb(232,231,229)" stroke-width="1" opacity="0.996078431372549" d="M 354.5 72 L 356 72.5 L 356 97 L 310 123 L 310 168.5 L 311.5 169 L 323.5 176 L 357 157 L 357 255.5 L 355.5 256 L 349 260.5 L 345 283.5 L 327.5 303 L 311.5 300 L 292 332.5 L 303 345.5 L 303 347.5 L 298.5 355 L 73.5 485 L 63.5 490 L 56.5 491 L 52.5 490 L 48 486.5 L 44 476.5 L 44 251 L 354.5 72 Z M 285 172 L 281 174 L 277 179 L 274 188 L 241 309 L 211 295 L 239 249 Q 242 245 241 238 L 231 231 L 227 232 Q 204 263 186 299 L 187 303 L 197 309 L 232 326 L 235 325 L 236 325 L 233 335 L 234 340 L 243 345 L 248 345 Q 253 341 255 334 L 290 209 L 318 225 L 289 272 L 287 278 L 288 281 L 298 287 L 303 286 L 308 280 L 340 227 L 343 219 L 342 216 L 300 193 L 294 193 L 297 183 L 296 179 L 289 173 L 285 172 Z M 176 218 L 69 280 L 66 283 L 66 295 L 71 298 L 179 236 L 181 234 L 181 220 L 176 218 Z M 162 275 L 68 329 L 66 331 L 66 344 L 70 346 L 73 346 L 167 292 L 168 290 L 168 278 L 162 275 Z M 149 331 L 69 377 L 66 380 L 66 392 L 71 395 L 152 349 L 153 348 L 153 333 Q 150 334 149 331 Z M 176 364 L 68 426 L 66 428 L 66 441 L 71 444 L 179 382 L 181 380 L 181 366 L 176 364 Z " /><path fill="rgb(232,231,229)" stroke="rgb(232,231,229)" stroke-width="1" opacity="0.996078431372549" d="M 436.5 81 L 437 94.5 L 436 94.5 L 436.5 81 Z " /><path fill="rgb(232,231,229)" stroke="rgb(232,231,229)" stroke-width="1" opacity="0.996078431372549" d="M 448.5 82 L 449.5 84 L 448.5 82 Z " /><path fill="rgb(232,231,229)" stroke="rgb(232,231,229)" stroke-width="1" opacity="0.996078431372549" d="M 448.5 86 L 447.5 88 L 448.5 86 Z " /><path fill="rgb(232,231,229)" stroke="rgb(232,231,229)" stroke-width="1" opacity="0.996078431372549" d="M 422.5 88 L 422 89.5 L 421.5 92 L 421 89.5 L 422.5 88 Z " /><path fill="rgb(232,231,229)" stroke="rgb(232,231,229)" stroke-width="1" opacity="0.996078431372549" d="M 430.5 91 L 431.5 93 L 430.5 91 Z " /><path fill="rgb(232,231,229)" stroke="rgb(232,231,229)" stroke-width="1" opacity="0.996078431372549" d="M 427.5 92 L 428.5 94 L 427.5 92 Z " /><path fill="rgb(232,231,229)" stroke="rgb(232,231,229)" stroke-width="1" opacity="0.996078431372549" d="M 386.5 109 L 389 110.5 L 387.5 110 L 386.5 109 Z " /><path fill="rgb(232,231,229)" stroke="rgb(232,231,229)" stroke-width="1" opacity="0.996078431372549" d="M 398.5 110 L 397.5 112 L 398.5 110 Z " /><path fill="rgb(232,231,229)" stroke="rgb(232,231,229)" stroke-width="1" opacity="0.996078431372549" d="M 379.5 114 L 378.5 116 L 379.5 114 Z " /><path fill="rgb(232,231,229)" stroke="rgb(232,231,229)" stroke-width="1" opacity="0.996078431372549" d="M 386.5 117 L 387 120.5 L 386 120.5 L 386.5 117 Z " /><path fill="rgb(232,231,229)" stroke="rgb(232,231,229)" stroke-width="1" opacity="0.996078431372549" d="M 372.5 119 L 373.5 121 L 372.5 119 Z " /><path fill="rgb(232,231,229)" stroke="rgb(232,231,229)" stroke-width="1" opacity="0.996078431372549" d="M 371.5 124 L 372 126.5 L 371 126.5 L 371.5 124 Z " /><path fill="rgb(232,231,229)" stroke="rgb(232,231,229)" stroke-width="1" opacity="0.996078431372549" d="M 360.5 135 L 361.5 137 L 360.5 135 Z " /><path fill="rgb(232,231,229)" stroke="rgb(232,231,229)" stroke-width="1" opacity="0.996078431372549" d="M 184.5 140 Q 188.3 139.3 189 141.5 Q 189.8 143.8 187.5 143 L 141.5 170 L 138 167.5 L 182.5 141 L 184.5 142 L 184.5 140 Z " /><path fill="rgb(232,231,229)" stroke="rgb(232,231,229)" stroke-width="1" opacity="0.996078431372549" d="M 73.5 204 L 78 206.5 Q 71 210 71.5 221 L 68 218.5 L 67 214.5 Q 68.1 207.1 73.5 204 Z " /><path fill="rgb(57,57,57)" stroke="rgb(57,57,57)" stroke-width="1" opacity="0.9882352941176471" d="M 307.5 21 L 314.5 21 L 322.5 25 L 346.5 39 L 354 45.5 L 357 53.5 L 357 71 L 60.5 242 L 42.5 251 L 11 233 L 11 215.5 L 13 206.5 Q 18.3 191.8 28.5 182 L 41.5 173 L 150.5 110 L 294.5 27 L 307.5 21 Z M 316 62 L 314 63 L 306 72 L 305 82 Q 308 86 314 87 L 319 86 Q 325 82 327 73 L 326 68 L 321 63 L 316 62 Z M 287 79 L 285 80 Q 279 84 276 92 Q 275 98 277 100 L 282 102 L 281 101 Q 280 91 284 88 Q 287 83 293 82 Q 292 78 287 79 Z M 257 96 L 255 97 Q 249 101 247 108 Q 246 114 248 117 L 257 121 L 262 119 Q 267 115 269 108 L 268 101 L 262 96 L 257 96 Z M 186 139 L 74 203 L 67 212 L 67 219 L 74 223 Q 80 224 83 221 L 188 160 Q 195 156 195 146 L 186 139 Z " /><path fill="rgb(228,82,82)" stroke="rgb(228,82,82)" stroke-width="1" opacity="1" d="M 283.5 173 L 287.5 173 L 296 178.5 L 296 185.5 L 293 193.5 L 294.5 194 L 298.5 193 L 336.5 212 L 342 216.5 L 342 221.5 L 339 227.5 L 307 280.5 L 301.5 286 L 298.5 287 L 289 282 Q 287.4 279.9 288 274.5 L 318 225.5 L 318 223 L 289 209 L 256 325.5 L 255 332.5 Q 253.8 339.3 249.5 343 Q 248.1 345.6 243.5 345 L 234 338.5 L 234 332.5 L 237 323.5 L 234.5 325 L 230.5 325 L 215.5 318 L 195.5 308 L 187 301.5 L 187 296.5 L 190 290.5 L 222 237.5 L 227.5 232 L 231.5 232 L 241 238.5 L 241 243.5 L 238 249.5 L 214 287.5 L 211 294.5 L 240.5 310 L 274 192.5 L 275 185.5 L 278 177.5 L 281.5 174 L 283.5 173 Z " /><path fill="rgb(254,214,81)" stroke="rgb(254,214,81)" stroke-width="1" opacity="0.9372549019607843" d="M 257.5 96 L 263 97.5 L 259.5 99 L 257.5 96 Z " /><path fill="rgb(254,214,81)" stroke="rgb(254,214,81)" stroke-width="1" opacity="0.9372549019607843" d="M 374.5 244 L 381.5 246 L 391 252.5 L 365.5 268 L 362.5 268 L 350 261 L 351.5 258 L 374.5 244 Z " /><path fill="rgb(254,214,81)" stroke="rgb(254,214,81)" stroke-width="1" opacity="0.9372549019607843" d="M 429.5 248 L 433 250.5 L 431.5 250 L 429.5 248 Z " /><path fill="rgb(254,214,81)" stroke="rgb(254,214,81)" stroke-width="1" opacity="0.9372549019607843" d="M 311.5 300 L 327.5 303 L 341 311.5 L 339.5 311 L 325 309 L 308 341 L 303.5 340 L 292 332.5 L 311.5 300 Z " /><path fill="rgb(254,214,81)" stroke="rgb(254,214,81)" stroke-width="1" opacity="0.9372549019607843" d="M 376.5 310 L 384.5 311 L 399 319.5 L 396.5 320 Q 394.8 317.3 388.5 319 L 376.5 323 L 368 318 L 370.5 314 L 376.5 310 Z " /><path fill="rgb(254,214,81)" stroke="rgb(254,214,81)" stroke-width="1" opacity="0.9372549019607843" d="M 440.5 368 L 441.5 370 L 440.5 368 Z " /><path fill="rgb(254,214,81)" stroke="rgb(254,214,81)" stroke-width="1" opacity="0.9372549019607843" d="M 276 386 L 291 394.5 Q 289.3 400.7 292 402.5 L 291 405.5 Q 293.2 406.8 292 411.5 L 292 413.5 L 292 424.5 L 293 425.5 L 290.5 426 L 276 416.5 L 276 386 Z " /><path fill="rgb(254,214,81)" stroke="rgb(254,214,81)" stroke-width="1" opacity="0.9372549019607843" d="M 336.5 387 L 337.5 389 L 336.5 387 Z " /><path fill="rgb(254,214,81)" stroke="rgb(254,214,81)" stroke-width="1" opacity="0.9372549019607843" d="M 406.5 418 L 405.5 420 L 406.5 418 Z " /><path fill="rgb(254,214,81)" stroke="rgb(254,214,81)" stroke-width="1" opacity="0.9372549019607843" d="M 403.5 421 L 401.5 424 L 403.5 421 Z " /><path fill="rgb(207,161,58)" stroke="rgb(207,161,58)" stroke-width="1" opacity="0.9450980392156862" d="M 254.5 97 L 250.5 102 L 254.5 97 Z " /><path fill="rgb(207,161,58)" stroke="rgb(207,161,58)" stroke-width="1" opacity="0.9450980392156862" d="M 263.5 97 L 268 100.5 L 269 107.5 Q 267.2 115.2 261.5 119 L 256.5 121 L 250 117.5 L 252 117.5 L 252 109.5 L 259 99.5 L 258.5 98 L 263 99 L 263.5 97 Z " /><path fill="rgb(207,161,58)" stroke="rgb(207,161,58)" stroke-width="1" opacity="0.9450980392156862" d="M 413 240 Q 416.8 238.5 416 241.5 L 413 242.5 L 401 260.5 L 414 268.5 L 402.5 269 L 394 271 L 392 260.5 L 400 260 L 413 240 Z " /><path fill="rgb(207,161,58)" stroke="rgb(207,161,58)" stroke-width="1" opacity="0.9450980392156862" d="M 419.5 243 L 423 245.5 L 421.5 245 L 419.5 243 Z " /><path fill="rgb(207,161,58)" stroke="rgb(207,161,58)" stroke-width="1" opacity="0.9450980392156862" d="M 426.5 247 L 427.5 249 L 426.5 247 Z " /><path fill="rgb(207,161,58)" stroke="rgb(207,161,58)" stroke-width="1" opacity="0.9450980392156862" d="M 345.5 284 L 357.5 291 L 360 291 L 356.5 296 L 354 297.5 L 342.5 311 L 328 302.5 L 345.5 284 Z " /><path fill="rgb(207,161,58)" stroke="rgb(207,161,58)" stroke-width="1" opacity="0.9450980392156862" d="M 448.5 285 L 449 287 L 443.5 288 L 443.5 287 L 448.5 285 Z " /><path fill="rgb(207,161,58)" stroke="rgb(207,161,58)" stroke-width="1" opacity="0.9450980392156862" d="M 450.5 286 L 464 293.5 L 462 294.5 Q 462.8 292.3 460.5 293 L 451.5 288 L 450.5 286 Z " /><path fill="rgb(207,161,58)" stroke="rgb(207,161,58)" stroke-width="1" opacity="0.9450980392156862" d="M 400.5 304 Q 411.4 305.6 416 313.5 Q 423.5 324 421 344.5 Q 413.5 379.5 391.5 400 L 372.5 413 L 362.5 416 L 353.5 416 Q 345.3 414.2 341 408.5 Q 340.5 405.5 347.5 407 Q 356.5 405.5 362.5 401 L 370.5 400 L 377.5 397 L 393 383.5 Q 402.1 373.1 407 358.5 L 409 350.5 L 409 333.5 L 406 327.5 L 405 314.5 L 400.5 304 Z " /><path fill="rgb(207,161,58)" stroke="rgb(207,161,58)" stroke-width="1" opacity="0.9450980392156862" d="M 375.5 322 L 376.5 324 L 375.5 322 Z " /><path fill="rgb(207,161,58)" stroke="rgb(207,161,58)" stroke-width="1" opacity="0.9450980392156862" d="M 365.5 332 L 364.5 334 L 365.5 332 Z " /><path fill="rgb(207,161,58)" stroke="rgb(207,161,58)" stroke-width="1" opacity="0.9450980392156862" d="M 360.5 338 L 359.5 340 L 360.5 338 Z " /><path fill="rgb(207,161,58)" stroke="rgb(207,161,58)" stroke-width="1" opacity="0.9450980392156862" d="M 303 347 L 312.5 350 L 312.5 348 L 318 353.5 L 318 356.5 Q 313.2 365.2 312 377.5 L 310.5 379 L 310 377 L 296.5 370 L 277.5 385 L 278.5 383 L 294 372 L 294 370 Q 296.7 371.1 296 368.5 L 299 356.5 L 303 347 Z " /><path fill="rgb(207,161,58)" stroke="rgb(207,161,58)" stroke-width="1" opacity="0.9450980392156862" d="M 307.5 380 L 305.5 383 L 307.5 380 Z " /><path fill="rgb(207,161,58)" stroke="rgb(207,161,58)" stroke-width="1" opacity="0.9450980392156862" d="M 334.5 383 L 339.5 389 L 348.5 394 L 350 393.5 L 349.5 395 L 352 396.5 L 350.5 396 Q 339.9 392.6 334 384.5 L 334.5 383 Z " /><path fill="rgb(207,161,58)" stroke="rgb(207,161,58)" stroke-width="1" opacity="0.9450980392156862" d="M 302.5 384 L 300.5 387 L 302.5 384 Z " /><path fill="rgb(207,161,58)" stroke="rgb(207,161,58)" stroke-width="1" opacity="0.9450980392156862" d="M 297.5 388 L 295.5 391 L 297.5 388 Z " /><path fill="rgb(207,161,58)" stroke="rgb(207,161,58)" stroke-width="1" opacity="0.9450980392156862" d="M 292.5 392 L 291.5 394 L 292.5 392 Z " /><path fill="rgb(207,161,58)" stroke="rgb(207,161,58)" stroke-width="1" opacity="0.9450980392156862" d="M 311.5 418 Q 313.3 427.3 318 433.5 L 316.5 433 L 304.5 426 L 295.5 445 L 295 443.5 L 302 429.5 L 303 424.5 Q 299.3 422.8 302.5 421 L 311.5 418 Z " /><path fill="rgb(207,161,58)" stroke="rgb(207,161,58)" stroke-width="1" opacity="0.9450980392156862" d="M 294.5 446 L 295 447.5 L 293 450.5 L 307 459.5 L 305.5 459 L 292 452 L 294.5 446 Z " /><path fill="rgb(207,161,58)" stroke="rgb(207,161,58)" stroke-width="1" opacity="0.9450980392156862" d="M 348.5 450 Q 348.5 456 351.5 459 L 364 466.5 L 362.5 466 L 349 458.5 L 348.5 450 Z " /><path fill="rgb(236,192,71)" stroke="rgb(236,192,71)" stroke-width="1" opacity="0.984313725490196" d="M 255.5 97 L 258 97.5 L 259 100.5 Q 250.5 104.5 251.5 118 L 248 115.5 L 247 109.5 Q 249.2 101.2 255.5 97 Z " /><path fill="rgb(236,192,71)" stroke="rgb(236,192,71)" stroke-width="1" opacity="0.984313725490196" d="M 414.5 241 L 417 241.5 L 417.5 243 L 419 242.5 L 419.5 244 L 421 243.5 L 420.5 245 L 422.5 244 L 424.5 247 L 426 246.5 L 426.5 248 L 427.5 247 L 430.5 250 L 449 259.5 L 439 281.5 L 443.5 288 L 449 287 L 449.5 285 L 451.5 288 L 457.5 291 L 459 290.5 L 458.5 292 L 462 293 L 462.5 295 L 465 294 L 465 325.5 L 462.5 328 L 448 339.5 Q 445.8 353.8 440 364.5 L 440 368.5 L 449 378.5 L 429.5 412 L 414.5 409 L 405 421 L 403.5 421 L 395 429.5 L 393 447.5 L 390.5 453 L 364.5 467 L 362 466.5 L 362.5 465 L 350 457.5 L 349 450 L 343.5 449 L 326.5 471 L 307 461 L 306.5 459 L 305 459.5 L 305.5 458 L 294.5 452 L 293 452.5 L 294 449.5 L 295 446.5 L 294.5 445 Q 296.8 445.8 296 443.5 L 302 430.5 L 301.5 429 L 303 429.5 L 304.5 426 L 317.5 434 L 318 432.5 Q 312.9 427.1 311.5 418 L 302.5 421 L 300.5 423 L 292 425 L 292 413.5 L 291 412.5 Q 293.2 411.2 292 406.5 L 291 403.5 L 291 401.5 Q 292.8 394.8 289.5 393 L 276 385.5 L 280 383.5 L 279.5 382 Q 281 384.5 282.5 381 L 285 379.5 L 284.5 378 Q 286 380.5 287.5 377 L 290 375.5 L 289.5 374 Q 291 376.5 292.5 373 L 294 372.5 L 293.5 371 Q 295 373.5 296.5 370 L 310 377 L 310.5 379 L 312 377.5 L 318 353.5 L 314.5 350 L 312.5 350 L 303 347 L 303 344.5 L 294 334.5 L 295.5 335 L 305.5 341 L 308 341 L 325 309 L 339.5 311 L 341.5 311 L 345 308.5 L 355.5 296 L 360 292.5 Q 360.8 289.9 357.5 291 L 346 285 L 348 264.5 L 349.5 260 L 361 266 Q 359.6 269.7 365.5 268 L 392 253 L 393 259.5 L 393 261.5 L 394 271 L 402.5 269 L 414 268.5 L 401 260.5 L 408 249.5 L 407.5 248 Q 408.8 250.3 410 247.5 L 411 245.5 L 410.5 244 Q 411.8 246.2 413 243.5 L 414.5 241 Z M 394 304 L 386 306 L 371 314 Q 368 315 368 319 Q 370 317 372 320 Q 374 319 373 322 L 375 321 L 377 324 L 389 319 Q 397 318 402 321 L 406 326 L 409 334 L 409 351 L 407 359 Q 402 373 393 384 L 378 397 L 366 401 Q 357 402 354 398 Q 351 399 352 397 L 350 395 L 348 395 L 348 394 L 340 389 L 336 385 L 334 384 L 336 399 L 341 409 Q 345 414 354 416 L 363 416 L 373 413 L 392 400 Q 414 380 421 345 Q 424 324 416 314 Q 411 303 394 304 Z " /><path fill="rgb(236,192,71)" stroke="rgb(236,192,71)" stroke-width="1" opacity="0.984313725490196" d="M 187.5 302 L 188.5 304 L 187.5 302 Z " /><path fill="rgb(201,200,199)" stroke="rgb(201,200,199)" stroke-width="1" opacity="0.984313725490196" d="M 487.5 49 L 490 49.5 L 482 55.5 L 480 63.5 L 481 65.5 L 479 64.5 Q 478.1 53.1 485.5 50 L 487.5 49 Z " /><path fill="rgb(201,200,199)" stroke="rgb(201,200,199)" stroke-width="1" opacity="0.984313725490196" d="M 489.5 52 L 492 52.5 L 489.5 53 L 489.5 52 Z " /><path fill="rgb(201,200,199)" stroke="rgb(201,200,199)" stroke-width="1" opacity="0.984313725490196" d="M 491.5 54 L 492 55.5 L 489.5 60 L 489 57.5 L 491.5 54 Z " /><path fill="rgb(201,200,199)" stroke="rgb(201,200,199)" stroke-width="1" opacity="0.984313725490196" d="M 475.5 56 L 478 57.5 L 477.5 63 L 476.5 57 L 475 58.5 L 475 67 L 473 66.5 L 473 58.5 L 475.5 56 Z " /><path fill="rgb(201,200,199)" stroke="rgb(201,200,199)" stroke-width="1" opacity="0.984313725490196" d="M 488.5 61 L 490 61.5 Q 489.3 64.8 484.5 64 L 483.5 62 L 485.5 63 L 488.5 61 Z " /><path fill="rgb(201,200,199)" stroke="rgb(201,200,199)" stroke-width="1" opacity="0.984313725490196" d="M 464.5 62 L 467 62.5 L 465 64.5 L 464.5 78 L 464 64.5 L 464.5 62 Z " /><path fill="rgb(201,200,199)" stroke="rgb(201,200,199)" stroke-width="1" opacity="0.984313725490196" d="M 315.5 63 L 321 64.5 L 318.5 66 L 315.5 63 Z " /><path fill="rgb(201,200,199)" stroke="rgb(201,200,199)" stroke-width="1" opacity="0.984313725490196" d="M 459.5 65 L 461 65.5 L 459 67.5 L 459 81.5 L 459.5 83 L 457 82 L 457 67.5 L 459.5 65 Z " /><path fill="rgb(201,200,199)" stroke="rgb(201,200,199)" stroke-width="1" opacity="0.984313725490196" d="M 452.5 69 L 455 69.5 L 452 70.5 L 452 72.5 L 447.5 83 L 445.5 80 Q 446.8 82.3 448 79.5 L 452.5 69 Z " /><path fill="rgb(201,200,199)" stroke="rgb(201,200,199)" stroke-width="1" opacity="0.984313725490196" d="M 470.5 69 L 471.5 71 L 470.5 69 Z " /><path fill="rgb(201,200,199)" stroke="rgb(201,200,199)" stroke-width="1" opacity="0.984313725490196" d="M 403.5 70 L 415 76 Q 416.1 78.7 413.5 78 L 322.5 131 L 310 123.5 L 340 107 L 340.5 105 L 342 105.5 L 342.5 104 Q 344 106.5 345.5 103 Q 347.8 103.8 347 101.5 L 349 101.5 L 349.5 100 Q 350.8 102.3 352 99.5 L 352.5 98 L 354 98.5 L 354.5 97 L 356.5 97 L 403.5 70 Z " /><path fill="rgb(201,200,199)" stroke="rgb(201,200,199)" stroke-width="1" opacity="0.984313725490196" d="M 440 76 L 442 76.5 L 440 78.5 L 439.5 93 L 439 78.5 L 440 76 Z " /><path fill="rgb(201,200,199)" stroke="rgb(201,200,199)" stroke-width="1" opacity="0.984313725490196" d="M 452.5 78 L 453 86 Q 449 87.4 451 80.5 L 452.5 78 Z " /><path fill="rgb(201,200,199)" stroke="rgb(201,200,199)" stroke-width="1" opacity="0.984313725490196" d="M 305.5 79 L 309 81.5 L 310 83.5 L 308.5 84 L 305.5 79 Z " /><path fill="rgb(201,200,199)" stroke="rgb(201,200,199)" stroke-width="1" opacity="0.984313725490196" d="M 433.5 80 L 437 80.5 L 434 81 L 429.5 94 L 428 91.5 L 433.5 80 Z " /><path fill="rgb(201,200,199)" stroke="rgb(201,200,199)" stroke-width="1" opacity="0.984313725490196" d="M 443.5 83 L 444.5 85 L 443.5 83 Z " /><path fill="rgb(201,200,199)" stroke="rgb(201,200,199)" stroke-width="1" opacity="0.984313725490196" d="M 421 87 L 424 87.5 L 421 89.5 L 422 104 L 420 103.5 L 420 89.5 L 421 87 Z " /><path fill="rgb(201,200,199)" stroke="rgb(201,200,199)" stroke-width="1" opacity="0.984313725490196" d="M 433.5 89 L 434 96.5 L 433 96.5 L 431 93.5 L 433.5 89 Z " /><path fill="rgb(201,200,199)" stroke="rgb(201,200,199)" stroke-width="1" opacity="0.984313725490196" d="M 410.5 93 L 414 93.5 L 410 96.5 L 405 112.5 L 405.5 114 L 403 112.5 L 409 95 L 411 94.5 L 410.5 93 Z " /><path fill="rgb(201,200,199)" stroke="rgb(201,200,199)" stroke-width="1" opacity="0.984313725490196" d="M 424.5 94 L 428.5 99 L 424.5 94 Z " /><path fill="rgb(201,200,199)" stroke="rgb(201,200,199)" stroke-width="1" opacity="0.984313725490196" d="M 412.5 98 L 414 100.5 L 412.5 100 L 411 99.5 L 412.5 98 Z " /><path fill="rgb(201,200,199)" stroke="rgb(201,200,199)" stroke-width="1" opacity="0.984313725490196" d="M 397.5 101 L 400 101.5 L 395 103 L 394.5 105 L 393 104.5 L 392 106.5 L 391.5 121 L 391 106.5 L 391.5 104 L 397.5 101 Z " /><path fill="rgb(201,200,199)" stroke="rgb(201,200,199)" stroke-width="1" opacity="0.984313725490196" d="M 412.5 102 L 414 102.5 L 410.5 105 L 410 103 L 412.5 102 Z " /><path fill="rgb(201,200,199)" stroke="rgb(201,200,199)" stroke-width="1" opacity="0.984313725490196" d="M 399 105 Q 402.3 103.9 401 108 L 399 108.5 L 399.5 110 L 397 109.5 Q 399.8 108.4 399 105 Z " /><path fill="rgb(201,200,199)" stroke="rgb(201,200,199)" stroke-width="1" opacity="0.984313725490196" d="M 383.5 109 L 386 109.5 L 378 115.5 Q 375.4 118.4 376 124.5 L 376.5 126 L 374 122.5 L 376 115.5 L 381.5 110 L 383.5 109 Z " /><path fill="rgb(201,200,199)" stroke="rgb(201,200,199)" stroke-width="1" opacity="0.984313725490196" d="M 395.5 110 L 396.5 112 Q 393.7 112.7 395.5 110 Z " /><path fill="rgb(201,200,199)" stroke="rgb(201,200,199)" stroke-width="1" opacity="0.984313725490196" d="M 386 115 L 389 115.5 L 386 117.5 Q 387 123 383.5 124 L 380 123.5 L 385 120.5 L 386 115 Z " /><path fill="rgb(201,200,199)" stroke="rgb(201,200,199)" stroke-width="1" opacity="0.984313725490196" d="M 367.5 118 L 371 118.5 Q 364.6 119.6 362 124.5 Q 359 128 359.5 135 Q 355.3 133.3 358 131.5 L 357 129.5 L 359 129 Q 359.4 121.9 365.5 119 L 367.5 118 Z " /><path fill="rgb(201,200,199)" stroke="rgb(201,200,199)" stroke-width="1" opacity="0.984313725490196" d="M 369.5 122 Q 372.3 123.3 371 128.5 L 367.5 133 L 364.5 134 L 365.5 132 L 368 130.5 Q 370.8 128.8 370 123.5 L 369.5 122 Z " /><path fill="rgb(201,200,199)" stroke="rgb(201,200,199)" stroke-width="1" opacity="0.984313725490196" d="M 352 127 L 355 127.5 L 352.5 129 L 352 127 Z " /><path fill="rgb(201,200,199)" stroke="rgb(201,200,199)" stroke-width="1" opacity="0.984313725490196" d="M 350.5 128 L 351 130 L 346 132 L 345.5 147 L 345 131.5 L 350.5 128 Z " /><path fill="rgb(201,200,199)" stroke="rgb(201,200,199)" stroke-width="1" opacity="0.984313725490196" d="M 352.5 131 L 355 132.5 L 351.5 138 L 349.5 139 L 349 137 L 353 134.5 L 352.5 131 Z " /><path fill="rgb(201,200,199)" stroke="rgb(201,200,199)" stroke-width="1" opacity="0.984313725490196" d="M 338.5 135 L 340 135.5 L 331 140.5 L 332 141.5 L 332 155.5 L 331 155.5 L 330 140.5 L 338.5 135 Z " /><path fill="rgb(201,200,199)" stroke="rgb(201,200,199)" stroke-width="1" opacity="0.984313725490196" d="M 343.5 138 L 344 140.5 L 343 140.5 L 343.5 138 Z " /><path fill="rgb(201,200,199)" stroke="rgb(201,200,199)" stroke-width="1" opacity="0.984313725490196" d="M 355.5 138 L 357.5 141 L 355.5 138 Z " /><path fill="rgb(201,200,199)" stroke="rgb(201,200,199)" stroke-width="1" opacity="0.984313725490196" d="M 339.5 139 L 341 141.5 L 337.5 146 L 335.5 147 L 335 145 L 339 142.5 L 339.5 139 Z " /><path fill="rgb(201,200,199)" stroke="rgb(201,200,199)" stroke-width="1" opacity="0.984313725490196" d="M 183.5 140 L 189 143 L 189.5 141 L 194 144.5 L 194 151.5 L 188.5 159 L 83.5 220 L 77.5 223 L 74.5 223 L 72 222 Q 70.3 210.2 78 206.5 L 74 203.5 L 138.5 166 L 138.5 168 L 141.5 170 L 187 143.5 L 183 142 L 183.5 140 Z " /><path fill="rgb(201,200,199)" stroke="rgb(201,200,199)" stroke-width="1" opacity="0.984313725490196" d="M 351.5 140 L 354 141.5 L 352.5 141 L 351.5 140 Z " /><path fill="rgb(201,200,199)" stroke="rgb(201,200,199)" stroke-width="1" opacity="0.984313725490196" d="M 284.5 172 L 287 172.5 L 284.5 173 L 284.5 172 Z " /><path fill="rgb(201,200,199)" stroke="rgb(201,200,199)" stroke-width="1" opacity="0.984313725490196" d="M 280.5 174 L 279.5 176 L 280.5 174 Z " /><path fill="rgb(201,200,199)" stroke="rgb(201,200,199)" stroke-width="1" opacity="0.984313725490196" d="M 296.5 180 L 297 182.5 L 296 182.5 L 296.5 180 Z " /><path fill="rgb(201,200,199)" stroke="rgb(201,200,199)" stroke-width="1" opacity="0.984313725490196" d="M 340.5 214 L 341.5 216 L 340.5 214 Z " /><path fill="rgb(201,200,199)" stroke="rgb(201,200,199)" stroke-width="1" opacity="0.984313725490196" d="M 175.5 218 L 181 220 L 181 233.5 L 178.5 236 L 70.5 298 L 66 294.5 L 66 282.5 L 68.5 280 L 175.5 218 Z " /><path fill="rgb(201,200,199)" stroke="rgb(201,200,199)" stroke-width="1" opacity="0.984313725490196" d="M 228.5 231 L 231 231.5 L 228.5 232 L 228.5 231 Z " /><path fill="rgb(201,200,199)" stroke="rgb(201,200,199)" stroke-width="1" opacity="0.984313725490196" d="M 226.5 232 L 223.5 236 L 226.5 232 Z " /><path fill="rgb(201,200,199)" stroke="rgb(201,200,199)" stroke-width="1" opacity="0.984313725490196" d="M 11.5 233 L 44 251.5 L 43 252.5 L 43 359.5 L 44 360.5 L 44 478.5 L 46 484.5 L 49 487.5 L 47.5 488 L 19.5 472 L 14 466.5 L 12 461.5 L 12 421.5 L 11 418.5 L 12 414.5 L 11 409.5 L 12 406.5 L 11 405.5 L 11 318.5 L 12 317.5 L 12 234.5 L 11.5 233 Z " /><path fill="rgb(201,200,199)" stroke="rgb(201,200,199)" stroke-width="1" opacity="0.984313725490196" d="M 239.5 236 L 240.5 238 L 239.5 236 Z " /><path fill="rgb(201,200,199)" stroke="rgb(201,200,199)" stroke-width="1" opacity="0.984313725490196" d="M 235.5 253 L 234.5 255 L 235.5 253 Z " /><path fill="rgb(201,200,199)" stroke="rgb(201,200,199)" stroke-width="1" opacity="0.984313725490196" d="M 161.5 275 L 168 277.5 L 168 289.5 L 167 292 L 72.5 346 L 69.5 346 L 66 343.5 L 66 330.5 L 67.5 329 L 161.5 275 Z " /><path fill="rgb(201,200,199)" stroke="rgb(201,200,199)" stroke-width="1" opacity="0.984313725490196" d="M 305.5 282 L 302.5 286 L 305.5 282 Z " /><path fill="rgb(201,200,199)" stroke="rgb(201,200,199)" stroke-width="1" opacity="0.984313725490196" d="M 345.5 282 L 346 283.5 L 341 287.5 L 345.5 282 Z " /><path fill="rgb(201,200,199)" stroke="rgb(201,200,199)" stroke-width="1" opacity="0.984313725490196" d="M 339.5 289 L 334.5 295 L 339.5 289 Z " /><path fill="rgb(201,200,199)" stroke="rgb(201,200,199)" stroke-width="1" opacity="0.984313725490196" d="M 186.5 298 L 187 300.5 L 186 300.5 L 186.5 298 Z " /><path fill="rgb(201,200,199)" stroke="rgb(201,200,199)" stroke-width="1" opacity="0.984313725490196" d="M 330.5 299 L 329.5 301 L 330.5 299 Z " /><path fill="rgb(201,200,199)" stroke="rgb(201,200,199)" stroke-width="1" opacity="0.984313725490196" d="M 233.5 305 L 234.5 307 L 233.5 305 Z " /><path fill="rgb(201,200,199)" stroke="rgb(201,200,199)" stroke-width="1" opacity="0.984313725490196" d="M 148.5 331 Q 149.6 333.8 153 333 L 153 347.5 L 151.5 349 L 70.5 395 L 66 391.5 L 66 379.5 L 68.5 377 L 148.5 331 Z " /><path fill="rgb(201,200,199)" stroke="rgb(201,200,199)" stroke-width="1" opacity="0.984313725490196" d="M 233.5 334 L 234 337.5 L 233 337.5 L 233.5 334 Z " /><path fill="rgb(201,200,199)" stroke="rgb(201,200,199)" stroke-width="1" opacity="0.984313725490196" d="M 234.5 339 L 235.5 341 L 234.5 339 Z " /><path fill="rgb(201,200,199)" stroke="rgb(201,200,199)" stroke-width="1" opacity="0.984313725490196" d="M 300.5 342 L 302.5 345 L 300.5 342 Z " /><path fill="rgb(201,200,199)" stroke="rgb(201,200,199)" stroke-width="1" opacity="0.984313725490196" d="M 248.5 343 L 247.5 345 L 248.5 343 Z " /><path fill="rgb(201,200,199)" stroke="rgb(201,200,199)" stroke-width="1" opacity="0.984313725490196" d="M 175.5 364 L 181 366 L 181 379.5 L 178.5 382 L 70.5 444 L 66 440.5 L 66 427.5 L 67.5 426 L 175.5 364 Z " /></svg>