<svg width="512" height="512" version="1.1" xmlns="http://www.w3.org/2000/svg" desc="Created with imagetracer.js version 1.2.6" ><path fill="rgb(0,0,0)" stroke="rgb(0,0,0)" stroke-width="1" opacity="0" d="M 0 0 L 512 0 L 512 512 L 0 512 L 0 0 Z M 267 4 L 266 5 L 264 6 L 264 70 L 262 69 L 255 71 L 226 88 L 224 90 L 224 110 L 208 100 L 203 101 L 172 119 L 170 121 L 170 135 L 146 95 L 146 78 L 144 77 L 140 78 L 138 79 L 138 143 L 136 142 L 129 144 L 100 161 L 98 163 L 98 183 L 81 173 L 77 174 L 46 192 L 44 194 L 44 209 L 20 169 L 20 151 L 18 150 L 12 151 L 12 235 L 11 236 L 12 238 L 12 285 L 11 286 L 12 288 L 11 290 L 11 354 L 17 356 L 19 354 L 19 338 L 61 361 L 66 369 L 66 385 L 70 387 Q 71 389 73 386 L 74 386 L 74 365 L 191 298 L 192 299 L 192 313 L 197 315 L 199 314 L 200 313 L 200 292 L 317 225 L 318 226 L 318 234 L 271 262 L 265 264 L 256 276 L 256 352 L 242 361 L 240 362 L 240 370 L 190 399 L 188 400 L 188 469 L 193 472 L 198 470 L 199 469 L 199 434 L 200 433 L 199 432 L 199 419 L 253 449 L 254 451 L 254 505 L 259 508 Q 263 509 265 506 L 266 505 L 266 450 L 334 411 L 348 418 L 352 417 L 421 376 L 422 376 L 422 361 L 489 321 L 489 368 L 495 371 L 500 368 L 500 361 L 501 360 L 500 358 L 501 357 L 501 303 L 429 260 L 422 264 L 416 260 L 412 262 L 407 261 L 341 222 L 327 229 L 327 228 L 326 224 L 327 223 L 327 38 L 324 35 L 321 36 L 319 38 L 319 54 L 298 65 L 272 22 L 272 5 L 267 4 Z M 119 364 L 40 409 L 38 411 L 38 447 L 80 471 L 83 471 L 96 463 L 96 482 L 138 506 L 143 505 L 179 484 L 181 482 L 181 446 L 154 430 L 160 426 L 161 426 L 161 388 L 119 364 Z " /><path fill="rgb(0,0,0)" stroke="rgb(0,0,0)" stroke-width="1" opacity="0" d="M 272.5 38 L 290 69.5 L 277.5 77 L 274.5 77 L 272 76 L 272.5 38 Z " /><path fill="rgb(0,0,0)" stroke="rgb(0,0,0)" stroke-width="1" opacity="0" d="M 318.5 60 L 319 101.5 L 318 101.5 L 300 70.5 L 318.5 60 Z " /><path fill="rgb(0,0,0)" stroke="rgb(0,0,0)" stroke-width="1" opacity="0" d="M 292.5 75 L 295 76.5 L 319 118.5 L 317.5 119 L 296 105.5 L 295 88 L 283 82 Q 281.9 79.3 284.5 80 L 292.5 75 Z " /><path fill="rgb(0,0,0)" stroke="rgb(0,0,0)" stroke-width="1" opacity="0" d="M 146.5 112 L 164 143 L 151.5 150 L 148.5 150 L 146 149 L 146.5 112 Z " /><path fill="rgb(0,0,0)" stroke="rgb(0,0,0)" stroke-width="1" opacity="0" d="M 317.5 131 L 319 131.5 L 319 157.5 L 302.5 168 L 296 170 L 292 160.5 L 285 150.5 L 317.5 131 Z " /><path fill="rgb(0,0,0)" stroke="rgb(0,0,0)" stroke-width="1" opacity="0" d="M 277.5 154 Q 279.8 153.3 279 155.5 L 290 174.5 L 275.5 183 L 272 181 L 272 157.5 L 273.5 157 L 277.5 154 Z " /><path fill="rgb(0,0,0)" stroke="rgb(0,0,0)" stroke-width="1" opacity="0" d="M 263.5 162 L 264 175.5 L 261.5 174 L 253.5 171 L 201.5 202 L 201 198 L 263.5 162 Z " /><path fill="rgb(0,0,0)" stroke="rgb(0,0,0)" stroke-width="1" opacity="0" d="M 318.5 165 L 319 191.5 L 319 193.5 L 317.5 206 L 300 175 L 318.5 165 Z " /><path fill="rgb(0,0,0)" stroke="rgb(0,0,0)" stroke-width="1" opacity="0" d="M 291.5 180 Q 294.8 178.9 294 181.5 L 309 206.5 L 307.5 206 L 288 194.5 Q 289.3 188.4 286.5 189 L 282 186.5 L 291.5 180 Z " /><path fill="rgb(0,0,0)" stroke="rgb(0,0,0)" stroke-width="1" opacity="0" d="M 20.5 185 L 38 215.5 L 20.5 226 L 20.5 185 Z " /><path fill="rgb(0,0,0)" stroke="rgb(0,0,0)" stroke-width="1" opacity="0" d="M 191.5 204 L 192 208 Q 184.3 209.9 179 215.5 L 179 229.5 L 177.5 231 L 167.5 237 L 159 223.5 L 191.5 204 Z " /><path fill="rgb(0,0,0)" stroke="rgb(0,0,0)" stroke-width="1" opacity="0" d="M 151.5 227 L 160 240.5 L 146.5 249 L 146 230 L 151.5 227 Z " /><path fill="rgb(0,0,0)" stroke="rgb(0,0,0)" stroke-width="1" opacity="0" d="M 136.5 236 L 137 248 L 127.5 244 L 75.5 275 L 75 271 L 136.5 236 Z " /><path fill="rgb(0,0,0)" stroke="rgb(0,0,0)" stroke-width="1" opacity="0" d="M 20 245 L 56.5 265 L 67 272.5 L 66 279.5 L 63.5 282 L 53 287 L 53 302.5 L 51.5 304 L 41.5 310 L 20 274.5 L 20 245 Z " /><path fill="rgb(0,0,0)" stroke="rgb(0,0,0)" stroke-width="1" opacity="0" d="M 20.5 290 L 34 313.5 L 20.5 322 L 19 317.5 L 20 316.5 L 20.5 290 Z " /><path fill="rgb(236,170,65)" stroke="rgb(236,170,65)" stroke-width="1" opacity="0.9882352941176471" d="M 244.5 78 L 278 97 Q 277.3 100.1 280 99.5 L 280 113 L 275 115 L 275 101.5 L 276 100.5 L 241 80.5 L 244.5 78 Z " /><path fill="rgb(236,170,65)" stroke="rgb(236,170,65)" stroke-width="1" opacity="0.9882352941176471" d="M 224 90 L 259 109 L 258.5 147 L 241 136.5 L 242 133.5 L 241 130.5 L 244 129.5 Q 244.5 125.5 241.5 125 L 240.5 128 L 240 125.5 L 241 120.5 L 224 109.5 L 224 90 Z M 229 97 L 228 102 L 229 104 L 228 109 L 255 125 L 256 125 L 256 113 L 233 98 L 229 97 Z M 249 130 L 247 138 L 249 138 L 249 130 Z M 252 132 L 251 134 L 253 135 L 252 132 Z " /><path fill="rgb(236,170,65)" stroke="rgb(236,170,65)" stroke-width="1" opacity="0.9882352941176471" d="M 189.5 110 L 193 111.5 L 192.5 115 L 187 111.5 L 189.5 110 Z " /><path fill="rgb(236,170,65)" stroke="rgb(236,170,65)" stroke-width="1" opacity="0.9882352941176471" d="M 201 116 L 226 130.5 L 226 143.5 L 224.5 145 L 221 146 L 221 132.5 L 222 131.5 L 201 119.5 L 201 116 Z " /><path fill="rgb(236,170,65)" stroke="rgb(236,170,65)" stroke-width="1" opacity="0.9882352941176471" d="M 170 121 L 186 130.5 L 182.5 132 L 176.5 128 L 174 128 L 174 135.5 L 175 136.5 L 171.5 139 L 170 136.5 L 170 121 Z " /><path fill="rgb(236,170,65)" stroke="rgb(236,170,65)" stroke-width="1" opacity="0.9882352941176471" d="M 190.5 134 Q 194.7 132.7 193 137.5 L 191.5 137 L 188 135.5 L 190.5 134 Z " /><path fill="rgb(236,170,65)" stroke="rgb(236,170,65)" stroke-width="1" opacity="0.9882352941176471" d="M 201.5 139 L 205 141.5 L 205 177.5 L 203.5 178 L 200 175.5 L 201 168.5 L 201 166.5 L 202 143.5 L 201.5 139 Z " /><path fill="rgb(236,170,65)" stroke="rgb(236,170,65)" stroke-width="1" opacity="0.9882352941176471" d="M 176.5 142 L 193 151 L 192.5 172 L 188 168.5 L 174 143 L 176.5 142 Z M 186 156 L 187 162 Q 191 163 189 158 L 186 156 Z " /><path fill="rgb(236,170,65)" stroke="rgb(236,170,65)" stroke-width="1" opacity="0.9882352941176471" d="M 118.5 151 L 152 170 Q 151.3 173.1 154 172.5 L 154 186 L 149 188 L 149 174.5 L 150 173.5 L 115 153.5 L 118.5 151 Z " /><path fill="rgb(236,170,65)" stroke="rgb(236,170,65)" stroke-width="1" opacity="0.9882352941176471" d="M 171.5 155 L 175 160.5 L 173.5 160 L 171 158.5 L 171.5 155 Z " /><path fill="rgb(236,170,65)" stroke="rgb(236,170,65)" stroke-width="1" opacity="0.9882352941176471" d="M 98 163 L 133 183.5 L 133 219.5 L 131.5 220 L 115 209.5 L 116 206.5 L 115 204 Q 118.7 205.3 117 199.5 L 115 198.5 L 114.5 203 L 114 197.5 L 115 193.5 L 98 182.5 L 98 163 Z M 102 170 L 102 183 L 129 198 L 130 198 L 130 186 L 107 171 L 102 170 Z M 123 203 L 121 205 L 122 209 L 123 209 L 123 203 Z M 126 205 L 125 207 L 127 208 L 126 205 Z M 126 208 L 125 211 L 126 211 L 126 208 Z " /><path fill="rgb(236,170,65)" stroke="rgb(236,170,65)" stroke-width="1" opacity="0.9882352941176471" d="M 269.5 180 Q 273.3 178.8 272 182.5 L 201 224.5 L 200.5 226 L 200 204.5 L 201 204.5 L 201.5 220 L 269.5 180 Z " /><path fill="rgb(236,170,65)" stroke="rgb(236,170,65)" stroke-width="1" opacity="0.9882352941176471" d="M 63.5 183 L 67 184.5 L 66.5 188 L 61 184.5 L 63.5 183 Z " /><path fill="rgb(236,170,65)" stroke="rgb(236,170,65)" stroke-width="1" opacity="0.9882352941176471" d="M 74.5 184 Q 73.9 188.6 76.5 190 L 99 202 L 99 217.5 L 97.5 218 L 95 219 L 95 205.5 L 96 204.5 L 75.5 193 L 75 211.5 L 79 214.5 L 79 250.5 L 77.5 251 L 74 248.5 L 74 229.5 L 76 228.5 L 76 216 L 74 215.5 L 74.5 184 Z " /><path fill="rgb(236,170,65)" stroke="rgb(236,170,65)" stroke-width="1" opacity="0.9882352941176471" d="M 287.5 191 L 288 214.5 L 288 216.5 Q 285.7 219.7 287 226.5 L 285.5 228 L 213.5 270 L 213 234 L 287.5 191 Z M 281 199 L 256 214 L 257 226 L 282 211 L 282 200 L 281 199 Z M 279 215 L 275 218 L 275 222 Q 278 223 278 227 L 279 222 L 279 215 Z M 270 221 L 268 224 L 270 230 L 271 224 L 270 221 Z M 265 224 L 265 233 L 266 227 L 265 224 Z M 267 232 L 266 234 L 268 233 L 267 232 Z " /><path fill="rgb(236,170,65)" stroke="rgb(236,170,65)" stroke-width="1" opacity="0.9882352941176471" d="M 44.5 194 L 60 203.5 L 56.5 205 L 48 201 L 48 210.5 L 46.5 211 Q 45.3 213.3 44 210.5 L 44.5 194 Z " /><path fill="rgb(236,170,65)" stroke="rgb(236,170,65)" stroke-width="1" opacity="0.9882352941176471" d="M 65.5 206 Q 67.8 206.8 67 210.5 L 65.5 210 L 62 208.5 L 65.5 206 Z " /><path fill="rgb(236,170,65)" stroke="rgb(236,170,65)" stroke-width="1" opacity="0.9882352941176471" d="M 192.5 208 L 193 230.5 L 192 230.5 L 192.5 208 Z " /><path fill="rgb(236,170,65)" stroke="rgb(236,170,65)" stroke-width="1" opacity="0.9882352941176471" d="M 49.5 215 L 67 224 L 66.5 245 L 61 240.5 L 48 216.5 L 49.5 215 Z M 61 229 L 61 235 L 63 235 L 63 230 L 61 229 Z " /><path fill="rgb(236,170,65)" stroke="rgb(236,170,65)" stroke-width="1" opacity="0.9882352941176471" d="M 45.5 227 L 50 234.5 L 47.5 233 L 45 231.5 L 45.5 227 Z " /><path fill="rgb(236,170,65)" stroke="rgb(236,170,65)" stroke-width="1" opacity="0.9882352941176471" d="M 200.5 227 L 201 262.5 L 200 262.5 L 200.5 227 Z " /><path fill="rgb(236,170,65)" stroke="rgb(236,170,65)" stroke-width="1" opacity="0.9882352941176471" d="M 192.5 238 L 193 257.5 L 192 257.5 L 192.5 238 Z " /><path fill="rgb(236,170,65)" stroke="rgb(236,170,65)" stroke-width="1" opacity="0.9882352941176471" d="M 142.5 252 L 146 254.5 Q 146.8 256.8 144.5 256 L 74 297 Q 73 293.2 75.5 292 L 143 253.5 L 142.5 252 Z " /><path fill="rgb(236,170,65)" stroke="rgb(236,170,65)" stroke-width="1" opacity="0.9882352941176471" d="M 159.5 265 Q 162.1 264.2 161 267.5 L 161 269.5 L 161 299.5 L 159.5 301 L 87 342 L 87 307.5 L 88.5 307 L 159.5 265 Z M 155 272 L 130 287 L 131 299 L 156 284 L 156 273 L 155 272 Z M 153 288 L 149 291 L 149 295 Q 152 296 152 300 L 153 294 L 153 288 Z M 144 294 L 142 297 L 143 303 L 144 303 L 144 294 Z M 139 297 L 139 306 L 140 300 L 139 297 Z M 141 305 L 140 307 L 142 306 L 141 305 Z " /><path fill="rgb(236,170,65)" stroke="rgb(236,170,65)" stroke-width="1" opacity="0.9882352941176471" d="M 446.5 280 L 447 315.5 L 435.5 323 L 431 324 Q 432.1 326.7 429.5 326 L 421 330 L 422 326.5 L 422 324.5 L 422 294.5 L 423.5 294 L 428 292 Q 426.9 289.3 429.5 290 L 446.5 280 Z " /><path fill="rgb(236,170,65)" stroke="rgb(236,170,65)" stroke-width="1" opacity="0.9882352941176471" d="M 66.5 281 L 67 304.5 L 66 304.5 L 66.5 281 Z " /><path fill="rgb(236,170,65)" stroke="rgb(236,170,65)" stroke-width="1" opacity="0.9882352941176471" d="M 64.5 305 L 63.5 307 L 61.5 308 L 62.5 306 L 64.5 305 Z " /><path fill="rgb(236,170,65)" stroke="rgb(236,170,65)" stroke-width="1" opacity="0.9882352941176471" d="M 57.5 309 L 56.5 311 L 54.5 312 L 55.5 310 L 57.5 309 Z " /><path fill="rgb(236,170,65)" stroke="rgb(236,170,65)" stroke-width="1" opacity="0.9882352941176471" d="M 65.5 311 L 67 311.5 L 67 330.5 L 66 330.5 L 66 312.5 L 65.5 311 Z " /><path fill="rgb(236,170,65)" stroke="rgb(236,170,65)" stroke-width="1" opacity="0.9882352941176471" d="M 63.5 312 L 62.5 314 L 63.5 312 Z " /><path fill="rgb(236,170,65)" stroke="rgb(236,170,65)" stroke-width="1" opacity="0.9882352941176471" d="M 56.5 316 L 55.5 318 L 56.5 316 Z " /><path fill="rgb(236,170,65)" stroke="rgb(236,170,65)" stroke-width="1" opacity="0.9882352941176471" d="M 311.5 329 L 312 335.5 L 311 335.5 L 311.5 329 Z " /><path fill="rgb(236,170,65)" stroke="rgb(236,170,65)" stroke-width="1" opacity="0.9882352941176471" d="M 311.5 340 L 312 343.5 L 311 343.5 L 311.5 340 Z " /><path fill="rgb(236,170,65)" stroke="rgb(236,170,65)" stroke-width="1" opacity="0.9882352941176471" d="M 311.5 349 L 312 352.5 L 311 352.5 L 311.5 349 Z " /><path fill="rgb(236,170,65)" stroke="rgb(236,170,65)" stroke-width="1" opacity="0.9882352941176471" d="M 302.5 363 L 306 364.5 L 305 372.5 L 306 377.5 L 305 382.5 L 306 386.5 L 305 391.5 L 306 395.5 L 302.5 400 L 275.5 416 L 273 416 L 273 399.5 L 274 396.5 L 273 392.5 L 274 387.5 L 273 382.5 L 274 380 L 282.5 376 L 285.5 373 L 292 371 Q 290.9 368.3 293.5 369 Q 299.6 367.6 302.5 363 Z " /><path fill="rgb(236,170,65)" stroke="rgb(236,170,65)" stroke-width="1" opacity="0.9882352941176471" d="M 99.5 376 L 119.5 386 L 135.5 376 L 137.5 376 L 141 378.5 L 124 388 Q 122.9 390.7 125.5 390 L 142.5 400 L 161 390 L 161 425.5 L 159.5 426 L 135 439 Q 133.9 441.7 136.5 441 Q 138 444.5 139.5 442 L 157.5 432 L 161 434 Q 162.1 436.7 159.5 436 L 144 445.5 Q 152 453 164.5 456 L 180.5 446 L 181 481.5 L 139 506 L 139 470.5 L 140.5 469 L 157 459.5 Q 157.8 457.3 155.5 458 L 142.5 450 L 137.5 449 L 121 458 L 121 494.5 L 118.5 495 L 115 492.5 L 115 456.5 L 116.5 456 L 134 445.5 L 128.5 443 L 119 448 L 119 413.5 L 120.5 413 L 137 402.5 L 121.5 393 L 117.5 392 L 100 402.5 L 101 403.5 L 101 438.5 L 102.5 440 Q 105.1 439.3 104 442 L 97 445.5 L 97 461.5 L 94.5 464 L 81.5 471 L 81 435.5 L 88.5 432 L 95 435 L 95 400.5 L 96.5 399 L 113 390 Q 114.1 387.3 111.5 388 L 96 378.5 L 99.5 376 Z " /><path fill="rgb(236,170,65)" stroke="rgb(236,170,65)" stroke-width="1" opacity="0.9882352941176471" d="M 240.5 382 L 241 385.5 L 240 385.5 L 240.5 382 Z " /><path fill="rgb(236,170,65)" stroke="rgb(236,170,65)" stroke-width="1" opacity="0.9882352941176471" d="M 249.5 384 L 251 388.5 L 249 387.5 L 249.5 384 Z " /><path fill="rgb(236,170,65)" stroke="rgb(236,170,65)" stroke-width="1" opacity="0.9882352941176471" d="M 240.5 391 L 241 394.5 L 240 394.5 L 240.5 391 Z " /><path fill="rgb(236,170,65)" stroke="rgb(236,170,65)" stroke-width="1" opacity="0.9882352941176471" d="M 62.5 397 L 77 406.5 L 76 415.5 L 74.5 417 L 63 423 L 63 459.5 L 60.5 460 L 57 457.5 L 57 421.5 L 58.5 421 L 76 410.5 L 58 399.5 L 62.5 397 Z " /><path fill="rgb(253,212,122)" stroke="rgb(253,212,122)" stroke-width="1" opacity="0.9725490196078431" d="M 258.5 69 L 264 70 L 265.5 73 L 276 77 Q 274.9 79.7 277.5 79 L 295 88 Q 296.1 90.7 293.5 90 L 279.5 98 L 244 77.5 L 258.5 69 Z " /><path fill="rgb(253,212,122)" stroke="rgb(253,212,122)" stroke-width="1" opacity="0.9725490196078431" d="M 239.5 80 L 275 101.5 L 259.5 110 L 225 90 Q 223.9 87.3 226.5 88 L 239.5 80 Z " /><path fill="rgb(253,212,122)" stroke="rgb(253,212,122)" stroke-width="1" opacity="0.9725490196078431" d="M 204.5 100 L 207.5 100 L 240 120.5 L 225.5 130 L 201 114.5 Q 202.9 109.1 199.5 110 L 196.5 108 Q 195.8 110.8 191.5 110 L 190.5 108 L 204.5 100 Z " /><path fill="rgb(253,212,122)" stroke="rgb(253,212,122)" stroke-width="1" opacity="0.9725490196078431" d="M 185.5 111 L 193 116.5 L 193 125.5 L 191.5 127 L 186.5 130 L 171 120.5 Q 170.3 118.3 172.5 119 L 185.5 111 Z " /><path fill="rgb(253,212,122)" stroke="rgb(253,212,122)" stroke-width="1" opacity="0.9725490196078431" d="M 201 121 L 221 132.5 L 205.5 141 L 201 139 L 201 121 Z " /><path fill="rgb(253,212,122)" stroke="rgb(253,212,122)" stroke-width="1" opacity="0.9725490196078431" d="M 281.5 135 L 280.5 137 L 281.5 135 Z " /><path fill="rgb(253,212,122)" stroke="rgb(253,212,122)" stroke-width="1" opacity="0.9725490196078431" d="M 132.5 142 L 138 143 L 139.5 146 L 150 150 L 151.5 153 L 169 162.5 L 153.5 171 L 118 150.5 L 132.5 142 Z " /><path fill="rgb(253,212,122)" stroke="rgb(253,212,122)" stroke-width="1" opacity="0.9725490196078431" d="M 113.5 153 L 148 173.5 L 146.5 176 L 133.5 183 L 99 163 Q 97.9 160.3 100.5 161 L 113.5 153 Z " /><path fill="rgb(253,212,122)" stroke="rgb(253,212,122)" stroke-width="1" opacity="0.9725490196078431" d="M 229.5 165 L 228.5 167 L 229.5 165 Z " /><path fill="rgb(253,212,122)" stroke="rgb(253,212,122)" stroke-width="1" opacity="0.9725490196078431" d="M 254.5 171 L 269 179.5 L 201.5 219 L 201 202.5 L 254.5 171 Z " /><path fill="rgb(253,212,122)" stroke="rgb(253,212,122)" stroke-width="1" opacity="0.9725490196078431" d="M 78.5 173 L 86.5 176 L 114 193.5 L 99.5 203 L 75 187.5 Q 75.8 182.8 72.5 182 L 65.5 183 L 64.5 181 L 78.5 173 Z " /><path fill="rgb(253,212,122)" stroke="rgb(253,212,122)" stroke-width="1" opacity="0.9725490196078431" d="M 210.5 176 L 209.5 178 L 210.5 176 Z " /><path fill="rgb(253,212,122)" stroke="rgb(253,212,122)" stroke-width="1" opacity="0.9725490196078431" d="M 273.5 182 Q 279.6 187.2 288 189 Q 289.1 191.7 286.5 191 L 219.5 231 L 211.5 234 L 200 226.5 L 201 224 L 273.5 182 Z " /><path fill="rgb(253,212,122)" stroke="rgb(253,212,122)" stroke-width="1" opacity="0.9725490196078431" d="M 59.5 184 L 67 189.5 L 67 198.5 L 64.5 201 L 60.5 203 L 45 193.5 Q 44.3 191.3 46.5 192 L 59.5 184 Z " /><path fill="rgb(253,212,122)" stroke="rgb(253,212,122)" stroke-width="1" opacity="0.9725490196078431" d="M 128.5 184 L 129.5 186 L 128.5 184 Z " /><path fill="rgb(253,212,122)" stroke="rgb(253,212,122)" stroke-width="1" opacity="0.9725490196078431" d="M 75 194 L 95 205.5 L 80 214.5 L 79.5 240 L 79 214.5 L 76.5 212 L 75 211.5 L 75 194 Z " /><path fill="rgb(253,212,122)" stroke="rgb(253,212,122)" stroke-width="1" opacity="0.9725490196078431" d="M 48 201 L 50 201.5 L 48.5 210 L 48 201 Z " /><path fill="rgb(253,212,122)" stroke="rgb(253,212,122)" stroke-width="1" opacity="0.9725490196078431" d="M 167.5 201 L 166.5 203 L 167.5 201 Z " /><path fill="rgb(253,212,122)" stroke="rgb(253,212,122)" stroke-width="1" opacity="0.9725490196078431" d="M 190.5 208 L 192 208.5 L 192 221.5 L 190.5 221 L 180 214.5 L 190.5 208 Z " /><path fill="rgb(253,212,122)" stroke="rgb(253,212,122)" stroke-width="1" opacity="0.9725490196078431" d="M 281.5 210 L 280.5 212 L 281.5 210 Z " /><path fill="rgb(253,212,122)" stroke="rgb(253,212,122)" stroke-width="1" opacity="0.9725490196078431" d="M 148.5 212 L 147.5 214 L 148.5 212 Z " /><path fill="rgb(253,212,122)" stroke="rgb(253,212,122)" stroke-width="1" opacity="0.9725490196078431" d="M 96.5 242 L 95.5 244 L 96.5 242 Z " /><path fill="rgb(253,212,122)" stroke="rgb(253,212,122)" stroke-width="1" opacity="0.9725490196078431" d="M 127.5 244 Q 136.9 246.1 142 252.5 Q 142.8 254.8 140.5 254 L 74 292 L 74 276.5 L 76.5 274 L 127.5 244 Z " /><path fill="rgb(253,212,122)" stroke="rgb(253,212,122)" stroke-width="1" opacity="0.9725490196078431" d="M 146.5 254 L 149.5 257 L 162 263.5 L 91.5 305 L 85.5 307 L 74 299.5 L 75.5 297 L 147 255.5 L 146.5 254 Z " /><path fill="rgb(253,212,122)" stroke="rgb(253,212,122)" stroke-width="1" opacity="0.9725490196078431" d="M 414.5 260 L 421 263 Q 419.9 265.7 422.5 265 L 427 268.5 Q 422.9 273.3 416 274 Q 415.3 266.4 410 262.5 L 414.5 260 Z " /><path fill="rgb(253,212,122)" stroke="rgb(253,212,122)" stroke-width="1" opacity="0.9725490196078431" d="M 154.5 272 L 156 272.5 L 156 283.5 L 154 284.5 L 155 283.5 L 155 273.5 L 154.5 272 Z " /><path fill="rgb(253,212,122)" stroke="rgb(253,212,122)" stroke-width="1" opacity="0.9725490196078431" d="M 433.5 272 L 447 279.5 L 422.5 294 L 422 286.5 L 419 280 L 433.5 272 Z " /><path fill="rgb(253,212,122)" stroke="rgb(253,212,122)" stroke-width="1" opacity="0.9725490196078431" d="M 64.5 281 L 66 281.5 L 66 294.5 L 64.5 294 L 54 289 L 55.5 286 L 64.5 281 Z " /><path fill="rgb(253,212,122)" stroke="rgb(253,212,122)" stroke-width="1" opacity="0.9725490196078431" d="M 161.5 299 L 160.5 301 L 161.5 299 Z " /><path fill="rgb(253,212,122)" stroke="rgb(253,212,122)" stroke-width="1" opacity="0.9725490196078431" d="M 329.5 310 L 334 312.5 L 337 322 L 323.5 328 L 311 320.5 L 329.5 310 Z " /><path fill="rgb(253,212,122)" stroke="rgb(253,212,122)" stroke-width="1" opacity="0.9725490196078431" d="M 338.5 327 Q 340.8 326.3 340 328.5 L 341 329.5 L 341 337.5 L 339.5 337 L 331 333 Q 329.9 330.3 332.5 331 L 338.5 327 Z " /><path fill="rgb(253,212,122)" stroke="rgb(253,212,122)" stroke-width="1" opacity="0.9725490196078431" d="M 324.5 329 L 325 338.5 L 324 338.5 L 324.5 329 Z " /><path fill="rgb(253,212,122)" stroke="rgb(253,212,122)" stroke-width="1" opacity="0.9725490196078431" d="M 330.5 336 L 331 341.5 L 330 341.5 L 330.5 336 Z " /><path fill="rgb(253,212,122)" stroke="rgb(253,212,122)" stroke-width="1" opacity="0.9725490196078431" d="M 86.5 341 L 87 343 L 85 342.5 L 86.5 341 Z " /><path fill="rgb(253,212,122)" stroke="rgb(253,212,122)" stroke-width="1" opacity="0.9725490196078431" d="M 272.5 343 L 285 350.5 L 283.5 353 L 259.5 367 L 252.5 369 L 240 361.5 L 255.5 352 L 257.5 352 L 272.5 343 Z " /><path fill="rgb(253,212,122)" stroke="rgb(253,212,122)" stroke-width="1" opacity="0.9725490196078431" d="M 291.5 354 L 306 362.5 L 305.5 364 L 302.5 363 L 299.5 366 L 272.5 381 L 260 374 L 259.5 384 Q 256.8 382.7 259 381.5 L 259 373.5 L 260.5 372 L 291.5 354 Z " /><path fill="rgb(253,212,122)" stroke="rgb(253,212,122)" stroke-width="1" opacity="0.9725490196078431" d="M 118.5 364 L 137 374.5 L 118.5 386 L 100 374.5 L 118.5 364 Z " /><path fill="rgb(253,212,122)" stroke="rgb(253,212,122)" stroke-width="1" opacity="0.9725490196078431" d="M 305.5 368 L 306 372.5 L 305 372.5 L 305.5 368 Z " /><path fill="rgb(253,212,122)" stroke="rgb(253,212,122)" stroke-width="1" opacity="0.9725490196078431" d="M 240.5 377 L 241 381.5 L 240 381.5 L 240.5 377 Z " /><path fill="rgb(253,212,122)" stroke="rgb(253,212,122)" stroke-width="1" opacity="0.9725490196078431" d="M 94.5 378 L 112 388 Q 113.1 390.7 110.5 390 L 96.5 399 L 93.5 399 L 77 390 L 76.5 405 L 62 396.5 L 94.5 378 Z " /><path fill="rgb(253,212,122)" stroke="rgb(253,212,122)" stroke-width="1" opacity="0.9725490196078431" d="M 142.5 378 L 161 388.5 L 142.5 400 L 125 390 Q 123.9 387.3 126.5 388 L 142.5 378 Z " /><path fill="rgb(253,212,122)" stroke="rgb(253,212,122)" stroke-width="1" opacity="0.9725490196078431" d="M 305.5 378 L 306 382.5 L 305 382.5 L 305.5 378 Z " /><path fill="rgb(253,212,122)" stroke="rgb(253,212,122)" stroke-width="1" opacity="0.9725490196078431" d="M 240.5 386 L 241 390.5 L 240 390.5 L 240.5 386 Z " /><path fill="rgb(253,212,122)" stroke="rgb(253,212,122)" stroke-width="1" opacity="0.9725490196078431" d="M 305.5 387 L 306 391.5 L 305 391.5 L 305.5 387 Z " /><path fill="rgb(253,212,122)" stroke="rgb(253,212,122)" stroke-width="1" opacity="0.9725490196078431" d="M 118.5 392 L 136 402.5 Q 136.8 404.8 134.5 404 L 123.5 411 L 117.5 413 L 101 402.5 L 118.5 392 Z " /><path fill="rgb(253,212,122)" stroke="rgb(253,212,122)" stroke-width="1" opacity="0.9725490196078431" d="M 240.5 395 L 242 398.5 L 240 397.5 L 240.5 395 Z " /><path fill="rgb(253,212,122)" stroke="rgb(253,212,122)" stroke-width="1" opacity="0.9725490196078431" d="M 305.5 396 L 306 397.5 L 304 398.5 L 305.5 396 Z " /><path fill="rgb(253,212,122)" stroke="rgb(253,212,122)" stroke-width="1" opacity="0.9725490196078431" d="M 55.5 400 L 75 410.5 L 56.5 421 L 39 410.5 Q 38.3 408.3 40.5 409 L 55.5 400 Z " /><path fill="rgb(253,212,122)" stroke="rgb(253,212,122)" stroke-width="1" opacity="0.9725490196078431" d="M 74.5 417 L 77 417.5 Q 74.5 419 76 424.5 L 87 431.5 L 80.5 435 L 63 424.5 L 74.5 417 Z " /><path fill="rgb(253,212,122)" stroke="rgb(253,212,122)" stroke-width="1" opacity="0.9725490196078431" d="M 153.5 429 L 157 431.5 L 138.5 442 L 136 441 Q 134.9 438.3 137.5 439 L 153.5 429 Z " /><path fill="rgb(253,212,122)" stroke="rgb(253,212,122)" stroke-width="1" opacity="0.9725490196078431" d="M 162.5 435 L 164.5 435 L 181 445.5 L 162.5 456 L 145 445.5 L 162.5 435 Z " /><path fill="rgb(253,212,122)" stroke="rgb(253,212,122)" stroke-width="1" opacity="0.9725490196078431" d="M 104.5 441 L 115.5 448 L 119.5 449 L 129.5 443 L 133 445.5 L 114.5 456 L 97 445.5 L 104.5 441 Z " /><path fill="rgb(253,212,122)" stroke="rgb(253,212,122)" stroke-width="1" opacity="0.9725490196078431" d="M 138.5 449 L 157 459.5 L 138.5 470 L 121 459.5 L 138.5 449 Z " /><path fill="rgb(154,193,162)" stroke="rgb(154,193,162)" stroke-width="1" opacity="0.9764705882352941" d="M 322.5 122 L 321.5 124 L 322.5 122 Z " /><path fill="rgb(154,193,162)" stroke="rgb(154,193,162)" stroke-width="1" opacity="0.9764705882352941" d="M 179.5 132 L 180.5 134 L 179.5 132 Z " /><path fill="rgb(154,193,162)" stroke="rgb(154,193,162)" stroke-width="1" opacity="0.9764705882352941" d="M 177.5 133 L 178.5 135 L 177.5 133 Z " /><path fill="rgb(154,193,162)" stroke="rgb(154,193,162)" stroke-width="1" opacity="0.9764705882352941" d="M 200 145 L 202 145.5 L 202 149.5 L 200.5 151 L 200 145 Z " /><path fill="rgb(154,193,162)" stroke="rgb(154,193,162)" stroke-width="1" opacity="0.9764705882352941" d="M 268.5 158 L 267.5 160 L 268.5 158 Z " /><path fill="rgb(154,193,162)" stroke="rgb(154,193,162)" stroke-width="1" opacity="0.9764705882352941" d="M 200.5 161 L 201 166.5 L 200 166.5 L 200.5 161 Z " /><path fill="rgb(154,193,162)" stroke="rgb(154,193,162)" stroke-width="1" opacity="0.9764705882352941" d="M 200.5 168 L 201 170.5 L 200 170.5 L 200.5 168 Z " /><path fill="rgb(154,193,162)" stroke="rgb(154,193,162)" stroke-width="1" opacity="0.9764705882352941" d="M 200.5 176 L 201 197.5 L 200 197.5 L 200.5 176 Z " /><path fill="rgb(154,193,162)" stroke="rgb(154,193,162)" stroke-width="1" opacity="0.9764705882352941" d="M 128.5 188 L 129.5 190 L 128.5 188 Z " /><path fill="rgb(154,193,162)" stroke="rgb(154,193,162)" stroke-width="1" opacity="0.9764705882352941" d="M 196.5 195 L 197 200.5 L 196 200.5 L 195 196.5 L 196.5 195 Z " /><path fill="rgb(154,193,162)" stroke="rgb(154,193,162)" stroke-width="1" opacity="0.9764705882352941" d="M 281.5 202 L 282 205.5 L 281 205.5 L 281.5 202 Z " /><path fill="rgb(154,193,162)" stroke="rgb(154,193,162)" stroke-width="1" opacity="0.9764705882352941" d="M 53.5 205 L 54.5 207 L 53.5 205 Z " /><path fill="rgb(154,193,162)" stroke="rgb(154,193,162)" stroke-width="1" opacity="0.9764705882352941" d="M 50.5 208 L 49.5 210 L 50.5 208 Z " /><path fill="rgb(154,193,162)" stroke="rgb(154,193,162)" stroke-width="1" opacity="0.9764705882352941" d="M 56.5 211 L 57.5 213 L 56.5 211 Z " /><path fill="rgb(154,193,162)" stroke="rgb(154,193,162)" stroke-width="1" opacity="0.9764705882352941" d="M 74.5 216 L 76 218.5 L 75 225.5 L 76 227.5 L 74 228.5 L 74.5 216 Z " /><path fill="rgb(154,193,162)" stroke="rgb(154,193,162)" stroke-width="1" opacity="0.9764705882352941" d="M 65.5 221 L 66.5 223 L 65.5 221 Z " /><path fill="rgb(154,193,162)" stroke="rgb(154,193,162)" stroke-width="1" opacity="0.9764705882352941" d="M 319.5 222 L 318.5 224 L 319.5 222 Z " /><path fill="rgb(154,193,162)" stroke="rgb(154,193,162)" stroke-width="1" opacity="0.9764705882352941" d="M 338.5 222 L 340.5 222 L 399.5 256 L 413 265.5 L 409.5 263 L 340.5 223 L 338.5 223 L 334 225.5 L 335.5 228 Q 331 226 334.5 224 L 338.5 222 Z " /><path fill="rgb(154,193,162)" stroke="rgb(154,193,162)" stroke-width="1" opacity="0.9764705882352941" d="M 139.5 228 L 138.5 230 L 139.5 228 Z " /><path fill="rgb(154,193,162)" stroke="rgb(154,193,162)" stroke-width="1" opacity="0.9764705882352941" d="M 341.5 230 L 342.5 232 L 341.5 230 Z " /><path fill="rgb(154,193,162)" stroke="rgb(154,193,162)" stroke-width="1" opacity="0.9764705882352941" d="M 19.5 233 Q 18.7 239.3 22.5 241 L 65.5 266 L 66.5 264 L 67 271 L 22.5 245 L 20 245 Q 17.6 241.3 19.5 233 Z " /><path fill="rgb(154,193,162)" stroke="rgb(154,193,162)" stroke-width="1" opacity="0.9764705882352941" d="M 353.5 237 L 354.5 239 L 353.5 237 Z " /><path fill="rgb(154,193,162)" stroke="rgb(154,193,162)" stroke-width="1" opacity="0.9764705882352941" d="M 360.5 241 L 361.5 243 L 360.5 241 Z " /><path fill="rgb(154,193,162)" stroke="rgb(154,193,162)" stroke-width="1" opacity="0.9764705882352941" d="M 65.5 247 L 66.5 249 L 65.5 247 Z " /><path fill="rgb(154,193,162)" stroke="rgb(154,193,162)" stroke-width="1" opacity="0.9764705882352941" d="M 372.5 248 L 373.5 250 L 372.5 248 Z " /><path fill="rgb(154,193,162)" stroke="rgb(154,193,162)" stroke-width="1" opacity="0.9764705882352941" d="M 145.5 250 L 146 253.5 L 145 253.5 L 145.5 250 Z " /><path fill="rgb(154,193,162)" stroke="rgb(154,193,162)" stroke-width="1" opacity="0.9764705882352941" d="M 379.5 252 L 380.5 254 L 379.5 252 Z " /><path fill="rgb(154,193,162)" stroke="rgb(154,193,162)" stroke-width="1" opacity="0.9764705882352941" d="M 386.5 256 L 387.5 258 L 386.5 256 Z " /><path fill="rgb(154,193,162)" stroke="rgb(154,193,162)" stroke-width="1" opacity="0.9764705882352941" d="M 192.5 258 L 193 280.5 L 191 279.5 L 192 278.5 L 192.5 258 Z " /><path fill="rgb(154,193,162)" stroke="rgb(154,193,162)" stroke-width="1" opacity="0.9764705882352941" d="M 271.5 261 L 274 262.5 L 272.5 262 L 267 264 L 266.5 266 L 266 264.5 L 271.5 261 Z " /><path fill="rgb(154,193,162)" stroke="rgb(154,193,162)" stroke-width="1" opacity="0.9764705882352941" d="M 398.5 263 L 399.5 265 L 398.5 263 Z " /><path fill="rgb(154,193,162)" stroke="rgb(154,193,162)" stroke-width="1" opacity="0.9764705882352941" d="M 423.5 265 L 429 268.5 L 427.5 269 L 423.5 265 Z " /><path fill="rgb(154,193,162)" stroke="rgb(154,193,162)" stroke-width="1" opacity="0.9764705882352941" d="M 284.5 268 L 285.5 270 L 284.5 268 Z " /><path fill="rgb(154,193,162)" stroke="rgb(154,193,162)" stroke-width="1" opacity="0.9764705882352941" d="M 291.5 272 L 292.5 274 L 291.5 272 Z " /><path fill="rgb(154,193,162)" stroke="rgb(154,193,162)" stroke-width="1" opacity="0.9764705882352941" d="M 435.5 272 L 439 274.5 L 437.5 274 L 435.5 272 Z " /><path fill="rgb(154,193,162)" stroke="rgb(154,193,162)" stroke-width="1" opacity="0.9764705882352941" d="M 416 274 L 418 274.5 L 416 275.5 L 416 274 Z " /><path fill="rgb(154,193,162)" stroke="rgb(154,193,162)" stroke-width="1" opacity="0.9764705882352941" d="M 269 275 L 329 309 Q 330.1 311.7 327.5 311 L 311 320 L 311 329.5 L 309.5 330 L 282 346.5 L 283 348.5 L 281.5 348 L 272.5 343 L 265 347 L 265 280.5 L 269 275 Z " /><path fill="rgb(154,193,162)" stroke="rgb(154,193,162)" stroke-width="1" opacity="0.9764705882352941" d="M 284.5 275 L 285.5 277 L 284.5 275 Z " /><path fill="rgb(154,193,162)" stroke="rgb(154,193,162)" stroke-width="1" opacity="0.9764705882352941" d="M 298.5 276 L 299.5 278 L 298.5 276 Z " /><path fill="rgb(154,193,162)" stroke="rgb(154,193,162)" stroke-width="1" opacity="0.9764705882352941" d="M 442.5 276 L 443.5 278 L 442.5 276 Z " /><path fill="rgb(154,193,162)" stroke="rgb(154,193,162)" stroke-width="1" opacity="0.9764705882352941" d="M 291.5 279 L 292.5 281 L 291.5 279 Z " /><path fill="rgb(154,193,162)" stroke="rgb(154,193,162)" stroke-width="1" opacity="0.9764705882352941" d="M 447.5 279 L 448 283.5 L 447 283.5 L 447.5 279 Z " /><path fill="rgb(154,193,162)" stroke="rgb(154,193,162)" stroke-width="1" opacity="0.9764705882352941" d="M 310.5 283 L 311.5 285 L 310.5 283 Z " /><path fill="rgb(154,193,162)" stroke="rgb(154,193,162)" stroke-width="1" opacity="0.9764705882352941" d="M 451.5 285 L 452.5 287 L 451.5 285 Z " /><path fill="rgb(154,193,162)" stroke="rgb(154,193,162)" stroke-width="1" opacity="0.9764705882352941" d="M 297.5 286 L 312 294.5 Q 312.8 296.8 310.5 296 L 297 287.5 L 297.5 286 Z " /><path fill="rgb(154,193,162)" stroke="rgb(154,193,162)" stroke-width="1" opacity="0.9764705882352941" d="M 421.5 286 L 422 324.5 L 421 324.5 L 421.5 286 Z " /><path fill="rgb(154,193,162)" stroke="rgb(154,193,162)" stroke-width="1" opacity="0.9764705882352941" d="M 317.5 287 L 318.5 289 L 317.5 287 Z " /><path fill="rgb(154,193,162)" stroke="rgb(154,193,162)" stroke-width="1" opacity="0.9764705882352941" d="M 196.5 289 L 197 293.5 L 195 294.5 L 196.5 289 Z " /><path fill="rgb(154,193,162)" stroke="rgb(154,193,162)" stroke-width="1" opacity="0.9764705882352941" d="M 310.5 290 L 311.5 292 L 310.5 290 Z " /><path fill="rgb(154,193,162)" stroke="rgb(154,193,162)" stroke-width="1" opacity="0.9764705882352941" d="M 415.5 290 L 416 313.5 L 415 313.5 L 415.5 290 Z " /><path fill="rgb(154,193,162)" stroke="rgb(154,193,162)" stroke-width="1" opacity="0.9764705882352941" d="M 450.5 290 L 451.5 292 L 450.5 290 Z " /><path fill="rgb(154,193,162)" stroke="rgb(154,193,162)" stroke-width="1" opacity="0.9764705882352941" d="M 324.5 291 L 325.5 293 L 324.5 291 Z " /><path fill="rgb(154,193,162)" stroke="rgb(154,193,162)" stroke-width="1" opacity="0.9764705882352941" d="M 447.5 292 L 448.5 294 L 447.5 292 Z " /><path fill="rgb(154,193,162)" stroke="rgb(154,193,162)" stroke-width="1" opacity="0.9764705882352941" d="M 463.5 292 L 464.5 294 L 463.5 292 Z " /><path fill="rgb(154,193,162)" stroke="rgb(154,193,162)" stroke-width="1" opacity="0.9764705882352941" d="M 317.5 294 L 318.5 296 L 317.5 294 Z " /><path fill="rgb(154,193,162)" stroke="rgb(154,193,162)" stroke-width="1" opacity="0.9764705882352941" d="M 329.5 294 L 330.5 296 L 329.5 294 Z " /><path fill="rgb(154,193,162)" stroke="rgb(154,193,162)" stroke-width="1" opacity="0.9764705882352941" d="M 470.5 296 L 471.5 298 L 470.5 296 Z " /><path fill="rgb(154,193,162)" stroke="rgb(154,193,162)" stroke-width="1" opacity="0.9764705882352941" d="M 462.5 297 L 463.5 299 L 462.5 297 Z " /><path fill="rgb(154,193,162)" stroke="rgb(154,193,162)" stroke-width="1" opacity="0.9764705882352941" d="M 336.5 298 L 337.5 300 L 336.5 298 Z " /><path fill="rgb(154,193,162)" stroke="rgb(154,193,162)" stroke-width="1" opacity="0.9764705882352941" d="M 399.5 299 L 398.5 301 L 399.5 299 Z " /><path fill="rgb(154,193,162)" stroke="rgb(154,193,162)" stroke-width="1" opacity="0.9764705882352941" d="M 475.5 299 L 476.5 301 L 475.5 299 Z " /><path fill="rgb(154,193,162)" stroke="rgb(154,193,162)" stroke-width="1" opacity="0.9764705882352941" d="M 343.5 302 L 345.5 305 L 343.5 302 Z " /><path fill="rgb(154,193,162)" stroke="rgb(154,193,162)" stroke-width="1" opacity="0.9764705882352941" d="M 482.5 303 L 483.5 305 L 482.5 303 Z " /><path fill="rgb(154,193,162)" stroke="rgb(154,193,162)" stroke-width="1" opacity="0.9764705882352941" d="M 458.5 304 L 459.5 306 L 458.5 304 Z " /><path fill="rgb(154,193,162)" stroke="rgb(154,193,162)" stroke-width="1" opacity="0.9764705882352941" d="M 474.5 304 L 475.5 306 L 474.5 304 Z " /><path fill="rgb(154,193,162)" stroke="rgb(154,193,162)" stroke-width="1" opacity="0.9764705882352941" d="M 483.5 306 L 482.5 308 L 483.5 306 Z " /><path fill="rgb(154,193,162)" stroke="rgb(154,193,162)" stroke-width="1" opacity="0.9764705882352941" d="M 449.5 308 L 450.5 310 L 449.5 308 Z " /><path fill="rgb(154,193,162)" stroke="rgb(154,193,162)" stroke-width="1" opacity="0.9764705882352941" d="M 465.5 308 L 466.5 310 L 465.5 308 Z " /><path fill="rgb(154,193,162)" stroke="rgb(154,193,162)" stroke-width="1" opacity="0.9764705882352941" d="M 476.5 309 L 477 310.5 L 475 311.5 L 476.5 309 Z " /><path fill="rgb(154,193,162)" stroke="rgb(154,193,162)" stroke-width="1" opacity="0.9764705882352941" d="M 375.5 313 L 374.5 315 L 375.5 313 Z " /><path fill="rgb(154,193,162)" stroke="rgb(154,193,162)" stroke-width="1" opacity="0.9764705882352941" d="M 451.5 313 L 452.5 315 L 451.5 313 Z " /><path fill="rgb(154,193,162)" stroke="rgb(154,193,162)" stroke-width="1" opacity="0.9764705882352941" d="M 467.5 313 L 469 315.5 L 468 315.5 L 467.5 313 Z " /><path fill="rgb(154,193,162)" stroke="rgb(154,193,162)" stroke-width="1" opacity="0.9764705882352941" d="M 461.5 315 L 462.5 317 L 461.5 315 Z " /><path fill="rgb(154,193,162)" stroke="rgb(154,193,162)" stroke-width="1" opacity="0.9764705882352941" d="M 450.5 318 L 451.5 320 L 450.5 318 Z " /><path fill="rgb(154,193,162)" stroke="rgb(154,193,162)" stroke-width="1" opacity="0.9764705882352941" d="M 459.5 320 L 458.5 322 L 459.5 320 Z " /><path fill="rgb(154,193,162)" stroke="rgb(154,193,162)" stroke-width="1" opacity="0.9764705882352941" d="M 441.5 322 L 442.5 324 L 441.5 322 Z " /><path fill="rgb(154,193,162)" stroke="rgb(154,193,162)" stroke-width="1" opacity="0.9764705882352941" d="M 452.5 323 L 453 324.5 L 451 325.5 L 452.5 323 Z " /><path fill="rgb(154,193,162)" stroke="rgb(154,193,162)" stroke-width="1" opacity="0.9764705882352941" d="M 40.5 325 L 41.5 327 L 40.5 325 Z " /><path fill="rgb(154,193,162)" stroke="rgb(154,193,162)" stroke-width="1" opacity="0.9764705882352941" d="M 354.5 325 L 355 414.5 L 354 414.5 L 354.5 325 Z " /><path fill="rgb(154,193,162)" stroke="rgb(154,193,162)" stroke-width="1" opacity="0.9764705882352941" d="M 443.5 327 L 445 329.5 L 444 329.5 L 443.5 327 Z " /><path fill="rgb(154,193,162)" stroke="rgb(154,193,162)" stroke-width="1" opacity="0.9764705882352941" d="M 437.5 329 L 438.5 331 L 437.5 329 Z " /><path fill="rgb(154,193,162)" stroke="rgb(154,193,162)" stroke-width="1" opacity="0.9764705882352941" d="M 341.5 330 L 342 368.5 L 341 368.5 L 341.5 330 Z " /><path fill="rgb(154,193,162)" stroke="rgb(154,193,162)" stroke-width="1" opacity="0.9764705882352941" d="M 66.5 331 L 67 354.5 L 66 354.5 L 66.5 331 Z " /><path fill="rgb(154,193,162)" stroke="rgb(154,193,162)" stroke-width="1" opacity="0.9764705882352941" d="M 330.5 332 L 331 335.5 L 330 335.5 L 330.5 332 Z " /><path fill="rgb(154,193,162)" stroke="rgb(154,193,162)" stroke-width="1" opacity="0.9764705882352941" d="M 421.5 333 L 423 339.5 L 421 338.5 L 421.5 333 Z " /><path fill="rgb(154,193,162)" stroke="rgb(154,193,162)" stroke-width="1" opacity="0.9764705882352941" d="M 23.5 335 L 55.5 353 L 57 352.5 L 56.5 354 Q 58.8 353.3 58 355.5 L 62 361.5 L 60.5 361 L 20 337.5 L 23.5 335 Z " /><path fill="rgb(154,193,162)" stroke="rgb(154,193,162)" stroke-width="1" opacity="0.9764705882352941" d="M 428.5 337 L 429 338.5 L 427 339.5 L 428.5 337 Z " /><path fill="rgb(154,193,162)" stroke="rgb(154,193,162)" stroke-width="1" opacity="0.9764705882352941" d="M 320 343 L 322 343.5 L 320 344.5 L 320 343 Z " /><path fill="rgb(154,193,162)" stroke="rgb(154,193,162)" stroke-width="1" opacity="0.9764705882352941" d="M 421.5 343 L 422 347.5 L 421 347.5 L 421.5 343 Z " /><path fill="rgb(154,193,162)" stroke="rgb(154,193,162)" stroke-width="1" opacity="0.9764705882352941" d="M 323.5 344 L 324.5 346 L 323.5 344 Z " /><path fill="rgb(154,193,162)" stroke="rgb(154,193,162)" stroke-width="1" opacity="0.9764705882352941" d="M 61.5 346 L 62.5 348 L 61.5 346 Z " /><path fill="rgb(154,193,162)" stroke="rgb(154,193,162)" stroke-width="1" opacity="0.9764705882352941" d="M 300.5 346 L 301.5 348 L 300.5 346 Z " /><path fill="rgb(154,193,162)" stroke="rgb(154,193,162)" stroke-width="1" opacity="0.9764705882352941" d="M 294.5 348 L 295.5 350 L 294.5 348 Z " /><path fill="rgb(154,193,162)" stroke="rgb(154,193,162)" stroke-width="1" opacity="0.9764705882352941" d="M 330.5 348 L 331.5 350 L 330.5 348 Z " /><path fill="rgb(154,193,162)" stroke="rgb(154,193,162)" stroke-width="1" opacity="0.9764705882352941" d="M 284.5 349 L 286.5 350 L 288 349.5 L 285.5 351 L 284.5 349 Z " /><path fill="rgb(154,193,162)" stroke="rgb(154,193,162)" stroke-width="1" opacity="0.9764705882352941" d="M 291.5 350 L 292.5 352 L 291.5 350 Z " /><path fill="rgb(154,193,162)" stroke="rgb(154,193,162)" stroke-width="1" opacity="0.9764705882352941" d="M 333.5 350 Q 335.8 350.8 335 354.5 L 334 354.5 L 333.5 350 Z " /><path fill="rgb(154,193,162)" stroke="rgb(154,193,162)" stroke-width="1" opacity="0.9764705882352941" d="M 301.5 352 L 302.5 354 L 301.5 352 Z " /><path fill="rgb(154,193,162)" stroke="rgb(154,193,162)" stroke-width="1" opacity="0.9764705882352941" d="M 303.5 357 L 304.5 359 L 303.5 357 Z " /><path fill="rgb(154,193,162)" stroke="rgb(154,193,162)" stroke-width="1" opacity="0.9764705882352941" d="M 313.5 359 L 314.5 361 L 313.5 359 Z " /><path fill="rgb(154,193,162)" stroke="rgb(154,193,162)" stroke-width="1" opacity="0.9764705882352941" d="M 421.5 360 L 422 375.5 L 421 375.5 L 421.5 360 Z " /><path fill="rgb(154,193,162)" stroke="rgb(154,193,162)" stroke-width="1" opacity="0.9764705882352941" d="M 320.5 363 L 321.5 365 L 320.5 363 Z " /><path fill="rgb(154,193,162)" stroke="rgb(154,193,162)" stroke-width="1" opacity="0.9764705882352941" d="M 309.5 366 L 310.5 368 L 309.5 366 Z " /><path fill="rgb(154,193,162)" stroke="rgb(154,193,162)" stroke-width="1" opacity="0.9764705882352941" d="M 240.5 370 L 241 375.5 L 240 375.5 L 240.5 370 Z " /><path fill="rgb(154,193,162)" stroke="rgb(154,193,162)" stroke-width="1" opacity="0.9764705882352941" d="M 316.5 370 L 317.5 372 L 316.5 370 Z " /><path fill="rgb(154,193,162)" stroke="rgb(154,193,162)" stroke-width="1" opacity="0.9764705882352941" d="M 332.5 370 L 333.5 372 L 332.5 370 Z " /><path fill="rgb(154,193,162)" stroke="rgb(154,193,162)" stroke-width="1" opacity="0.9764705882352941" d="M 341.5 370 L 342 376 L 340 375.5 L 341.5 370 Z " /><path fill="rgb(154,193,162)" stroke="rgb(154,193,162)" stroke-width="1" opacity="0.9764705882352941" d="M 313.5 372 L 314.5 374 L 313.5 372 Z " /><path fill="rgb(154,193,162)" stroke="rgb(154,193,162)" stroke-width="1" opacity="0.9764705882352941" d="M 334.5 375 L 335.5 377 L 334.5 375 Z " /><path fill="rgb(154,193,162)" stroke="rgb(154,193,162)" stroke-width="1" opacity="0.9764705882352941" d="M 419.5 376 L 418.5 378 L 419.5 376 Z " /><path fill="rgb(154,193,162)" stroke="rgb(154,193,162)" stroke-width="1" opacity="0.9764705882352941" d="M 312.5 377 L 313.5 379 L 312.5 377 Z " /><path fill="rgb(154,193,162)" stroke="rgb(154,193,162)" stroke-width="1" opacity="0.9764705882352941" d="M 328.5 377 L 329.5 379 L 328.5 377 Z " /><path fill="rgb(154,193,162)" stroke="rgb(154,193,162)" stroke-width="1" opacity="0.9764705882352941" d="M 341.5 380 L 342 385 L 340 384.5 L 341.5 380 Z " /><path fill="rgb(154,193,162)" stroke="rgb(154,193,162)" stroke-width="1" opacity="0.9764705882352941" d="M 319.5 381 L 320.5 383 L 319.5 381 Z " /><path fill="rgb(154,193,162)" stroke="rgb(154,193,162)" stroke-width="1" opacity="0.9764705882352941" d="M 223.5 386 L 222.5 388 L 223.5 386 Z " /><path fill="rgb(154,193,162)" stroke="rgb(154,193,162)" stroke-width="1" opacity="0.9764705882352941" d="M 315.5 388 L 316.5 390 L 315.5 388 Z " /><path fill="rgb(154,193,162)" stroke="rgb(154,193,162)" stroke-width="1" opacity="0.9764705882352941" d="M 331.5 388 L 332.5 390 L 331.5 388 Z " /><path fill="rgb(154,193,162)" stroke="rgb(154,193,162)" stroke-width="1" opacity="0.9764705882352941" d="M 340.5 388 L 341 389.5 L 339 390.5 L 340.5 388 Z " /><path fill="rgb(154,193,162)" stroke="rgb(154,193,162)" stroke-width="1" opacity="0.9764705882352941" d="M 312.5 390 L 313.5 392 L 312.5 390 Z " /><path fill="rgb(154,193,162)" stroke="rgb(154,193,162)" stroke-width="1" opacity="0.9764705882352941" d="M 306.5 392 L 307.5 394 L 306.5 392 Z " /><path fill="rgb(154,193,162)" stroke="rgb(154,193,162)" stroke-width="1" opacity="0.9764705882352941" d="M 228.5 393 L 229.5 395 L 228.5 393 Z " /><path fill="rgb(154,193,162)" stroke="rgb(154,193,162)" stroke-width="1" opacity="0.9764705882352941" d="M 333.5 393 L 332.5 395 L 333.5 393 Z " /><path fill="rgb(154,193,162)" stroke="rgb(154,193,162)" stroke-width="1" opacity="0.9764705882352941" d="M 207.5 395 L 206.5 397 L 207.5 395 Z " /><path fill="rgb(154,193,162)" stroke="rgb(154,193,162)" stroke-width="1" opacity="0.9764705882352941" d="M 327.5 395 L 329.5 396 L 331 395.5 L 328.5 397 L 327.5 395 Z " /><path fill="rgb(154,193,162)" stroke="rgb(154,193,162)" stroke-width="1" opacity="0.9764705882352941" d="M 324.5 397 L 325.5 399 L 324.5 397 Z " /><path fill="rgb(154,193,162)" stroke="rgb(154,193,162)" stroke-width="1" opacity="0.9764705882352941" d="M 318.5 399 L 319.5 401 L 318.5 399 Z " /><path fill="rgb(154,193,162)" stroke="rgb(154,193,162)" stroke-width="1" opacity="0.9764705882352941" d="M 323.5 399 L 322.5 401 L 323.5 399 Z " /><path fill="rgb(154,193,162)" stroke="rgb(154,193,162)" stroke-width="1" opacity="0.9764705882352941" d="M 224.5 400 L 225.5 402 L 224.5 400 Z " /><path fill="rgb(154,193,162)" stroke="rgb(154,193,162)" stroke-width="1" opacity="0.9764705882352941" d="M 240.5 400 L 241.5 402 L 240.5 400 Z " /><path fill="rgb(154,193,162)" stroke="rgb(154,193,162)" stroke-width="1" opacity="0.9764705882352941" d="M 315.5 401 L 317.5 404 L 315.5 405 L 316 403.5 L 315.5 401 Z " /><path fill="rgb(154,193,162)" stroke="rgb(154,193,162)" stroke-width="1" opacity="0.9764705882352941" d="M 309.5 403 L 310.5 405 L 309.5 403 Z " /><path fill="rgb(154,193,162)" stroke="rgb(154,193,162)" stroke-width="1" opacity="0.9764705882352941" d="M 215.5 404 L 216.5 406 L 215.5 404 Z " /><path fill="rgb(154,193,162)" stroke="rgb(154,193,162)" stroke-width="1" opacity="0.9764705882352941" d="M 231.5 404 L 232.5 406 L 231.5 404 Z " /><path fill="rgb(154,193,162)" stroke="rgb(154,193,162)" stroke-width="1" opacity="0.9764705882352941" d="M 247.5 404 L 248.5 406 L 247.5 404 Z " /><path fill="rgb(154,193,162)" stroke="rgb(154,193,162)" stroke-width="1" opacity="0.9764705882352941" d="M 309.5 407 L 308.5 409 L 309.5 407 Z " /><path fill="rgb(154,193,162)" stroke="rgb(154,193,162)" stroke-width="1" opacity="0.9764705882352941" d="M 222.5 408 L 223.5 410 L 222.5 408 Z " /><path fill="rgb(154,193,162)" stroke="rgb(154,193,162)" stroke-width="1" opacity="0.9764705882352941" d="M 303.5 409 L 305.5 410 L 307 409.5 L 304.5 411 L 303.5 409 Z " /><path fill="rgb(154,193,162)" stroke="rgb(154,193,162)" stroke-width="1" opacity="0.9764705882352941" d="M 243.5 411 L 244.5 413 L 243.5 411 Z " /><path fill="rgb(154,193,162)" stroke="rgb(154,193,162)" stroke-width="1" opacity="0.9764705882352941" d="M 259.5 411 L 260.5 413 L 259.5 411 Z " /><path fill="rgb(154,193,162)" stroke="rgb(154,193,162)" stroke-width="1" opacity="0.9764705882352941" d="M 291.5 411 L 292.5 413 L 291.5 411 Z " /><path fill="rgb(154,193,162)" stroke="rgb(154,193,162)" stroke-width="1" opacity="0.9764705882352941" d="M 300.5 411 L 301.5 413 L 300.5 411 Z " /><path fill="rgb(154,193,162)" stroke="rgb(154,193,162)" stroke-width="1" opacity="0.9764705882352941" d="M 299.5 413 L 298.5 415 L 296 414.5 L 299.5 413 Z " /><path fill="rgb(154,193,162)" stroke="rgb(154,193,162)" stroke-width="1" opacity="0.9764705882352941" d="M 280.5 414 L 281.5 416 L 280.5 414 Z " /><path fill="rgb(154,193,162)" stroke="rgb(154,193,162)" stroke-width="1" opacity="0.9764705882352941" d="M 234.5 415 L 235.5 417 L 234.5 415 Z " /><path fill="rgb(154,193,162)" stroke="rgb(154,193,162)" stroke-width="1" opacity="0.9764705882352941" d="M 352.5 415 L 351.5 417 L 352.5 415 Z " /><path fill="rgb(154,193,162)" stroke="rgb(154,193,162)" stroke-width="1" opacity="0.9764705882352941" d="M 293.5 416 L 294 418 L 291.5 419 L 293.5 416 Z " /><path fill="rgb(154,193,162)" stroke="rgb(154,193,162)" stroke-width="1" opacity="0.9764705882352941" d="M 255.5 418 L 256.5 420 L 255.5 418 Z " /><path fill="rgb(154,193,162)" stroke="rgb(154,193,162)" stroke-width="1" opacity="0.9764705882352941" d="M 271.5 418 L 272.5 420 L 271.5 418 Z " /><path fill="rgb(154,193,162)" stroke="rgb(154,193,162)" stroke-width="1" opacity="0.9764705882352941" d="M 287.5 418 L 290 419.5 L 288.5 420 L 287.5 418 Z " /><path fill="rgb(154,193,162)" stroke="rgb(154,193,162)" stroke-width="1" opacity="0.9764705882352941" d="M 252.5 420 L 253.5 422 L 252.5 420 Z " /><path fill="rgb(154,193,162)" stroke="rgb(154,193,162)" stroke-width="1" opacity="0.9764705882352941" d="M 285.5 421 L 284.5 423 L 285.5 421 Z " /><path fill="rgb(154,193,162)" stroke="rgb(154,193,162)" stroke-width="1" opacity="0.9764705882352941" d="M 246.5 422 L 247.5 424 L 246.5 422 Z " /><path fill="rgb(154,193,162)" stroke="rgb(154,193,162)" stroke-width="1" opacity="0.9764705882352941" d="M 262.5 422 L 263.5 424 L 262.5 422 Z " /><path fill="rgb(154,193,162)" stroke="rgb(154,193,162)" stroke-width="1" opacity="0.9764705882352941" d="M 276.5 425 L 277.5 427 L 276.5 425 Z " /><path fill="rgb(154,193,162)" stroke="rgb(154,193,162)" stroke-width="1" opacity="0.9764705882352941" d="M 253.5 426 L 254.5 428 L 253.5 426 Z " /><path fill="rgb(154,193,162)" stroke="rgb(154,193,162)" stroke-width="1" opacity="0.9764705882352941" d="M 269.5 430 L 267.5 433 L 269.5 430 Z " /><path fill="rgb(219,223,235)" stroke="rgb(219,223,235)" stroke-width="1" opacity="0.9764705882352941" d="M 229.5 97 L 256 112 L 255 118.5 L 256 121.5 L 255.5 125 L 229 110 L 230 105.5 L 229 102.5 L 229.5 97 Z " /><path fill="rgb(219,223,235)" stroke="rgb(219,223,235)" stroke-width="1" opacity="0.9764705882352941" d="M 295 106 L 319 119 Q 317.9 121.7 320.5 121 Q 323.8 121.8 323 126.5 L 313.5 134 L 285.5 150 L 283.5 150 L 275.5 156 L 268.5 158 L 261.5 164 L 201 198 L 201.5 177 Q 202.9 179.6 207.5 179 L 241 160 L 241 138.5 L 242.5 138 L 258.5 148 L 260.5 148 L 295 127.5 L 295 106 Z " /><path fill="rgb(219,223,235)" stroke="rgb(219,223,235)" stroke-width="1" opacity="0.9764705882352941" d="M 175.5 128 L 182 132.5 L 175.5 136 L 175 133.5 L 175 131.5 L 175.5 128 Z " /><path fill="rgb(219,223,235)" stroke="rgb(219,223,235)" stroke-width="1" opacity="0.9764705882352941" d="M 187.5 136 L 193 138 L 192.5 151 L 178 143 L 178.5 141 L 180 141.5 L 180.5 140 L 182 140.5 L 183.5 138 L 187.5 136 Z " /><path fill="rgb(219,223,235)" stroke="rgb(219,223,235)" stroke-width="1" opacity="0.9764705882352941" d="M 166.5 148 Q 168.8 147.3 168 149.5 Q 172.5 152.3 171 160 L 176 162.5 L 193.5 194 L 196 195.5 L 196 197.5 Q 197.5 201.9 194.5 201 L 187.5 207 L 159.5 223 L 157.5 223 L 97.5 259 L 76.5 271 L 74 271 L 74 250.5 L 75.5 250 Q 76.9 252.6 81.5 252 L 115 233 L 115 211.5 L 116.5 211 L 130.5 220 L 134.5 221 L 169 200.5 L 169 162.5 L 167.5 162 L 155 154.5 L 166.5 148 Z " /><path fill="rgb(219,223,235)" stroke="rgb(219,223,235)" stroke-width="1" opacity="0.9764705882352941" d="M 201.5 150 L 202 155.5 L 201 155.5 L 201.5 150 Z " /><path fill="rgb(219,223,235)" stroke="rgb(219,223,235)" stroke-width="1" opacity="0.9764705882352941" d="M 103.5 170 L 130 186.5 L 129 189.5 L 130 194.5 Q 131.3 198.3 127.5 197 L 103 183 L 104 176.5 Q 101.4 174.9 103.5 170 Z " /><path fill="rgb(219,223,235)" stroke="rgb(219,223,235)" stroke-width="1" opacity="0.9764705882352941" d="M 190.5 171 L 193 172.5 L 192.5 175 L 190.5 171 Z " /><path fill="rgb(219,223,235)" stroke="rgb(219,223,235)" stroke-width="1" opacity="0.9764705882352941" d="M 288.5 195 L 304.5 204 L 311.5 210 L 322 215 L 323 221 L 318 223.5 Q 318.8 225.8 316.5 225 L 200 292 L 200.5 263 L 211.5 270 L 214.5 270 L 288 226.5 L 288.5 195 Z " /><path fill="rgb(219,223,235)" stroke="rgb(219,223,235)" stroke-width="1" opacity="0.9764705882352941" d="M 279.5 200 Q 282.5 199.5 281 206.5 L 281 208.5 L 279.5 212 L 256.5 225 L 256 220.5 Q 254.5 213.5 258.5 212 L 279.5 200 Z " /><path fill="rgb(219,223,235)" stroke="rgb(219,223,235)" stroke-width="1" opacity="0.9764705882352941" d="M 49 202 L 56 205.5 L 49.5 209 L 49 206.5 L 49 204.5 L 49 202 Z " /><path fill="rgb(219,223,235)" stroke="rgb(219,223,235)" stroke-width="1" opacity="0.9764705882352941" d="M 61.5 209 L 67 211 L 66 215.5 L 67 220.5 L 66 222.5 L 66.5 224 L 52 216 L 52.5 214 L 54 214.5 L 55.5 212 L 61.5 209 Z " /><path fill="rgb(219,223,235)" stroke="rgb(219,223,235)" stroke-width="1" opacity="0.9764705882352941" d="M 40.5 221 Q 42.8 220.3 42 222.5 Q 46.5 225.3 45 233 L 50 235 L 63 257.5 L 66 265.5 L 63.5 264 L 20 238.5 Q 18.5 231.5 21.5 232 L 40.5 221 Z " /><path fill="rgb(219,223,235)" stroke="rgb(219,223,235)" stroke-width="1" opacity="0.9764705882352941" d="M 332.5 225 L 335.5 228 L 406 268.5 L 415 289.5 L 415 380 L 355 414 L 355 325.5 L 347 306.5 L 343.5 302 L 279.5 266 L 272 260.5 L 315.5 235 L 326 231 L 327.5 228 L 332.5 225 Z " /><path fill="rgb(219,223,235)" stroke="rgb(219,223,235)" stroke-width="1" opacity="0.9764705882352941" d="M 178.5 230 L 180 230.5 L 180 239 L 170 243 L 167 237.5 L 178.5 230 Z " /><path fill="rgb(219,223,235)" stroke="rgb(219,223,235)" stroke-width="1" opacity="0.9764705882352941" d="M 159.5 241 L 164 247.5 L 148.5 256 Q 145 255 146 249.5 L 159.5 241 Z " /><path fill="rgb(219,223,235)" stroke="rgb(219,223,235)" stroke-width="1" opacity="0.9764705882352941" d="M 64.5 244 L 67 245.5 L 66.5 248 L 64.5 244 Z " /><path fill="rgb(219,223,235)" stroke="rgb(219,223,235)" stroke-width="1" opacity="0.9764705882352941" d="M 178.5 246 L 180 246 L 180 251.5 L 181.5 252 L 192 258.5 L 191.5 279 L 174 248 L 178.5 246 Z " /><path fill="rgb(219,223,235)" stroke="rgb(219,223,235)" stroke-width="1" opacity="0.9764705882352941" d="M 166.5 253 L 182 279.5 L 185.5 283 L 196 288 Q 197.5 293.4 194.5 295 L 192 296.5 Q 192.8 298.8 190.5 298 L 74 365 L 74.5 336 L 83.5 342 L 87.5 343 L 162 299.5 L 162 263.5 L 160.5 263 L 155 259.5 L 166.5 253 Z " /><path fill="rgb(219,223,235)" stroke="rgb(219,223,235)" stroke-width="1" opacity="0.9764705882352941" d="M 426.5 269 Q 431.6 268.4 433 271.5 Q 433.8 273.8 431.5 273 L 420.5 280 L 418 280 L 417 275.5 L 426.5 269 Z " /><path fill="rgb(219,223,235)" stroke="rgb(219,223,235)" stroke-width="1" opacity="0.9764705882352941" d="M 153.5 273 Q 156.5 272.5 155 279.5 L 155 281.5 L 153.5 285 L 130.5 298 L 130 295.5 Q 128 287 132.5 285 L 153.5 273 Z " /><path fill="rgb(219,223,235)" stroke="rgb(219,223,235)" stroke-width="1" opacity="0.9764705882352941" d="M 447 284 L 485 305.5 L 480.5 308 L 447 289 L 447 284 Z " /><path fill="rgb(219,223,235)" stroke="rgb(219,223,235)" stroke-width="1" opacity="0.9764705882352941" d="M 447.5 293 L 476 309 L 474.5 312 L 472.5 313 L 447 297.5 L 447.5 293 Z " /><path fill="rgb(219,223,235)" stroke="rgb(219,223,235)" stroke-width="1" opacity="0.9764705882352941" d="M 447.5 302 L 468 314.5 Q 468.8 316.8 466.5 316 L 463.5 317 L 447 306.5 L 447.5 302 Z " /><path fill="rgb(219,223,235)" stroke="rgb(219,223,235)" stroke-width="1" opacity="0.9764705882352941" d="M 52.5 303 L 54 304.5 L 54 312 L 44.5 316 L 41 310.5 L 52.5 303 Z " /><path fill="rgb(219,223,235)" stroke="rgb(219,223,235)" stroke-width="1" opacity="0.9764705882352941" d="M 447 312 L 461 319.5 L 456.5 322 L 447 317 L 447 312 Z " /><path fill="rgb(219,223,235)" stroke="rgb(219,223,235)" stroke-width="1" opacity="0.9764705882352941" d="M 33.5 314 L 38 320.5 L 19 331 L 19 323.5 L 21.5 321 L 33.5 314 Z " /><path fill="rgb(219,223,235)" stroke="rgb(219,223,235)" stroke-width="1" opacity="0.9764705882352941" d="M 52.5 319 L 54 319 L 54 324.5 L 55.5 325 L 66 331 L 65.5 353 L 48 321 L 52.5 319 Z " /><path fill="rgb(219,223,235)" stroke="rgb(219,223,235)" stroke-width="1" opacity="0.9764705882352941" d="M 441.5 319 L 444.5 319 L 452 323 L 450.5 326 L 447.5 326 L 439 320.5 L 441.5 319 Z " /><path fill="rgb(219,223,235)" stroke="rgb(219,223,235)" stroke-width="1" opacity="0.9764705882352941" d="M 335.5 322 Q 338.8 320.9 338 323.5 L 340 326.5 L 330 332.5 L 329.5 341 Q 328.4 338.3 325 339 L 325 328.5 L 326.5 327 L 335.5 322 Z " /><path fill="rgb(219,223,235)" stroke="rgb(219,223,235)" stroke-width="1" opacity="0.9764705882352941" d="M 434.5 323 L 444 328.5 Q 444.8 330.8 442.5 330 L 439.5 331 L 431 325.5 L 434.5 323 Z " /><path fill="rgb(219,223,235)" stroke="rgb(219,223,235)" stroke-width="1" opacity="0.9764705882352941" d="M 39.5 326 L 43 328.5 L 57 353.5 L 55.5 353 L 25 335.5 Q 24.3 333.3 26.5 334 L 39.5 326 Z " /><path fill="rgb(219,223,235)" stroke="rgb(219,223,235)" stroke-width="1" opacity="0.9764705882352941" d="M 426.5 328 L 437 333.5 L 432.5 336 L 423 330.5 L 426.5 328 Z " /><path fill="rgb(219,223,235)" stroke="rgb(219,223,235)" stroke-width="1" opacity="0.9764705882352941" d="M 422.5 334 L 428 337 L 426.5 340 Q 422.8 340.8 422 338.5 L 422.5 334 Z " /><path fill="rgb(219,223,235)" stroke="rgb(219,223,235)" stroke-width="1" opacity="0.9764705882352941" d="M 303 340 L 311 343 L 311 348 L 309.5 348 L 302 343.5 L 303 340 Z " /><path fill="rgb(219,223,235)" stroke="rgb(219,223,235)" stroke-width="1" opacity="0.9764705882352941" d="M 295.5 345 L 299.5 346 L 311 353.5 Q 310.3 357.3 312.5 358 L 341 374.5 L 339.5 375 L 294 347.5 L 295.5 345 Z " /><path fill="rgb(219,223,235)" stroke="rgb(219,223,235)" stroke-width="1" opacity="0.9764705882352941" d="M 288.5 349 L 341 379 L 341 384 L 339.5 384 L 306 365 L 304.5 361 L 291.5 354 L 259 373.5 L 258.5 382 Q 257.4 379.3 254 380 L 254 369.5 L 255.5 369 L 288.5 349 Z " /><path fill="rgb(219,223,235)" stroke="rgb(219,223,235)" stroke-width="1" opacity="0.9764705882352941" d="M 306 369 L 340 388.5 L 338.5 391 L 333.5 390 L 306 373.5 L 306 369 Z " /><path fill="rgb(219,223,235)" stroke="rgb(219,223,235)" stroke-width="1" opacity="0.9764705882352941" d="M 239.5 377 L 240 381 Q 237.3 382.1 238 379.5 L 239.5 377 Z " /><path fill="rgb(219,223,235)" stroke="rgb(219,223,235)" stroke-width="1" opacity="0.9764705882352941" d="M 306.5 378 L 333 393.5 L 328.5 396 L 306 382.5 L 306.5 378 Z " /><path fill="rgb(219,223,235)" stroke="rgb(219,223,235)" stroke-width="1" opacity="0.9764705882352941" d="M 231.5 382 Q 237.4 382.6 240 386.5 L 239.5 391 L 230 384.5 L 231.5 382 Z " /><path fill="rgb(219,223,235)" stroke="rgb(219,223,235)" stroke-width="1" opacity="0.9764705882352941" d="M 224.5 386 L 240 395.5 L 241.5 399 L 273.5 417 L 276.5 416 L 285 421.5 L 280.5 424 L 222 389.5 L 224.5 386 Z " /><path fill="rgb(219,223,235)" stroke="rgb(219,223,235)" stroke-width="1" opacity="0.9764705882352941" d="M 306.5 387 L 325 398.5 L 320.5 401 L 306 391.5 L 306.5 387 Z " /><path fill="rgb(219,223,235)" stroke="rgb(219,223,235)" stroke-width="1" opacity="0.9764705882352941" d="M 215 391 L 219.5 392 L 277 426.5 L 271.5 428 L 214 395 L 215 391 Z " /><path fill="rgb(219,223,235)" stroke="rgb(219,223,235)" stroke-width="1" opacity="0.9764705882352941" d="M 208.5 395 L 269 430.5 Q 268.5 433.5 264.5 433 L 206 398.5 L 208.5 395 Z " /><path fill="rgb(219,223,235)" stroke="rgb(219,223,235)" stroke-width="1" opacity="0.9764705882352941" d="M 306.5 397 L 316 402.5 L 314.5 405 L 311.5 405 L 303 399.5 L 306.5 397 Z " /><path fill="rgb(219,223,235)" stroke="rgb(219,223,235)" stroke-width="1" opacity="0.9764705882352941" d="M 298.5 402 L 309 407.5 L 304.5 410 L 295 404.5 L 298.5 402 Z " /><path fill="rgb(219,223,235)" stroke="rgb(219,223,235)" stroke-width="1" opacity="0.9764705882352941" d="M 290.5 407 Q 297.3 408.3 301 412.5 L 295.5 414 L 288 410 Q 286.9 407.3 289.5 408 L 290.5 407 Z " /><path fill="rgb(219,223,235)" stroke="rgb(219,223,235)" stroke-width="1" opacity="0.9764705882352941" d="M 283.5 411 L 293 416.5 Q 292.5 419.5 288.5 419 L 279 413.5 L 283.5 411 Z " /><path fill="rgb(248,187,75)" stroke="rgb(248,187,75)" stroke-width="1" opacity="0.984313725490196" d="M 241.5 79 L 240.5 81 L 241.5 79 Z " /><path fill="rgb(248,187,75)" stroke="rgb(248,187,75)" stroke-width="1" opacity="0.984313725490196" d="M 254.5 83 L 255.5 85 L 254.5 83 Z " /><path fill="rgb(248,187,75)" stroke="rgb(248,187,75)" stroke-width="1" opacity="0.984313725490196" d="M 249.5 85 L 250.5 87 L 249.5 85 Z " /><path fill="rgb(248,187,75)" stroke="rgb(248,187,75)" stroke-width="1" opacity="0.984313725490196" d="M 261.5 87 L 262.5 89 L 261.5 87 Z " /><path fill="rgb(248,187,75)" stroke="rgb(248,187,75)" stroke-width="1" opacity="0.984313725490196" d="M 256.5 89 L 257.5 91 L 256.5 89 Z " /><path fill="rgb(248,187,75)" stroke="rgb(248,187,75)" stroke-width="1" opacity="0.984313725490196" d="M 266.5 90 L 267.5 92 L 266.5 90 Z " /><path fill="rgb(248,187,75)" stroke="rgb(248,187,75)" stroke-width="1" opacity="0.984313725490196" d="M 293.5 90 Q 296.3 89.4 295 95.5 L 295 97.5 L 296 105.5 L 295 106.5 L 295 127.5 L 293.5 129 L 259 148 L 259 110.5 L 260.5 110 L 275 102 L 275 114.5 L 276.5 115 L 280 113 L 280 99.5 L 278.5 99 L 277 99.5 L 278.5 97 L 280.5 98 L 293.5 90 Z " /><path fill="rgb(248,187,75)" stroke="rgb(248,187,75)" stroke-width="1" opacity="0.984313725490196" d="M 261.5 92 L 262.5 94 L 261.5 92 Z " /><path fill="rgb(248,187,75)" stroke="rgb(248,187,75)" stroke-width="1" opacity="0.984313725490196" d="M 273.5 94 L 274.5 96 L 273.5 94 Z " /><path fill="rgb(248,187,75)" stroke="rgb(248,187,75)" stroke-width="1" opacity="0.984313725490196" d="M 268.5 96 L 269.5 98 L 268.5 96 Z " /><path fill="rgb(248,187,75)" stroke="rgb(248,187,75)" stroke-width="1" opacity="0.984313725490196" d="M 273.5 99 L 276 100.5 L 274.5 101 L 273.5 99 Z " /><path fill="rgb(248,187,75)" stroke="rgb(248,187,75)" stroke-width="1" opacity="0.984313725490196" d="M 189.5 109 L 191 109.5 L 187 111.5 L 187.5 113 Q 184.5 111.5 187.5 110 L 189.5 109 Z " /><path fill="rgb(248,187,75)" stroke="rgb(248,187,75)" stroke-width="1" opacity="0.984313725490196" d="M 224.5 110 L 225.5 112 L 224.5 110 Z " /><path fill="rgb(248,187,75)" stroke="rgb(248,187,75)" stroke-width="1" opacity="0.984313725490196" d="M 191.5 114 L 192.5 116 L 191.5 114 Z " /><path fill="rgb(248,187,75)" stroke="rgb(248,187,75)" stroke-width="1" opacity="0.984313725490196" d="M 203.5 116 L 204.5 118 L 203.5 116 Z " /><path fill="rgb(248,187,75)" stroke="rgb(248,187,75)" stroke-width="1" opacity="0.984313725490196" d="M 234.5 116 L 235.5 118 L 234.5 116 Z " /><path fill="rgb(248,187,75)" stroke="rgb(248,187,75)" stroke-width="1" opacity="0.984313725490196" d="M 239.5 119 Q 242 120 241 124.5 L 240 127.5 L 241 128.5 L 241 158.5 L 205 179 L 205 141.5 L 204 140.5 L 205.5 141 L 221 133 L 221 145.5 L 222.5 146 L 226 143.5 L 226 129.5 L 227.5 128 L 240 120.5 L 239.5 119 Z " /><path fill="rgb(248,187,75)" stroke="rgb(248,187,75)" stroke-width="1" opacity="0.984313725490196" d="M 210.5 120 L 211.5 122 L 210.5 120 Z " /><path fill="rgb(248,187,75)" stroke="rgb(248,187,75)" stroke-width="1" opacity="0.984313725490196" d="M 215.5 123 L 216.5 125 L 215.5 123 Z " /><path fill="rgb(248,187,75)" stroke="rgb(248,187,75)" stroke-width="1" opacity="0.984313725490196" d="M 210.5 125 L 211.5 127 L 210.5 125 Z " /><path fill="rgb(248,187,75)" stroke="rgb(248,187,75)" stroke-width="1" opacity="0.984313725490196" d="M 222.5 127 L 223.5 129 L 222.5 127 Z " /><path fill="rgb(248,187,75)" stroke="rgb(248,187,75)" stroke-width="1" opacity="0.984313725490196" d="M 215.5 128 L 216.5 130 L 215.5 128 Z " /><path fill="rgb(248,187,75)" stroke="rgb(248,187,75)" stroke-width="1" opacity="0.984313725490196" d="M 116.5 151 L 118 151.5 L 114.5 154 L 114 152 L 116.5 151 Z " /><path fill="rgb(248,187,75)" stroke="rgb(248,187,75)" stroke-width="1" opacity="0.984313725490196" d="M 121.5 152 L 122.5 154 L 121.5 152 Z " /><path fill="rgb(248,187,75)" stroke="rgb(248,187,75)" stroke-width="1" opacity="0.984313725490196" d="M 116.5 154 L 117.5 156 L 116.5 154 Z " /><path fill="rgb(248,187,75)" stroke="rgb(248,187,75)" stroke-width="1" opacity="0.984313725490196" d="M 128.5 156 L 129.5 158 L 128.5 156 Z " /><path fill="rgb(248,187,75)" stroke="rgb(248,187,75)" stroke-width="1" opacity="0.984313725490196" d="M 133.5 159 L 134.5 161 L 133.5 159 Z " /><path fill="rgb(248,187,75)" stroke="rgb(248,187,75)" stroke-width="1" opacity="0.984313725490196" d="M 128.5 161 L 129.5 163 L 128.5 161 Z " /><path fill="rgb(248,187,75)" stroke="rgb(248,187,75)" stroke-width="1" opacity="0.984313725490196" d="M 140.5 163 L 141.5 165 L 140.5 163 Z " /><path fill="rgb(248,187,75)" stroke="rgb(248,187,75)" stroke-width="1" opacity="0.984313725490196" d="M 168.5 163 L 169 201 L 133 221 L 133 183.5 L 132 182.5 L 133.5 183 L 148 174.5 L 147 172.5 L 148.5 173 L 150 173.5 L 149 174.5 L 149 188 L 154 186 L 154 172.5 L 152.5 172 L 151 172.5 L 152.5 170 L 154.5 171 L 168.5 163 Z " /><path fill="rgb(248,187,75)" stroke="rgb(248,187,75)" stroke-width="1" opacity="0.984313725490196" d="M 147.5 167 L 148.5 169 L 147.5 167 Z " /><path fill="rgb(248,187,75)" stroke="rgb(248,187,75)" stroke-width="1" opacity="0.984313725490196" d="M 140.5 168 L 141.5 170 L 140.5 168 Z " /><path fill="rgb(248,187,75)" stroke="rgb(248,187,75)" stroke-width="1" opacity="0.984313725490196" d="M 102.5 175 L 103 177.5 L 102 177.5 L 102.5 175 Z " /><path fill="rgb(248,187,75)" stroke="rgb(248,187,75)" stroke-width="1" opacity="0.984313725490196" d="M 272 181 L 274 181.5 L 271 183.5 L 272 181 Z " /><path fill="rgb(248,187,75)" stroke="rgb(248,187,75)" stroke-width="1" opacity="0.984313725490196" d="M 62.5 182 L 65 182.5 L 61 184.5 L 61.5 186 Q 58 184 62.5 182 Z " /><path fill="rgb(248,187,75)" stroke="rgb(248,187,75)" stroke-width="1" opacity="0.984313725490196" d="M 264.5 182 L 263.5 184 L 264.5 182 Z " /><path fill="rgb(248,187,75)" stroke="rgb(248,187,75)" stroke-width="1" opacity="0.984313725490196" d="M 98.5 183 L 99.5 185 L 98.5 183 Z " /><path fill="rgb(248,187,75)" stroke="rgb(248,187,75)" stroke-width="1" opacity="0.984313725490196" d="M 101.5 185 L 102.5 187 L 101.5 185 Z " /><path fill="rgb(248,187,75)" stroke="rgb(248,187,75)" stroke-width="1" opacity="0.984313725490196" d="M 257.5 186 L 256.5 188 L 257.5 186 Z " /><path fill="rgb(248,187,75)" stroke="rgb(248,187,75)" stroke-width="1" opacity="0.984313725490196" d="M 265.5 186 L 264.5 188 L 265.5 186 Z " /><path fill="rgb(248,187,75)" stroke="rgb(248,187,75)" stroke-width="1" opacity="0.984313725490196" d="M 65.5 187 L 66.5 189 L 65.5 187 Z " /><path fill="rgb(248,187,75)" stroke="rgb(248,187,75)" stroke-width="1" opacity="0.984313725490196" d="M 75.5 188 L 76.5 190 L 75.5 188 Z " /><path fill="rgb(248,187,75)" stroke="rgb(248,187,75)" stroke-width="1" opacity="0.984313725490196" d="M 252.5 189 L 251.5 191 L 252.5 189 Z " /><path fill="rgb(248,187,75)" stroke="rgb(248,187,75)" stroke-width="1" opacity="0.984313725490196" d="M 258.5 190 L 257.5 192 L 258.5 190 Z " /><path fill="rgb(248,187,75)" stroke="rgb(248,187,75)" stroke-width="1" opacity="0.984313725490196" d="M 82.5 192 L 83.5 194 L 82.5 192 Z " /><path fill="rgb(248,187,75)" stroke="rgb(248,187,75)" stroke-width="1" opacity="0.984313725490196" d="M 113.5 192 Q 115.8 192.8 115 196.5 Q 112.7 197.8 114 202.5 L 115 203.5 L 115 231.5 L 82.5 251 L 78.5 252 L 79 250.5 L 80 214.5 L 81.5 213 L 95 206 L 95 218.5 L 96.5 219 L 99 218 L 99 203.5 L 101.5 201 L 114 193.5 L 113.5 192 Z " /><path fill="rgb(248,187,75)" stroke="rgb(248,187,75)" stroke-width="1" opacity="0.984313725490196" d="M 44.5 193 L 45.5 195 L 44.5 193 Z " /><path fill="rgb(248,187,75)" stroke="rgb(248,187,75)" stroke-width="1" opacity="0.984313725490196" d="M 245.5 193 L 244.5 195 L 245.5 193 Z " /><path fill="rgb(248,187,75)" stroke="rgb(248,187,75)" stroke-width="1" opacity="0.984313725490196" d="M 253.5 193 L 252.5 195 L 253.5 193 Z " /><path fill="rgb(248,187,75)" stroke="rgb(248,187,75)" stroke-width="1" opacity="0.984313725490196" d="M 77.5 194 L 78.5 196 L 77.5 194 Z " /><path fill="rgb(248,187,75)" stroke="rgb(248,187,75)" stroke-width="1" opacity="0.984313725490196" d="M 89.5 196 L 90.5 198 L 89.5 196 Z " /><path fill="rgb(248,187,75)" stroke="rgb(248,187,75)" stroke-width="1" opacity="0.984313725490196" d="M 246.5 197 L 245.5 199 L 246.5 197 Z " /><path fill="rgb(248,187,75)" stroke="rgb(248,187,75)" stroke-width="1" opacity="0.984313725490196" d="M 94.5 199 L 95.5 201 L 94.5 199 Z " /><path fill="rgb(248,187,75)" stroke="rgb(248,187,75)" stroke-width="1" opacity="0.984313725490196" d="M 233.5 200 L 232.5 202 L 233.5 200 Z " /><path fill="rgb(248,187,75)" stroke="rgb(248,187,75)" stroke-width="1" opacity="0.984313725490196" d="M 241.5 200 L 240.5 202 L 241.5 200 Z " /><path fill="rgb(248,187,75)" stroke="rgb(248,187,75)" stroke-width="1" opacity="0.984313725490196" d="M 89.5 201 L 90.5 203 L 89.5 201 Z " /><path fill="rgb(248,187,75)" stroke="rgb(248,187,75)" stroke-width="1" opacity="0.984313725490196" d="M 226.5 204 L 225.5 206 L 226.5 204 Z " /><path fill="rgb(248,187,75)" stroke="rgb(248,187,75)" stroke-width="1" opacity="0.984313725490196" d="M 234.5 204 L 233.5 206 L 234.5 204 Z " /><path fill="rgb(248,187,75)" stroke="rgb(248,187,75)" stroke-width="1" opacity="0.984313725490196" d="M 227.5 208 L 226.5 210 L 227.5 208 Z " /><path fill="rgb(248,187,75)" stroke="rgb(248,187,75)" stroke-width="1" opacity="0.984313725490196" d="M 214.5 211 L 213.5 213 L 214.5 211 Z " /><path fill="rgb(248,187,75)" stroke="rgb(248,187,75)" stroke-width="1" opacity="0.984313725490196" d="M 222.5 211 L 221.5 213 L 222.5 211 Z " /><path fill="rgb(248,187,75)" stroke="rgb(248,187,75)" stroke-width="1" opacity="0.984313725490196" d="M 179 215 L 192 222.5 L 192 231.5 L 190.5 232 L 180.5 238 L 179 229.5 L 179 215 Z " /><path fill="rgb(248,187,75)" stroke="rgb(248,187,75)" stroke-width="1" opacity="0.984313725490196" d="M 215.5 215 L 214.5 217 L 215.5 215 Z " /><path fill="rgb(248,187,75)" stroke="rgb(248,187,75)" stroke-width="1" opacity="0.984313725490196" d="M 202.5 218 L 201.5 220 L 202.5 218 Z " /><path fill="rgb(248,187,75)" stroke="rgb(248,187,75)" stroke-width="1" opacity="0.984313725490196" d="M 210.5 218 L 209.5 220 L 210.5 218 Z " /><path fill="rgb(248,187,75)" stroke="rgb(248,187,75)" stroke-width="1" opacity="0.984313725490196" d="M 287.5 218 L 288 226.5 L 287 226.5 L 287.5 218 Z " /><path fill="rgb(248,187,75)" stroke="rgb(248,187,75)" stroke-width="1" opacity="0.984313725490196" d="M 203.5 222 L 202.5 224 L 203.5 222 Z " /><path fill="rgb(248,187,75)" stroke="rgb(248,187,75)" stroke-width="1" opacity="0.984313725490196" d="M 201 228 L 213 234 L 212.5 270 L 201 262.5 L 201 228 Z " /><path fill="rgb(248,187,75)" stroke="rgb(248,187,75)" stroke-width="1" opacity="0.984313725490196" d="M 191.5 239 L 192 257.5 L 189.5 256 L 180 250.5 Q 178.8 244.4 181.5 245 L 191.5 239 Z " /><path fill="rgb(248,187,75)" stroke="rgb(248,187,75)" stroke-width="1" opacity="0.984313725490196" d="M 144.5 256 L 143.5 258 L 144.5 256 Z " /><path fill="rgb(248,187,75)" stroke="rgb(248,187,75)" stroke-width="1" opacity="0.984313725490196" d="M 131.5 259 L 130.5 261 L 131.5 259 Z " /><path fill="rgb(248,187,75)" stroke="rgb(248,187,75)" stroke-width="1" opacity="0.984313725490196" d="M 139.5 259 L 138.5 261 L 139.5 259 Z " /><path fill="rgb(248,187,75)" stroke="rgb(248,187,75)" stroke-width="1" opacity="0.984313725490196" d="M 132.5 263 L 131.5 265 L 132.5 263 Z " /><path fill="rgb(248,187,75)" stroke="rgb(248,187,75)" stroke-width="1" opacity="0.984313725490196" d="M 161.5 264 L 162 267.5 L 161 267.5 L 161.5 264 Z " /><path fill="rgb(248,187,75)" stroke="rgb(248,187,75)" stroke-width="1" opacity="0.984313725490196" d="M 161.5 269 L 162 298.5 L 161 298.5 L 161.5 269 Z " /><path fill="rgb(248,187,75)" stroke="rgb(248,187,75)" stroke-width="1" opacity="0.984313725490196" d="M 112.5 270 L 111.5 272 L 112.5 270 Z " /><path fill="rgb(248,187,75)" stroke="rgb(248,187,75)" stroke-width="1" opacity="0.984313725490196" d="M 120.5 270 L 119.5 272 L 120.5 270 Z " /><path fill="rgb(248,187,75)" stroke="rgb(248,187,75)" stroke-width="1" opacity="0.984313725490196" d="M 113.5 274 L 112.5 276 L 113.5 274 Z " /><path fill="rgb(248,187,75)" stroke="rgb(248,187,75)" stroke-width="1" opacity="0.984313725490196" d="M 100.5 277 L 99.5 279 L 100.5 277 Z " /><path fill="rgb(248,187,75)" stroke="rgb(248,187,75)" stroke-width="1" opacity="0.984313725490196" d="M 108.5 277 L 107.5 279 L 108.5 277 Z " /><path fill="rgb(248,187,75)" stroke="rgb(248,187,75)" stroke-width="1" opacity="0.984313725490196" d="M 93.5 281 L 92.5 283 L 93.5 281 Z " /><path fill="rgb(248,187,75)" stroke="rgb(248,187,75)" stroke-width="1" opacity="0.984313725490196" d="M 101.5 281 L 100.5 283 L 101.5 281 Z " /><path fill="rgb(248,187,75)" stroke="rgb(248,187,75)" stroke-width="1" opacity="0.984313725490196" d="M 96.5 284 L 95.5 286 L 96.5 284 Z " /><path fill="rgb(248,187,75)" stroke="rgb(248,187,75)" stroke-width="1" opacity="0.984313725490196" d="M 53.5 287 L 54 289 L 66 295.5 L 66 304.5 L 64.5 305 L 54.5 311 L 53 302.5 L 53.5 287 Z " /><path fill="rgb(248,187,75)" stroke="rgb(248,187,75)" stroke-width="1" opacity="0.984313725490196" d="M 81.5 288 L 80.5 290 L 81.5 288 Z " /><path fill="rgb(248,187,75)" stroke="rgb(248,187,75)" stroke-width="1" opacity="0.984313725490196" d="M 89.5 288 L 88.5 290 L 89.5 288 Z " /><path fill="rgb(248,187,75)" stroke="rgb(248,187,75)" stroke-width="1" opacity="0.984313725490196" d="M 82.5 292 L 81.5 294 L 82.5 292 Z " /><path fill="rgb(248,187,75)" stroke="rgb(248,187,75)" stroke-width="1" opacity="0.984313725490196" d="M 77.5 295 L 76.5 297 L 77.5 295 Z " /><path fill="rgb(248,187,75)" stroke="rgb(248,187,75)" stroke-width="1" opacity="0.984313725490196" d="M 74.5 300 L 87 307 L 87 337.5 L 86 338.5 L 87 340.5 L 84.5 342 L 74 335.5 L 74.5 300 Z " /><path fill="rgb(248,187,75)" stroke="rgb(248,187,75)" stroke-width="1" opacity="0.984313725490196" d="M 64.5 312 L 66 312.5 L 66 330.5 L 64.5 330 L 54 323.5 Q 52.8 317.4 55.5 318 L 64.5 312 Z " /><path fill="rgb(248,187,75)" stroke="rgb(248,187,75)" stroke-width="1" opacity="0.984313725490196" d="M 311 321 L 324 328 L 324 338.5 L 325.5 340 L 327.5 339 L 329 342 L 331 342 L 331 333.5 L 332.5 333 L 341 338.5 L 340.5 374 L 311 357 L 312 349.5 L 311 344.5 L 312 340.5 L 311 336.5 Q 313.5 335 312 329.5 L 311 328.5 L 311 321 Z M 320 343 L 320 347 L 334 355 Q 337 356 335 352 L 320 343 Z " /><path fill="rgb(248,187,75)" stroke="rgb(248,187,75)" stroke-width="1" opacity="0.984313725490196" d="M 240 362 L 254 370.5 L 254.5 381 L 256.5 380 L 259.5 384 L 260 374 L 274 381.5 L 273 386.5 L 274 391.5 L 273 395.5 L 274 398.5 L 273 399.5 L 273 416 L 241 397.5 L 241 370.5 L 240 369.5 L 240 362 Z M 249 384 L 249 388 L 263 396 Q 266 397 264 393 L 249 384 Z " /><path fill="rgb(248,187,75)" stroke="rgb(248,187,75)" stroke-width="1" opacity="0.984313725490196" d="M 99.5 375 L 101 375.5 L 95.5 379 L 95 377 L 99.5 375 Z " /><path fill="rgb(248,187,75)" stroke="rgb(248,187,75)" stroke-width="1" opacity="0.984313725490196" d="M 136.5 375 L 142 377 L 140.5 380 L 139.5 377 Q 135.7 376.8 136.5 375 Z " /><path fill="rgb(248,187,75)" stroke="rgb(248,187,75)" stroke-width="1" opacity="0.984313725490196" d="M 102.5 376 L 103.5 378 L 102.5 376 Z " /><path fill="rgb(248,187,75)" stroke="rgb(248,187,75)" stroke-width="1" opacity="0.984313725490196" d="M 97.5 379 L 98.5 381 L 97.5 379 Z " /><path fill="rgb(248,187,75)" stroke="rgb(248,187,75)" stroke-width="1" opacity="0.984313725490196" d="M 129.5 379 L 128.5 381 L 129.5 379 Z " /><path fill="rgb(248,187,75)" stroke="rgb(248,187,75)" stroke-width="1" opacity="0.984313725490196" d="M 109.5 380 L 110.5 382 L 109.5 380 Z " /><path fill="rgb(248,187,75)" stroke="rgb(248,187,75)" stroke-width="1" opacity="0.984313725490196" d="M 134.5 382 L 133.5 384 L 134.5 382 Z " /><path fill="rgb(248,187,75)" stroke="rgb(248,187,75)" stroke-width="1" opacity="0.984313725490196" d="M 114.5 383 L 115.5 385 L 114.5 383 Z " /><path fill="rgb(248,187,75)" stroke="rgb(248,187,75)" stroke-width="1" opacity="0.984313725490196" d="M 129.5 385 L 128.5 387 L 129.5 385 Z " /><path fill="rgb(248,187,75)" stroke="rgb(248,187,75)" stroke-width="1" opacity="0.984313725490196" d="M 109.5 386 L 110.5 388 L 109.5 386 Z " /><path fill="rgb(248,187,75)" stroke="rgb(248,187,75)" stroke-width="1" opacity="0.984313725490196" d="M 77 390 L 96 399.5 L 95 400.5 L 95 435 L 87.5 432 L 76 424.5 Q 74.5 419 77 417.5 L 75 416.5 L 76 411.5 L 74 411.5 L 77 410.5 Q 78 405.5 75 404.5 L 77 404.5 L 77 390 Z " /><path fill="rgb(248,187,75)" stroke="rgb(248,187,75)" stroke-width="1" opacity="0.984313725490196" d="M 110.5 390 L 109.5 392 L 110.5 390 Z " /><path fill="rgb(248,187,75)" stroke="rgb(248,187,75)" stroke-width="1" opacity="0.984313725490196" d="M 128.5 391 L 129.5 393 L 128.5 391 Z " /><path fill="rgb(248,187,75)" stroke="rgb(248,187,75)" stroke-width="1" opacity="0.984313725490196" d="M 117.5 392 L 116.5 394 L 117.5 392 Z " /><path fill="rgb(248,187,75)" stroke="rgb(248,187,75)" stroke-width="1" opacity="0.984313725490196" d="M 121.5 393 L 122.5 395 L 121.5 393 Z " /><path fill="rgb(248,187,75)" stroke="rgb(248,187,75)" stroke-width="1" opacity="0.984313725490196" d="M 133.5 394 L 134.5 396 L 133.5 394 Z " /><path fill="rgb(248,187,75)" stroke="rgb(248,187,75)" stroke-width="1" opacity="0.984313725490196" d="M 110.5 396 L 109.5 398 L 110.5 396 Z " /><path fill="rgb(248,187,75)" stroke="rgb(248,187,75)" stroke-width="1" opacity="0.984313725490196" d="M 60.5 397 L 62 397.5 L 58 399.5 L 59.5 402 Q 55 400 58.5 398 L 60.5 397 Z " /><path fill="rgb(248,187,75)" stroke="rgb(248,187,75)" stroke-width="1" opacity="0.984313725490196" d="M 63.5 397 L 64.5 399 L 63.5 397 Z " /><path fill="rgb(248,187,75)" stroke="rgb(248,187,75)" stroke-width="1" opacity="0.984313725490196" d="M 98.5 397 L 97.5 399 L 98.5 397 Z " /><path fill="rgb(248,187,75)" stroke="rgb(248,187,75)" stroke-width="1" opacity="0.984313725490196" d="M 128.5 397 L 129.5 399 L 128.5 397 Z " /><path fill="rgb(248,187,75)" stroke="rgb(248,187,75)" stroke-width="1" opacity="0.984313725490196" d="M 140.5 398 L 141.5 400 L 140.5 398 Z " /><path fill="rgb(248,187,75)" stroke="rgb(248,187,75)" stroke-width="1" opacity="0.984313725490196" d="M 103.5 400 L 102.5 402 L 103.5 400 Z " /><path fill="rgb(248,187,75)" stroke="rgb(248,187,75)" stroke-width="1" opacity="0.984313725490196" d="M 70.5 401 L 71.5 403 L 70.5 401 Z " /><path fill="rgb(248,187,75)" stroke="rgb(248,187,75)" stroke-width="1" opacity="0.984313725490196" d="M 100.5 402 Q 108.5 409.2 119 413 L 119 447.5 L 120 448.5 L 117.5 449 L 101 438.5 L 101 403.5 L 100.5 402 Z " /><path fill="rgb(248,187,75)" stroke="rgb(248,187,75)" stroke-width="1" opacity="0.984313725490196" d="M 70.5 407 L 71.5 409 L 70.5 407 Z " /><path fill="rgb(248,187,75)" stroke="rgb(248,187,75)" stroke-width="1" opacity="0.984313725490196" d="M 38.5 410 L 57 421.5 L 56.5 458 L 38 446.5 L 38.5 410 Z " /><path fill="rgb(248,187,75)" stroke="rgb(248,187,75)" stroke-width="1" opacity="0.984313725490196" d="M 68.5 414 L 67.5 416 L 68.5 414 Z " /><path fill="rgb(248,187,75)" stroke="rgb(248,187,75)" stroke-width="1" opacity="0.984313725490196" d="M 73.5 417 L 72.5 419 L 73.5 417 Z " /><path fill="rgb(248,187,75)" stroke="rgb(248,187,75)" stroke-width="1" opacity="0.984313725490196" d="M 61.5 418 L 60.5 420 L 61.5 418 Z " /><path fill="rgb(248,187,75)" stroke="rgb(248,187,75)" stroke-width="1" opacity="0.984313725490196" d="M 68.5 420 L 67.5 422 L 68.5 420 Z " /><path fill="rgb(248,187,75)" stroke="rgb(248,187,75)" stroke-width="1" opacity="0.984313725490196" d="M 63.5 425 L 81 435.5 L 81 470.5 L 79.5 471 L 61 460.5 L 63 460 L 63.5 425 Z " /><path fill="rgb(248,187,75)" stroke="rgb(248,187,75)" stroke-width="1" opacity="0.984313725490196" d="M 150.5 430 L 149.5 432 L 150.5 430 Z " /><path fill="rgb(248,187,75)" stroke="rgb(248,187,75)" stroke-width="1" opacity="0.984313725490196" d="M 157.5 431 L 163 434.5 L 161 435.5 Q 161.8 433.3 159.5 434 Q 157.8 430.9 156 432.5 L 157.5 431 Z " /><path fill="rgb(248,187,75)" stroke="rgb(248,187,75)" stroke-width="1" opacity="0.984313725490196" d="M 143.5 434 L 142.5 436 L 143.5 434 Z " /><path fill="rgb(248,187,75)" stroke="rgb(248,187,75)" stroke-width="1" opacity="0.984313725490196" d="M 157.5 437 L 156.5 439 L 157.5 437 Z " /><path fill="rgb(248,187,75)" stroke="rgb(248,187,75)" stroke-width="1" opacity="0.984313725490196" d="M 145.5 438 L 144.5 440 L 145.5 438 Z " /><path fill="rgb(248,187,75)" stroke="rgb(248,187,75)" stroke-width="1" opacity="0.984313725490196" d="M 137.5 441 L 138.5 443 L 137.5 441 Z " /><path fill="rgb(248,187,75)" stroke="rgb(248,187,75)" stroke-width="1" opacity="0.984313725490196" d="M 150.5 441 L 149.5 443 L 150.5 441 Z " /><path fill="rgb(248,187,75)" stroke="rgb(248,187,75)" stroke-width="1" opacity="0.984313725490196" d="M 130.5 443 L 131.5 445 L 130.5 443 Z " /><path fill="rgb(248,187,75)" stroke="rgb(248,187,75)" stroke-width="1" opacity="0.984313725490196" d="M 126.5 444 L 125.5 446 L 126.5 444 Z " /><path fill="rgb(248,187,75)" stroke="rgb(248,187,75)" stroke-width="1" opacity="0.984313725490196" d="M 145.5 444 L 145.5 447 Q 142.5 445.5 145.5 444 Z " /><path fill="rgb(248,187,75)" stroke="rgb(248,187,75)" stroke-width="1" opacity="0.984313725490196" d="M 97 446 L 115 456.5 L 114.5 493 L 96 481.5 L 97 446 Z " /><path fill="rgb(248,187,75)" stroke="rgb(248,187,75)" stroke-width="1" opacity="0.984313725490196" d="M 149.5 448 L 150.5 450 L 149.5 448 Z " /><path fill="rgb(248,187,75)" stroke="rgb(248,187,75)" stroke-width="1" opacity="0.984313725490196" d="M 126.5 449 L 125.5 451 L 126.5 449 Z " /><path fill="rgb(248,187,75)" stroke="rgb(248,187,75)" stroke-width="1" opacity="0.984313725490196" d="M 154.5 451 L 155.5 453 L 154.5 451 Z " /><path fill="rgb(248,187,75)" stroke="rgb(248,187,75)" stroke-width="1" opacity="0.984313725490196" d="M 131.5 452 L 130.5 454 L 131.5 452 Z " /><path fill="rgb(248,187,75)" stroke="rgb(248,187,75)" stroke-width="1" opacity="0.984313725490196" d="M 149.5 454 L 150.5 456 L 149.5 454 Z " /><path fill="rgb(248,187,75)" stroke="rgb(248,187,75)" stroke-width="1" opacity="0.984313725490196" d="M 126.5 455 L 125.5 457 L 126.5 455 Z " /><path fill="rgb(248,187,75)" stroke="rgb(248,187,75)" stroke-width="1" opacity="0.984313725490196" d="M 121 460 L 139 470.5 L 139 505.5 L 137.5 506 L 120 495.5 L 121 494.5 L 121 460 Z " /><path fill="rgb(73,91,128)" stroke="rgb(73,91,128)" stroke-width="1" opacity="0.9490196078431372" d="M 266.5 4 L 272 5 L 272 21.5 L 297.5 65 L 319 54 L 319 37.5 L 320.5 36 L 323.5 35 L 327 37.5 L 327 222.5 L 326 223.5 L 327 227.5 L 324.5 231 L 318 234 L 318 224.5 L 320.5 222 L 323 220.5 Q 324 215 320.5 214 L 309 207.5 L 294 180 L 291.5 180 L 284.5 185 L 280.5 186 L 276 184 L 277.5 181 L 281.5 180 L 290 174.5 L 278 153.5 L 284.5 150 L 292 160.5 L 296 170 L 302.5 168 L 319 157.5 L 319 129.5 L 320.5 129 L 323 128 L 323 122.5 L 321.5 122 L 293.5 75 L 280.5 81 L 276 77.5 L 290 69.5 L 272.5 38 L 272 75 L 264 70.5 L 264 5.5 L 265.5 5 L 266.5 4 Z M 319 60 L 300 71 L 318 102 L 319 102 L 319 60 Z M 319 165 L 300 175 L 318 206 L 319 194 L 319 192 L 319 165 Z " /><path fill="rgb(73,91,128)" stroke="rgb(73,91,128)" stroke-width="1" opacity="0.9490196078431372" d="M 140.5 77 L 146 78 L 146 94.5 L 171.5 139 L 193 127 L 193 111.5 L 195.5 109 L 201 111.5 L 201 142.5 L 200 143.5 L 200 145.5 Q 198.8 150.3 201 151.5 L 200 154.5 L 201 160.5 L 200 161.5 L 200 197.5 L 201 202.5 L 200 203.5 L 200 312.5 L 198.5 314 L 196.5 315 L 192 313 L 192 296.5 L 193.5 296 L 197 293.5 Q 198 288 194.5 287 L 183 280.5 L 168 253 L 153.5 259 L 150 256.5 L 164 247.5 L 152 226 L 158.5 223 L 171.5 244 L 193 230.5 L 193 208.5 L 192 203.5 L 197 201 L 197 195.5 L 195.5 195 L 193 194 L 191 187.5 L 167.5 148 L 154.5 154 L 150 152 Q 148.9 149.3 151.5 150 L 164 143 L 146.5 112 L 145.5 149 L 138 145 L 138 78.5 L 139.5 78 L 140.5 77 Z M 193 133 L 174 143 L 185 164 Q 186 166 188 164 L 187 166 L 192 176 L 193 176 L 193 133 Z M 193 238 L 174 248 L 191 280 L 193 281 L 193 238 Z " /><path fill="rgb(73,91,128)" stroke="rgb(73,91,128)" stroke-width="1" opacity="0.9490196078431372" d="M 241.5 125 Q 244.5 125.5 244 129.5 Q 242.5 132.5 241 129.5 L 241.5 125 Z " /><path fill="rgb(73,91,128)" stroke="rgb(73,91,128)" stroke-width="1" opacity="0.9490196078431372" d="M 248.5 130 L 249 138 L 252 139.5 L 250.5 139 L 247 137.5 L 248.5 130 Z " /><path fill="rgb(73,91,128)" stroke="rgb(73,91,128)" stroke-width="1" opacity="0.9490196078431372" d="M 251.5 132 L 253 134.5 L 251 133.5 L 251.5 132 Z " /><path fill="rgb(73,91,128)" stroke="rgb(73,91,128)" stroke-width="1" opacity="0.9490196078431372" d="M 14.5 150 L 20 151 L 20 168.5 L 45.5 212 L 67 200 L 67 184.5 L 68.5 183 L 71.5 182 L 74 183 L 74 271.5 L 75 275.5 L 74 276.5 L 74 386 L 70.5 388 L 66 384.5 L 66 368.5 L 40.5 325 L 19 338.5 L 19 353.5 L 16.5 356 L 11 354 L 11 289.5 L 12 287.5 L 11 285.5 L 12 284.5 L 12 237.5 L 11 235.5 L 12 234.5 L 12 151 L 14.5 150 Z M 21 185 L 21 226 L 38 216 L 21 185 Z M 66 206 L 48 217 L 65 248 L 67 249 L 67 207 L 66 206 Z M 42 220 L 19 234 L 19 243 L 20 244 L 20 275 L 34 297 L 44 317 L 67 305 L 67 281 L 66 280 L 67 273 L 67 271 L 67 265 L 64 259 L 42 220 Z M 21 290 L 20 317 L 19 318 L 20 320 L 19 323 L 20 332 L 38 321 L 21 290 Z M 66 311 L 48 322 L 49 326 L 66 355 L 67 355 L 67 312 L 66 311 Z " /><path fill="rgb(73,91,128)" stroke="rgb(73,91,128)" stroke-width="1" opacity="0.9490196078431372" d="M 186 156 L 189 157.5 Q 190.7 163.3 187 162 L 186 156 Z " /><path fill="rgb(73,91,128)" stroke="rgb(73,91,128)" stroke-width="1" opacity="0.9490196078431372" d="M 271.5 157 L 272 180 L 264 177 L 264 161.5 L 265.5 161 L 271.5 157 Z " /><path fill="rgb(73,91,128)" stroke="rgb(73,91,128)" stroke-width="1" opacity="0.9490196078431372" d="M 115.5 198 Q 118.3 199.4 117 204 L 115 204 L 115.5 198 Z " /><path fill="rgb(73,91,128)" stroke="rgb(73,91,128)" stroke-width="1" opacity="0.9490196078431372" d="M 122.5 203 L 123 208.5 L 122 208.5 L 121 204.5 L 122.5 203 Z " /><path fill="rgb(73,91,128)" stroke="rgb(73,91,128)" stroke-width="1" opacity="0.9490196078431372" d="M 125.5 205 L 127 207.5 L 125 211.5 L 126.5 214 L 121 210.5 L 122.5 210 L 125 211 L 126 207.5 L 125.5 205 Z " /><path fill="rgb(73,91,128)" stroke="rgb(73,91,128)" stroke-width="1" opacity="0.9490196078431372" d="M 278.5 215 L 279 221.5 L 277.5 227 Q 277.8 222.8 275 221.5 L 275 217.5 L 278.5 215 Z " /><path fill="rgb(73,91,128)" stroke="rgb(73,91,128)" stroke-width="1" opacity="0.9490196078431372" d="M 269.5 221 L 271 223.5 Q 268.8 224.8 270 229.5 Q 272.2 230.8 269.5 232 L 263.5 235 L 263.5 234 L 265 233.5 L 264 232.5 L 264 224.5 L 266 225.5 L 265 232.5 L 266.5 232 L 270 230.5 L 268 223.5 L 269.5 221 Z " /><path fill="rgb(73,91,128)" stroke="rgb(73,91,128)" stroke-width="1" opacity="0.9490196078431372" d="M 338.5 223 L 340.5 223 L 404.5 260 L 413 266.5 L 421 285.5 L 421 331 L 433.5 336 L 437 333.5 L 428 327.5 L 431.5 326 L 440.5 332 L 445 330 L 443.5 327 L 436 322.5 L 438.5 321 L 449.5 327 L 453 324.5 Q 453.8 322.3 451.5 323 L 444 319 Q 442.7 315.7 447.5 317 L 455.5 322 L 458.5 322 Q 463 320 459.5 318 L 447 310.5 Q 445.9 307.2 448.5 308 L 464.5 318 L 469 316 L 467.5 313 L 447 302 Q 445.5 298.2 448.5 299 L 473.5 313 L 477 310.5 Q 477.8 308.3 475.5 309 L 447 291.5 L 447.5 289 L 475.5 306 L 482.5 308 Q 487.5 305.5 482.5 303 L 448 284 L 448 279 L 446.5 279 L 422 265 Q 420.9 262.3 423.5 263 L 428.5 260 L 501 302.5 L 501 356.5 L 500 357.5 L 501 359.5 L 500 360.5 L 500 368 L 494.5 371 L 489 368 L 488.5 321 L 421 360 L 421 375.5 L 419.5 376 Q 418.4 378.8 415 378 L 416 290.5 L 406 267 L 393.5 261 L 334 225.5 L 338.5 223 Z M 422 333 L 421 339 L 425 341 L 428 340 L 429 337 L 422 333 Z M 422 343 L 421 348 L 422 348 L 422 343 Z " /><path fill="rgb(73,91,128)" stroke="rgb(73,91,128)" stroke-width="1" opacity="0.9490196078431372" d="M 60.5 229 L 63 230 L 63 235 L 61 235 L 60.5 229 Z " /><path fill="rgb(73,91,128)" stroke="rgb(73,91,128)" stroke-width="1" opacity="0.9490196078431372" d="M 145.5 230 L 146 249.5 L 145 253 L 137 248.5 L 137 235.5 L 138.5 234 L 145.5 230 Z " /><path fill="rgb(73,91,128)" stroke="rgb(73,91,128)" stroke-width="1" opacity="0.9490196078431372" d="M 271.5 262 L 342.5 302 L 346 305.5 L 354 324.5 L 354 415 L 347.5 418 L 333.5 411 L 266 450 L 266 504.5 L 264.5 506 Q 263.1 508.6 258.5 508 L 254 504.5 L 254 450.5 L 252.5 449 L 199 419 L 199 431.5 L 200 432.5 L 199 433.5 L 199 468.5 L 197.5 470 L 192.5 472 L 188 468.5 L 188 400.5 L 190.5 398 L 240 370 L 240 376.5 L 238 380.5 Q 240.8 381.6 240 385 L 232.5 381 Q 229.3 382.2 230 386 L 240 391.5 Q 241.1 394.8 238.5 394 L 227.5 387 L 223.5 386 L 222 389.5 L 279.5 424 L 282.5 424 L 286 421.5 L 276 415.5 L 279.5 414 L 289.5 420 L 294 418 Q 295.1 415.3 292.5 416 L 284 410.5 L 286.5 409 L 298.5 415 L 302 412.5 L 292 406.5 L 295.5 405 L 305.5 411 L 310 407.5 L 300 401.5 L 303.5 400 L 313.5 406 L 318 403.5 L 306 395.5 L 306.5 393 L 319.5 401 L 322.5 401 L 326 398.5 L 306 386.5 Q 304.9 383.2 307.5 384 L 329.5 397 L 334 393.5 L 306 378 L 306.5 374 L 337.5 392 L 341 389.5 Q 341.8 387.3 339.5 388 L 306 367.5 L 306.5 365 L 342 385 Q 343.3 379.5 339.5 378 L 291.5 350 L 287.5 349 L 285.5 350 L 282 347.5 L 283.5 345 L 311 330 L 310 339.5 L 311 342.5 L 309.5 342 L 303.5 340 L 302 343.5 L 311 349.5 Q 312.1 352.8 309.5 352 L 296.5 344 Q 293.5 344.5 294 348.5 L 342 376 L 341 369.5 L 342 368.5 L 342 330.5 L 334 312.5 L 331.5 310 L 327.5 309 L 269 275 L 265 280.5 L 265 348 L 256 352 L 256 275.5 L 265.5 265 L 267 265.5 Q 266.3 263.3 268.5 264 L 271.5 262 Z M 298 286 L 297 288 L 311 296 Q 313 297 312 295 L 298 286 Z M 217 390 Q 213 391 214 395 L 273 429 L 278 427 L 217 390 Z M 208 395 Q 205 396 206 400 L 266 434 L 270 431 L 210 395 L 208 395 Z " /><path fill="rgb(73,91,128)" stroke="rgb(73,91,128)" stroke-width="1" opacity="0.9490196078431372" d="M 152.5 288 L 153 293.5 L 151.5 300 Q 151.8 295.8 149 294.5 L 149 290.5 L 152.5 288 Z " /><path fill="rgb(73,91,128)" stroke="rgb(73,91,128)" stroke-width="1" opacity="0.9490196078431372" d="M 143.5 294 L 144 302.5 L 145 303.5 L 137.5 308 L 137.5 307 L 139 306.5 L 138 305.5 L 138 297.5 L 140 298.5 L 139 305.5 L 140.5 305 L 144 303.5 L 142 296.5 L 143.5 294 Z " /><path fill="rgb(73,91,128)" stroke="rgb(73,91,128)" stroke-width="1" opacity="0.9490196078431372" d="M 321.5 344 L 334 351.5 Q 335.1 354.8 332.5 354 L 320 345.5 L 321.5 344 Z " /><path fill="rgb(73,91,128)" stroke="rgb(73,91,128)" stroke-width="1" opacity="0.9490196078431372" d="M 250 385 L 264 392 Q 265.5 395.7 262.5 395 L 250 387.5 L 250 385 Z " /></svg>