<svg width="512" height="512" version="1.1" xmlns="http://www.w3.org/2000/svg" desc="Created with imagetracer.js version 1.2.6" ><path fill="rgb(0,0,0)" stroke="rgb(0,0,0)" stroke-width="1" opacity="0" d="M 0 0 L 512 0 L 512 512 L 0 512 L 0 0 Z M 63 58 L 53 61 L 44 67 Q 17 87 10 128 L 11 143 L 18 156 L 23 158 L 24 160 L 25 172 L 27 178 L 34 188 Q 33 190 36 189 L 40 194 L 40 207 L 41 209 L 45 211 L 45 387 L 44 388 L 44 405 L 99 436 L 142 411 L 144 409 L 144 333 L 154 328 L 144 315 L 145 266 L 147 264 L 227 375 Q 231 403 246 421 L 259 432 L 279 444 L 291 450 L 307 454 L 332 453 L 358 445 Q 385 433 406 414 Q 444 379 470 332 Q 484 306 493 276 L 499 250 L 500 237 L 501 236 L 501 225 L 502 224 L 501 196 L 498 180 L 492 163 L 482 147 L 469 134 L 449 122 L 434 115 L 418 112 L 406 112 L 385 116 Q 369 120 358 128 L 311 124 L 310 123 L 300 123 L 299 122 L 290 122 L 289 121 L 280 121 L 279 120 L 269 120 L 268 119 L 259 119 L 258 118 L 249 118 L 248 117 L 238 117 L 227 115 L 207 114 L 199 112 L 197 110 L 188 101 L 120 62 L 107 58 L 96 58 L 83 62 Q 76 56 63 58 Z " /><path fill="rgb(236,94,114)" stroke="rgb(236,94,114)" stroke-width="1" opacity="0.996078431372549" d="M 92.5 59 Q 105.2 57.3 113.5 60 L 183 99.5 L 181.5 100 L 180.5 99 L 165.5 99 Q 140.1 107.6 125 126.5 Q 110.7 143.2 102 165.5 L 96 190.5 L 96 205.5 L 100 220.5 L 107 229.5 L 105.5 229 L 39.5 192 L 33 186.5 L 26 172.5 L 24 156.5 L 25 155.5 L 25 145.5 L 28 131.5 L 36 111.5 Q 46.4 90.9 62.5 76 Q 74.3 64.3 92.5 59 Z " /><path fill="rgb(236,94,114)" stroke="rgb(236,94,114)" stroke-width="1" opacity="0.996078431372549" d="M 170.5 108 L 173 108.5 L 170.5 109 L 170.5 108 Z " /><path fill="rgb(236,94,114)" stroke="rgb(236,94,114)" stroke-width="1" opacity="0.996078431372549" d="M 177.5 108 L 180 108.5 L 177.5 109 L 177.5 108 Z " /><path fill="rgb(236,94,114)" stroke="rgb(236,94,114)" stroke-width="1" opacity="0.996078431372549" d="M 400.5 113 L 422.5 113 L 431.5 115 Q 445.3 119.7 456 127.5 L 454.5 128 L 442.5 124 L 424.5 123 L 423.5 124 L 411.5 125 L 394.5 130 L 372.5 141 Q 340.7 160.2 317 187.5 Q 282.9 225.9 262 277.5 L 254 300.5 L 248 325.5 L 246 346.5 L 245 347.5 L 245 375.5 L 246 376.5 L 246 384.5 L 248 394.5 L 253 411.5 Q 260.7 429.3 275 440.5 L 272.5 439 Q 256.2 432.3 246 419.5 Q 236 407.5 231 390.5 L 227 371.5 L 226 341.5 L 227 340.5 L 227 329.5 L 228 328.5 L 229 316.5 L 234 294.5 L 248 255.5 Q 273.8 198.3 316.5 158 Q 334.8 140.8 357.5 128 Q 375.9 117.4 400.5 113 Z " /><path fill="rgb(236,94,114)" stroke="rgb(236,94,114)" stroke-width="1" opacity="0.996078431372549" d="M 151.5 115 L 150.5 117 L 151.5 115 Z " /><path fill="rgb(236,94,114)" stroke="rgb(236,94,114)" stroke-width="1" opacity="0.996078431372549" d="M 148.5 117 L 146.5 120 L 148.5 117 Z " /><path fill="rgb(236,94,114)" stroke="rgb(236,94,114)" stroke-width="1" opacity="0.996078431372549" d="M 144.5 120 L 141.5 124 L 144.5 120 Z " /><path fill="rgb(236,94,114)" stroke="rgb(236,94,114)" stroke-width="1" opacity="0.996078431372549" d="M 134.5 130 L 131.5 134 L 134.5 130 Z " /><path fill="rgb(236,94,114)" stroke="rgb(236,94,114)" stroke-width="1" opacity="0.996078431372549" d="M 422.5 133 L 427 133.5 L 422.5 134 L 422.5 133 Z " /><path fill="rgb(236,94,114)" stroke="rgb(236,94,114)" stroke-width="1" opacity="0.996078431372549" d="M 434.5 133 L 438 133.5 L 434.5 134 L 434.5 133 Z " /><path fill="rgb(236,94,114)" stroke="rgb(236,94,114)" stroke-width="1" opacity="0.996078431372549" d="M 129.5 136 L 127.5 139 L 129.5 136 Z " /><path fill="rgb(236,94,114)" stroke="rgb(236,94,114)" stroke-width="1" opacity="0.996078431372549" d="M 126.5 140 L 125.5 142 L 126.5 140 Z " /><path fill="rgb(236,94,114)" stroke="rgb(236,94,114)" stroke-width="1" opacity="0.996078431372549" d="M 463.5 143 L 464.5 145 L 463.5 143 Z " /><path fill="rgb(236,94,114)" stroke="rgb(236,94,114)" stroke-width="1" opacity="0.996078431372549" d="M 122.5 146 L 121.5 148 L 122.5 146 Z " /><path fill="rgb(236,94,114)" stroke="rgb(236,94,114)" stroke-width="1" opacity="0.996078431372549" d="M 468.5 147 L 470.5 150 L 468.5 147 Z " /><path fill="rgb(236,94,114)" stroke="rgb(236,94,114)" stroke-width="1" opacity="0.996078431372549" d="M 370.5 153 L 369.5 155 L 370.5 153 Z " /><path fill="rgb(236,94,114)" stroke="rgb(236,94,114)" stroke-width="1" opacity="0.996078431372549" d="M 474.5 154 L 475.5 156 L 474.5 154 Z " /><path fill="rgb(236,94,114)" stroke="rgb(236,94,114)" stroke-width="1" opacity="0.996078431372549" d="M 367.5 155 L 366.5 157 L 367.5 155 Z " /><path fill="rgb(236,94,114)" stroke="rgb(236,94,114)" stroke-width="1" opacity="0.996078431372549" d="M 364.5 157 L 363.5 159 L 364.5 157 Z " /><path fill="rgb(236,94,114)" stroke="rgb(236,94,114)" stroke-width="1" opacity="0.996078431372549" d="M 360.5 160 L 359.5 162 L 360.5 160 Z " /><path fill="rgb(236,94,114)" stroke="rgb(236,94,114)" stroke-width="1" opacity="0.996078431372549" d="M 356.5 163 L 355.5 165 L 356.5 163 Z " /><path fill="rgb(236,94,114)" stroke="rgb(236,94,114)" stroke-width="1" opacity="0.996078431372549" d="M 352.5 166 L 349.5 170 L 352.5 166 Z " /><path fill="rgb(236,94,114)" stroke="rgb(236,94,114)" stroke-width="1" opacity="0.996078431372549" d="M 346.5 171 L 341.5 177 L 346.5 171 Z " /><path fill="rgb(236,94,114)" stroke="rgb(236,94,114)" stroke-width="1" opacity="0.996078431372549" d="M 107.5 184 L 108 186.5 L 107 186.5 L 107.5 184 Z " /><path fill="rgb(236,94,114)" stroke="rgb(236,94,114)" stroke-width="1" opacity="0.996078431372549" d="M 326.5 191 L 322.5 196 L 326.5 191 Z " /><path fill="rgb(236,94,114)" stroke="rgb(236,94,114)" stroke-width="1" opacity="0.996078431372549" d="M 106.5 192 L 107 200.5 L 106 200.5 L 106.5 192 Z " /><path fill="rgb(236,94,114)" stroke="rgb(236,94,114)" stroke-width="1" opacity="0.996078431372549" d="M 319.5 199 L 317.5 202 L 319.5 199 Z " /><path fill="rgb(236,94,114)" stroke="rgb(236,94,114)" stroke-width="1" opacity="0.996078431372549" d="M 107.5 205 L 108 207.5 L 107 207.5 L 107.5 205 Z " /><path fill="rgb(236,94,114)" stroke="rgb(236,94,114)" stroke-width="1" opacity="0.996078431372549" d="M 314.5 205 L 313.5 207 L 314.5 205 Z " /><path fill="rgb(236,94,114)" stroke="rgb(236,94,114)" stroke-width="1" opacity="0.996078431372549" d="M 491.5 206 L 492 222.5 L 491 222.5 L 491.5 206 Z " /><path fill="rgb(236,94,114)" stroke="rgb(236,94,114)" stroke-width="1" opacity="0.996078431372549" d="M 311.5 209 L 310.5 211 L 311.5 209 Z " /><path fill="rgb(236,94,114)" stroke="rgb(236,94,114)" stroke-width="1" opacity="0.996078431372549" d="M 308.5 213 L 307.5 215 L 308.5 213 Z " /><path fill="rgb(236,94,114)" stroke="rgb(236,94,114)" stroke-width="1" opacity="0.996078431372549" d="M 305.5 217 L 304.5 219 L 305.5 217 Z " /><path fill="rgb(236,94,114)" stroke="rgb(236,94,114)" stroke-width="1" opacity="0.996078431372549" d="M 112.5 219 L 113.5 221 L 112.5 219 Z " /><path fill="rgb(236,94,114)" stroke="rgb(236,94,114)" stroke-width="1" opacity="0.996078431372549" d="M 115.5 223 L 119.5 228 L 115.5 223 Z " /><path fill="rgb(236,94,114)" stroke="rgb(236,94,114)" stroke-width="1" opacity="0.996078431372549" d="M 297.5 229 L 296.5 231 L 297.5 229 Z " /><path fill="rgb(236,94,114)" stroke="rgb(236,94,114)" stroke-width="1" opacity="0.996078431372549" d="M 123.5 232 L 125.5 235 L 123.5 232 Z " /><path fill="rgb(236,94,114)" stroke="rgb(236,94,114)" stroke-width="1" opacity="0.996078431372549" d="M 490.5 233 L 491 235.5 L 490 235.5 L 490.5 233 Z " /><path fill="rgb(236,94,114)" stroke="rgb(236,94,114)" stroke-width="1" opacity="0.996078431372549" d="M 390.5 246 L 402.5 246 Q 409.3 248.3 413 253.5 L 417 263.5 L 418 274.5 L 417 275.5 L 416 287.5 L 407 309.5 Q 399.9 321.9 389.5 331 L 375.5 340 Q 369 343.5 357.5 342 L 349 336.5 Q 340.3 327.2 343 306.5 Q 349.5 275.5 369.5 258 Q 377.8 249.8 390.5 246 Z M 389 265 L 376 271 Q 362 281 358 301 L 358 312 L 362 320 L 367 322 L 376 322 L 387 315 Q 398 304 402 287 Q 404 275 399 270 Q 396 265 389 265 Z " /><path fill="rgb(236,94,114)" stroke="rgb(236,94,114)" stroke-width="1" opacity="0.996078431372549" d="M 133.5 273 Q 133.7 309.8 153 327.5 L 131.5 340 L 128 337.5 L 128 335.5 L 119 320.5 L 114 303.5 L 113.5 297 L 112.5 329 L 112 290.5 L 114.5 284 L 133.5 273 Z " /><path fill="rgb(236,94,114)" stroke="rgb(236,94,114)" stroke-width="1" opacity="0.996078431372549" d="M 121.5 333 L 122.5 335 L 121.5 333 Z " /><path fill="rgb(236,94,114)" stroke="rgb(236,94,114)" stroke-width="1" opacity="0.996078431372549" d="M 256.5 333 L 257 335.5 L 256 335.5 L 256.5 333 Z " /><path fill="rgb(236,94,114)" stroke="rgb(236,94,114)" stroke-width="1" opacity="0.996078431372549" d="M 255.5 340 L 256 343.5 L 255 343.5 L 255.5 340 Z " /><path fill="rgb(236,94,114)" stroke="rgb(236,94,114)" stroke-width="1" opacity="0.996078431372549" d="M 450.5 344 L 449.5 346 L 450.5 344 Z " /><path fill="rgb(236,94,114)" stroke="rgb(236,94,114)" stroke-width="1" opacity="0.996078431372549" d="M 254.5 350 L 255 372.5 L 254 372.5 L 254.5 350 Z " /><path fill="rgb(236,94,114)" stroke="rgb(236,94,114)" stroke-width="1" opacity="0.996078431372549" d="M 440.5 359 L 439.5 361 L 440.5 359 Z " /><path fill="rgb(236,94,114)" stroke="rgb(236,94,114)" stroke-width="1" opacity="0.996078431372549" d="M 437.5 363 L 436.5 365 L 437.5 363 Z " /><path fill="rgb(236,94,114)" stroke="rgb(236,94,114)" stroke-width="1" opacity="0.996078431372549" d="M 434.5 367 L 433.5 369 L 434.5 367 Z " /><path fill="rgb(236,94,114)" stroke="rgb(236,94,114)" stroke-width="1" opacity="0.996078431372549" d="M 431.5 371 L 429.5 374 L 431.5 371 Z " /><path fill="rgb(236,94,114)" stroke="rgb(236,94,114)" stroke-width="1" opacity="0.996078431372549" d="M 426.5 377 L 425.5 379 L 426.5 377 Z " /><path fill="rgb(236,94,114)" stroke="rgb(236,94,114)" stroke-width="1" opacity="0.996078431372549" d="M 255.5 379 L 256 381.5 L 255 381.5 L 255.5 379 Z " /><path fill="rgb(236,94,114)" stroke="rgb(236,94,114)" stroke-width="1" opacity="0.996078431372549" d="M 420.5 384 L 416.5 389 L 420.5 384 Z " /><path fill="rgb(236,94,114)" stroke="rgb(236,94,114)" stroke-width="1" opacity="0.996078431372549" d="M 405.5 399 L 400.5 405 L 405.5 399 Z " /><path fill="rgb(236,94,114)" stroke="rgb(236,94,114)" stroke-width="1" opacity="0.996078431372549" d="M 395.5 408 L 394.5 410 L 395.5 408 Z " /><path fill="rgb(236,94,114)" stroke="rgb(236,94,114)" stroke-width="1" opacity="0.996078431372549" d="M 390.5 412 L 389.5 414 L 390.5 412 Z " /><path fill="rgb(236,94,114)" stroke="rgb(236,94,114)" stroke-width="1" opacity="0.996078431372549" d="M 382.5 418 L 381.5 420 L 382.5 418 Z " /><path fill="rgb(236,94,114)" stroke="rgb(236,94,114)" stroke-width="1" opacity="0.996078431372549" d="M 379.5 420 L 378.5 422 L 379.5 420 Z " /><path fill="rgb(236,94,114)" stroke="rgb(236,94,114)" stroke-width="1" opacity="0.996078431372549" d="M 270.5 421 L 271.5 423 L 270.5 421 Z " /><path fill="rgb(236,94,114)" stroke="rgb(236,94,114)" stroke-width="1" opacity="0.996078431372549" d="M 376.5 422 L 375.5 424 L 376.5 422 Z " /><path fill="rgb(236,94,114)" stroke="rgb(236,94,114)" stroke-width="1" opacity="0.996078431372549" d="M 273.5 425 L 279.5 432 L 273.5 425 Z " /><path fill="rgb(236,94,114)" stroke="rgb(236,94,114)" stroke-width="1" opacity="0.996078431372549" d="M 282.5 433 L 283.5 435 L 282.5 433 Z " /><path fill="rgb(236,94,114)" stroke="rgb(236,94,114)" stroke-width="1" opacity="0.996078431372549" d="M 322.5 443 L 325 443.5 L 322.5 444 L 322.5 443 Z " /><path fill="rgb(60,64,82)" stroke="rgb(60,64,82)" stroke-width="1" opacity="0.9921568627450981" d="M 63.5 58 L 71.5 58 L 82 61 Q 83.1 63.7 80.5 63 Q 65.8 71.3 55 83.5 Q 41.9 98.4 33 117.5 L 26 139.5 L 23.5 159 L 16 152.5 L 11 140.5 L 11 121.5 Q 19.1 87.1 42.5 68 Q 50.5 60.5 63.5 58 Z " /><path fill="rgb(60,64,82)" stroke="rgb(60,64,82)" stroke-width="1" opacity="0.9921568627450981" d="M 40.5 192 L 107.5 231 L 117.5 236 L 127.5 237 L 129 238.5 L 147 263.5 L 140.5 266 L 44.5 211 L 41 207.5 L 40 205.5 L 40.5 192 Z " /><path fill="rgb(212,219,232)" stroke="rgb(212,219,232)" stroke-width="1" opacity="0.9882352941176471" d="M 167.5 109 L 181.5 109 L 197.5 113 L 199.5 113 L 224.5 115 L 225.5 116 L 246.5 117 L 256.5 119 L 277.5 120 L 287.5 122 L 289.5 122 L 319.5 124 L 320.5 125 L 350.5 127 L 357 128.5 L 340.5 139 L 311.5 134 L 304.5 134 L 303.5 133 L 288.5 132 L 287.5 131 L 265.5 129 L 257.5 127 L 211.5 122 L 203.5 120 L 157.5 115 L 156 113.5 L 167.5 109 Z " /><path fill="rgb(212,219,232)" stroke="rgb(212,219,232)" stroke-width="1" opacity="0.9882352941176471" d="M 443.5 136 L 444.5 138 L 443.5 136 Z " /><path fill="rgb(212,219,232)" stroke="rgb(212,219,232)" stroke-width="1" opacity="0.9882352941176471" d="M 466.5 146 L 471.5 152 L 466.5 146 Z " /><path fill="rgb(212,219,232)" stroke="rgb(212,219,232)" stroke-width="1" opacity="0.9882352941176471" d="M 328.5 147 L 327.5 149 L 328.5 147 Z " /><path fill="rgb(212,219,232)" stroke="rgb(212,219,232)" stroke-width="1" opacity="0.9882352941176471" d="M 321.5 153 L 320.5 155 L 321.5 153 Z " /><path fill="rgb(212,219,232)" stroke="rgb(212,219,232)" stroke-width="1" opacity="0.9882352941176471" d="M 459.5 175 L 460 178.5 L 459 178.5 L 459.5 175 Z " /><path fill="rgb(212,219,232)" stroke="rgb(212,219,232)" stroke-width="1" opacity="0.9882352941176471" d="M 298.5 176 L 297.5 178 L 298.5 176 Z " /><path fill="rgb(212,219,232)" stroke="rgb(212,219,232)" stroke-width="1" opacity="0.9882352941176471" d="M 334.5 183 L 332.5 186 L 334.5 183 Z " /><path fill="rgb(212,219,232)" stroke="rgb(212,219,232)" stroke-width="1" opacity="0.9882352941176471" d="M 336.5 183 L 340.5 188 L 336.5 183 Z " /><path fill="rgb(212,219,232)" stroke="rgb(212,219,232)" stroke-width="1" opacity="0.9882352941176471" d="M 460.5 183 L 461 189.5 L 460 189.5 L 460.5 183 Z " /><path fill="rgb(212,219,232)" stroke="rgb(212,219,232)" stroke-width="1" opacity="0.9882352941176471" d="M 288.5 188 L 287.5 190 L 288.5 188 Z " /><path fill="rgb(212,219,232)" stroke="rgb(212,219,232)" stroke-width="1" opacity="0.9882352941176471" d="M 346.5 192 L 352.5 199 L 346.5 192 Z " /><path fill="rgb(212,219,232)" stroke="rgb(212,219,232)" stroke-width="1" opacity="0.9882352941176471" d="M 323.5 195 L 322.5 197 L 323.5 195 Z " /><path fill="rgb(212,219,232)" stroke="rgb(212,219,232)" stroke-width="1" opacity="0.9882352941176471" d="M 318.5 201 L 317.5 203 L 318.5 201 Z " /><path fill="rgb(212,219,232)" stroke="rgb(212,219,232)" stroke-width="1" opacity="0.9882352941176471" d="M 490.5 201 L 491 203.5 L 490 203.5 L 490.5 201 Z " /><path fill="rgb(212,219,232)" stroke="rgb(212,219,232)" stroke-width="1" opacity="0.9882352941176471" d="M 359.5 204 L 365.5 211 L 359.5 204 Z " /><path fill="rgb(212,219,232)" stroke="rgb(212,219,232)" stroke-width="1" opacity="0.9882352941176471" d="M 460.5 205 L 461 211.5 L 460 211.5 L 460.5 205 Z " /><path fill="rgb(212,219,232)" stroke="rgb(212,219,232)" stroke-width="1" opacity="0.9882352941176471" d="M 45 212 L 99 242.5 L 98 243.5 L 98 435 L 47.5 407 L 44 403.5 Q 42.3 397.3 45 395.5 L 45 212 Z " /><path fill="rgb(212,219,232)" stroke="rgb(212,219,232)" stroke-width="1" opacity="0.9882352941176471" d="M 371.5 215 L 377.5 222 L 371.5 215 Z " /><path fill="rgb(212,219,232)" stroke="rgb(212,219,232)" stroke-width="1" opacity="0.9882352941176471" d="M 459.5 217 L 460 220.5 L 459 220.5 L 459.5 217 Z " /><path fill="rgb(212,219,232)" stroke="rgb(212,219,232)" stroke-width="1" opacity="0.9882352941176471" d="M 115.5 222 L 116.5 224 L 115.5 222 Z " /><path fill="rgb(212,219,232)" stroke="rgb(212,219,232)" stroke-width="1" opacity="0.9882352941176471" d="M 458.5 225 L 459 227.5 L 458 227.5 L 458.5 225 Z " /><path fill="rgb(212,219,232)" stroke="rgb(212,219,232)" stroke-width="1" opacity="0.9882352941176471" d="M 383.5 226 L 389.5 233 L 383.5 226 Z " /><path fill="rgb(212,219,232)" stroke="rgb(212,219,232)" stroke-width="1" opacity="0.9882352941176471" d="M 490.5 227 L 491 229.5 L 490 229.5 L 490.5 227 Z " /><path fill="rgb(212,219,232)" stroke="rgb(212,219,232)" stroke-width="1" opacity="0.9882352941176471" d="M 123.5 231 L 124.5 233 L 123.5 231 Z " /><path fill="rgb(212,219,232)" stroke="rgb(212,219,232)" stroke-width="1" opacity="0.9882352941176471" d="M 457.5 231 L 458 233.5 L 457 233.5 L 457.5 231 Z " /><path fill="rgb(212,219,232)" stroke="rgb(212,219,232)" stroke-width="1" opacity="0.9882352941176471" d="M 395.5 237 L 401.5 244 L 395.5 237 Z " /><path fill="rgb(212,219,232)" stroke="rgb(212,219,232)" stroke-width="1" opacity="0.9882352941176471" d="M 361.5 266 L 360.5 268 L 361.5 266 Z " /><path fill="rgb(212,219,232)" stroke="rgb(212,219,232)" stroke-width="1" opacity="0.9882352941176471" d="M 426.5 315 L 425.5 317 L 426.5 315 Z " /><path fill="rgb(212,219,232)" stroke="rgb(212,219,232)" stroke-width="1" opacity="0.9882352941176471" d="M 420.5 325 L 419.5 327 L 420.5 325 Z " /><path fill="rgb(212,219,232)" stroke="rgb(212,219,232)" stroke-width="1" opacity="0.9882352941176471" d="M 415.5 333 L 414.5 335 L 415.5 333 Z " /><path fill="rgb(212,219,232)" stroke="rgb(212,219,232)" stroke-width="1" opacity="0.9882352941176471" d="M 413.5 336 L 412.5 338 L 413.5 336 Z " /><path fill="rgb(212,219,232)" stroke="rgb(212,219,232)" stroke-width="1" opacity="0.9882352941176471" d="M 348.5 338 L 351 338.5 L 348.5 339 L 348.5 338 Z " /><path fill="rgb(212,219,232)" stroke="rgb(212,219,232)" stroke-width="1" opacity="0.9882352941176471" d="M 408.5 343 L 407.5 345 L 408.5 343 Z " /><path fill="rgb(212,219,232)" stroke="rgb(212,219,232)" stroke-width="1" opacity="0.9882352941176471" d="M 405.5 347 L 404.5 349 L 405.5 347 Z " /><path fill="rgb(212,219,232)" stroke="rgb(212,219,232)" stroke-width="1" opacity="0.9882352941176471" d="M 402.5 351 L 401.5 353 L 402.5 351 Z " /><path fill="rgb(212,219,232)" stroke="rgb(212,219,232)" stroke-width="1" opacity="0.9882352941176471" d="M 398.5 356 L 396.5 359 L 398.5 356 Z " /><path fill="rgb(212,219,232)" stroke="rgb(212,219,232)" stroke-width="1" opacity="0.9882352941176471" d="M 393.5 362 L 390.5 366 L 393.5 362 Z " /><path fill="rgb(212,219,232)" stroke="rgb(212,219,232)" stroke-width="1" opacity="0.9882352941176471" d="M 431.5 370 L 430.5 372 L 431.5 370 Z " /><path fill="rgb(212,219,232)" stroke="rgb(212,219,232)" stroke-width="1" opacity="0.9882352941176471" d="M 385.5 371 L 375.5 382 L 385.5 371 Z " /><path fill="rgb(212,219,232)" stroke="rgb(212,219,232)" stroke-width="1" opacity="0.9882352941176471" d="M 427.5 375 L 426.5 377 L 427.5 375 Z " /><path fill="rgb(212,219,232)" stroke="rgb(212,219,232)" stroke-width="1" opacity="0.9882352941176471" d="M 421.5 382 L 419.5 385 L 421.5 382 Z " /><path fill="rgb(212,219,232)" stroke="rgb(212,219,232)" stroke-width="1" opacity="0.9882352941176471" d="M 369.5 386 L 366.5 390 L 369.5 386 Z " /><path fill="rgb(212,219,232)" stroke="rgb(212,219,232)" stroke-width="1" opacity="0.9882352941176471" d="M 362.5 392 L 360.5 395 L 362.5 392 Z " /><path fill="rgb(212,219,232)" stroke="rgb(212,219,232)" stroke-width="1" opacity="0.9882352941176471" d="M 357.5 396 L 356.5 398 L 357.5 396 Z " /><path fill="rgb(212,219,232)" stroke="rgb(212,219,232)" stroke-width="1" opacity="0.9882352941176471" d="M 353.5 399 L 352.5 401 L 353.5 399 Z " /><path fill="rgb(212,219,232)" stroke="rgb(212,219,232)" stroke-width="1" opacity="0.9882352941176471" d="M 350.5 401 L 349.5 403 L 350.5 401 Z " /><path fill="rgb(212,219,232)" stroke="rgb(212,219,232)" stroke-width="1" opacity="0.9882352941176471" d="M 400.5 403 L 398.5 406 L 400.5 403 Z " /><path fill="rgb(212,219,232)" stroke="rgb(212,219,232)" stroke-width="1" opacity="0.9882352941176471" d="M 344.5 405 L 343.5 407 L 344.5 405 Z " /><path fill="rgb(212,219,232)" stroke="rgb(212,219,232)" stroke-width="1" opacity="0.9882352941176471" d="M 393.5 409 L 392.5 411 L 393.5 409 Z " /><path fill="rgb(212,219,232)" stroke="rgb(212,219,232)" stroke-width="1" opacity="0.9882352941176471" d="M 276.5 425 L 280 425.5 L 276.5 426 L 276.5 425 Z " /><path fill="rgb(212,219,232)" stroke="rgb(212,219,232)" stroke-width="1" opacity="0.9882352941176471" d="M 291.5 425 L 295 425.5 L 291.5 426 L 291.5 425 Z " /><path fill="rgb(212,219,232)" stroke="rgb(212,219,232)" stroke-width="1" opacity="0.9882352941176471" d="M 279.5 430 L 280.5 432 L 279.5 430 Z " /><path fill="rgb(212,219,232)" stroke="rgb(212,219,232)" stroke-width="1" opacity="0.9882352941176471" d="M 314.5 443 L 317 443.5 L 314.5 444 L 314.5 443 Z " /><path fill="rgb(227,69,85)" stroke="rgb(227,69,85)" stroke-width="1" opacity="0.9921568627450981" d="M 165.5 99 Q 188.5 96.5 196 109.5 L 197 111.5 L 194.5 112 L 179.5 108 L 170.5 108 L 161.5 110 L 151.5 115 L 131 133.5 Q 118.4 148.4 111 168.5 L 107 184.5 L 106 200.5 L 108 211.5 L 112 219.5 L 127 236.5 L 122.5 237 L 107 231 L 98 215.5 L 96 205.5 L 96 190.5 Q 105 141.5 136.5 115 Q 148.1 104.1 165.5 99 Z " /><path fill="rgb(227,69,85)" stroke="rgb(227,69,85)" stroke-width="1" opacity="0.9921568627450981" d="M 424.5 123 Q 443.6 122.4 456.5 128 Q 471.4 134.6 481 146.5 L 493 166.5 L 499 186.5 L 500 199.5 L 501 200.5 L 501 230.5 L 500 231.5 L 499 246.5 L 492 276.5 Q 481.9 309.9 466 337.5 Q 441.2 381.7 404.5 414 Q 384.4 431.9 358.5 444 L 338.5 451 L 328.5 453 L 312.5 454 L 311.5 453 L 298.5 452 L 281.5 445 Q 270.5 438.5 263 428.5 Q 241.8 400.2 245 347.5 L 246 346.5 L 248 325.5 L 254 300.5 Q 263.9 268.4 279 241.5 Q 303.4 197.4 339.5 165 Q 363.1 143.6 394.5 130 L 411.5 125 L 423.5 124 L 424.5 123 Z M 423 133 L 404 137 L 383 146 Q 363 157 347 171 Q 310 203 286 248 Q 272 273 263 303 L 257 328 L 256 340 L 255 341 L 255 350 L 254 351 L 254 373 L 255 374 L 255 382 L 258 397 Q 263 414 273 426 Q 285 440 308 444 L 325 444 L 336 442 L 351 437 Q 379 425 401 405 Q 435 374 458 333 Q 471 310 480 284 L 489 249 L 490 237 L 491 236 L 491 224 L 492 223 L 492 207 L 491 206 L 491 197 L 488 182 Q 483 162 471 150 Q 463 141 451 136 L 438 133 L 423 133 Z " /><path fill="rgb(227,69,85)" stroke="rgb(227,69,85)" stroke-width="1" opacity="0.9921568627450981" d="M 24.5 153 L 25 155.5 L 24 155.5 L 24.5 153 Z " /><path fill="rgb(227,69,85)" stroke="rgb(227,69,85)" stroke-width="1" opacity="0.9921568627450981" d="M 388.5 265 Q 396 265 399 269.5 Q 403.5 275 402 286.5 Q 397.9 304.4 386.5 315 L 375.5 322 L 366.5 322 L 362 320 L 358 311.5 L 358 300.5 Q 362.4 281.4 375.5 271 L 388.5 265 Z " /><path fill="rgb(227,69,85)" stroke="rgb(227,69,85)" stroke-width="1" opacity="0.9921568627450981" d="M 113.5 297 L 114 303.5 L 119 320.5 L 130 337.5 L 128.5 337 L 113 329 L 113.5 297 Z " /><path fill="rgb(227,230,240)" stroke="rgb(227,230,240)" stroke-width="1" opacity="0.996078431372549" d="M 98.5 243 L 99 281.5 L 98 281.5 L 98.5 243 Z " /><path fill="rgb(227,230,240)" stroke="rgb(227,230,240)" stroke-width="1" opacity="0.996078431372549" d="M 148.5 264 L 227 373.5 L 225 372.5 L 151 270.5 L 148 265.5 L 148.5 264 Z " /><path fill="rgb(227,230,240)" stroke="rgb(227,230,240)" stroke-width="1" opacity="1" d="M 155.5 114 L 340 138.5 Q 316 155.5 297 177.5 Q 261.8 217.3 241 271.5 L 233 296.5 L 228 319.5 L 227 333.5 L 226 334.5 L 226 367.5 L 227 371.5 L 225 370.5 L 138 249.5 L 111 216.5 L 107 201.5 L 107 190.5 L 110 174.5 L 118 154.5 Q 127.9 135.4 143.5 122 L 155.5 114 Z " /><path fill="rgb(227,230,240)" stroke="rgb(227,230,240)" stroke-width="1" opacity="1" d="M 443.5 135 Q 464.6 139.9 475 155.5 Q 483.9 167.6 488 184.5 L 490 195.5 L 490 203.5 L 491 204.5 L 491 226.5 L 490 227.5 L 490 236.5 L 489 237.5 L 488 249.5 L 482 274.5 Q 473.6 302.1 461 325.5 Q 437.2 370.2 401.5 403 Q 379.1 424.1 348.5 437 L 325.5 443 L 306.5 443 Q 286.3 439.3 275 426.5 L 275.5 425 L 276.5 426 L 294.5 426 Q 320.1 421.6 338.5 410 Q 365.4 393.9 386 371.5 Q 424.7 330.2 447 272.5 L 454 250.5 L 459 227.5 L 460 212.5 L 461 211.5 L 461 183.5 L 460 182.5 L 459 170.5 L 454 153.5 L 443.5 135 Z " /><path fill="rgb(227,230,240)" stroke="rgb(227,230,240)" stroke-width="1" opacity="1" d="M 335.5 183 L 404 245.5 L 402.5 246 L 401.5 245 L 392.5 245 Q 371.3 251.3 360 267.5 Q 351.4 278.4 346 292.5 L 342 309.5 L 342 321.5 L 344 329.5 L 350 337.5 L 347.5 338 L 262 311 Q 284 232.7 335.5 183 Z " /><path fill="rgb(227,230,240)" stroke="rgb(227,230,240)" stroke-width="1" opacity="1" d="M 134.5 273 L 135 280.5 L 134 280.5 L 134.5 273 Z " /><path fill="rgb(180,189,214)" stroke="rgb(180,189,214)" stroke-width="1" opacity="0.996078431372549" d="M 173.5 108 L 177 108.5 L 173.5 109 L 173.5 108 Z " /><path fill="rgb(180,189,214)" stroke="rgb(180,189,214)" stroke-width="1" opacity="0.996078431372549" d="M 140.5 124 L 135.5 130 L 140.5 124 Z " /><path fill="rgb(180,189,214)" stroke="rgb(180,189,214)" stroke-width="1" opacity="0.996078431372549" d="M 427.5 133 L 443 134 L 443 136.5 L 448 142.5 L 456 160.5 L 460 179.5 L 461 204.5 L 460 205.5 L 460 216.5 L 459 217.5 L 459 224.5 L 456 240.5 L 449 265.5 L 440 288.5 Q 414.3 346.3 370.5 386 Q 349.6 405.6 321.5 418 L 298.5 425 L 280.5 426 Q 279 423.5 273.5 425 L 272 423.5 Q 261.3 410.2 257 390.5 L 256 379.5 L 255 378.5 L 255 344.5 L 261.5 310 L 263.5 312 L 348.5 339 L 352.5 339 L 357.5 342 L 369.5 342 Q 387 336.5 397 323.5 Q 406.1 313.1 412 299.5 L 416 287.5 L 418 270.5 L 416 259.5 Q 413.8 252.8 408.5 249 L 404.5 246 L 403 246.5 L 404 245.5 L 395.5 237 L 335 182.5 Q 355.3 161.8 381.5 147 L 408.5 136 L 417.5 134 L 426.5 134 L 427.5 133 Z " /><path fill="rgb(180,189,214)" stroke="rgb(180,189,214)" stroke-width="1" opacity="0.996078431372549" d="M 331.5 145 L 330.5 147 L 331.5 145 Z " /><path fill="rgb(180,189,214)" stroke="rgb(180,189,214)" stroke-width="1" opacity="0.996078431372549" d="M 326.5 149 L 325.5 151 L 326.5 149 Z " /><path fill="rgb(180,189,214)" stroke="rgb(180,189,214)" stroke-width="1" opacity="0.996078431372549" d="M 472.5 152 L 473.5 154 L 472.5 152 Z " /><path fill="rgb(180,189,214)" stroke="rgb(180,189,214)" stroke-width="1" opacity="0.996078431372549" d="M 319.5 155 L 317.5 158 L 319.5 155 Z " /><path fill="rgb(180,189,214)" stroke="rgb(180,189,214)" stroke-width="1" opacity="0.996078431372549" d="M 302.5 172 L 299.5 176 L 302.5 172 Z " /><path fill="rgb(180,189,214)" stroke="rgb(180,189,214)" stroke-width="1" opacity="0.996078431372549" d="M 294.5 181 L 293.5 183 L 294.5 181 Z " /><path fill="rgb(180,189,214)" stroke="rgb(180,189,214)" stroke-width="1" opacity="0.996078431372549" d="M 331.5 186 L 327.5 191 L 331.5 186 Z " /><path fill="rgb(180,189,214)" stroke="rgb(180,189,214)" stroke-width="1" opacity="0.996078431372549" d="M 286.5 191 L 285.5 193 L 286.5 191 Z " /><path fill="rgb(180,189,214)" stroke="rgb(180,189,214)" stroke-width="1" opacity="0.996078431372549" d="M 321.5 197 L 320.5 199 L 321.5 197 Z " /><path fill="rgb(180,189,214)" stroke="rgb(180,189,214)" stroke-width="1" opacity="0.996078431372549" d="M 490.5 198 L 491 200.5 L 490 200.5 L 490.5 198 Z " /><path fill="rgb(180,189,214)" stroke="rgb(180,189,214)" stroke-width="1" opacity="0.996078431372549" d="M 316.5 203 L 315.5 205 L 316.5 203 Z " /><path fill="rgb(180,189,214)" stroke="rgb(180,189,214)" stroke-width="1" opacity="0.996078431372549" d="M 49.5 213 L 50.5 215 L 49.5 213 Z " /><path fill="rgb(180,189,214)" stroke="rgb(180,189,214)" stroke-width="1" opacity="0.996078431372549" d="M 56.5 217 L 57.5 219 L 56.5 217 Z " /><path fill="rgb(180,189,214)" stroke="rgb(180,189,214)" stroke-width="1" opacity="0.996078431372549" d="M 61.5 220 L 62.5 222 L 61.5 220 Z " /><path fill="rgb(180,189,214)" stroke="rgb(180,189,214)" stroke-width="1" opacity="0.996078431372549" d="M 68.5 224 L 69.5 226 L 68.5 224 Z " /><path fill="rgb(180,189,214)" stroke="rgb(180,189,214)" stroke-width="1" opacity="0.996078431372549" d="M 73.5 227 L 74.5 229 L 73.5 227 Z " /><path fill="rgb(180,189,214)" stroke="rgb(180,189,214)" stroke-width="1" opacity="0.996078431372549" d="M 120.5 228 L 122.5 231 L 120.5 228 Z " /><path fill="rgb(180,189,214)" stroke="rgb(180,189,214)" stroke-width="1" opacity="0.996078431372549" d="M 490.5 230 L 491 232.5 L 490 232.5 L 490.5 230 Z " /><path fill="rgb(180,189,214)" stroke="rgb(180,189,214)" stroke-width="1" opacity="0.996078431372549" d="M 80.5 231 L 81.5 233 L 80.5 231 Z " /><path fill="rgb(180,189,214)" stroke="rgb(180,189,214)" stroke-width="1" opacity="0.996078431372549" d="M 87.5 235 L 88.5 237 L 87.5 235 Z " /><path fill="rgb(180,189,214)" stroke="rgb(180,189,214)" stroke-width="1" opacity="0.996078431372549" d="M 126.5 235 L 127.5 237 L 126.5 235 Z " /><path fill="rgb(180,189,214)" stroke="rgb(180,189,214)" stroke-width="1" opacity="0.996078431372549" d="M 92.5 238 L 93.5 240 L 92.5 238 Z " /><path fill="rgb(180,189,214)" stroke="rgb(180,189,214)" stroke-width="1" opacity="0.996078431372549" d="M 129.5 239 L 130.5 241 L 129.5 239 Z " /><path fill="rgb(180,189,214)" stroke="rgb(180,189,214)" stroke-width="1" opacity="0.996078431372549" d="M 132.5 243 L 133.5 245 L 132.5 243 Z " /><path fill="rgb(180,189,214)" stroke="rgb(180,189,214)" stroke-width="1" opacity="0.996078431372549" d="M 393.5 245 L 400 245.5 L 393.5 246 L 393.5 245 Z " /><path fill="rgb(180,189,214)" stroke="rgb(180,189,214)" stroke-width="1" opacity="0.996078431372549" d="M 135.5 247 L 136.5 249 L 135.5 247 Z " /><path fill="rgb(180,189,214)" stroke="rgb(180,189,214)" stroke-width="1" opacity="0.996078431372549" d="M 140.5 254 L 141.5 256 L 140.5 254 Z " /><path fill="rgb(180,189,214)" stroke="rgb(180,189,214)" stroke-width="1" opacity="0.996078431372549" d="M 372.5 255 L 370.5 258 L 372.5 255 Z " /><path fill="rgb(180,189,214)" stroke="rgb(180,189,214)" stroke-width="1" opacity="0.996078431372549" d="M 143.5 258 L 144.5 260 L 143.5 258 Z " /><path fill="rgb(180,189,214)" stroke="rgb(180,189,214)" stroke-width="1" opacity="0.996078431372549" d="M 363.5 264 L 362.5 266 L 363.5 264 Z " /><path fill="rgb(180,189,214)" stroke="rgb(180,189,214)" stroke-width="1" opacity="0.996078431372549" d="M 359.5 269 L 358.5 271 L 359.5 269 Z " /><path fill="rgb(180,189,214)" stroke="rgb(180,189,214)" stroke-width="1" opacity="0.996078431372549" d="M 134.5 283 L 135 285.5 L 134 285.5 L 134.5 283 Z " /><path fill="rgb(180,189,214)" stroke="rgb(180,189,214)" stroke-width="1" opacity="0.996078431372549" d="M 112.5 286 L 113 289.5 L 112 289.5 L 112.5 286 Z " /><path fill="rgb(180,189,214)" stroke="rgb(180,189,214)" stroke-width="1" opacity="0.996078431372549" d="M 342.5 311 L 343 319.5 L 342 319.5 L 342.5 311 Z " /><path fill="rgb(180,189,214)" stroke="rgb(180,189,214)" stroke-width="1" opacity="0.996078431372549" d="M 347.5 334 L 348.5 336 L 347.5 334 Z " /><path fill="rgb(180,189,214)" stroke="rgb(180,189,214)" stroke-width="1" opacity="0.996078431372549" d="M 226.5 336 L 227 340.5 L 226 340.5 L 226.5 336 Z " /><path fill="rgb(180,189,214)" stroke="rgb(180,189,214)" stroke-width="1" opacity="0.996078431372549" d="M 226.5 362 L 227 365.5 L 226 365.5 L 226.5 362 Z " /><path fill="rgb(180,189,214)" stroke="rgb(180,189,214)" stroke-width="1" opacity="0.996078431372549" d="M 227.5 372 L 228 374.5 L 227 374.5 L 227.5 372 Z " /><path fill="rgb(180,189,214)" stroke="rgb(180,189,214)" stroke-width="1" opacity="0.996078431372549" d="M 424.5 379 L 422.5 382 L 424.5 379 Z " /><path fill="rgb(180,189,214)" stroke="rgb(180,189,214)" stroke-width="1" opacity="0.996078431372549" d="M 415.5 389 L 406.5 399 L 415.5 389 Z " /><path fill="rgb(180,189,214)" stroke="rgb(180,189,214)" stroke-width="1" opacity="0.996078431372549" d="M 397.5 406 L 396.5 408 L 397.5 406 Z " /><path fill="rgb(180,189,214)" stroke="rgb(180,189,214)" stroke-width="1" opacity="0.996078431372549" d="M 387.5 414 L 386.5 416 L 387.5 414 Z " /><path fill="rgb(180,189,214)" stroke="rgb(180,189,214)" stroke-width="1" opacity="0.996078431372549" d="M 309.5 443 L 314 443.5 L 309.5 444 L 309.5 443 Z " /><path fill="rgb(180,189,214)" stroke="rgb(180,189,214)" stroke-width="1" opacity="0.996078431372549" d="M 317.5 443 L 322 443.5 L 317.5 444 L 317.5 443 Z " /><path fill="rgb(208,78,95)" stroke="rgb(208,78,95)" stroke-width="1" opacity="0.2196078431372549" d="M 95.5 58 L 107 58.5 L 95.5 59 L 95.5 58 Z " /><path fill="rgb(208,78,95)" stroke="rgb(208,78,95)" stroke-width="1" opacity="0.2196078431372549" d="M 116.5 61 L 121 63.5 L 119.5 63 Q 115.7 62.7 116.5 61 Z " /><path fill="rgb(208,78,95)" stroke="rgb(208,78,95)" stroke-width="1" opacity="0.2196078431372549" d="M 124.5 65 L 128 67.5 L 126.5 67 L 124.5 65 Z " /><path fill="rgb(208,78,95)" stroke="rgb(208,78,95)" stroke-width="1" opacity="0.2196078431372549" d="M 131.5 69 L 135 71.5 L 133.5 71 L 131.5 69 Z " /><path fill="rgb(208,78,95)" stroke="rgb(208,78,95)" stroke-width="1" opacity="0.2196078431372549" d="M 138.5 73 L 142 75.5 L 140.5 75 L 138.5 73 Z " /><path fill="rgb(208,78,95)" stroke="rgb(208,78,95)" stroke-width="1" opacity="0.2196078431372549" d="M 145.5 77 L 149 79.5 L 147.5 79 L 145.5 77 Z " /><path fill="rgb(208,78,95)" stroke="rgb(208,78,95)" stroke-width="1" opacity="0.2196078431372549" d="M 30.5 80 L 29.5 82 L 30.5 80 Z " /><path fill="rgb(208,78,95)" stroke="rgb(208,78,95)" stroke-width="1" opacity="0.2196078431372549" d="M 152.5 81 L 156 83.5 L 154.5 83 L 152.5 81 Z " /><path fill="rgb(208,78,95)" stroke="rgb(208,78,95)" stroke-width="1" opacity="0.2196078431372549" d="M 27.5 84 L 26.5 86 L 27.5 84 Z " /><path fill="rgb(208,78,95)" stroke="rgb(208,78,95)" stroke-width="1" opacity="0.2196078431372549" d="M 159.5 85 L 163 87.5 L 161.5 87 L 159.5 85 Z " /><path fill="rgb(208,78,95)" stroke="rgb(208,78,95)" stroke-width="1" opacity="0.2196078431372549" d="M 25.5 87 L 24.5 89 L 25.5 87 Z " /><path fill="rgb(208,78,95)" stroke="rgb(208,78,95)" stroke-width="1" opacity="0.2196078431372549" d="M 166.5 89 L 170 91.5 L 168.5 91 L 166.5 89 Z " /><path fill="rgb(208,78,95)" stroke="rgb(208,78,95)" stroke-width="1" opacity="0.2196078431372549" d="M 173.5 93 L 174.5 95 L 173.5 93 Z " /><path fill="rgb(208,78,95)" stroke="rgb(208,78,95)" stroke-width="1" opacity="0.2196078431372549" d="M 180.5 97 L 181.5 99 L 180.5 97 Z " /><path fill="rgb(208,78,95)" stroke="rgb(208,78,95)" stroke-width="1" opacity="0.2196078431372549" d="M 183.5 99 L 189 102.5 L 187.5 102 Q 183.5 101.5 183.5 99 Z " /><path fill="rgb(208,78,95)" stroke="rgb(208,78,95)" stroke-width="1" opacity="0.2196078431372549" d="M 190.5 103 L 198 111.5 L 196 110.5 L 190.5 103 Z " /><path fill="rgb(208,78,95)" stroke="rgb(208,78,95)" stroke-width="1" opacity="0.2196078431372549" d="M 405.5 112 L 418 112.5 L 405.5 113 L 405.5 112 Z " /><path fill="rgb(208,78,95)" stroke="rgb(208,78,95)" stroke-width="1" opacity="0.2196078431372549" d="M 397.5 113 L 400 113.5 L 397.5 114 L 397.5 113 Z " /><path fill="rgb(208,78,95)" stroke="rgb(208,78,95)" stroke-width="1" opacity="0.2196078431372549" d="M 423.5 113 L 426 113.5 L 423.5 114 L 423.5 113 Z " /><path fill="rgb(208,78,95)" stroke="rgb(208,78,95)" stroke-width="1" opacity="0.2196078431372549" d="M 370.5 121 L 372 121.5 L 368.5 123 L 368.5 122 L 370.5 121 Z " /><path fill="rgb(208,78,95)" stroke="rgb(208,78,95)" stroke-width="1" opacity="0.2196078431372549" d="M 446.5 121 L 450 123.5 L 448.5 123 L 446.5 121 Z " /><path fill="rgb(208,78,95)" stroke="rgb(208,78,95)" stroke-width="1" opacity="0.2196078431372549" d="M 453.5 125 L 454.5 127 L 453.5 125 Z " /><path fill="rgb(208,78,95)" stroke="rgb(208,78,95)" stroke-width="1" opacity="0.2196078431372549" d="M 10.5 127 L 11 135.5 L 10 135.5 L 10.5 127 Z " /><path fill="rgb(208,78,95)" stroke="rgb(208,78,95)" stroke-width="1" opacity="0.2196078431372549" d="M 458.5 128 L 462 130.5 L 460.5 130 L 458.5 128 Z " /><path fill="rgb(208,78,95)" stroke="rgb(208,78,95)" stroke-width="1" opacity="0.2196078431372549" d="M 465.5 132 L 466.5 134 L 465.5 132 Z " /><path fill="rgb(208,78,95)" stroke="rgb(208,78,95)" stroke-width="1" opacity="0.2196078431372549" d="M 468.5 134 L 470.5 137 L 468.5 134 Z " /><path fill="rgb(208,78,95)" stroke="rgb(208,78,95)" stroke-width="1" opacity="0.2196078431372549" d="M 472.5 137 Q 481.9 144.5 488 155.5 L 486 154.5 Q 480.3 143.9 472.5 137 Z " /><path fill="rgb(208,78,95)" stroke="rgb(208,78,95)" stroke-width="1" opacity="0.2196078431372549" d="M 489.5 159 L 492 163.5 L 491 163.5 L 489.5 159 Z " /><path fill="rgb(208,78,95)" stroke="rgb(208,78,95)" stroke-width="1" opacity="0.2196078431372549" d="M 24.5 161 L 25 165.5 L 24 165.5 L 24.5 161 Z " /><path fill="rgb(208,78,95)" stroke="rgb(208,78,95)" stroke-width="1" opacity="0.2196078431372549" d="M 25.5 169 L 26 171.5 L 25 171.5 L 25.5 169 Z " /><path fill="rgb(208,78,95)" stroke="rgb(208,78,95)" stroke-width="1" opacity="0.2196078431372549" d="M 497.5 179 L 498 181.5 L 497 181.5 L 497.5 179 Z " /><path fill="rgb(208,78,95)" stroke="rgb(208,78,95)" stroke-width="1" opacity="0.2196078431372549" d="M 30.5 183 L 32.5 186 L 30.5 183 Z " /><path fill="rgb(208,78,95)" stroke="rgb(208,78,95)" stroke-width="1" opacity="0.2196078431372549" d="M 498.5 183 L 499 185.5 L 498 185.5 L 498.5 183 Z " /><path fill="rgb(208,78,95)" stroke="rgb(208,78,95)" stroke-width="1" opacity="0.2196078431372549" d="M 499.5 188 L 500 191.5 L 499 191.5 L 499.5 188 Z " /><path fill="rgb(208,78,95)" stroke="rgb(208,78,95)" stroke-width="1" opacity="0.2196078431372549" d="M 36.5 189 L 39.5 193 L 36.5 189 Z " /><path fill="rgb(208,78,95)" stroke="rgb(208,78,95)" stroke-width="1" opacity="0.2196078431372549" d="M 500.5 195 L 501 199.5 L 500 199.5 L 500.5 195 Z " /><path fill="rgb(208,78,95)" stroke="rgb(208,78,95)" stroke-width="1" opacity="0.2196078431372549" d="M 501.5 206 L 502 223.5 L 501 223.5 L 501.5 206 Z " /><path fill="rgb(208,78,95)" stroke="rgb(208,78,95)" stroke-width="1" opacity="0.2196078431372549" d="M 41.5 208 L 43.5 211 L 41.5 208 Z " /><path fill="rgb(208,78,95)" stroke="rgb(208,78,95)" stroke-width="1" opacity="0.2196078431372549" d="M 500.5 231 L 501 235.5 L 500 235.5 L 500.5 231 Z " /><path fill="rgb(208,78,95)" stroke="rgb(208,78,95)" stroke-width="1" opacity="0.2196078431372549" d="M 499.5 240 L 500 243.5 L 499 243.5 L 499.5 240 Z " /><path fill="rgb(208,78,95)" stroke="rgb(208,78,95)" stroke-width="1" opacity="0.2196078431372549" d="M 498.5 247 L 499 249.5 L 498 249.5 L 498.5 247 Z " /><path fill="rgb(208,78,95)" stroke="rgb(208,78,95)" stroke-width="1" opacity="0.2196078431372549" d="M 497.5 252 L 498 254.5 L 497 254.5 L 497.5 252 Z " /><path fill="rgb(208,78,95)" stroke="rgb(208,78,95)" stroke-width="1" opacity="0.2196078431372549" d="M 496.5 257 L 497 259.5 L 496 259.5 L 496.5 257 Z " /><path fill="rgb(208,78,95)" stroke="rgb(208,78,95)" stroke-width="1" opacity="0.2196078431372549" d="M 492.5 273 L 493 275.5 L 492 275.5 L 492.5 273 Z " /><path fill="rgb(208,78,95)" stroke="rgb(208,78,95)" stroke-width="1" opacity="0.2196078431372549" d="M 483.5 300 L 484 301.5 L 482.5 304 L 482 302.5 L 483.5 300 Z " /><path fill="rgb(208,78,95)" stroke="rgb(208,78,95)" stroke-width="1" opacity="0.2196078431372549" d="M 476.5 316 L 477 317.5 L 468.5 333 L 469 331.5 L 476.5 316 Z " /><path fill="rgb(208,78,95)" stroke="rgb(208,78,95)" stroke-width="1" opacity="0.2196078431372549" d="M 145.5 317 L 146.5 319 L 145.5 317 Z " /><path fill="rgb(208,78,95)" stroke="rgb(208,78,95)" stroke-width="1" opacity="0.2196078431372549" d="M 147.5 320 L 154 327.5 L 152 328.5 L 153 326.5 L 147.5 320 Z " /><path fill="rgb(208,78,95)" stroke="rgb(208,78,95)" stroke-width="1" opacity="0.2196078431372549" d="M 150.5 329 L 149.5 331 L 150.5 329 Z " /><path fill="rgb(208,78,95)" stroke="rgb(208,78,95)" stroke-width="1" opacity="0.2196078431372549" d="M 465.5 338 L 465 339.5 L 463.5 342 L 464 340.5 L 465.5 338 Z " /><path fill="rgb(208,78,95)" stroke="rgb(208,78,95)" stroke-width="1" opacity="0.2196078431372549" d="M 462.5 343 L 462 344.5 L 460.5 347 L 461 345.5 L 462.5 343 Z " /><path fill="rgb(208,78,95)" stroke="rgb(208,78,95)" stroke-width="1" opacity="0.2196078431372549" d="M 459.5 348 L 459 349.5 L 457.5 352 L 458 350.5 L 459.5 348 Z " /><path fill="rgb(208,78,95)" stroke="rgb(208,78,95)" stroke-width="1" opacity="0.2196078431372549" d="M 456.5 353 L 455.5 355 L 456.5 353 Z " /><path fill="rgb(208,78,95)" stroke="rgb(208,78,95)" stroke-width="1" opacity="0.2196078431372549" d="M 454.5 356 L 453.5 358 L 454.5 356 Z " /><path fill="rgb(208,78,95)" stroke="rgb(208,78,95)" stroke-width="1" opacity="0.2196078431372549" d="M 452.5 359 L 451.5 361 L 452.5 359 Z " /><path fill="rgb(208,78,95)" stroke="rgb(208,78,95)" stroke-width="1" opacity="0.2196078431372549" d="M 450.5 362 L 449 364.5 L 446.5 368 L 448 365.5 L 450.5 362 Z " /><path fill="rgb(208,78,95)" stroke="rgb(208,78,95)" stroke-width="1" opacity="0.2196078431372549" d="M 445.5 369 L 443.5 372 L 445.5 369 Z " /><path fill="rgb(208,78,95)" stroke="rgb(208,78,95)" stroke-width="1" opacity="0.2196078431372549" d="M 442.5 373 L 440.5 376 L 442.5 373 Z " /><path fill="rgb(208,78,95)" stroke="rgb(208,78,95)" stroke-width="1" opacity="0.2196078431372549" d="M 439.5 377 L 436 381.5 L 430.5 388 L 435 382.5 L 439.5 377 Z " /><path fill="rgb(208,78,95)" stroke="rgb(208,78,95)" stroke-width="1" opacity="0.2196078431372549" d="M 229.5 383 L 230 385.5 L 229 385.5 L 229.5 383 Z " /><path fill="rgb(208,78,95)" stroke="rgb(208,78,95)" stroke-width="1" opacity="0.2196078431372549" d="M 429.5 389 L 405.5 414 L 429.5 389 Z " /><path fill="rgb(208,78,95)" stroke="rgb(208,78,95)" stroke-width="1" opacity="0.2196078431372549" d="M 239.5 410 L 240.5 412 L 239.5 410 Z " /><path fill="rgb(208,78,95)" stroke="rgb(208,78,95)" stroke-width="1" opacity="0.2196078431372549" d="M 241.5 413 L 242.5 415 L 241.5 413 Z " /><path fill="rgb(208,78,95)" stroke="rgb(208,78,95)" stroke-width="1" opacity="0.2196078431372549" d="M 403.5 414 L 399.5 419 L 403.5 414 Z " /><path fill="rgb(208,78,95)" stroke="rgb(208,78,95)" stroke-width="1" opacity="0.2196078431372549" d="M 243.5 416 L 245.5 419 L 243.5 416 Z " /><path fill="rgb(208,78,95)" stroke="rgb(208,78,95)" stroke-width="1" opacity="0.2196078431372549" d="M 397.5 419 L 394.5 423 L 397.5 419 Z " /><path fill="rgb(208,78,95)" stroke="rgb(208,78,95)" stroke-width="1" opacity="0.2196078431372549" d="M 246.5 420 L 254.5 429 L 246.5 420 Z " /><path fill="rgb(208,78,95)" stroke="rgb(208,78,95)" stroke-width="1" opacity="0.2196078431372549" d="M 392.5 423 L 391.5 425 L 392.5 423 Z " /><path fill="rgb(208,78,95)" stroke="rgb(208,78,95)" stroke-width="1" opacity="0.2196078431372549" d="M 389.5 425 L 387.5 428 L 389.5 425 Z " /><path fill="rgb(208,78,95)" stroke="rgb(208,78,95)" stroke-width="1" opacity="0.2196078431372549" d="M 385.5 428 L 384.5 430 L 385.5 428 Z " /><path fill="rgb(208,78,95)" stroke="rgb(208,78,95)" stroke-width="1" opacity="0.2196078431372549" d="M 256.5 429 L 258.5 432 L 256.5 429 Z " /><path fill="rgb(208,78,95)" stroke="rgb(208,78,95)" stroke-width="1" opacity="0.2196078431372549" d="M 382.5 430 L 381.5 432 L 382.5 430 Z " /><path fill="rgb(208,78,95)" stroke="rgb(208,78,95)" stroke-width="1" opacity="0.2196078431372549" d="M 260.5 432 L 261.5 434 L 260.5 432 Z " /><path fill="rgb(208,78,95)" stroke="rgb(208,78,95)" stroke-width="1" opacity="0.2196078431372549" d="M 379.5 432 L 378.5 434 L 376.5 435 L 377.5 433 L 379.5 432 Z " /><path fill="rgb(208,78,95)" stroke="rgb(208,78,95)" stroke-width="1" opacity="0.2196078431372549" d="M 263.5 434 L 267 436.5 L 265.5 436 L 263.5 434 Z " /><path fill="rgb(208,78,95)" stroke="rgb(208,78,95)" stroke-width="1" opacity="0.2196078431372549" d="M 374.5 435 L 373.5 437 L 371.5 438 L 372.5 436 L 374.5 435 Z " /><path fill="rgb(208,78,95)" stroke="rgb(208,78,95)" stroke-width="1" opacity="0.2196078431372549" d="M 270.5 438 L 274 440.5 L 272.5 440 L 270.5 438 Z " /><path fill="rgb(208,78,95)" stroke="rgb(208,78,95)" stroke-width="1" opacity="0.2196078431372549" d="M 277.5 442 L 281 444.5 L 279.5 444 L 277.5 442 Z " /><path fill="rgb(208,78,95)" stroke="rgb(208,78,95)" stroke-width="1" opacity="0.2196078431372549" d="M 334.5 451 L 337 451.5 L 334.5 452 L 334.5 451 Z " /><path fill="rgb(208,78,95)" stroke="rgb(208,78,95)" stroke-width="1" opacity="0.2196078431372549" d="M 300.5 452 L 303 452.5 L 300.5 453 L 300.5 452 Z " /><path fill="rgb(208,78,95)" stroke="rgb(208,78,95)" stroke-width="1" opacity="0.2196078431372549" d="M 329.5 452 L 332 452.5 L 329.5 453 L 329.5 452 Z " /><path fill="rgb(208,78,95)" stroke="rgb(208,78,95)" stroke-width="1" opacity="0.2196078431372549" d="M 306.5 453 L 312 453.5 L 306.5 454 L 306.5 453 Z " /><path fill="rgb(208,78,95)" stroke="rgb(208,78,95)" stroke-width="1" opacity="0.2196078431372549" d="M 319.5 453 L 325 453.5 L 319.5 454 L 319.5 453 Z " /><path fill="rgb(254,254,254)" stroke="rgb(254,254,254)" stroke-width="1" opacity="0.9764705882352941" d="M 99.5 243 L 136.5 265 L 145 266 L 145 293.5 L 144 294.5 L 143.5 314 Q 138.3 306.3 136 295.5 L 135 273 L 112 285.5 L 112 328.5 L 113.5 330 L 130.5 340 L 133.5 340 L 144 334 L 144 408.5 L 141.5 411 L 98.5 436 L 98 282.5 L 99 281.5 L 99.5 243 Z " /><path fill="rgb(254,254,254)" stroke="rgb(254,254,254)" stroke-width="1" opacity="0.9764705882352941" d="M 44.5 387 L 45 393.5 L 44 393.5 L 44.5 387 Z " /></svg>