<svg width="512" height="512" version="1.1" xmlns="http://www.w3.org/2000/svg" desc="Created with imagetracer.js version 1.2.6" ><path fill="rgb(229,228,226)" stroke="rgb(229,228,226)" stroke-width="1" opacity="0.792156862745098" d="M 233.5 20 L 234.5 22 L 233.5 20 Z " /><path fill="rgb(229,228,226)" stroke="rgb(229,228,226)" stroke-width="1" opacity="0.792156862745098" d="M 238.5 23 L 242 25.5 L 240.5 25 L 238.5 23 Z " /><path fill="rgb(229,228,226)" stroke="rgb(229,228,226)" stroke-width="1" opacity="0.792156862745098" d="M 243.5 26 L 249 29.5 L 247.5 29 Q 243.5 28.5 243.5 26 Z " /><path fill="rgb(229,228,226)" stroke="rgb(229,228,226)" stroke-width="1" opacity="0.792156862745098" d="M 250.5 30 L 317 68.5 L 315.5 68 L 259.5 37 L 251.5 32 L 250.5 30 Z " /><path fill="rgb(229,228,226)" stroke="rgb(229,228,226)" stroke-width="1" opacity="0.792156862745098" d="M 156.5 45 L 155.5 47 L 156.5 45 Z " /><path fill="rgb(229,228,226)" stroke="rgb(229,228,226)" stroke-width="1" opacity="0.792156862745098" d="M 153.5 47 L 152.5 49 L 150.5 50 L 151.5 48 L 153.5 47 Z " /><path fill="rgb(229,228,226)" stroke="rgb(229,228,226)" stroke-width="1" opacity="0.792156862745098" d="M 144.5 52 L 146 52.5 L 143.5 54 L 144.5 52 Z " /><path fill="rgb(229,228,226)" stroke="rgb(229,228,226)" stroke-width="1" opacity="0.792156862745098" d="M 220.5 53 L 219.5 55 L 220.5 53 Z " /><path fill="rgb(229,228,226)" stroke="rgb(229,228,226)" stroke-width="1" opacity="0.792156862745098" d="M 141.5 54 L 140.5 56 L 141.5 54 Z " /><path fill="rgb(229,228,226)" stroke="rgb(229,228,226)" stroke-width="1" opacity="0.792156862745098" d="M 137.5 56 L 139 56.5 L 136.5 58 L 137.5 56 Z " /><path fill="rgb(229,228,226)" stroke="rgb(229,228,226)" stroke-width="1" opacity="0.792156862745098" d="M 134.5 58 L 133.5 60 L 134.5 58 Z " /><path fill="rgb(229,228,226)" stroke="rgb(229,228,226)" stroke-width="1" opacity="0.792156862745098" d="M 130.5 60 L 132 60.5 L 129.5 62 L 130.5 60 Z " /><path fill="rgb(229,228,226)" stroke="rgb(229,228,226)" stroke-width="1" opacity="0.792156862745098" d="M 208.5 60 L 207.5 62 L 205.5 63 L 206.5 61 L 208.5 60 Z " /><path fill="rgb(229,228,226)" stroke="rgb(229,228,226)" stroke-width="1" opacity="0.792156862745098" d="M 127.5 62 L 126.5 64 L 124.5 65 L 125.5 63 L 127.5 62 Z " /><path fill="rgb(229,228,226)" stroke="rgb(229,228,226)" stroke-width="1" opacity="0.792156862745098" d="M 201.5 64 L 200.5 66 L 201.5 64 Z " /><path fill="rgb(229,228,226)" stroke="rgb(229,228,226)" stroke-width="1" opacity="0.792156862745098" d="M 120.5 66 L 119.5 68 L 117.5 69 L 118.5 67 L 120.5 66 Z " /><path fill="rgb(229,228,226)" stroke="rgb(229,228,226)" stroke-width="1" opacity="0.792156862745098" d="M 115.5 69 L 114.5 71 L 115.5 69 Z " /><path fill="rgb(229,228,226)" stroke="rgb(229,228,226)" stroke-width="1" opacity="0.792156862745098" d="M 318.5 69 L 324 72.5 L 322.5 72 Q 318.5 71.5 318.5 69 Z " /><path fill="rgb(229,228,226)" stroke="rgb(229,228,226)" stroke-width="1" opacity="0.792156862745098" d="M 111.5 71 L 113 71.5 L 110.5 73 L 111.5 71 Z " /><path fill="rgb(229,228,226)" stroke="rgb(229,228,226)" stroke-width="1" opacity="0.792156862745098" d="M 325.5 73 L 329 75.5 L 328.5 166 L 328 77.5 L 327 76.5 L 327.5 75 L 325.5 73 Z " /><path fill="rgb(229,228,226)" stroke="rgb(229,228,226)" stroke-width="1" opacity="0.792156862745098" d="M 106.5 74 L 108 74.5 L 103.5 77 L 104.5 75 L 106.5 74 Z " /><path fill="rgb(229,228,226)" stroke="rgb(229,228,226)" stroke-width="1" opacity="0.792156862745098" d="M 101.5 77 L 100.5 79 L 98.5 80 L 99.5 78 L 101.5 77 Z " /><path fill="rgb(229,228,226)" stroke="rgb(229,228,226)" stroke-width="1" opacity="0.792156862745098" d="M 94.5 81 L 93.5 83 L 91.5 84 L 92.5 82 L 94.5 81 Z " /><path fill="rgb(229,228,226)" stroke="rgb(229,228,226)" stroke-width="1" opacity="0.792156862745098" d="M 89.5 84 L 88.5 86 L 84.5 88 L 85.5 86 L 89.5 84 Z " /><path fill="rgb(229,228,226)" stroke="rgb(229,228,226)" stroke-width="1" opacity="0.792156862745098" d="M 82.5 88 L 81.5 90 L 77.5 92 L 78.5 90 L 82.5 88 Z " /><path fill="rgb(229,228,226)" stroke="rgb(229,228,226)" stroke-width="1" opacity="0.792156862745098" d="M 75.5 92 L 74.5 94 L 72.5 95 L 73.5 93 L 75.5 92 Z " /><path fill="rgb(229,228,226)" stroke="rgb(229,228,226)" stroke-width="1" opacity="0.792156862745098" d="M 299.5 92 L 298.5 94 L 299.5 92 Z " /><path fill="rgb(229,228,226)" stroke="rgb(229,228,226)" stroke-width="1" opacity="0.792156862745098" d="M 68.5 96 L 67.5 98 L 68.5 96 Z " /><path fill="rgb(229,228,226)" stroke="rgb(229,228,226)" stroke-width="1" opacity="0.792156862745098" d="M 63.5 99 L 62.5 101 L 63.5 99 Z " /><path fill="rgb(229,228,226)" stroke="rgb(229,228,226)" stroke-width="1" opacity="0.792156862745098" d="M 59.5 101 L 61 101.5 L 58.5 103 L 59.5 101 Z " /><path fill="rgb(229,228,226)" stroke="rgb(229,228,226)" stroke-width="1" opacity="0.792156862745098" d="M 56.5 103 L 55.5 105 L 53.5 106 L 54.5 104 L 56.5 103 Z " /><path fill="rgb(229,228,226)" stroke="rgb(229,228,226)" stroke-width="1" opacity="0.792156862745098" d="M 49.5 107 L 48.5 109 L 47 108.5 L 49.5 107 Z " /><path fill="rgb(229,228,226)" stroke="rgb(229,228,226)" stroke-width="1" opacity="0.792156862745098" d="M 262.5 111 L 266 111.5 L 262.5 112 L 262.5 111 Z " /><path fill="rgb(229,228,226)" stroke="rgb(229,228,226)" stroke-width="1" opacity="0.792156862745098" d="M 85.5 131 L 84.5 133 L 85.5 131 Z " /><path fill="rgb(229,228,226)" stroke="rgb(229,228,226)" stroke-width="1" opacity="0.792156862745098" d="M 32.5 135 L 33 258.5 L 32 258.5 L 32.5 135 Z " /><path fill="rgb(229,228,226)" stroke="rgb(229,228,226)" stroke-width="1" opacity="0.792156862745098" d="M 78.5 138 L 77.5 140 L 78.5 138 Z " /><path fill="rgb(229,228,226)" stroke="rgb(229,228,226)" stroke-width="1" opacity="0.792156862745098" d="M 71.5 152 L 72 154.5 L 71 154.5 L 71.5 152 Z " /><path fill="rgb(229,228,226)" stroke="rgb(229,228,226)" stroke-width="1" opacity="0.792156862745098" d="M 329.5 214 L 330 344.5 L 328.5 348 L 328 345.5 L 329 344.5 L 329.5 214 Z " /><path fill="rgb(229,228,226)" stroke="rgb(229,228,226)" stroke-width="1" opacity="0.792156862745098" d="M 71.5 231 L 72 357.5 L 71 357.5 L 71.5 231 Z " /><path fill="rgb(229,228,226)" stroke="rgb(229,228,226)" stroke-width="1" opacity="0.792156862745098" d="M 32.5 260 L 33 262.5 L 32 262.5 L 32.5 260 Z " /><path fill="rgb(229,228,226)" stroke="rgb(229,228,226)" stroke-width="1" opacity="0.792156862745098" d="M 32.5 265 L 33 267.5 L 32 267.5 L 32.5 265 Z " /><path fill="rgb(229,228,226)" stroke="rgb(229,228,226)" stroke-width="1" opacity="0.792156862745098" d="M 32.5 356 L 33 359.5 L 32 359.5 L 32.5 356 Z " /><path fill="rgb(229,228,226)" stroke="rgb(229,228,226)" stroke-width="1" opacity="0.792156862745098" d="M 280.5 386 L 278.5 389 L 86.5 500 L 77.5 501 L 73 498.5 L 73.5 496 Q 75 501.5 83.5 500 L 280.5 386 Z " /><path fill="rgb(0,0,0)" stroke="rgb(0,0,0)" stroke-width="1" opacity="0" d="M 0 0 L 512 0 L 512 512 L 0 512 L 0 0 Z M 216 11 L 45 110 Q 35 118 32 132 L 32 268 L 33 269 L 33 356 L 32 357 Q 31 362 33 364 L 33 472 L 35 476 L 78 501 L 87 500 L 278 389 L 279 390 L 257 428 L 239 420 L 235 421 L 235 470 L 254 481 L 269 473 L 269 490 L 287 500 L 305 491 L 480 389 L 480 258 Q 478 256 479 252 L 460 241 L 447 268 L 446 232 L 428 222 Q 410 251 396 283 L 378 272 L 374 271 L 331 344 L 330 215 L 329 214 L 329 76 L 220 12 L 216 11 Z " /><path fill="rgb(214,211,209)" stroke="rgb(214,211,209)" stroke-width="1" opacity="0.984313725490196" d="M 254.5 33 L 328 75.5 L 271.5 109 Q 268.2 112.2 260.5 111 L 256 106.5 L 255 102.5 L 254.5 34 L 253 34.5 L 254.5 33 Z " /><path fill="rgb(214,211,209)" stroke="rgb(214,211,209)" stroke-width="1" opacity="0.984313725490196" d="M 156.5 46 L 195 68.5 L 85.5 131 L 49 110 L 50.5 107 L 156.5 46 Z " /><path fill="rgb(214,211,209)" stroke="rgb(214,211,209)" stroke-width="1" opacity="0.984313725490196" d="M 230.5 47 L 229.5 49 L 230.5 47 Z " /><path fill="rgb(214,211,209)" stroke="rgb(214,211,209)" stroke-width="1" opacity="0.984313725490196" d="M 82.5 133 L 81.5 135 L 82.5 133 Z " /><path fill="rgb(214,211,209)" stroke="rgb(214,211,209)" stroke-width="1" opacity="0.984313725490196" d="M 33.5 136 L 71 158.5 L 70.5 277 L 33 254.5 L 33.5 136 Z " /><path fill="rgb(214,211,209)" stroke="rgb(214,211,209)" stroke-width="1" opacity="0.984313725490196" d="M 310.5 168 L 311 173.5 L 310 173.5 L 310.5 168 Z " /><path fill="rgb(214,211,209)" stroke="rgb(214,211,209)" stroke-width="1" opacity="0.984313725490196" d="M 107.5 209 L 109 209.5 L 109 262.5 L 108 262.5 L 108 210.5 L 107.5 209 Z " /><path fill="rgb(214,211,209)" stroke="rgb(214,211,209)" stroke-width="1" opacity="0.984313725490196" d="M 98.5 214 L 97.5 216 L 98.5 214 Z " /><path fill="rgb(214,211,209)" stroke="rgb(214,211,209)" stroke-width="1" opacity="0.984313725490196" d="M 93.5 217 L 95 222.5 L 93 223 L 93.5 217 Z " /><path fill="rgb(214,211,209)" stroke="rgb(214,211,209)" stroke-width="1" opacity="0.984313725490196" d="M 128.5 250 L 129 282.5 L 128 282.5 L 128.5 250 Z " /><path fill="rgb(214,211,209)" stroke="rgb(214,211,209)" stroke-width="1" opacity="0.984313725490196" d="M 164.5 255 L 165 373.5 L 164 373.5 L 164.5 255 Z " /><path fill="rgb(214,211,209)" stroke="rgb(214,211,209)" stroke-width="1" opacity="0.984313725490196" d="M 93.5 267 L 95 271.5 L 93 272 L 93.5 267 Z " /><path fill="rgb(214,211,209)" stroke="rgb(214,211,209)" stroke-width="1" opacity="0.984313725490196" d="M 274.5 281 L 275 299.5 L 274 299.5 L 274.5 281 Z " /><path fill="rgb(214,211,209)" stroke="rgb(214,211,209)" stroke-width="1" opacity="0.984313725490196" d="M 128.5 291 L 129 376.5 L 128 376.5 L 128.5 291 Z " /><path fill="rgb(214,211,209)" stroke="rgb(214,211,209)" stroke-width="1" opacity="0.984313725490196" d="M 316.5 314 L 317 320.5 L 316 320.5 L 316.5 314 Z " /><path fill="rgb(214,211,209)" stroke="rgb(214,211,209)" stroke-width="1" opacity="0.984313725490196" d="M 94.5 315 L 94 316.5 L 93.5 321 L 93 316.5 L 94.5 315 Z " /><path fill="rgb(214,211,209)" stroke="rgb(214,211,209)" stroke-width="1" opacity="0.984313725490196" d="M 103.5 315 L 102.5 317 L 103.5 315 Z " /><path fill="rgb(214,211,209)" stroke="rgb(214,211,209)" stroke-width="1" opacity="0.984313725490196" d="M 213.5 316 L 214 345.5 L 213 345.5 L 213.5 316 Z " /><path fill="rgb(214,211,209)" stroke="rgb(214,211,209)" stroke-width="1" opacity="0.984313725490196" d="M 104.5 322 L 105 358.5 L 102 360.5 L 104 358.5 L 104.5 322 Z " /><path fill="rgb(214,211,209)" stroke="rgb(214,211,209)" stroke-width="1" opacity="0.984313725490196" d="M 296.5 325 L 295.5 327 L 296.5 325 Z " /><path fill="rgb(214,211,209)" stroke="rgb(214,211,209)" stroke-width="1" opacity="0.984313725490196" d="M 302.5 327 L 301.5 329 L 302.5 327 Z " /><path fill="rgb(214,211,209)" stroke="rgb(214,211,209)" stroke-width="1" opacity="0.984313725490196" d="M 295.5 331 L 294.5 333 L 295.5 331 Z " /><path fill="rgb(214,211,209)" stroke="rgb(214,211,209)" stroke-width="1" opacity="0.984313725490196" d="M 315.5 332 L 314.5 334 L 315.5 332 Z " /><path fill="rgb(214,211,209)" stroke="rgb(214,211,209)" stroke-width="1" opacity="0.984313725490196" d="M 277.5 336 L 276.5 338 L 277.5 336 Z " /><path fill="rgb(214,211,209)" stroke="rgb(214,211,209)" stroke-width="1" opacity="0.984313725490196" d="M 270.5 340 L 269.5 342 L 270.5 340 Z " /><path fill="rgb(214,211,209)" stroke="rgb(214,211,209)" stroke-width="1" opacity="0.984313725490196" d="M 269.5 346 L 271 347.5 L 271 358.5 L 270 358.5 L 269.5 347 L 268 347.5 L 269.5 346 Z " /><path fill="rgb(214,211,209)" stroke="rgb(214,211,209)" stroke-width="1" opacity="0.984313725490196" d="M 258.5 347 L 257.5 349 L 258.5 347 Z " /><path fill="rgb(214,211,209)" stroke="rgb(214,211,209)" stroke-width="1" opacity="0.984313725490196" d="M 251.5 351 L 250.5 353 L 251.5 351 Z " /><path fill="rgb(214,211,209)" stroke="rgb(214,211,209)" stroke-width="1" opacity="0.984313725490196" d="M 33.5 356 L 70.5 378 L 71.5 362 L 72 489.5 L 69.5 488 Q 49.7 478.8 33 466.5 L 33.5 356 Z " /><path fill="rgb(214,211,209)" stroke="rgb(214,211,209)" stroke-width="1" opacity="0.984313725490196" d="M 250.5 357 L 249.5 359 L 250.5 357 Z " /><path fill="rgb(214,211,209)" stroke="rgb(214,211,209)" stroke-width="1" opacity="0.984313725490196" d="M 71.5 358 L 72 360.5 L 71 360.5 L 71.5 358 Z " /><path fill="rgb(214,211,209)" stroke="rgb(214,211,209)" stroke-width="1" opacity="0.984313725490196" d="M 243.5 361 L 242.5 363 L 243.5 361 Z " /><path fill="rgb(214,211,209)" stroke="rgb(214,211,209)" stroke-width="1" opacity="0.984313725490196" d="M 232.5 362 L 231.5 364 L 232.5 362 Z " /><path fill="rgb(214,211,209)" stroke="rgb(214,211,209)" stroke-width="1" opacity="0.984313725490196" d="M 102.5 365 L 101.5 367 L 102.5 365 Z " /><path fill="rgb(214,211,209)" stroke="rgb(214,211,209)" stroke-width="1" opacity="0.984313725490196" d="M 104.5 365 L 105 408.5 L 104 408.5 L 104.5 365 Z " /><path fill="rgb(214,211,209)" stroke="rgb(214,211,209)" stroke-width="1" opacity="0.984313725490196" d="M 225.5 366 L 224.5 368 L 225.5 366 Z " /><path fill="rgb(214,211,209)" stroke="rgb(214,211,209)" stroke-width="1" opacity="0.984313725490196" d="M 95.5 369 L 94.5 371 L 95.5 369 Z " /><path fill="rgb(214,211,209)" stroke="rgb(214,211,209)" stroke-width="1" opacity="0.984313725490196" d="M 218.5 370 L 217.5 372 L 218.5 370 Z " /><path fill="rgb(214,211,209)" stroke="rgb(214,211,209)" stroke-width="1" opacity="0.984313725490196" d="M 228.5 370 L 230 370.5 L 230 381.5 L 229 381.5 L 229 371.5 L 228.5 370 Z " /><path fill="rgb(214,211,209)" stroke="rgb(214,211,209)" stroke-width="1" opacity="0.984313725490196" d="M 224.5 372 L 223.5 374 L 224.5 372 Z " /><path fill="rgb(214,211,209)" stroke="rgb(214,211,209)" stroke-width="1" opacity="0.984313725490196" d="M 217.5 376 L 216.5 378 L 217.5 376 Z " /><path fill="rgb(214,211,209)" stroke="rgb(214,211,209)" stroke-width="1" opacity="0.984313725490196" d="M 206.5 377 L 205.5 379 L 206.5 377 Z " /><path fill="rgb(214,211,209)" stroke="rgb(214,211,209)" stroke-width="1" opacity="0.984313725490196" d="M 232.5 380 L 231.5 382 L 232.5 380 Z " /><path fill="rgb(214,211,209)" stroke="rgb(214,211,209)" stroke-width="1" opacity="0.984313725490196" d="M 199.5 381 L 198.5 383 L 199.5 381 Z " /><path fill="rgb(214,211,209)" stroke="rgb(214,211,209)" stroke-width="1" opacity="0.984313725490196" d="M 205.5 383 L 204.5 385 L 205.5 383 Z " /><path fill="rgb(214,211,209)" stroke="rgb(214,211,209)" stroke-width="1" opacity="0.984313725490196" d="M 198.5 387 L 197.5 389 L 198.5 387 Z " /><path fill="rgb(214,211,209)" stroke="rgb(214,211,209)" stroke-width="1" opacity="0.984313725490196" d="M 180.5 392 L 179.5 394 L 180.5 392 Z " /><path fill="rgb(214,211,209)" stroke="rgb(214,211,209)" stroke-width="1" opacity="0.984313725490196" d="M 173.5 396 L 172.5 398 L 173.5 396 Z " /><path fill="rgb(214,211,209)" stroke="rgb(214,211,209)" stroke-width="1" opacity="0.984313725490196" d="M 179.5 398 L 178.5 400 L 179.5 398 Z " /><path fill="rgb(214,211,209)" stroke="rgb(214,211,209)" stroke-width="1" opacity="0.984313725490196" d="M 172.5 402 L 171.5 404 L 172.5 402 Z " /><path fill="rgb(214,211,209)" stroke="rgb(214,211,209)" stroke-width="1" opacity="0.984313725490196" d="M 161.5 403 L 160.5 405 L 161.5 403 Z " /><path fill="rgb(214,211,209)" stroke="rgb(214,211,209)" stroke-width="1" opacity="0.984313725490196" d="M 192.5 403 L 191.5 405 L 192.5 403 Z " /><path fill="rgb(214,211,209)" stroke="rgb(214,211,209)" stroke-width="1" opacity="0.984313725490196" d="M 165.5 406 L 164.5 408 L 165.5 406 Z " /><path fill="rgb(214,211,209)" stroke="rgb(214,211,209)" stroke-width="1" opacity="0.984313725490196" d="M 154.5 407 L 153.5 409 L 154.5 407 Z " /><path fill="rgb(214,211,209)" stroke="rgb(214,211,209)" stroke-width="1" opacity="0.984313725490196" d="M 97.5 412 L 96.5 414 L 97.5 412 Z " /><path fill="rgb(214,211,209)" stroke="rgb(214,211,209)" stroke-width="1" opacity="0.984313725490196" d="M 153.5 413 L 152.5 415 L 153.5 413 Z " /><path fill="rgb(214,211,209)" stroke="rgb(214,211,209)" stroke-width="1" opacity="0.984313725490196" d="M 103.5 414 L 105 414.5 L 105 440.5 L 105.5 442 L 104 441.5 L 104 415.5 L 103.5 414 Z " /><path fill="rgb(214,211,209)" stroke="rgb(214,211,209)" stroke-width="1" opacity="0.984313725490196" d="M 146.5 417 L 145.5 419 L 146.5 417 Z " /><path fill="rgb(214,211,209)" stroke="rgb(214,211,209)" stroke-width="1" opacity="0.984313725490196" d="M 96.5 418 L 95.5 420 L 96.5 418 Z " /><path fill="rgb(214,211,209)" stroke="rgb(214,211,209)" stroke-width="1" opacity="0.984313725490196" d="M 135.5 418 L 134.5 420 L 135.5 418 Z " /><path fill="rgb(214,211,209)" stroke="rgb(214,211,209)" stroke-width="1" opacity="0.984313725490196" d="M 128.5 422 L 127.5 424 L 128.5 422 Z " /><path fill="rgb(214,211,209)" stroke="rgb(214,211,209)" stroke-width="1" opacity="0.984313725490196" d="M 134.5 424 L 133.5 426 L 134.5 424 Z " /><path fill="rgb(214,211,209)" stroke="rgb(214,211,209)" stroke-width="1" opacity="0.984313725490196" d="M 109.5 425 L 110 433.5 L 109 433.5 L 109.5 425 Z " /><path fill="rgb(214,211,209)" stroke="rgb(214,211,209)" stroke-width="1" opacity="0.984313725490196" d="M 127.5 428 L 126.5 430 L 127.5 428 Z " /><path fill="rgb(214,211,209)" stroke="rgb(214,211,209)" stroke-width="1" opacity="0.984313725490196" d="M 108.5 439 L 107.5 441 L 108.5 439 Z " /><path fill="rgb(233,232,230)" stroke="rgb(233,232,230)" stroke-width="1" opacity="0.996078431372549" d="M 257.5 108 L 258.5 110 Q 255.7 110.7 257.5 108 Z " /><path fill="rgb(233,232,230)" stroke="rgb(233,232,230)" stroke-width="1" opacity="0.996078431372549" d="M 83.5 133 L 79.5 138 L 83.5 133 Z " /><path fill="rgb(233,232,230)" stroke="rgb(233,232,230)" stroke-width="1" opacity="0.996078431372549" d="M 328.5 166 L 329 210.5 L 328 210.5 L 328.5 166 Z " /><path fill="rgb(233,232,230)" stroke="rgb(233,232,230)" stroke-width="1" opacity="0.996078431372549" d="M 71.5 184 L 72 228.5 L 71 228.5 L 71.5 184 Z " /><path fill="rgb(233,232,230)" stroke="rgb(233,232,230)" stroke-width="1" opacity="0.996078431372549" d="M 319.5 362 L 318.5 364 L 319.5 362 Z " /><path fill="rgb(233,232,230)" stroke="rgb(233,232,230)" stroke-width="1" opacity="1" d="M 252.5 35 L 255 35.5 L 255 102.5 L 257 110 Q 259.6 112.7 266.5 112 L 327.5 77 L 328 210.5 L 329 211.5 L 329 344.5 Q 325.9 355.9 318.5 363 L 314.5 362 L 300.5 353 L 279.5 387 L 87.5 498 Q 84.6 500.6 78.5 500 L 74 496.5 L 72 490.5 L 72 184.5 L 71 183.5 L 71 156.5 Q 73.8 139.8 85.5 132 L 211.5 60 L 252.5 35 Z M 289 141 L 285 148 L 274 180 L 274 300 L 284 306 L 311 290 L 311 169 L 298 148 L 289 141 Z M 240 156 L 226 192 L 226 329 L 235 334 L 262 319 L 262 183 L 249 162 L 240 156 Z M 108 209 L 95 217 L 93 218 L 93 223 L 103 218 L 104 219 L 104 261 L 96 265 Q 92 267 93 272 L 103 267 L 104 268 L 104 310 L 95 315 Q 92 316 93 321 L 96 321 L 104 316 L 104 359 L 94 366 L 95 371 L 104 365 L 104 409 L 96 414 L 94 415 L 94 420 L 103 415 L 104 416 L 104 442 L 147 418 L 148 430 L 151 428 L 152 428 L 152 416 L 188 394 L 188 406 L 192 405 L 193 404 L 193 392 L 228 371 L 229 372 L 229 382 L 232 382 L 234 380 L 234 367 L 270 347 L 271 359 L 274 357 L 275 357 L 275 343 L 312 323 L 313 335 L 317 332 L 317 314 L 111 433 L 109 425 L 109 210 L 108 209 Z M 143 212 L 128 251 L 128 377 Q 131 378 129 385 L 137 390 L 165 374 L 165 256 L 164 255 L 164 239 L 152 219 L 143 212 Z M 190 228 L 177 265 L 177 357 L 186 362 L 214 346 L 213 254 L 200 232 L 190 228 Z " /><path fill="rgb(209,74,74)" stroke="rgb(209,74,74)" stroke-width="1" opacity="1" d="M 288 142 Q 294.9 143.8 299 149.5 L 310 168.5 L 310 289.5 L 286.5 304 L 282.5 305 L 275 301 L 275 178.5 L 288 142 Z " /><path fill="rgb(22,126,200)" stroke="rgb(22,126,200)" stroke-width="1" opacity="0.984313725490196" d="M 427.5 222 L 446 232 L 446 269.5 L 428.5 302 L 407.5 290 L 352.5 383 L 333.5 373 L 293 441.5 L 291 447 L 269 439 L 269 472.5 L 267.5 474 L 253.5 481 L 235 469.5 L 235 420.5 L 238.5 420 L 257 428 L 276 393.5 L 300.5 354 L 318.5 364 L 323 358.5 L 331 342.5 L 373.5 271 L 377.5 272 L 396 283 Q 409.9 251.3 427.5 222 Z " /><path fill="rgb(22,126,200)" stroke="rgb(22,126,200)" stroke-width="1" opacity="0.984313725490196" d="M 191.5 228 L 200 233.5 L 213 254.5 L 213 345.5 L 189.5 360 L 184.5 361 L 177 357 L 177 298.5 Q 179.8 296.8 178 290.5 L 177 289.5 L 177 266.5 L 191.5 228 Z " /><path fill="rgb(239,198,74)" stroke="rgb(239,198,74)" stroke-width="1" opacity="0.984313725490196" d="M 142.5 212 L 151 217.5 L 164 238.5 L 164 375 L 137.5 390 L 129 384.5 L 129 349.5 L 130.5 349 L 136.5 353 L 137 288.5 L 129 284 L 128.5 291 L 128 283.5 L 129 282.5 L 129 248.5 L 142.5 212 Z " /><path fill="rgb(239,198,74)" stroke="rgb(239,198,74)" stroke-width="1" opacity="0.984313725490196" d="M 460 241 L 479 251.5 Q 477.8 256.3 480 257.5 L 479 259.5 L 480 260.5 L 480 388.5 L 472.5 394 L 287.5 500 L 269 490 L 270.5 440 L 273.5 442 L 275 441.5 L 275.5 443 L 277 442.5 L 277.5 444 L 279.5 443 L 289.5 448 L 334.5 373 L 352.5 384 L 407.5 290 L 428.5 303 L 439 284.5 L 460 241 Z M 288 449 L 287 461 L 288 461 L 288 449 Z " /><path fill="rgb(162,179,67)" stroke="rgb(162,179,67)" stroke-width="1" opacity="0.9921568627450981" d="M 239.5 156 L 249 162.5 L 261 182.5 L 261 208.5 L 262 209.5 L 262 317.5 L 236.5 333 L 233.5 333 L 226 329 L 226 193.5 L 239.5 156 Z " /><path fill="rgb(162,179,67)" stroke="rgb(162,179,67)" stroke-width="1" opacity="0.9921568627450981" d="M 129 284 L 137 288.5 L 136.5 353 L 129 349 L 129 284 Z " /><path fill="rgb(162,179,67)" stroke="rgb(162,179,67)" stroke-width="1" opacity="0.9921568627450981" d="M 269 439 L 274 441.5 L 272.5 441 L 270.5 440 L 269.5 472 L 269 439 Z " /><path fill="rgb(162,179,67)" stroke="rgb(162,179,67)" stroke-width="1" opacity="0.9921568627450981" d="M 277.5 443 L 278.5 445 L 277.5 443 Z " /><path fill="rgb(162,179,67)" stroke="rgb(162,179,67)" stroke-width="1" opacity="0.9921568627450981" d="M 282.5 446 L 283.5 448 L 282.5 446 Z " /><path fill="rgb(162,179,67)" stroke="rgb(162,179,67)" stroke-width="1" opacity="0.9921568627450981" d="M 287.5 449 L 288 460.5 L 287 460.5 L 287.5 449 Z " /><path fill="rgb(195,193,191)" stroke="rgb(195,193,191)" stroke-width="1" opacity="0.9882352941176471" d="M 216.5 11 L 254 33.5 L 197.5 67 L 193.5 68 L 157 47 L 158.5 44 L 216.5 11 Z " /><path fill="rgb(195,193,191)" stroke="rgb(195,193,191)" stroke-width="1" opacity="0.9882352941176471" d="M 46.5 109 L 52.5 111 L 85 130 L 83.5 133 L 79 136.5 L 72 148.5 L 71 157 L 32 134.5 L 34 124.5 L 43.5 111 L 46.5 109 Z " /><path fill="rgb(195,193,191)" stroke="rgb(195,193,191)" stroke-width="1" opacity="0.9882352941176471" d="M 288.5 141 L 287.5 143 L 288.5 141 Z " /><path fill="rgb(195,193,191)" stroke="rgb(195,193,191)" stroke-width="1" opacity="0.9882352941176471" d="M 247.5 160 L 248.5 162 L 247.5 160 Z " /><path fill="rgb(195,193,191)" stroke="rgb(195,193,191)" stroke-width="1" opacity="0.9882352941176471" d="M 310.5 174 L 311 289.5 L 309 290.5 L 310 289.5 L 310.5 174 Z " /><path fill="rgb(195,193,191)" stroke="rgb(195,193,191)" stroke-width="1" opacity="0.9882352941176471" d="M 274.5 179 L 275 280.5 L 274 280.5 L 274.5 179 Z " /><path fill="rgb(195,193,191)" stroke="rgb(195,193,191)" stroke-width="1" opacity="0.9882352941176471" d="M 261.5 183 L 262 208.5 L 261 208.5 L 261.5 183 Z " /><path fill="rgb(195,193,191)" stroke="rgb(195,193,191)" stroke-width="1" opacity="0.9882352941176471" d="M 106.5 210 L 108 210.5 L 108 262.5 L 109 263.5 L 109.5 434 L 315.5 315 L 317 321.5 L 317 332 L 312 334 L 311.5 322 L 275 343.5 L 275 355.5 L 273.5 357 L 271.5 358 L 271 347.5 L 269.5 346 L 234 367.5 L 234 379.5 L 232.5 380 L 230 381.5 L 230 370.5 L 228.5 370 L 193 390 L 193 402.5 L 190.5 405 L 188.5 406 L 188 394 L 152 414.5 L 152 426.5 L 150.5 428 L 147 429 L 146.5 417 L 105 441 L 105 414.5 L 103.5 414 L 94.5 420 L 94 415.5 L 105 409 L 105 365.5 L 102.5 365 L 94.5 370 L 94 365 L 105 358.5 L 105 322.5 L 103.5 315 L 94.5 321 L 94 316.5 L 104 311 L 103.5 266 L 94 271 L 94 266 L 95.5 266 L 104 260.5 L 103.5 217 L 94 222 L 94 217 L 95.5 217 L 106.5 210 Z " /><path fill="rgb(195,193,191)" stroke="rgb(195,193,191)" stroke-width="1" opacity="0.9882352941176471" d="M 33.5 255 L 71 277.5 L 70.5 378 L 33 355.5 L 33 265.5 L 32 263.5 L 33 260.5 L 33 258.5 L 33.5 255 Z " /><path fill="rgb(195,193,191)" stroke="rgb(195,193,191)" stroke-width="1" opacity="0.9882352941176471" d="M 177.5 290 L 178 297.5 L 177 297.5 L 177.5 290 Z " /><path fill="rgb(195,193,191)" stroke="rgb(195,193,191)" stroke-width="1" opacity="0.9882352941176471" d="M 405.5 293 L 404.5 295 L 405.5 293 Z " /><path fill="rgb(195,193,191)" stroke="rgb(195,193,191)" stroke-width="1" opacity="0.9882352941176471" d="M 422.5 298 L 423.5 300 L 422.5 298 Z " /><path fill="rgb(195,193,191)" stroke="rgb(195,193,191)" stroke-width="1" opacity="0.9882352941176471" d="M 398.5 305 L 397.5 307 L 398.5 305 Z " /><path fill="rgb(195,193,191)" stroke="rgb(195,193,191)" stroke-width="1" opacity="0.9882352941176471" d="M 349.5 381 L 350.5 383 L 349.5 381 Z " /><path fill="rgb(195,193,191)" stroke="rgb(195,193,191)" stroke-width="1" opacity="0.9882352941176471" d="M 326.5 385 L 325.5 387 L 326.5 385 Z " /><path fill="rgb(195,193,191)" stroke="rgb(195,193,191)" stroke-width="1" opacity="0.9882352941176471" d="M 33 468 L 38.5 470 L 72 490.5 Q 71.2 495.8 74 497.5 L 72.5 498 L 35 475.5 L 33 468 Z " /></svg>